<svg id="Layer_1" data-name="Layer 1" xmlns="http://www.w3.org/2000/svg" viewBox="0 0 320 320"><defs><style>.cls-1{fill:#0f0e12;}.cls-2{fill:#08080a;}.cls-3{fill:#1a191f;}.cls-4{fill:#040406;}.cls-5{fill:#0a0606;}.cls-6{fill:#1b191c;}.cls-7{fill:#724b3d;}.cls-8{fill:#252021;}.cls-9{fill:#bf8668;}.cls-10{fill:#63473e;}.cls-11{fill:#976957;}.cls-12{fill:#88604c;}.cls-13{fill:#df9d83;}.cls-14{fill:#855448;}.cls-15{fill:#4c4d56;}.cls-16{fill:#57342c;}.cls-17{fill:#865b4b;}.cls-18{fill:#825c49;}.cls-19{fill:#44444d;}.cls-20{fill:#17181b;}.cls-21{fill:#3c3b46;}.cls-22{fill:#37383f;}.cls-23{fill:#1a1923;}.cls-24{fill:#1e1b21;}.cls-25{fill:#020202;}.cls-26{fill:#a05e87;}.cls-27{fill:#c7c6da;}.cls-28{fill:#26252a;}.cls-29{fill:#c471a3;}.cls-30{fill:#765d6e;}.cls-31{fill:#3d112d;}.cls-32{fill:#c78eb4;}.cls-33{fill:#c283a3;}.cls-34{fill:#090303;}.cls-35{fill:#775b53;}.cls-36{fill:#d48db9;}.cls-37{fill:#dde1ea;}.cls-38{fill:#17110d;}.cls-39{fill:#35241d;}.cls-40{fill:#714e3c;}.cls-41{fill:#523528;}.cls-42{fill:#684534;}.cls-43{fill:#c88661;}.cls-44{fill:#43322f;}.cls-45{fill:#3c2f29;}.cls-46{fill:#b9866a;}.cls-47{fill:#6c4c3e;}.cls-48{fill:#63493b;}.cls-49{fill:#d99777;}.cls-50{fill:#f7f6f7;}.cls-51{fill:#79574d;}.cls-52{fill:#f3ecf4;}.cls-53{fill:#b47b65;}.cls-54{fill:#734e40;}.cls-55{fill:#ca8d75;}.cls-56{fill:#bd8161;}.cls-57{fill:#a86e57;}.cls-58{fill:#7f4d43;}.cls-59{fill:#8b5e49;}.cls-60{fill:#6a483a;}.cls-61{fill:#754f38;}.cls-62{fill:#f6b9a2;}.cls-63{fill:#eaaa88;}.cls-64{fill:#f4b797;}.cls-65{fill:#e8a88a;}.cls-66{fill:#d7937a;}.cls-67{fill:#977263;}.cls-68{fill:#f0b59e;}.cls-69{fill:#da9884;}.cls-70{fill:#e19d86;}.cls-71{fill:#895141;}.cls-72{fill:#4d2d23;}.cls-73{fill:#c1957d;}.cls-74{fill:#a67961;}.cls-75{fill:#de9b7c;}.cls-76{fill:#f5b396;}.cls-77{fill:#c99276;}.cls-78{fill:#e7a487;}.cls-79{fill:#eeae90;}.cls-80{fill:#f8c2a9;}.cls-81{fill:#884e3c;}.cls-82{fill:#f6c2ac;}.cls-83{fill:#e5af93;}.cls-84{fill:#4a2a20;}.cls-85{fill:#804f3d;}.cls-86{fill:#e04ca1;}</style></defs><path class="cls-1" d="M245.33,164.33c3.18,11.26,2.31,22.55-.86,33.52-2.61,9-4.94,18.11-8.45,26.83-.36.89-.79,1.74-1.18,2.61a1.9,1.9,0,0,1-.75-1.79,24.35,24.35,0,0,1,1.76-9.09,5.29,5.29,0,0,0-4.37,4.8c-.11,1,0,1.94-.12,2.91-.39,3.46-1.36,4.34-4.85,4-2-.2-3,.71-3.6,2.54-.67,2.12-.2,4.24-.16,6.35,0,1.77.4,3.72-1.85,4.34-2,.56-2.87-1.14-3.79-2.49a9.83,9.83,0,0,0-1-1.43c2.19,4.19,1.7,8.85,1.52,13.16-.21,4.94-3.24,9-7.86,11.45a5.45,5.45,0,0,0-2.21,2.35c-1.92,3.07-4,6.2-7.53,7.69-3,1.24-5.49,2.73-6.09,6.28a3.43,3.43,0,0,1-3.08,3.06c-2.31.24-4,2.13-6.61,1.88-1.41-.14-2,1.62-2.21,3-.68,4.65-3.43,7.38-7.82,8.71-3,.91-5.42,2.5-5.8,6L144,301c-1.48-2.13-4.08-3.45-4.56-6.3.17-1.21-1.17-2.65.64-3.62s3.24.24,4.48,1.26c.49-.28.53-.59.41-.84-1.6-3.23-1.61-3.23,1.34-5.91a4.2,4.2,0,0,0,.92-1.45,24,24,0,0,1,4.59-7,3.74,3.74,0,0,0,1.27-2.83c-.13-3.42,1.25-6.43,2.43-9.5.43-1.13,1-2.36,2.31-2.28,1.62.1,1.26,1.66,1.49,2.73a2,2,0,0,0,.51,1.32c1.9-2,2.2-3.83.94-6.08-.47-.84-1.21-1.64-.4-2.62s1.6-.29,2.38,0a2.3,2.3,0,0,0,2.78-1,6.18,6.18,0,0,0,1.39-2.53c1.24-5.92,4.78-10.56,8.57-15a32.76,32.76,0,0,0,5.9-9.59c.54-1.38.84-3.39,2.77-3.27s1.54,2.32,2.24,3.62c.37-.57.21-1.17.29-1.72.51-3.44.86-3.73,4.31-3.33a7.81,7.81,0,0,0,1.44.14c.67,0,1.49,0,1.73-.76s-.44-1-.92-1.3A4.66,4.66,0,0,1,191,219.3a6.72,6.72,0,0,0-1.39-3.45c-1-1.34-.93-2.5.72-3.33,1.86-.93,2.95-2,.82-3.87a1.39,1.39,0,0,1-.14-1.87c.73-1.21,1.84-.75,3-.71-2.91.09-3.05-1.86-3-3.9.05-3.74,1.37-7.22,2.31-10.77a6.65,6.65,0,0,0-.66-5.69c-.36,7-1.86,13.63-2,20.42-.05,3.06-1.78,5.67-3.05,8.36a2.83,2.83,0,0,1-3.22,1.45c-2.32-.3-4.65-.11-7-.2a4,4,0,0,0-3.93,2.38c-2.09,3.51-1.91,7.45-2.52,11.25-.59,3.62-.56,7.47-1.76,10.84-2.1,5.92-5.65,11-12,13.34-1.89.7-3.36,1.8-3.49,4.16a5.08,5.08,0,0,1-3.14,4.54,8.49,8.49,0,0,0-4.43,5.15c-.52,1.55-1.14,3-3.11,2.88s-2.94-1.66-3-3.33c-.14-3.43-2.6-5.09-4.87-6.82-2.11-1.61-3.31-1-3.85,1.55s-2.68,3.43-4.68,1.61-2.87-3.76-2-6.5c1.12-3.39,0-4.77-3.5-4.94a2.77,2.77,0,0,1-2.85-2c-.32-1.34.7-2.08,1.62-2.84s1.84-.29,3-.42a2.17,2.17,0,0,0-2.52.13c-2,1.27-3.05.28-3.18-1.59-.29-4.11-1-8.2.39-12.35A28.23,28.23,0,0,0,119,219.85c-.11-.82-.13-1.9-1.29-2-.94-.07-1.27.77-1.54,1.5a2.62,2.62,0,0,1-3.12,2c-1.75-.3-1.6-1.66-1.53-3,0-.39.11-.88-.16-1.12-3.89-3.57-2-8.49-3-12.74-.08-.37,0-.77-.13-1.15s-.22-1-.73-1.17-.78.36-1.08.72c-1.83,2.21-2.39,2.12-3.59-.55-.24-.53-.42-1.09-.64-1.63-.39-1-.54-2.29-1.89-2.25a2.81,2.81,0,0,0-2.8,2.17A7,7,0,0,1,94,205.73a3.9,3.9,0,0,0-1.54,3.32c-.27,3.73-3.14,5.88-5.09,8.59a1.17,1.17,0,0,1-1.8.18c2.07-11,4.34-22.09,8.18-32.65,2.52-6.91,2.72-14.17,4.35-21.19a6.18,6.18,0,0,0,.11-2.6c-2-9.06,2.14-16.89,5.53-24.63s11.13-11.54,18.22-15.52a34.07,34.07,0,0,1,4.84-2c5-1.85,10.45-3.18,12.69-9,2.37-.39,2.74,0,3.3,3.34a172.34,172.34,0,0,1-.6,17.28c.12-1.06.06-2.26,1.29-2.75,1.29.28,1.16,1.34,1.25,2.28a29.76,29.76,0,0,0-.5,4.11,11.59,11.59,0,0,1-.25,2.2c-.18.67-.38,1.33-.59,2-.33.83-1,1.51-1,2.47a11.28,11.28,0,0,0,.35,5.29c.33,1-.25,1.88-.5,2.79a42.07,42.07,0,0,0-2.05,6.2c.42-2.23,1.49-4.24,2.16-6.4,1.55-3.49,1.73-7.51,4.11-10.68,2.23-1.59,2.17-4.41,3.49-6.5,2.61-4.13,6.58-6.1,11.08-7.34a4.45,4.45,0,0,1,1.66,2.62c1.45,4,5,4.69,7.94,1.51.53-.56.76-1.35,1.43-1.8,1.9-.18,3.53.84,5.32,1.18.85.15,1.67.51,2.53.67,3,.53,3.11.21,4.15-2.59,2-5.46,3.63-11,5.45-16.56a61.06,61.06,0,0,0,2.06-6.35c.14-.64.2-1.47,1-1.66.95-.25,1.28.64,1.76,1.23a10.06,10.06,0,0,1,2.39,6.35,24.21,24.21,0,0,0,3.3,10.91c.9,1.67.68,3.66-1.22,4.45-4.4,1.84-6.92,5.74-10,8.93-5.58,5.78-10.49,12.19-15.91,18.12-2.47,2.7-3.29,6.07-4.77,9.18-.5,1-.93,2-2.27,1.71s-1.32-1.44-1-2.54c.16-.56.55-1.24.22-1.68-1.85-2.44,0-4.11,1.11-6,1.8-2.92,4.32-5.23,6.55-7.77a87.7,87.7,0,0,0,8.4-11.35c-3,.21-5.57.49-8-.77-1-.51-1.72.52-2.25,1.39-8.83,14.66-16.43,29.88-21.34,46.34-.55,1.83-.31,7,.48,8.49a25,25,0,0,0,2.71-6.39c1.45-5.45,1.94-11.05,3-16.56.62-3.23,1.89-4.29,4.54-4.32,3.19-.05,4.94,2.38,3.12,5-2.14,3-2,6.11-1.65,9.41.13,1.1.28,2.24,1.23,2.85,2,1.24,2.33,2.91,1.79,5-.18.72-.34,1.63.4,2.15s1.4-.25,2-.61c1.76-1,3.26-2.07,3-4.46-.14-1.55-.2-3.26,1.69-3.91s3.4,0,4.28,2c1.63-1.42,3.06-2.54,1.64-4.74-.72-1.13,0-1.83,1.1-2.13,1.41-.39,2.85-.8,4.24,0s2.19.16,2.4-1.24c.26-1.71.73-3.06,2.64-3.72,1.26-.44,1.25-2.09,1.81-3.2a3.44,3.44,0,0,1,3.27-2c1.3,0,1.8.92,2,2,2.07-6.85,4-13.88,7.41-20.35a6,6,0,0,1,.33-.79c.93-1.8,1.8-3.64,2.74-5.45a17.86,17.86,0,0,1,3-4.23c.54-.56,1.28-1.14,2-.51s.21,1.3-.14,1.87a35.45,35.45,0,0,0-2.19,4.72A56.5,56.5,0,0,0,205,151.86a60.6,60.6,0,0,1-2.93,11.57c2.76-1.87,6-1.43,8.92-2.27,6.12-1.77,10.5-5.31,12.4-11.54a19.5,19.5,0,0,1,1.5-3.77c1.56-2.89,1.86-5.63-.61-8.27a2.58,2.58,0,0,1-.16-3.69c1.12-1.3,2.43-.84,3.71-.25a18.52,18.52,0,0,1,4.79,3.7c1.08,1,2.18,2.56,3.74,0,1-1.73,2.89-.5,3.83.76,1.76,2.34,3.15,4.94,2.67,8a6,6,0,0,0,.75,4.44,5.87,5.87,0,0,1,.71,4.77C243.2,158.6,245.35,161.31,245.33,164.33Z"/><path class="cls-2" d="M85.55,217.82c2.82-2.25,5.5-4.64,6.06-8.46.34-2.28.62-4.38,3.34-5.15a2.46,2.46,0,0,0,1.53-2.61c-.09-1.68.5-2.51,2-3.29,2.51-1.27,3.35-1.1,4.18,1.6a7.34,7.34,0,0,0,.69,1.89c.51.76.16,2.3,1.39,2.27s.62-1.44,1-2.15.74-1.21,1.49-1.25a1.33,1.33,0,0,1,1.34,1.3,80.78,80.78,0,0,1,1,10.48c0,1.44-.06,2.5,1.23,3.1,1.51.71,2.06,1.59,1.35,3.2-.37.83-.44,1.82.83,2s2.32-.06,2.36-1.46c.06-1.94,1.12-2.57,2.79-2.52,1.9.05,1.2,1.63,1.41,2.63,1.07,5.08-.13,10-1.58,14.75-1.19,3.92,0,7.73-.08,11.58,0,1,.9,1.42,1.91.68a4.57,4.57,0,0,1,2.62-1.13,1.46,1.46,0,0,1,1.57,1,1.75,1.75,0,0,1-.11,1.36c-.62.79-1.11.14-1.66-.27-1.09-.81-2-.34-2.77.58-.53.65-1.26,1.4-.4,2.28a2.29,2.29,0,0,0,2.54.91c.64-.21,1.2-1.73,1.76-.66.69,1.29,2.55,1.64,2.52,3.37a6.49,6.49,0,0,1-.4,3.12,5.09,5.09,0,0,0,2,6.18c1.76,1,2.87.39,3.11-1.7.12-1.09-.6-2.9.62-3.1a5.14,5.14,0,0,1,4.58,1.11c2.16,2.2,5.25,3.72,5,7.64a2.19,2.19,0,0,0,2.19,2.56c1.69,0,1.91-1,2.32-2.33.83-2.64,2.34-4.94,5.14-5.88A3.42,3.42,0,0,0,153,258c-.38-3.26,1.76-4.37,4-5.13,4.92-1.68,7.63-5.53,10.21-9.62s2-9.13,3-13.7c.88-4.32.63-8.86,3.22-12.77.7-1.06,1.3-1.82,2.69-1.76,2.8.12,5.62,0,8.41.26,1.39.13,2.2-.06,2.7-1.4,1.26-3.33,3-6.39,2.94-10.26,0-6.34,1.65-12.59,1.78-19,0-.22.33-.44.55-.7,3.58,3.77,1.58,7.78.51,11.65a25.81,25.81,0,0,0-1.19,5.92c-.06,1.88-.7,4.25,2.7,3.9.5-.06,1.79.31,1.46,1.35s-1.21.64-2,.34-1.82-1.33-2.49,0c-.77,1.54.87,1.23,1.51,1.74,1.28,1,.34,3.66-1.82,4.26s-2,1.47-.66,2.65a4.13,4.13,0,0,1,1.29,3.37c0,1.63.44,3,2.3,3.58.93.27,1.88,1,1.56,2.11s-1.41,1.19-2.4,1.25a9.2,9.2,0,0,1-1.74,0c-3.73-.52-4.41.09-4.15,3.9.06.8.82,1.9-.3,2.19s-1.23-1-1.53-1.79c-.47-1.16.22-3.28-1.52-3.29-1.42,0-1.5,2.06-1.91,3.29-1.57,4.61-4.8,8.07-7.76,11.75s-5.64,7.38-6.44,12.14a8,8,0,0,1-1.93,3.53c-1,1.28-2.31,2.19-3.89.62-.43-.43-.92-.83-1.43-.14a.89.89,0,0,0,.29,1.28c3,2.15,1.07,4.67.55,7.08-.17.79-.66,1.65-1.46,1.57s-1.29-1-1.44-1.93.62-2.91-.62-3.07c-1.74-.23-1.41,1.89-2,3a16.39,16.39,0,0,0-2,8.93,2.68,2.68,0,0,1-1,2.3c-2.46,2.18-4.43,4.68-5,8.05-.19,1.16-1.26.93-2,1.27-1.6.72-2.78,1.68-.83,3.38a4.92,4.92,0,0,1,1,1.35,1.57,1.57,0,0,1-.57,2c-1,.83-1.39-.06-1.82-.62s-.71-1.53-1.62-1.51c-1.2,0-3-.27-1.82,2a1,1,0,0,1-.46,1.45c-1.69,0-2.14-1.37-2.63-2.56-.4-1-.73-2-1.93-2.2a3.24,3.24,0,0,0-2.44-.75c-3.36,1-6.73-.54-10.08.15a2,2,0,0,1-2.49-1c-1.07-2.52-2.91-5-.78-7.89-3.43-.26-4.9-1.59-5.29-4.69-.07-.57.09-1.27-.21-1.71a9.46,9.46,0,0,1-.94-9.84c.43-.95-.39-1.62-1.26-2a3.17,3.17,0,0,1-2.1-2.9c-.1-4.86-1.64-9.5-2.1-14.33-.52-5.4.08-10.61.61-15.89s.27-10.27-3.37-15.27c0,5.32-.82,10.13.64,14.9a6.3,6.3,0,0,1,.68,2.49c-.1,1-.44,2-1.78,1.71-2.31-.47-1.92,1.44-1.16,1.89,2.71,1.6,1.69,3.95,2,6.21a71.09,71.09,0,0,1,.59,9.53,14.79,14.79,0,0,1-.6,5.45,3.17,3.17,0,0,0,.07,2.56c2.47,4.91,3.17,10.34,4.58,15.56,1,3.56,2,7.07,3.27,10.54s1.06,3.8-2.21,5.17a3.52,3.52,0,0,0-1.69,1.49c-2.35,1.17-4.94,1.64-7.37,2.55a19.13,19.13,0,0,0-3,1.35c-3.18.75-3,3.34-3.16,5.75l-5.81,0c-1.3-3.75-1.54-7.71-2.28-11.57A136.26,136.26,0,0,1,85.28,265c0-1,.11-1.93.18-2.89.25-3.41,1.41-6.94-1.07-10.06a.9.9,0,0,1-.17-.55c.22-5.84-1.83-11.6-.53-17.48.57-2.59,1.11-5.12,3.51-6.74a1.85,1.85,0,0,0,.86-2.26,2,2,0,0,0-2-1.42c-2.88.07-3-1.39-2-3.49Z"/><path class="cls-3" d="M245.33,164.33c-1.14-1.86-.46-4.59-2.84-5.9-.33-.19,0-.91.39-1.27,2-2.22,1.45-4.42-.07-6.58a4.25,4.25,0,0,1-.69-4.07c1.08-3.37-1.1-5.88-2.71-8.47a2.13,2.13,0,0,0-2-.89c-1.1.15-.81,1.14-.85,1.87-.07,1.24-.47,1.61-1.59.8-1.3-.95-2.87-1.44-3.83-3s-2.69-2.12-4.24-2.9c-.88-.44-1.65-.53-2.31.34a1.83,1.83,0,0,0,.07,2.64c3.81,3.3,2.2,6.62.56,10.33-.91,2-2.67,4.08-1.87,6.69.2.63-.29.88-.7,1.08-2.64,1.31-4.54,3.56-6.81,5.33-1.94,1.52-4.4,1.62-6.57,2-2.93.53-5.82.73-8.26,3,.85-4.41,2.54-8.34,3.15-12.61a62.6,62.6,0,0,1,3.85-15c.71-1.74,2.09-3.13,2.77-5.52-4.1,2.92-4.9,7.38-7.38,10.68-1-1-.62-2.16-.33-3.27a18.68,18.68,0,0,0,.77-3.68c.11-2.51,1.12-4.25,3.8-4.7a3,3,0,0,0,1.79-.91,2.55,2.55,0,0,0,.23-3.45c-.84-1.06-1.72,0-2.5.46a7.14,7.14,0,0,0-1.35,1.1c-1.3,1.31-2.56,1.77-4.33.56a2,2,0,0,0-3.31,1.88c.17,4.32-.69,8.58-.68,12.9,0,1.11-.15,2.22,1,2.75,1.38.62,1.8-.62,2.43-1.44s1.06-1.93,2.43-1.62c-3.66,7-5.49,14.72-8.32,22.78-.7-2,.18-5-3.09-3.58a2.94,2.94,0,0,0-1.47,1.63c-.79,1.59-.26,4.39-3.49,3.95-.6-.08-.48.94-.49,1.48a7.61,7.61,0,0,1-.93,3.32c-.27.52-1,1.48-1.52.65-1.76-2.64-3.89-1.09-6.48-.89,4.71,4-.45,5.22-1.38,7.75-1.1-.65-.7-1.7-1.16-2.43-.76-1.19-1.82-.94-2.85-.82a1.47,1.47,0,0,0-1.35,1.89c1,3.8-1.28,5.71-4,7.45a2.58,2.58,0,0,1-2.2.35c-1-.31-.79-1.23-.78-2a9.58,9.58,0,0,1,.31-2.57c.36-1.18.32-2.1-.94-2.64-1.91-.82-2.12-2.44-2.35-4.27-.43-3.53-.55-6.81,2.09-9.75a2.33,2.33,0,0,0-.75-3.53,4,4,0,0,0-5.35,1.88c-1.22,3.29-1.16,6.82-1.72,10.23a71,71,0,0,1-4.23,15.15c-.35.88-.91.94-1.52.26a4.21,4.21,0,0,1-1.23-2.87,34.54,34.54,0,0,1,2.34-12.51c2.3-5.85,4.59-11.69,6.92-17.52,2.8-7,7.28-13.13,10.79-19.77.41-.76.78-1.54,1.17-2.31,2-4,2.06-4,6.15-2.14,1.62.76,3-.62,4.52-.27.71.16,1.73-.39,2.07.53s-.59,1.28-1,1.91c-4.46,7.14-11,12.63-15.55,19.69-.52.81-1.83,1.6.12,2.67,1.06.57.44,2.07-.29,3.09-.43.6-.63,1.31.29,1.65.71.26,1.38.09,1.55-.79,1.17-5.75,4.87-10,8.56-14.18,4.65-5.3,9.36-10.54,14-15.84,1.62-1.85,4.22-2.77,4.88-5.54.28-1.17,1.71-.55,2.55-.92,1.17-.52,2.34-1,2.62-2.47s-.3-2-1.63-2.17a.83.83,0,0,1-.5-.61c.63-4.21-2.71-7.76-1.93-12,.46-2.49-2.86-3.06-2.72-5.49-3.16,8.2-5.09,16.59-8.48,24.48-.08.18-.26.42-.21.53,2.15,4.4-1.44,2.81-3,2.72-3.26-.17-6.33-1.35-9.38-2.48-2.19-.15-3.28-1.85-4.54-3.28-2.52-2.86-2.64-2.87-5.11,0a2.33,2.33,0,0,1-1.4,1c-4.33,2.32-9.3,3.88-11.27,9.09-.67,1.78-.64,3.91-2.76,4.85-1-1.85.17-3.47.55-5.17,1.59-3.05,3.45-5.87,6.65-7.5,5.29-3.77,9.45-8.72,13.86-13.4,1.24-3,3.55-5.1,6.09-7,2.13-2.38,5-3.93,6.83-6.69A12.12,12.12,0,0,0,183,94c.31-1.3.57-2.62,1-3.9.26-.84.36-2.08,1.84-1.42,1.25,3.7,3.6,6.83,5.23,10.33a3.07,3.07,0,0,0,1.85,1.72c3.24,1.1,5.58,3.33,7.79,5.84,2.6,3,6.34,4.08,9.88,5.29a72.67,72.67,0,0,1,20.56,10.49A30.08,30.08,0,0,1,243,141C244.63,148.69,245,156.5,245.33,164.33Z"/><path class="cls-4" d="M168.44,301a2.81,2.81,0,0,0-.71-2.14c-.36-.42-.35-1.25,0-1.25,2.33-.05,3-2.61,5.23-3.07,4.7-1,8-3.47,8.35-8.82.17-2.49,2-3.6,4.44-3.11.74.15,1.05-.24,1.48-.6a4.66,4.66,0,0,1,3.15-1.28c2.13,0,2.78-1.42,3-3.15.35-2.27,3.51-5.8,5.85-6.09a3.6,3.6,0,0,0,2.92-1.61c1.44-2.51,5.05-3.56,4.8-7.23-.05-.72.78-1,1.5-1.12,3.75-.75,5.63-3.7,7-6.73,2.65-5.73,1.66-11.56-.32-17.29a1.79,1.79,0,0,1,.07-1.77c1.83.2,1.8,2,2.61,3.06s1.22,2.44,2.79,2c1.78-.45,1.36-1.89,1.34-3.29,0-2.56-.62-5.11.27-7.7.73-2.18,2-2.95,4.11-2.62,3.46.53,4.13,0,4.28-3.61.09-2.18-.25-4.28,1.69-6.14,2.24-2.14,2-2.36,5.74-1.59-4.06,3-3,7.37-3.27,11.36v0c-2.74,3.51-3.6,7.84-5.11,11.88-1,2.8-1.84,5.7-3.59,8.19-.5.71-1.08,1.6-.24,2.35,3.39,3,3.15,7.36,3.83,11.25,1.72,9.8,1.49,19.78,2.4,29.66.26,2.78.74,5.53,1.2,8.28.13.81.28,1.51-.33,2.16Z"/><path class="cls-5" d="M174.86,27.58c2.44,2,3.75,4.84,5.25,7.52a1.59,1.59,0,0,1,.31,1.34c-1.25,2.72-.09,5.17.74,7.66a2.73,2.73,0,0,1-.23,2c-.32.91-1.74-.51-2,1-.09.58-.93,0-1.28-.5-.53-.69-.48-1.64-1-2.37-.54,2.3-2,1.84-3.51,1.25a3.76,3.76,0,0,0-2.6-1.07c-1.17-2.91-4.21-2-6.29-3-.45-.22-1.12,0-1.65-.28-.77-.56-1-2.05-2.64-1-1.49,1-1.91-1-2.7-1.77-1.58-1.23-3.33-2.27-3.82-4.48-.33-1.49-1.44-1.6-2.72-1.09a8.53,8.53,0,0,0-2.06,1,8.24,8.24,0,0,1-9.9-.31.92.92,0,0,1-.18-.54,35.84,35.84,0,0,0,1.94-5.29c.59-2.54,3.34-2.74,5.39-3.49.85-.31,1.89-.12,2.77-.56a23.05,23.05,0,0,0,2.51-.64c3.77-2,7.13-.33,10.31,1.39,2.79,1.51,2.67,1.74,4-1.05a1.43,1.43,0,0,1,1.19-.17c.83.43,1.46,1.2,2.51,1.25.82.05,1.65.61,1.6,1.37-.09,1.32.1,1.34,1.13.67C173.24,25.65,173.82,27.36,174.86,27.58Z"/><path class="cls-6" d="M148.67,24.12c-.46,1-1.11.94-2.12.78-2.15-.32-3.51,1.73-5.44,2.2,1,1.79-1,2.93-1,4.48,0,.93-.88.88-1.36,1.27-.23.49-.22,1.13.32,1.19,2.76.27,3.52,3.46,6.07,4.06.52.13.55.95.53,1.55a2.47,2.47,0,0,1-.24.8,1.87,1.87,0,0,1-.94.81c-1.36-.35-5.84.54-7.12,1.41-.48.33-1.1.39-1.56.75-1.15.88-1.86,2.16-2.93,3.1-1,.46-2.14.76-2.63,2-.31.75-1,.84-1.76,1.09a3.33,3.33,0,0,0-1.79,3.53,4.43,4.43,0,0,1-.15,1.15c-.16.52-.24,1.25-1,1.19s-.76-.76-.83-1.34a6.72,6.72,0,0,0-.16-1c-.81,3.12-1.49,6.42-.72,9.78-.35,1.88,1,4.24-1.54,5.5-6.15-9.39-3.19-18.59.59-27.77.63-1.52,1.36-3,1.91-4.56A19,19,0,0,1,131.63,27,12.07,12.07,0,0,1,140,23.31c-1.22-.58-3.18,1.43-4-.85a6.86,6.86,0,0,1,4-1.3c2.36-.24,4.74.3,7.07,0,1.67-.22,1.47,1.1,2,1.86A1.07,1.07,0,0,1,148.67,24.12Z"/><path class="cls-7" d="M101.53,293.55a19.09,19.09,0,0,1,7.57-2.33c1.8-1.28,3.64-.76,5.48-.12,1.54.77,2.89,1.88,4.49,2.57a6.56,6.56,0,0,1,1.83,1.4c2.12,2.45,2.08,2.41,4.53.11a18.93,18.93,0,0,1,10.38-5.25c1.41-.33,1.5.81,1.78,1.65a5.7,5.7,0,0,0,2.21,3.2c.83,2.46,4.08,3.28,4.21,6.22l-11.61,0a12.19,12.19,0,0,1-1-2.07c-1.23-2.67-2.75-2.86-4.68-.58-.8.93-1.26,2.17-2.52,2.65h-7.56a2.43,2.43,0,0,1-.33-.46c-.68-1,1.76-2.61-.67-3.28s-5.49,0-6.56,1.51a8,8,0,0,1-1.77,2.22h-4.07c-.92-.85-1.27-2.1-2.17-3C99.37,296.4,99.78,294.9,101.53,293.55Z"/><path class="cls-8" d="M173.1,45c3,1.3,3.27-.23,2.44-2.83,2.63.84,1.71,3.33,3.07,4.81.14-1.93,1.12-1.24,2-.8,1-.95,2.32-.65,3.41-1.15.62,3.65,1.4,7.29,1.75,11,.13,1.4.82,2.72.59,4.15-.52,1.41-1.75,2.21-2.77,3.18a17.76,17.76,0,0,1-2.48,1.21,2.57,2.57,0,0,1-2.65-2.19c-.38-1.45.81-1.66,1.79-2.11.82-.37,1.12-1.26,1.53-2.52-2.2,1.71-3.44.73-4.61-1-1.39-2-3.77-2.64-5.79-3.76a8.37,8.37,0,0,1-3.31-2.45,3.51,3.51,0,0,1-.76-1.5,2.11,2.11,0,0,1,.31-1.61,5.66,5.66,0,0,1,4.43,1c.31-1.13,0-2.26.7-3.14Z"/><path class="cls-9" d="M185.84,88.69c-1.76.28-1,1.86-1.36,2.8a23.67,23.67,0,0,0-.9,3A17.21,17.21,0,0,1,180,100c-1.21,1.11-2.64,1-3.85,1.76a62.18,62.18,0,0,0-7.71,5.13,7.58,7.58,0,0,1-2.41,1.56c-3.35,1.06-4.29.37-4.17-3.18a3.83,3.83,0,0,0-.56-1.91c.79-3.2,3-4.68,6.64-5.38,3-.59,6.2-.36,9.07-2,2.17-1.21,3.92-2.28,3.58-5.18-.1-.86.55-1.83.75-2.77a29.42,29.42,0,0,0,.77-4.15c.08-.92.26-1.69,1.37-1.79,1.5.59.61,2.07,1.11,3C185,86.34,185.43,87.52,185.84,88.69Z"/><path class="cls-1" d="M84,220.14c.07,1.4-1,3.56,2.19,2.53,1.45-.47,2.5,1,3,2.27a2.2,2.2,0,0,1-1.42,3,4,4,0,0,0-2.57,3.54c-.46,2.76-2.12,5.42-1.6,8.21.56,3,1.57,5.74.67,8.94-.34,1.23.44,3.21,1.62,4.62,2.45,2.91.22,6.13.25,9.2,0,3.81-.25,7.59-.06,11.43.41,8,2.36,15.78,3.26,23.7.13,1.15.37,2.28.56,3.42-.73.14-1-.17-1.06-.91-1.29-9.77-3.71-19.42-3.78-29.33-.09-13.86-2.75-27.54-2.59-41.43C82.51,226.07,81.74,222.93,84,220.14Z"/><path class="cls-10" d="M142.23,113.61c-.75-1.26-.24-3.55-2.76-3.34.53-2.2-1.94-2.48-2.53-4-.11-.8-1.33-1.53-.52-2.3s1.75.06,2.55.53c2.44,1.45,4.81,3.13,7.91,2.59,3.83-.32,7.66.32,11.51-.57,2.1-.48,2,1.1,1,2.5a10.75,10.75,0,0,1-3.7,1.49c-.7.23-1.81.27-1.78,1.16,0,1,1.19,1.08,2,1.28a18.87,18.87,0,0,1,3.11.52,1.38,1.38,0,0,1,.91,1.35,3.15,3.15,0,0,1-2.47,2.13c-1.24,0-2.54-1-3.62.69-.71,1.11-1.68.28-2.45-.36a12.47,12.47,0,0,0-5.38-2.91c-.31,1.27,1.84,2.68-.19,3.76a2.13,2.13,0,0,1-2.13-1.12A6.79,6.79,0,0,1,142.23,113.61Z"/><path class="cls-11" d="M134.6,104c-6.21-5.47-7.92-12.94-9.15-20.61-.3-1.9-.56-3.81-.84-5.71,1-1,.07-3,2-3.43,2-.18,4,1.67,6,0a2.43,2.43,0,0,1,2.17.32c0,2.52-1.44,3.69-3.71,4.13-.84,0-1.6-.66-2.71-.28.75,5.07,1.82,10,4.37,14.58a30.19,30.19,0,0,1,3.06,7.73C135.39,101.84,135.42,103.08,134.6,104Z"/><path class="cls-1" d="M233,301c-1.67-10.08-1.76-20.28-2.41-30.44a79.54,79.54,0,0,0-3.15-17.2c-.36-1.22-.29-2.75-2.58-2.73-1.09,0-.66-2,0-2.92a49.23,49.23,0,0,0,6.73-16.29,5.73,5.73,0,0,1,3.28-4.19,10.87,10.87,0,0,1-1.61,4.61c-4.07,6.74-4.44,14-3.62,21.58,1.27,11.82,2.06,23.69,2.79,35.56.21,3.36,1.05,6.67,1.5,10C234,299.74,234.88,301.08,233,301Z"/><path class="cls-12" d="M126.56,74.72a2.35,2.35,0,0,0-.85,2.52c.27,1.14-.71.33-1.1.46-.65-.68-.41-1.52-.42-2.32-.68-1.31-.36-3-1.55-4.13a5.87,5.87,0,0,1-.27-2.79c1.51-1.83.32-4,.7-5.94.56-.91.14-1.83.11-2.76-.05-1.43-.1-2.75,2.1-2.9,2.58-.16,1.59-2.85,2.44-4.28a11.73,11.73,0,0,1,3.48-4.3c1.06.19,1.26,1.09,1.56,1.9a2.88,2.88,0,0,1-1.58,3.37,3.19,3.19,0,0,0-1.85,3c.26,2.34.92,4.57-.36,6.93-.55,1,.83,1.21,1.69,1.31a2.09,2.09,0,0,1,1.15.46,1,1,0,0,1,.08.79,6,6,0,0,1-3.56,1.63c-1.67.07-1.86,1-1.51,2.28A7,7,0,0,1,126.56,74.72Z"/><path class="cls-13" d="M184.6,85.16l-1-2.87a1.21,1.21,0,0,1-.38-.43c-.62-1.38-.78-2.64,1-3.31-1.47,0-1.94-1-2.11-2.19a2.44,2.44,0,0,1,.9-2c2.55-2.68,2.54-2.69.28-5.63s-2.25-2.92.21-5.8a10.89,10.89,0,0,1,2.92-2.7c2.64,7.56,3,15-1.17,22.2A6.32,6.32,0,0,0,184.6,85.16Z"/><path class="cls-14" d="M107.34,301c1.52-4.2,5.41-6,9.43-4.39,1.08.44,1.91,1.15.63,2.31a2.41,2.41,0,0,0-.73,2.09Z"/><path class="cls-15" d="M166.69,23.6l-1.14,0c-2.26,0-4.26-1.13-6.43-1.44a19,19,0,0,0-8.12.27c-1.59,0-3.05-.08-2.34-2.35.35-.15.74-.48,1.06-.43,5.58.92,11.47-1.23,16.87,1.87,2.06,1.18,4.58,1.55,6.06,3.7-.68.77-1.42.47-2,0A10.2,10.2,0,0,0,166.69,23.6Z"/><path class="cls-16" d="M101.53,293.55c-.82,1.69-1.48,3.25.68,4.62a3.05,3.05,0,0,1,1.06,2.86h-7c-1.51-3-1.33-3.43,2.37-6.29C99.56,294.22,100.31,293.32,101.53,293.55Z"/><path class="cls-17" d="M124.23,301c.5-.8,1-1.59,1.51-2.42,1-1.71,2.37-3.21,4.3-2.52s2.57,2.8,2.36,4.94Z"/><path class="cls-18" d="M134.6,104a3.38,3.38,0,0,1,.68-3.13c.48-.15.73.13,1,.48.31.64.81,1.27,1.51,1.17,3.85-.56,5.34,3.38,8.37,4.35.32.1.42.62.21,1-3.78.44-6.41-2-9.35-3.78-.75.79.32,1.48,0,2.18A7.11,7.11,0,0,1,134.6,104Z"/><path class="cls-19" d="M148.66,20c.2,1.36.89,2.08,2.35,1.75.43.6.56,1.31-.08,1.75-.87.59-1.58-.1-2.27-.59-1.72-1.72-4.1-1.12-6-1.08a6.11,6.11,0,0,1-2.78-.71C142.78,20.58,145.57,19.17,148.66,20Z"/><path class="cls-8" d="M180.63,43.91c-1.46-1.54-1.19-3.72-1.88-5.55-.31-.81,1.89-1.69,1.36-3.26,1.41,1.49,1.67,3.47,2.29,5.3S181.55,42.91,180.63,43.91Z"/><path class="cls-20" d="M166.69,23.6c1-1,1.86-.5,2.72.16a4.81,4.81,0,0,0,3.24,1.42,5.46,5.46,0,0,1,2.21,2.4c-1.38,0-3-1.66-4,.69-.17.37-.7.09-1-.18s-.62-.59-.11-1.15c1.32-1.44.44-2-1-1.77S167.19,24.34,166.69,23.6Z"/><path class="cls-21" d="M135.9,22.46c1.4,1.08,3.13,0,4.92.84-3.54.56-6.17,2.55-9.19,3.65C132.72,25.13,133.63,23.14,135.9,22.46Z"/><path class="cls-22" d="M180.63,43.91c-.44-1.69,1.92-2,1.77-3.51a12.21,12.21,0,0,1,1.65,4.67,4.1,4.1,0,0,1-3.41,1.15C180.64,45.45,180.64,44.68,180.63,43.91Z"/><path class="cls-1" d="M98.64,294.74c-1.38,1.87-4,3.28-2.37,6.29h-.56C94.41,297.19,94.83,296.29,98.64,294.74Z"/><path class="cls-11" d="M122.64,71.25c1.76.91,1.5,2.58,1.55,4.13C123,74.25,123.34,72.56,122.64,71.25Z"/><path class="cls-23" d="M203.34,143.41a5.32,5.32,0,0,0-2.19,2.6c-.55.94-1,2.4-2.5,1.61-1.3-.69-2.77-1.41-2.08-3.53,1.17-3.58-.17-7.4,1.11-11.14.42-1.23-.81-3.25.78-4.76,1.08-1,2.1-1.51,3.15-.16,1.38,1.77,2.47,1.23,3.67-.19a5.82,5.82,0,0,1,1.81-1.41c1-.5,2.08-2.51,3.2-.4.89,1.69,1.62,4.5-.63,5-7,1.59-5,7.46-6.31,11.79C203.35,143,203.35,143.22,203.34,143.41Z"/><path class="cls-24" d="M140.61,130.58c.13,1.2-.72,1.7-1.49,2.32s-1.32.25-1.84-.45a1.46,1.46,0,0,0-2.07-.34c-2,1.17-3.57,0-4.88-1.27s-1.33-2.87-.51-4.72a52.59,52.59,0,0,1,2.48-4.85c.67-1.16,1.57-2.58,3.68-2s3.64,1.41,3.88,3.63C140.15,125.42,139.56,128.07,140.61,130.58Z"/><path class="cls-25" d="M160.88,124.79c.15-.24.29-.49.46-.72,3.16-4.53,3.22-4.58,6.8-.37a41.82,41.82,0,0,0,3.79,3.41c-.1,3-2.57,3.89-4.66,4.38-2.8.64-4.41-.86-5.24-3.75C161.74,126.73,161.27,125.77,160.88,124.79Z"/><path class="cls-26" d="M148.13,133.54c-.43,1.73-.85,3.46-1.28,5.19-1.94,3.28-2.29,7.16-4,10.52-.25.37-.52.75-1,.59-.3-.1-.25-.39-.14-.64l.76-2.85c.31-1.72-.49-3.34-.41-5,0-.95,1.49-1.41.79-2.57a2.08,2.08,0,0,1,.61-1.78c1.25-.7.37-1.49.08-2.25-.36-1.46.35-2.75.63-4.11,1.13-.19,1.43.84,2,1.4S147.61,132.86,148.13,133.54Z"/><path class="cls-27" d="M142.23,113.61c1.14.67,1.3,1.93,1.79,3a8.21,8.21,0,0,1,1.48,7.81,3.48,3.48,0,0,1,0,.79,5.84,5.84,0,0,1-1,2,3.61,3.61,0,0,1-1.07,1l-1.23,3.73-.49,0c0-2.2-.14-4.42,0-6.61a82.35,82.35,0,0,0,0-10.77A.87.87,0,0,1,142.23,113.61Z"/><path class="cls-28" d="M124.85,219.31c1.12-.89,2.7-1,1.84-2.68-.23-.44.19-.89.76-1s1.13,0,1.21.48c.2,1.19.59,2.56.19,3.58s-1.69.12-2.58.06A7.2,7.2,0,0,1,124.85,219.31Z"/><path class="cls-29" d="M143.4,128.21A1.21,1.21,0,0,1,144,127c2.2-.26,2.9,1.67,3.64,3,.59,1.05-.6,2-1.79,2.36l-1.7-1.7C143.52,129.91,144.3,128.81,143.4,128.21Z"/><path class="cls-30" d="M141.65,149.2c.37.7.78.05,1.17.05-.93,2.39-1.87,4.78-2.8,7.18A15.9,15.9,0,0,1,141.65,149.2Z"/><path class="cls-31" d="M142.19,141.14c.35,1.72,1.61,3.41.22,5.21-1.72-1.63-1.06-3.54-.64-5.43l.28,0Z"/><path class="cls-32" d="M143.48,134.71a1.7,1.7,0,0,1,.89,2.57c-.45.84-.83.37-1-.32C143.43,136.21,143.45,135.46,143.48,134.71Z"/><path class="cls-33" d="M142.19,141.14a1.06,1.06,0,0,0-.42-.22,2.29,2.29,0,0,1,1-2.18C144,139.47,143.84,139.9,142.19,141.14Z"/><path class="cls-34" d="M114.84,291.86a15.91,15.91,0,0,0-5.74-.64c-.6-2.08.86-2.29,2.25-2.29,1.94,0,2.19-1.19,1.65-2.48-3.19-7.5-4.49-15.53-6.78-23.28a14.66,14.66,0,0,0-1.42-3.47c-.8-1.33-.61-2.72-.32-4.36a41.67,41.67,0,0,0,0-13.69c-.41-2.74-.3-5.05-2.57-7.1-1-.88.17-2.6,1-3.28,1.27-1,1,1.28,2,1.35,1-.69.77-1.58.3-2.51-2.73-5.34-.83-11-1.3-16.56a1,1,0,0,1,1-1.18c.6,0,.74.54,1,.95a26.52,26.52,0,0,1,2.82,17.32,51.12,51.12,0,0,0,.68,21.21,37.62,37.62,0,0,1,.83,6.28c.15,1.68,0,3.22,2.44,3.53,1.71.22,1.89,1.67,1.18,3.16-1.3,2.73-2.27,5.41.64,7.86.4.33.37,1.25.4,1.91.24,4.7,1.87,5.86,6.12,4.34a1,1,0,0,1-.35,1.28c-3.14,2.69-.53,5.27.12,7.87a1,1,0,0,0,1.35.75c3.51-1.54,7.16,1.07,10.7-.45a2.16,2.16,0,0,1,3,1.55c-4.32,2.32-9.21,3.75-12.25,8.06-.84,1.19-1.59.18-1.93-.53a9,9,0,0,0-2.65-3.29A15.74,15.74,0,0,0,114.84,291.86Z"/><path class="cls-11" d="M146.33,107.91c-3.21-.9-4.6-5.28-8.73-4.6-.21,0-2.83.35-1.72-1.82A3.33,3.33,0,0,0,137,96.94c-.52-1.1-2.34-2.13-.81-3.41a3.64,3.64,0,0,1,4.5-.07c-.51,2.94-.31,3.19,2.41,3.16,1.94.82,2.25,2,.81,3.6a1.84,1.84,0,0,0,0,2.6c3.08,3.68,12.11,4.4,15.75,1.23.5-.49,1-1.1,1.8-.8,2,.25,1.63,1.34,1,2.67-.73,1.66-.5,2.31,1.71,2.23,2.63-.1,3.87-2,5.57-3.28,3.24-2.4,6.89-4.06,10.4-5.91,2-1.06,1.61-3.5,3.41-4.43-.55,3.69-3.05,6.14-5.57,8.54-1.18,1.12-2.55,2.05-3.84,3.07-4.28,2.66-8.69,5-13.91,5-1.49,0-2.66-.16-1.73-2.1.33-.61,1.55-.88.95-1.81s-1.17,0-1.76.2C154,108.41,150.13,107.73,146.33,107.91Z"/><path class="cls-35" d="M158.53,109.06c0,1.19.3,1.37,1.67,1.4,4.6.13,8.25-2.49,12.36-3.75.55-.16,1.08-.38,1.62-.57-2.35,2-4.64,4-5.83,6.92-1.5-.79-2.77-.27-4,.71-1.47.72-2.81,2-4.68,1.11a1.64,1.64,0,0,0-1.81-1,12.46,12.46,0,0,1-3.6-.6c-.81-.22-1.79-.71-1.75-1.64s1-1.27,1.87-1.49C155.8,109.83,157.16,109.44,158.53,109.06Z"/><path class="cls-23" d="M191.75,138.88c-.29,2-1.18,3.76-3.81,3.93s-4.2,1-3.35,4.16c.53,2-2.16,3.92-4,3-1.21-.58-2.38-1.8-.88-2.88,3.73-2.69,5.2-7.13,8.36-10.21.76-.74,1-2.65,2.41-2C191.71,135.51,191.69,137.17,191.75,138.88Z"/><path class="cls-36" d="M145.81,132.3c1.75-2.28,1.51-3-1.85-5.33l1.11-1.66a18.42,18.42,0,0,0,2.22,2.47c-.67-.87-2-1.47-1.83-3,.93-2.7,1.52-3,5.7-2.63a6.91,6.91,0,0,1,2.6,2.32c.41.64,1.18,1.15.73,2.09a16.61,16.61,0,0,0-6.36,6.93A1.93,1.93,0,0,1,145.81,132.3Z"/><path class="cls-1" d="M190.57,149.08c-1.25,4.08-2.25,8.41-5.5,11.7a1.92,1.92,0,0,1-2.38.44c-1.14-.59-.67-1.47-.22-2.21q3.24-5.38,6.58-10.71a1.18,1.18,0,0,1,.91-.51C190.61,147.86,190.46,148.49,190.57,149.08Z"/><path class="cls-37" d="M154.49,126.61l-1.22-1.78c.53-1.79,1.89-2.82,3.37-3.79,3.14-2.07,5.36-5.06,7.74-7.89a16.61,16.61,0,0,0,1.42-.94c1.32-1.06,2-.47,2.55.85C164.08,117.93,159.8,122.8,154.49,126.61Z"/><path class="cls-38" d="M145.16,39.8a4.83,4.83,0,0,0,0-.82c-2.93-.29-3.29-4.13-6.31-4.46-1.77-.2-1-1.08,0-1.67,1.28,1.45,3.2,1.17,4.79,1.78,2,.76,3.28.46,4.66-1.37.8-1,2.67-1.31,4.09-1.86.84-.33.9.43,1.09.94A10.05,10.05,0,0,0,158,38.1c-.4,2-2.21,2.88-3.52,4s-4.76-1.42-5.38-4C147.53,38.2,147.12,40.8,145.16,39.8Z"/><path class="cls-20" d="M148.66,23c1,0,2.51,1.14,2.35-1.16a17.42,17.42,0,0,1,11.23.48c1.09.45,2.55,0,3.31,1.29a2.4,2.4,0,0,1-1.14,3.19c-1.08.56-2.07-.43-2.89-1.33-1.88-2-7.16-3.18-9.52-1.92a7.55,7.55,0,0,1-3.33.62C148.66,23.73,148.66,23.34,148.66,23Z"/><path class="cls-39" d="M145.16,39.8c.44-.17,1.05-.22,1.28-.53,1.58-2.22,2.74-3.05,3.67.49.21.77,1.91,1.06,2.8,1.73,1.78,1.34,1.35-1,2.11-1.2,1.26-.39,1.91-1.52,2.93-2.19.5.67.56,1.68,1.46,2,1.11-.15.59-2,1.67-1.72s1.39,1.5,1.57,2.58a.66.66,0,0,1,.18.48c0,.18,0,.26-.06.26a2.4,2.4,0,0,1-3,1,3.92,3.92,0,0,0-3.6.23c-1.07,1.58-2.35,1.6-3.77.51-.73-.41-1.43-.86-2.13-1.31-1.61-.86-4,.52-5.11-1.7C145.15,40.17,145.16,40,145.16,39.8Z"/><path class="cls-8" d="M162.6,41.59c0-.22,0-.43.05-.65,2.23-1.16,4.07,1.05,6.33.69,1.53-.24,1,1.94,1.81,2.81l-.28.29C167.41,44.86,164.59,44.28,162.6,41.59Z"/><path class="cls-8" d="M170.79,44.44c1.26-1.69,1.79-.55,2.31.6l-.06.09c-.36.48-.26,1.48-1.21,1.3s-1.33-.94-1.09-1.92Z"/><path class="cls-39" d="M135.29,42.75a4.75,4.75,0,0,0,3.83-3.22c.62-1.47,1-1.93,2.32-.46.75.87,2.05,1.28,3.11,1.89.23.87-.42,1.06-1,.95-1.44-.32-2.35.53-3.34,1.27a15.06,15.06,0,0,0-5.78,7.55.89.89,0,0,1-.76.26,1.74,1.74,0,0,1-.72-1.86C133.11,46.77,134.71,44.94,135.29,42.75Z"/><path class="cls-40" d="M128.28,52.6c-.19,1.13-.46,2.26-.54,3.41-.06,1-.83,1.74-1.34,1.66-3.93-.57-2.42,2.42-2.85,4.14a2.87,2.87,0,0,1-.48.71c-.57-3.44-.55-6.79,1.49-9.87.88.42.66,1.52,1,2.51.67-.92.25-1.77.42-2.53C126.73,51.59,127.48,50.3,128.28,52.6Z"/><path class="cls-41" d="M128.28,52.6c-.78-1.19-1.55-.46-2.31,0,.51-2.43.81-2.83,3.1-3.46.61-.16.39-.57.49-.84a2.91,2.91,0,0,1,3.3-2.19c1,1.87-.58,2-1.64,2.42Z"/><path class="cls-42" d="M139.94,42.73c1.07-1.79,3-1.39,4.61-1.77l.6-.6c1.73,1.4,4.09-.24,5.81,1.22C147.51,44.18,143.78,44,139.94,42.73Z"/><path class="cls-40" d="M131.22,48.56c.52-.82,1.94-1,1.64-2.42.29-1.5,1.74-2.17,2.43-3.39.45,2.45-1.57,4.2-1.83,6.45-.29.44-.49,1-1.09,1.1Z"/><path class="cls-1" d="M114.84,291.86c1.87-.1,3.06,1,4.14,2.31C117.3,293.93,116.17,292.72,114.84,291.86Z"/><path class="cls-43" d="M183.47,62.89c-1.69,2.41-.81,4.44.95,6.3,2.29,2.42,2.25,3.15-.5,5.33-.58.47-1.57.73-1.26,1.67s.13,2.4,1.91,1.6c.54-.25,1.13-.08,1.63.78-2.68.06-3.13,1.59-2.62,3.72-1.78,1.58-.26,4.16-1.75,5.83-1.09-1.12-.66-2.54-.74-3.85-.1-1.63.17-3.29-.24-4.9a2.47,2.47,0,0,0-1.58-1.94c-1.15-.35-1.43.7-1.89,1.39a8.77,8.77,0,0,1-1,1.39c-.55.54-1.13,1.18-2,1-1-.27-1.18-1.17-1.2-2.08a8,8,0,0,0-.28-2.58c-1.95-5.43-.22-10.3,2.26-15.06a1,1,0,0,1,.74-.27c1.48,1.06,1.56,2.76,1.92,4.33.24,1,.08,2.13,1.26,2.87,1.19-.86,1.07-2.35,1.65-3.49a7.75,7.75,0,0,1,.52-.62A3.21,3.21,0,0,1,183.47,62.89Z"/><path class="cls-44" d="M170.74,44.51c.53,1.11,1.07,2.13,2.3.62a1.38,1.38,0,0,1,0,.57c-.7,1.31.93,3.2-.53,4-.89.46-1.76-1.25-2.68-1.92-.48-.34-1.49.75-2-.37-2.27,0-2.31-3.23-4.69-2.93-.69,1.66,2.2,5-2.15,5.47a1.21,1.21,0,0,1-.48-.63c-.17-2.58-.54-5-3.82-5.41a1.31,1.31,0,0,1-1.07-1.71,4.18,4.18,0,0,1,4.15-.25c1.18.48,1.91-.1,2.83-.33A19.65,19.65,0,0,0,170.74,44.51Z"/><path class="cls-45" d="M181.23,64.26a1,1,0,0,1,0,.57c-1,1.74-2,1.58-3,.12a14.39,14.39,0,0,1-1.91-3.56c-1.63-2.26-4.2-3.86-4.71-6.9-.11-.63-.58-1.21-.17-1.89,2.82.16,4.74,2,6.45,3.86,1,1.16,1.51,3,3.15.61.18-.25,1.15-.2,1.59,0,.6.31.13.91-.14,1.19-1,1-.38,3.8-3.2,3-.36-.1-.39.85-.15,1.2C179.62,63.27,180.14,64.13,181.23,64.26Z"/><path class="cls-46" d="M160.79,49.22a1.2,1.2,0,0,0,.15.45,1.6,1.6,0,0,0,2.3.31c1-.71,1.8-.32,2.63.42-.08-1.07-1.53-2.4,0-3.13s1.42,1.11,2,1.82l.59,1.18c1.64,1.94,2.95,4,2.5,6.74-1,1.22-1.88.41-2.21-.41-1.15-2.79-3.24-3.17-5.84-2.72a7.34,7.34,0,0,1-2.26-.28,9.5,9.5,0,0,1-4.75-4.31,1.41,1.41,0,0,1,.18-.78c.81-.46,2.1.8,2.73-1C159,46.91,160.3,48.37,160.79,49.22Z"/><path class="cls-47" d="M167.9,49.09c-.81-.26-.86-1.59-2.15-1.39,0,1.49,1.53,2.75.68,4.55-.94-1.58-1.89-3.18-3.75-1-.53.62-.72.46-1.74-1.57,1.41-.59,2.57-1.12,1.47-3.12-.43-.8.19-2.17.33-3.32,1.85,1.31,3.84,2.27,5.09,4.15C167.85,48,167.88,48.52,167.9,49.09Z"/><path class="cls-48" d="M170.68,57.32a24.9,24.9,0,0,0-2.19-7l2.89,2.33c.94,3.38,3.66,5.71,5.17,8.76-.19.27-.39.29-.6,0l-.27,0-.27,0c-1.7-.16-2.15-2.09-3.64-2.56C171.25,58.44,170.59,58.15,170.68,57.32Z"/><path class="cls-49" d="M172,58.35c1.82.25,2.46,1.85,3.45,3-.95,2.29-.74,4.84-2.41,7.09-1.36,1.82,0,4.42.33,6.67a30.83,30.83,0,0,1,.66,3.37c0,.82-.69,1.9.47,2.19.88.21,1.37-.9,1.91-1.55.18-.22.24-.54.42-.76.68-.82.62-2.75,2.11-2.29a3.81,3.81,0,0,1,2.89,3.59c.06,2.81,0,5.61,0,8.42-.81,2.09.49,4.87-1.59,6.42s-3.92,3.2-7.36,3.37c-3.87.2-9.3.1-11.42,5.34l-1.17,1.16c-3.27,1.88-6.63,2.72-10.26,1-.88-.41-1.77-.73-2.09-1.76,1.47-1.86,3.15-.42,4.68-.19,1.33.2,2.54.67,3.94.12,3.68-1.42,4.52-2.87,3.66-6.73a3.32,3.32,0,0,1-.1-1.71c1.35-1,1.69-2.91,3.32-3.66a1,1,0,0,1,.64.53c1,3,2,3.47,4.91,2.46,4.43-1.53,6.36-6,3.78-9.68-1.74-2.48-2-5.1-2.18-7.89-.12-2.4.26-4.83-.3-7.21-.82-2.68-1.07-5.29.74-7.74C171.79,60.91,171.26,59.45,172,58.35Z"/><path class="cls-50" d="M164.38,113.15c.79.18,1.38.36.41,1.22-3.88,3.44-7.32,7.37-11.52,10.46L151,122.38a.94.94,0,0,1-.28-.71c.21-1,1.11-1.42,1.8-2,1.55-1.16,3-2.48,5-3l2.25-1.8C161.51,115,162.74,113.52,164.38,113.15Z"/><path class="cls-51" d="M157.46,116.68l-4.8,3.41c-1.29.8-1.3-.59-1.85-1.07-1.14-1-2.28-2-3.34.08-.93.05-1.73-.09-1.78-1.26,1.34-1.74-1.26-2.53-1-4.2,3-.12,5.18,1.51,7.26,3.32.36.31.59.9,1.12.73.8-.26-.07-1,.07-1.07A3.38,3.38,0,0,1,157.46,116.68Z"/><path class="cls-52" d="M145.69,117.84l1.77,1.35c1.69.28,2.55,1.62,3.55,2.78l0,.41c-1.86.55-4.35-.32-5.24,2.38-.15.29-.34.31-.55,0s-.55-.55-.5-.65c1.45-2.68-.27-5.06-.67-7.56C144.74,116.79,144.66,118.08,145.69,117.84Z"/><path class="cls-53" d="M140.52,94c-1.11-1.34-2.61-.32-3.7-.23-1.42.11-.76,1.36.2,1.94,2,1.2,1.08,3.11,1.08,4.72,0,1.43-1.33,1-2.22,1.09l-.6-.6c-1.37-3.84-3.47-7.36-4.91-11.14s-2.93-7.44-2.89-11.32c0-2.49,2-.61,3.16-.22-.06.12-.12.24-.17.37-.21.32-.63.68-.54,1,1,3.2,1,6.67,2.48,9.68a4.6,4.6,0,0,0,4.6,2.46c1.28,0,1.45-.66,1.18-1.69.15-1.27-1.53-1.88-1.18-3.22a3.64,3.64,0,0,1,2.72-.82c2.34,1.11,4.44-.73,6.7-.56,1.32.13,1.42.75.64,1.66-.51.59-1.3.78-1.89,1.26-1.33,1.06-1.14,2.06.48,2.65s3-.19,4.46-.48,3.08.34,4.61.54c.81.14,1.72.69,2.34-.23,1.32-2,3.39-1.66,5.3-1.87a1.31,1.31,0,0,1,.6.61c-.06,2.51-1.15,4.25-3.68,4.91a5.73,5.73,0,0,0-3.06.65c-.51.29-1.25.58-1.64.17-3.07-3.27-6,.41-9.14-.52.38,1.78,1.7,1.29,2.14,2,.59.23-1.57,1,.22,1.08.39,0,.42.54.28.94-1.36,1.31-2.79,2.22-4.66.93,1.37-1.3.68-2.16-.61-2.9-1,.1-1.14-.78-.88-1.27C143,93.6,141.29,94.24,140.52,94Z"/><path class="cls-54" d="M126.56,74.72c-.47-2.1,0-4.31-.8-6.39-.23-.63.49-1.4.83-1.29,2,.65,3.4-1.06,5.19-1,1.33-1.08,2.57-.37,3.79.23s2.17,1.27,3.35,1.71c1.1.82,2.25,1.64.16,2.64-1.42.21-2.54-.6-3.76-1.07a5.12,5.12,0,0,0-2.8-.45c-.71.06-1.68-.25-1.94.75s.6,1.31,1.17,1.79a.65.65,0,0,1-.09.93.9.9,0,0,1-.48.2c.13.41.39-.11.56.07a1.41,1.41,0,0,1,.63,1.94c-.84,1.56-2.16,1.42-3.43.79A4.5,4.5,0,0,0,126.56,74.72Z"/><path class="cls-53" d="M130.64,78.21c2.38.09,2.7-2.26,4.05-3.4-.35-.41-1-.71-.49-1.43a1.55,1.55,0,0,1,1.68,0c1.57,2.21.59,4.21-.67,6-1.12,1.62-3.21,1-4.6-1.19Z"/><path class="cls-55" d="M134.11,73.63c.19.39.38.79.58,1.18l-2.32-.07c-.72-.4,0-1.2-.46-1.67C133.14,71.3,133.58,72.65,134.11,73.63Z"/><path class="cls-56" d="M156.29,48.41l-.06.67a1.29,1.29,0,0,1-1.89.09c-.36-.27-.49-.77-1-.94-.09.33.19.48.34.7a2.21,2.21,0,0,1,.49,1.09c-.05.9-.53,1.25-1.4,1.11-1.5-.59-2.39-1.94-3.61-2.89A5.74,5.74,0,0,0,140.36,50c-.71,1.37-1.46,2.52-3,3-2.11.63-2.84,2.32-3,4.22-.17,2.39-.79,4.8,0,7.21a1,1,0,0,1-.48,1.24c-.72,0-1.46.21-2.13-.23l-1.15,0c-.19-.23-.48-.55-.37-.75,1.49-2.74.72-5.56.46-8.4-.23-2.53,1.71-3.92,3.4-5.37l0,0a15,15,0,0,0,3.57-3.72c1.93-2.42,4.11-4.31,7.58-3.43a2.23,2.23,0,0,0,1.92-.41c1.81-1.52,3.65-1.31,5.53-.18C154.14,44.69,157,45.35,156.29,48.41Z"/><path class="cls-57" d="M134.12,50.89a2,2,0,0,1-.92,1.73,4.07,4.07,0,0,0-1.52,5.06c1.12,2.84.15,5.27-1.05,7.73-.93.17-1.86.57-2.56-.56a2,2,0,0,1,.3-2.41,3.62,3.62,0,0,0,.36-4.18c-.75-1.7-.65-4,1.73-5.07a2.71,2.71,0,0,0,1.91-2.89l1.09-1.1C133.61,49.79,133.41,50.52,134.12,50.89Z"/><path class="cls-57" d="M131.78,65.45l2.34,0c2.09-.14,4.26-.46,5,2.28a1.13,1.13,0,0,1-.48.74c-2.49-.28-4.16-2.88-6.91-2.43Z"/><path class="cls-29" d="M145.19,124.81a2.56,2.56,0,0,1,.55,0c.2,2.21,2.86,2.74,3.06,5-1.24-1.49-3.19-2.32-3.73-4.45A2.15,2.15,0,0,0,145.19,124.81Z"/><path class="cls-9" d="M143.43,99.77c1.76.45,3.11-.74,4.64-1.17,1.87-.83.13-1.36-.16-2a1.28,1.28,0,0,1,1.07-.85c1.58-.18,3.68-.89,4.39.87.79,2-1,3.09-2.73,3.66-1.53.51-2.53,1.3-2.57,3a8.68,8.68,0,0,0,9.72,1.61,6.43,6.43,0,0,1,2.5-.46c-2.42,2.77-5.5,3.06-8.84,2.39a20.33,20.33,0,0,1-7.16-2.54C142.15,102.87,141.83,101.65,143.43,99.77Z"/><path class="cls-58" d="M140.52,94c.51-.27,1-.52,1.53-.81a1,1,0,0,1,1.53.19c.52.67,0,1-.48,1.36-.79.61-1.15,1.32-.28,2.16-.47.89-1.19,1.53-1.92.49-.61-.86-1.59-1-2.43-1.76C139,94.82,140.29,95,140.52,94Z"/><path class="cls-59" d="M152.69,43.36c-1.94-.87-3.72,0-5.63.16C142,44,138.5,46.14,136,50.36c-.38.63-1.21.48-1.89.48.58-3.7,2.83-6.18,5.86-8.11,3.72.08,7.43.11,11-1.15l1.76,1.16c.18.15.24.29.17.42S152.75,43.36,152.69,43.36Z"/><path class="cls-60" d="M152.69,43.36l0-.62c1.24,1.19,2.25,1.19,2.9-.57.45.55.69,1.19,1.66,1.28,3.06.3,4.05,2,3.51,5.77-1,.09-1.07-1.19-1.9-1.41-.46.71.74,1.4-.11,2.19l-2.49-1.59C155.91,46.14,153.89,45,152.69,43.36Z"/><path class="cls-61" d="M176,61.38l.6,0a24.25,24.25,0,0,1,2.24,3.33c.82,1.78,1.59.6,2.42.14a7.76,7.76,0,0,1-.9,3.25c-.39.56.14,1.85-1,1.74s-1.61-1.13-1.8-2.06A38.85,38.85,0,0,0,176,61.38Z"/><path class="cls-62" d="M181.82,70.66c-.38-.65-.47-1.4.17-1.8s1,.4,1.34.78c1.56,1.81,1.17,3.3-.86,4.45A7.37,7.37,0,0,1,181.82,70.66Z"/><path class="cls-13" d="M181.82,70.66c1.1,1,.32,2.31.65,3.43C182.39,72.92,179.45,72.3,181.82,70.66Z"/><path class="cls-63" d="M172,58.35a3.35,3.35,0,0,1-.09,3.54c-1.93,2.39-1.59,5-1.1,7.6a.43.43,0,0,1,.17.46c-.06.16-.12.23-.17.24-1.78,0-1-3.25-2.73-2.52-1.21.52.13,2.48-.29,3.77a5.8,5.8,0,0,1-1,2,8,8,0,0,0-2.09,4.28c-.25,1.76-1.72,2.73-3.39,3.14-1.13.27-2.13,0-2.26-1.46,1.35-.82,3-1.3,2.8-3.48-.07-1,.73-1.75,2-2.16.17-.08-.45-.49-.21-.19.08.09,0,.17-.1.23-3,1.39-3.15,1.29-4-3.36.31-.81,1-.92,1.71-.85a6.84,6.84,0,0,0,3.31.47c1-.15,1-.7.36-1.35-.61-.25-1.79-.56-1.54-1,1.55-2.8-1.07-3.26-2.31-4.5a.83.83,0,0,1-.18-.79c1.26-.55,3.2-3.6,3.16-5.11s1.16-1.53,2.28-1.82a4,4,0,0,0-3.34-.48c-1.42.22-2.3-.17-2-1.83a14.9,14.9,0,0,1,3.8-.24c1.8.34,4.13.18,4.42,3a1.62,1.62,0,0,0,1.59,1.39Z"/><path class="cls-64" d="M160.87,53.21c.36,1,.89,1.65,2.13,1.16.68-.27,1.47-.8,2.16-.14s2.57-.18,2.46,1.36c-.09,1.39-1.48.71-2.34.72s-.9.52-.77,1.15a2.2,2.2,0,0,0,.22.53c.75,1.37,1.61,3.16,1.1,4.32-.65,1.46-2.47-.65-3.81.11a3,3,0,0,1-1.14.11c-1.93.8-3.76-.25-5.64-.32-.9-1.58,1.06-1.35,1.39-2.19a28.79,28.79,0,0,0-5.06-4.48c-.13-2,1.59-2.26,2.82-2.95.89-1.16-.16-1.94-.54-2.84l-.58-.6c0-1,.51-1,1.21-.61.42.7,1.11.55,1.75.54A22.52,22.52,0,0,0,160.87,53.21Z"/><path class="cls-65" d="M170.76,70.09v-.6c1.18,1.87.44,3.94.55,5.91.17,3.15-.08,6.19,2.23,9,2.07,2.51,1.47,6-.54,8.53-1.48,1.87-6.24,3.38-8.46,2.69-1-.31-1.49-.9-1.16-1.95.23-.73.66-1.45-.18-2.07s.12-1.68-.6-2.31h0c-2.92-3-5.11-6.67-8.9-8.78a.93.93,0,0,1-.41-1.23c2.94-1,4.61,1.37,6.47,2.73,3.66,2.69,6,2.68,9.14-.68.74-1.74,1.33-3.48.54-5.36a1.93,1.93,0,0,1,.22-1.18c.6-1.14.24-2.42.48-3.61A2.06,2.06,0,0,1,170.76,70.09Z"/><path class="cls-65" d="M148.07,103.26c-2.35-2-.1-2.62,1.06-3.42.58-.4,1.48-.31,2.18-.56A2.23,2.23,0,0,0,153,96.9c-.22-1.1-1.46-.58-2.24-.6s-1.93-.27-2.75.47c-.14.24-.31.25-.52.08-1.13-.32-3.18.88-3.24-1,0-1.62,2-1.67,3.39-1.86a40.5,40.5,0,0,0,4.21-.79c1.11-.27,2.12-.93,2.35,1.06.12,1,1.07.77,1.81.2.93-.71,1.92-1.33,3.11-.47.41.37,1.08.46,1.16,1.15,2.91,6.53,1.33,6.8-4.45,9.65-1.86.92-3.52-1.29-5.52-1.08A7.89,7.89,0,0,1,148.07,103.26Z"/><path class="cls-66" d="M160.28,95.11,159.12,94c2.3-.7,3.19-2.46,3.49-4.66.88.59.51,1.51.6,2.31C162.38,92.9,162.62,95.08,160.28,95.11Z"/><path class="cls-67" d="M151,122c-1.87-.06-2.34-1.89-3.55-2.78.32-.8-1-2,0-2.29,1.33-.36,2.63.56,3.75,1.42.62.48.24,1.75,1.42,1.77Z"/><path class="cls-55" d="M130.61,78.25c1.08,1,2.74,2,3.7,1.22,1.62-1.35,1.9-3.61,1.57-5.78a1.71,1.71,0,0,1,2.39-1.47c3.22,3.31,3.28,3.36,1,7.32-.81,1.39-.8,2.95-1.39,4.35a5,5,0,0,1-1.76,2.56c-1.42.16-1.22-.89-1.23-1.72s-.11-1.66-1.16-1.61-1,1-1.12,1.76a5,5,0,0,0,1.18,3.75c.92,1.3,1.93,1.33,3.23.61.68-.38,1.28.12,1.77.62.37.78,1,1.82.33,2.4-1.18,1-2.76.15-4-.06a4.84,4.84,0,0,1-3.49-2.75c-1.41-3-1.05-6.55-2.62-9.59C128.41,78.79,129.42,78.15,130.61,78.25Z"/><path class="cls-57" d="M135.86,86.38c1.82-3.1,1.95-6.92,4.22-9.82.55-.7.13-1.24-.35-1.76-.64-.7-1.49-1.25-1.57-2.33,0-.57-1-.56-.71-1.28s.91-.69,1.31-1.11c2.13-.64.19-1.11-.07-1.65l.14-.16c2-1.65,3.72-1.46,4.35.83,1,3.7,1.88,7.5,0,11.23-.39,1.69-1.51,3.42.34,5a9.16,9.16,0,0,1-3.56,1.09L137,87C136.33,87.3,135.82,87.34,135.86,86.38Z"/><path class="cls-68" d="M155,91.7l-5.2-.63c-2.83-1.41-2.9-3.29-.25-6.08a2.17,2.17,0,0,1,1.3-.21c.92.37,1.83.61,2.67-.2s1.5-1.72,2.69-.85a4.92,4.92,0,0,1,2.22,3.86C158.51,89.51,156.64,91.67,155,91.7Z"/><path class="cls-66" d="M155,91.7c2.54-.21,2.26-2.6,2.76-4.06s-1-2.64-2-3.6c-.8-.74-1,.45-1.45.79-1,.75-2,2.87-3.38.36-.25-.63.11-1.06.5-1.48,1-.69.77-1.33,0-2.07-.6-.56-2.29-.61-1.41-2s2.07-1.25,3.25-.29c3.84,2.6,7.46,5.41,9.29,9.9-1.73.84-4.15,0-5.28,2.43C157,92.45,155.81,92.35,155,91.7Z"/><path class="cls-69" d="M149.86,85.33c-1.72,1.91-2.25,3.82,0,5.74-1.55.75-3.11,1.56-4.82.45-.75-.48-2.17-.57-1.92-1.79a3.32,3.32,0,0,1,2-2.31c.49-.22,2.47.13,1.23-1.6-1.07.35-2.13.64-2.84-.64-.62-1-1.8-.28-2.71-1,.62-1.15,1.71-2.18,1.57-3.66.59-1,1.24-1.23,2-.21a2.86,2.86,0,0,1,.22,1.23c-.18,2.86,1.86,2.11,3.44,2.1a1.85,1.85,0,0,1,.71.26C149.05,84.42,149.59,84.76,149.86,85.33Z"/><path class="cls-70" d="M135.86,86.38A1.23,1.23,0,0,0,137,87c.84.8,2.15,1.32,1.77,2.87-.56,0-1.41-.37-1.64-.12-2.59,2.83-3.27-.06-4.38-1.44-1.55-1.91-1.31-4,0-5.87.72-1.05,1.62.5,2.62.18.53-.17.52.86.43,1.41C135.62,84.82,134.87,85.63,135.86,86.38Z"/><path class="cls-71" d="M143.46,85.18a5.59,5.59,0,0,0,2.84.64c-2.15-.13-4,2.7-6.37.56C140.69,84.75,142.19,85.3,143.46,85.18Z"/><path class="cls-11" d="M147.49,96.85l.52-.08a6.11,6.11,0,0,1,.85.08c.66.14,1.78-.37,1.81.74,0,.91-1,1-1.74,1-.29,0-.57,0-.86,0-.39-.74-1.22-.43-1.83-.77Z"/><path class="cls-72" d="M137.52,71.34c0,.5,1.34.23.64,1.13-1.28-.57-1.52.81-2.28,1.22l-1.77-.06c-.69-.35-1.18-1.51-2.2-.56-1,0-1.53,1.72-2.79.66.34-1.45,2-1,2.69-1.88a2.41,2.41,0,0,1,1.52-1.16C134.8,70.47,136.29,70.09,137.52,71.34Z"/><path class="cls-73" d="M137.52,71.34l-4.55,0c-.87-.24-2.16-.12-1.92-1.55.2-1.23,1.32-1.19,2.3-1.17a3.8,3.8,0,0,1,2,.23l3.44,1.21A2.2,2.2,0,0,1,137.52,71.34Z"/><path class="cls-74" d="M135.32,68.87l-1.72,0c-.76,0-1.67-.1-2,.73-.56,1.3,1.3.83,1.39,1.72-.25.48-.72.45-1.16.49-1.33.09-2.13-.26-2.15-1.86s1.06-1.62,2.09-1.63C133,68.35,134.24,68,135.32,68.87Z"/><path class="cls-75" d="M144,80.53c-.56-.87-1.12-.17-1.68,0,2-3.56,1-7.27.39-10.89-.38-2.31-2.13-2.18-3.88-1.38-.38-2.93-3.29-1.66-4.71-2.86-1.71-4-.5-7.94.59-11.86.22-.77.79-.54,1.3-.72,1.69-.58,3.37-1.19,3.78-3.39s3-1.75,4.23-3c1.76-1.81,3-.94,4.59.46a27.29,27.29,0,0,1,4.16,3.95l-.15.39c-1,1.06-1.93.34-2.89-.09-3.89-1.75-4.2-1.67-6.61,1.76-.55.79-1.29.61-2.06.69-2.71.27-3.09.78-2.69,3.47a3.26,3.26,0,0,1-.21,2.23c-2,3.69-1.44,5.15,2.73,6.13,2.37.55,3.37,2,3.59,4.27,0,2.73,1,5.33,1.05,8C145.57,78.94,145.82,80.31,144,80.53Z"/><path class="cls-75" d="M153.85,49.75c2.27,2.09,2.35,2.33,1.2,3.46-.79-.76-2.59-.49-2.33-2.31l.05-.07A.94.94,0,0,0,153.85,49.75Z"/><path class="cls-75" d="M154.48,48.54a1.31,1.31,0,0,0-1.21.61,2.52,2.52,0,0,1-1.52-2.07C152.94,47.2,154.14,46.94,154.48,48.54Z"/><path class="cls-76" d="M144,80.53c1.95-2,.21-4.12.35-6.18.11-1.62-1.44-3.15-.36-4.86a3.93,3.93,0,0,1,3.6-.55c2.77,1.73,4.91,4.4,8.16,5.41,1.67,1.31,2.05,3.49,3.38,5.05a1.6,1.6,0,0,0,2.62.69c1.1-.7,2.5-1.2,2.35-2.91,0-.29-.32-.68-.21-.82,2.13-2.81,3.86-5.62,3.19-9.52-.17-1,1.67-1,2.36.12a24.06,24.06,0,0,1,1.32,3.13v1.14c-1,1.25-.08,2.77-.58,4.09l-.57.58c1.08,1.94,0,3.88,0,5.82-3.23,4-6.3,4-10.31.75-1.65-1.33-3.41-3.22-6-3.07-1,.1-2.08-.33-3.17.69,1.23.83,3.14,1.08,3.07,3,0,1.07-1,.89-1.72,1a2.36,2.36,0,0,1-2.81,0l0-.21c0-1,1-.88,1.61-1.25-2.11-1-4.49,1.08-6.31-.92Z"/><path class="cls-77" d="M155.64,74.76a12.32,12.32,0,0,1-7.59-5.25c-1-.43-2.27-.34-2.54-1.82s-.48-2.59,1.59-2.27c1.64.25,2.37-.89,3.11-2,1.48-1,2.92-2.08,4.87-1.49a11.7,11.7,0,0,1,5.8.62c.73.77,1.82.89,2.62,1.65,1.31,1.25,2.9,2.22-.05,3.34.81.89,1.45.07,2.07.23.2,2.74-.25,3-4.06,2.36-.65,0-1.33-.15-1.78.53a.72.72,0,0,1-1.07.07c-.34-1.55.77-1.87,1.85-2.3-1.59.21-3.2.2-4.8.47-1.18.22-2.53.14-3.29,1.91,1.38-.43,2.06-1.56,3.22-1.64a5.11,5.11,0,0,1,2.89,1.39c.73,1.21,1.74,2.22.47,3.86C157.79,75.89,156.76,74.91,155.64,74.76Z"/><path class="cls-78" d="M158.5,70.6l1.18,0a5.45,5.45,0,0,1,.64,1c1.29,3,1.28,3,4.09.66.1-.09.35,0,.64,0,.37,1.14-.59,1.48-1.25,1.86-.92.53-1.75,1.46-1.52,2.26.92,3.25-1.13,3-3.15,3-2.59-.48-2.11-3.26-3.49-4.64.46-1.53,2.26,1,2.73-.93.15-.65,2.07-1.08-.18-1.54-.5-.11,1.3-.9.3-1.69Z"/><path class="cls-78" d="M161.46,70.11c1.64-.29,4.14.91,4.06-2.36.94,1,1,2.57,0,3S162.62,71.44,161.46,70.11Z"/><path class="cls-79" d="M150.42,63.7c-.46,2.77-2.16,3.11-4.52,2.21-.17,1.79.78,2.81,2.15,3.6l-4.06,0c-.67-1.94-1.37-3.25-4.07-3.43-3.9-.26-5-3.83-2.38-7,.7-.86.21-1.43,0-2.1-.77-3.08-.33-3.76,2.85-4,1.29-.08,2.36.57,2.27-1.9-.06-1.74,2.66-2.07,4.5-1.76a11.72,11.72,0,0,1,4.18,1.87c.27.18.88-.2,1.34-.32l2.33,2.31a4.38,4.38,0,0,0-3.47,2.33l-.24.3c-1.44.68-2.25,2-3.17,3.2-1.95,2-3.75,4.38-7.12,2.4a1.29,1.29,0,0,0-1.83.93c-.14,1.11,1,1.11,1.67,1,2.47-.26,4.88-1.1,7.41-.46C149,63.14,149.87,63,150.42,63.7Z"/><path class="cls-80" d="M150.42,63.7c-2.77.29-5.62-1.07-8.35.51a2.44,2.44,0,0,1-2-.06c-.88-.43-2.91-.07-2.21-1.8.46-1.16,2.24-2.81,3.36-1.86,2.92,2.47,4.19.13,5.88-1.39a10.37,10.37,0,0,1,.93-.66,9.59,9.59,0,0,0,3.51-2.9h0c1.82-.21,2.71,1.05,3.73,2.23a34.13,34.13,0,0,0,3,2.65c-1.07.58-2.48.41-3.19,1.49Z"/><path class="cls-63" d="M169.6,81.72c0-1.94,0-3.88,0-5.82C170.87,77.06,170.87,78.41,169.6,81.72Z"/><path class="cls-63" d="M170.18,75.32c-.41-1.45-1-2.91.58-4.09C170.54,72.59,171.31,74.09,170.18,75.32Z"/><path class="cls-81" d="M148.68,84.11h2.81L151,85.19l-1.11.14C149.32,85.06,147.92,85.64,148.68,84.11Z"/><path class="cls-82" d="M144,81.73c1.92.74,3.83-.4,5.75,0,.73.14,1.86-.14,1.92.78.08,1.25-1.17.85-1.94,1a6.5,6.5,0,0,0-1,.41c-1.36.5-2.66,1-4.14.18A1.42,1.42,0,0,1,144,81.73Z"/><path class="cls-83" d="M158.36,67.17a9.88,9.88,0,0,1-1.44,0c-1-.16-2.53-.29-2.47-1.42S156,63.87,157.09,64a6.19,6.19,0,0,1,3.76,1.8c.6.62.57,1.26-.47,1.37a19.45,19.45,0,0,1-2,0Z"/><path class="cls-84" d="M158.49,70.6a4.36,4.36,0,0,1-2.82-1.19.65.65,0,0,1,0-1c1.8-.81,3.71-.46,5.58-.5.39,0,1.07-.21.93.61-.08.5-.46,1-1,.78-1.48-.62-2.05.39-2.69,1.35Z"/><path class="cls-85" d="M155.65,68.36c0,.35,0,.7,0,1a11.75,11.75,0,0,1-2,1.65c-.61.33-1.14,1.55-1.86.84s-.33-1.79.34-2.61C153.12,68.14,154.39,68.29,155.65,68.36Z"/><path class="cls-64" d="M151.58,55.54c-.24,2.1-1.16,3.36-3.51,2.9C148.81,57,149.44,55.33,151.58,55.54Z"/><path class="cls-86" d="M134.7,76.84c1.58,0,2.84.09,2.73,1.46-.05.54.53.91,1,1.27s.86.66.72,1.13c-.66,2.28-4.14,2.15-6.2,3.22a3.12,3.12,0,0,1-3.37-.44c-1.59-1.2-4.69-2.28-2.13-4.17C129.29,78,132.05,77.32,134.7,76.84Z"/><path class="cls-86" d="M164.06,74.11c1.62,0,2.91.1,2.79,1.49,0,.54.55.92,1.06,1.29s.88.66.74,1.14c-.67,2.32-4.23,2.18-6.34,3.27a3.21,3.21,0,0,1-3.45-.44c-1.62-1.23-4.8-2.32-2.18-4.24C158.52,75.27,161.35,74.6,164.06,74.11Z"/></svg>