<svg id="Layer_1" data-name="Layer 1" xmlns="http://www.w3.org/2000/svg" viewBox="0 0 320 320"><defs><style>.cls-1{fill:#7d242b;}.cls-2{fill:#8c373a;}.cls-3{fill:#d8b3a2;}.cls-4{fill:#b95b64;}.cls-5{fill:#cca89b;}.cls-6{fill:#b54d5c;}.cls-7{fill:#973b41;}.cls-8{fill:#ad565d;}.cls-9{fill:#876957;}.cls-10{fill:#8c745f;}.cls-11{fill:#b9a895;}.cls-12{fill:#95645a;}.cls-13{fill:#a67a75;}.cls-14{fill:#4e443d;}.cls-15{fill:#2c2018;}.cls-16{fill:#ec8e90;}.cls-17{fill:#822a2e;}.cls-18{fill:#992f3c;}.cls-19{fill:#933a41;}.cls-20{fill:#651c1b;}.cls-21{fill:#742022;}.cls-22{fill:#993c40;}.cls-23{fill:#71302a;}.cls-24{fill:#cfbfa3;}.cls-25{fill:#e8bba4;}.cls-26{fill:#90564e;}.cls-27{fill:#d46774;}.cls-28{fill:#a85e67;}.cls-29{fill:#ac7a6b;}.cls-30{fill:#945b5a;}.cls-31{fill:#9d4e4d;}.cls-32{fill:#a59984;}.cls-33{fill:#743b2d;}.cls-34{fill:#89725d;}.cls-35{fill:#9a7a69;}.cls-36{fill:#756f64;}.cls-37{fill:#787371;}.cls-38{fill:#302923;}.cls-39{fill:#241c16;}.cls-40{fill:#322923;}.cls-41{fill:#2b211b;}.cls-42{fill:#2d2620;}.cls-43{fill:#936c53;}.cls-44{fill:#705138;}.cls-45{fill:#644b32;}.cls-46{fill:#89533e;}.cls-47{fill:#956b57;}.cls-48{fill:#a96f53;}.cls-49{fill:#936144;}.cls-50{fill:#b0795a;}.cls-51{fill:#946b57;}.cls-52{fill:#975f4a;}.cls-53{fill:#76332c;}.cls-54{fill:#742a28;}.cls-55{fill:#8e3e3c;}.cls-56{fill:#af4c56;}.cls-57{fill:#66372a;}.cls-58{fill:#854b42;}.cls-59{fill:#b3535b;}.cls-60{fill:#9b8588;}.cls-61{fill:#c2b5b9;}.cls-62{fill:#6f432d;}.cls-63{fill:#774534;}.cls-64{fill:#6d372c;}.cls-65{fill:#885840;}.cls-66{fill:#9a7f77;}.cls-67{fill:#b08365;}.cls-68{fill:#39271d;}.cls-69{fill:#483327;}.cls-70{fill:#513626;}.cls-71{fill:#282523;}.cls-72{fill:#302924;}.cls-73{fill:#543425;}.cls-74{fill:#38291f;}.cls-75{fill:#322016;}.cls-76{fill:#493c32;}.cls-77{fill:#73492e;}.cls-78{fill:#92684b;}.cls-79{fill:#9c6f4d;}.cls-80{fill:#98664c;}.cls-81{fill:#7b513f;}.cls-82{fill:#4e3321;}.cls-83{fill:#a67557;}.cls-84{fill:#b29580;}.cls-85{fill:#895a46;}.cls-86{fill:#644839;}.cls-87{fill:#814435;}.cls-88{fill:#81513e;}.cls-89{fill:#a26a4d;}.cls-90{fill:#996548;}.cls-91{fill:#a67053;}.cls-92{fill:#67352d;}.cls-93{fill:#703a31;}.cls-94{fill:#642b21;}.cls-95{fill:#7a4c3a;}.cls-96{fill:#915f45;}.cls-97{fill:#89513a;}.cls-98{fill:#997562;}.cls-99{fill:#f3f7f4;}.cls-100{fill:#5b3c29;}.cls-101{fill:#673f29;}.cls-102{fill:#945d44;}.cls-103{fill:#754833;}.cls-104{fill:#b68c70;}.cls-105{fill:#9d684d;}.cls-106{fill:#9e6f54;}.cls-107{fill:#996348;}.cls-108{fill:#aa7256;}.cls-109{fill:#af7e63;}.cls-110{fill:#9f674c;}.cls-111{fill:#ab7256;}.cls-112{fill:#a2674e;}.cls-113{fill:#a56e53;}.cls-114{fill:#82533a;}.cls-115{fill:#664228;}.cls-116{fill:#8e5942;}.cls-117{fill:#8f604e;}.cls-118{fill:#915a3a;}.cls-119{fill:#905e44;}.cls-120{fill:#8f5a41;}.cls-121{fill:#78513e;}.cls-122{fill:#7f4c35;}.cls-123{fill:#67301f;}.cls-124{fill:#7b4b33;}.cls-125{fill:#8e5c42;}.cls-126{fill:#ab6e55;}.cls-127{fill:#a86b52;}.cls-128{fill:#b1765b;}.cls-129{fill:#683820;}.cls-130{fill:#70402e;}.cls-131{fill:#47211d;}.cls-132{fill:#6c3e37;}.cls-133{fill:#64332b;}.cls-134{fill:#976148;}.cls-135{fill:#956047;}.cls-136{fill:#834831;}.cls-137{fill:#764430;}.cls-138{fill:#a3a1a2;}.cls-139{fill:#7c4831;}.cls-140{fill:#864f37;}.cls-141{fill:#7c4c37;}.cls-142{fill:#a36c51;}.cls-143{fill:#b88368;}.cls-144{fill:#98614a;}.cls-145{fill:#a16b53;}.cls-146{fill:#87523d;}.cls-147{fill:#674330;}.cls-148{fill:#72452d;}.cls-149{fill:#7e6150;}.cls-150{fill:#693f2c;}.cls-151{fill:#997564;}.cls-152{fill:#82543d;}.cls-153{fill:#6a4638;}.cls-154{fill:#815844;}.cls-155{fill:#956856;}.cls-156{fill:#835e54;}.cls-157{fill:#8f6150;}.cls-158{fill:#7d5447;}.cls-159{fill:#885139;}.cls-160{fill:#975942;}.cls-161{fill:#98634e;}.cls-162{fill:#441f0c;}.cls-163{fill:#6a3c2d;}.cls-164{fill:#291513;}.cls-165{fill:#723923;}.cls-166{fill:#8e503a;}.cls-167{fill:#895942;}.cls-168{fill:#88563e;}.cls-169{fill:#86513d;}.cls-170{fill:#693824;}.cls-171{fill:#895a42;}.cls-172{fill:#704c3c;}.cls-173{fill:#4e352b;}.cls-174{fill:#5e3520;}.cls-175{fill:#906148;}.cls-176{fill:#ddeced;}.cls-177{fill:#ff0606;}</style></defs><path class="cls-1" d="M180.53,316.06c-12.69-.22-25.55,2.59-38-2.07.41-2.94,2.09-5.63,1.71-8.74.44-6-.19-12.35,5-17a12.65,12.65,0,0,1,6.25-1.88c7.54-.07,15.09-.7,22.58.62a13.38,13.38,0,0,1,4,1.93c3,3.05,7.66,4.66,8.73,9.51C191.17,306.52,184.57,310.54,180.53,316.06Z"/><path class="cls-2" d="M125.44,311.24,108,307.32c-4.91-6.47-5.22-13.53-2.66-20.95a7.87,7.87,0,0,1,5.26-3.88c6.33,1.72,12.8,1.69,19.3,1.1,4.66,7.66,3.15,18.79,13.18,23.46,1.67,5.53-3.67,4.42-5.91,6.25Z"/><path class="cls-3" d="M226,264.5q3.06,11.72,6.14,23.43c2.56,4.22,4.82,8.5,2.77,13.66l-7.83,3.77c-7.77,1.07-9.67-3.78-9.49-10,.13-4.14.67-8.28.09-12.43,1.29-7.09-2.31-13.84-1.52-20.91a6.91,6.91,0,0,1,4-4.15C225.34,257.31,224.41,262,226,264.5Z"/><path class="cls-4" d="M194.65,313.61l-1.1.32-1.14-.06c-5.95,2.11-8.83.88-5.53-5.67,1.67-3.31,4.65-6,5.18-9.91,3.07-7.34,9.37-9.3,16.48-10a11.47,11.47,0,0,1,7.81,4.28c1.37,4.12,2.8,8.25,2,12.72C210.59,308.53,202.28,310.08,194.65,313.61Z"/><path class="cls-5" d="M217.34,305q-1.46-5.82-2.9-11.64c-2-2.93-4.18-5.76-4.07-9.59a5.22,5.22,0,0,1,2.39-3.46c3-1.18,5.67-1,7.89,1.59-.53,4.12,7.73,6.77.92,12.69-3.45,3,1.07,8.36,5.54,10.78-2.72,2.67-6,3.15-9.52,2.23-.93-.49-1.27-1-1-1.65S217.05,305,217.34,305Z"/><path class="cls-6" d="M194.55,298.9c3.08,5.54-9.7,8.79-2.14,15-3.59,2.74-7.76,2.34-11.88,2.19-1.58-7.84,5.18-11.42,8.55-16.73C190.76,297.41,192.6,297.4,194.55,298.9Z"/><path class="cls-6" d="M217.34,305a5.78,5.78,0,0,1,.25,2.61c-7,4.32-14.54,6.89-22.94,6C200.82,307.07,208.19,303.68,217.34,305Z"/><path class="cls-5" d="M234.94,301.59c-2.58-4.21-3-8.87-2.77-13.66,4.72.93,4.49,6.84,8.53,8.46C240.54,300.06,239.11,302.34,234.94,301.59Z"/><path class="cls-7" d="M137.15,313.3l5.6-5.46c1.89-1.57,3.83-1.75,5.81-.17,4.22,8.05-3.55,4.66-6,6.32Z"/><path class="cls-8" d="M85.11,294.68C75,290.44,66.77,283.44,58.47,276.54c3-6.1,8-10,14-12.77,8.43.1,13.54-11.26,23.24-6.77a5.66,5.66,0,0,1,2.25,3.22c0,3.8-1.74,7.52-.65,11.41a15.65,15.65,0,0,1-1.5,7.63C90.5,283.2,90,290.49,85.11,294.68Z"/><path class="cls-8" d="M79.15,280C69,275.72,60.81,268.71,52.51,261.82c3-6.1,8-10,14-12.78,8.43.11,13.54-11.25,23.24-6.76A5.64,5.64,0,0,1,92,245.49c0,3.81-1.74,7.53-.65,11.42a15.7,15.7,0,0,1-1.5,7.63C84.54,268.47,84.08,275.77,79.15,280Z"/><path class="cls-9" d="M108.76,284.6,108,307.32l-11.29-5.84c-3.12-10.25,3.87-18.53,5.38-27.9,3.11-3.9.5-12.5,9.49-11.58,2.62,2.11,3.35,5,3.5,8.18C115.77,276.22,113.25,280.84,108.76,284.6Z"/><path class="cls-10" d="M105.25,276.09Q101,288.8,96.69,301.48l-5.83-2.85c-3.39-4.76-3.91-9.69-.91-14.85,6.93-2.24,5.69-9.68,9-14.22a6.65,6.65,0,0,1,4.35-.67C106.61,270.59,107.65,272.89,105.25,276.09Z"/><path class="cls-11" d="M50,268.46a51.41,51.41,0,0,1,.42-5.57c.38-2.07-1.25-5.15,1.47-5.89.94-.26,2.83,3,4.29,4.65,3.69.82,6.34,2.85,7.55,6.55a7.78,7.78,0,0,1-.65,4.12c-2.15,2.66-4.83,2.49-7.68,1.46Z"/><path class="cls-12" d="M93.57,284.76c-4,4-2.39,9.13-2.71,13.87l-5.75-3.94c0-6.78-1.37-14.32,8.52-15.76C95.54,280.89,95.36,282.83,93.57,284.76Z"/><path class="cls-13" d="M55.4,273.78l6.87-3.49c1.07-1.41,1.06-3.28,2-4.76a7.55,7.55,0,0,1,6.21-2.88,6.51,6.51,0,0,1,3.12,1.59,2.58,2.58,0,0,1-.1,3.19c-5.3,2.57-8.44,8.7-15,9.11Z"/><path class="cls-14" d="M90.67,94.48a16.42,16.42,0,0,0-2.8-.14c-.51-.83-1-1.66-1.54-2.5L88,88.51c1.47-5.79-1.41-12.23,2.65-17.62C96.89,78.74,97.09,86.61,90.67,94.48Z"/><path class="cls-15" d="M163,7.59c18.79-3.19,31.34,10,46.08,17.51a3.65,3.65,0,0,1-.21,4.31c-1.6,1.8-3.77,2.68-5.9,3.62-20.34,4.37-41,1.12-61.42,2.25-8-7.84-4.4-13.16,4.61-14.44,6.58-.94,12.91-1.26,18.93-5.33-6.72,3.71-12.87,7.79-19.82,1.34-.87-8.66,7.88-7,11.57-10.84A6.41,6.41,0,0,1,163,7.59Z"/><path class="cls-16" d="M228.75,233.5l1.11,5.11c-6,7.93-2.25,17.31-3.83,25.89-1.8-1.89-3.59-3.79-5.38-5.68-7.14-1.74-7.2-8-8.61-13.41a12.57,12.57,0,0,1,.77-4.11c2.64-5.39,8-7.06,12.85-9.53A2.74,2.74,0,0,1,228.75,233.5Z"/><path class="cls-17" d="M148.56,307.67l-5.81.17c-14.64-2-16.55-5-14.48-23-4.93.85-9.82,1.41-14.17-1.95-2.63-4.13.19-7.84.92-11.71,5.07-4.4,9.94-.51,14.9.33,3.79,1.69,5.21,5.38,7.26,8.54,1.4,3.46,3.71,5.93,7.51,6.77a7.09,7.09,0,0,1,3.82,3.77C151.29,296.25,147.47,302,148.56,307.67Z"/><path class="cls-18" d="M194.55,298.9l-5.47.43-8.65-5.92c2.95-4.12,7.93-5.51,11.56-8.74a19.66,19.66,0,0,1,5.27-2.14c4.47-.59,9-1.61,12.93,1.8.5,2.25,5.95,5.23-.92,6.41Z"/><path class="cls-19" d="M194.6,287.65c-3.67,4.54-8.35,6.55-14.18,5.76,0-.92,0-1.84,0-2.76.12-.63.24-1.26.35-1.9,1.57-2.92,2-6.18,2.8-9.36,2.12-5.74,5.21-10.38,12.15-10.6a5.5,5.5,0,0,1,3.67,2.39C203,278.19,197.28,282.48,194.6,287.65Z"/><path class="cls-20" d="M180.37,290.65l-26-.16c-1.57-3.6.3-6,2.84-8.17a16.66,16.66,0,0,1,4.35-2c7.24-1.27,14.4-1.8,20.93,2.61,3.13,3.6.5,5.64-2.1,7.68Z"/><path class="cls-21" d="M157.16,284.76q-1.41,2.87-2.83,5.73l-5.82.06-5.77-.07c-5.54-4.13-3.14-7.09,1.74-8.78C149.07,280.11,153.73,280.44,157.16,284.76Z"/><path class="cls-22" d="M114.1,282.13a21.4,21.4,0,0,1,14.17,2.67c-4.81,4.56-9.61,8.08-14.37-.05-.74-.64-1-1.25-.65-1.81S113.82,282.13,114.1,282.13Z"/><path class="cls-23" d="M114.1,282.13c-.07.87-.13,1.74-.2,2.62l-5.15-.15c.79-4.76,1.56-9.51,2.34-14.27a4.12,4.12,0,0,1,2.84-1.6,4.35,4.35,0,0,1,2.82,1.64Q115.43,276.25,114.1,282.13Z"/><path class="cls-24" d="M220.65,281.89l-8.26-.15a7.45,7.45,0,0,1-3.34-3,18.88,18.88,0,0,1-1.65-11.25c.59-3,.94-6.08,3.27-8.4,3.51-2.15,5.59-.5,7.09,2.69C220,268.27,227.21,274.09,220.65,281.89Z"/><path class="cls-25" d="M217.76,261.74l-5.76-3a9.12,9.12,0,0,1-5.7-7.24c.25-5.36,1.28-9.92,8.44-7.89l5.91,15.19Z"/><path class="cls-26" d="M209.27,290.74c2.19-2,.62-3.86-.22-5.75a2,2,0,0,1,3-.63c2.91,2.44,3.06,5.6,2.39,9Q211.85,292.05,209.27,290.74Z"/><path class="cls-27" d="M212.05,284.36l-3,.63c-3.85-.09-7.71,2.54-11.54-.07-1.07-2.54.45-4.1,2.11-5.61,3.88-3.55,7.83-4,11.89-.31.31.91.6,1.82.88,2.74A11,11,0,0,0,212.05,284.36Z"/><path class="cls-28" d="M73.51,267.43l.06-3.24c.11-.65.21-1.31.3-2a23,23,0,0,1,8-8.87c3.86-1.6,7.71-3.28,12.06-2.68a7.84,7.84,0,0,1,3.54,2.24,5,5,0,0,1-1,5.83C87.12,257.13,82.92,269.16,73.51,267.43Z"/><path class="cls-29" d="M93.57,284.76l.06-5.83.06-8.67c-1.35-3.25.45-5.1,3-6.63a4,4,0,0,1,3.71,1.08,4.73,4.73,0,0,1-.81,5.67C99.49,276,100,281.79,93.57,284.76Z"/><path class="cls-30" d="M99.44,264.45c-.92.05-1.84.11-2.76.19a1.79,1.79,0,0,1-.82-2c.22-.69.46-1,.7-1,0-1,0-1.93-.07-2.9l0-6c-1-1.75-1.6-3.67.31-5,3.16-2.24,5.19.2,7.24,2.18C106.67,256.06,105.66,261.07,99.44,264.45Z"/><path class="cls-31" d="M96.56,261.64l.12,3-3,5.62C89.53,265.68,91,263,96.56,261.64Z"/><path class="cls-32" d="M61.93,247.17c-1,6.73-2,13.47,0,20.2-3.49-.32-5.39-2.26-5.78-5.72C56.17,256.06,55.76,250.31,61.93,247.17Z"/><path class="cls-33" d="M114,270.26l-3,.07-.36-8.67,1.41-1.21c3.58-.94,7.38-.56,10.89-1.94,3.2-.73,6.31-1.82,9.6-2.15a9.26,9.26,0,0,1,6,1.93c3.51,4.57,5.57,9.12-.23,13.52-4.45,1.86-8.26-2.19-12.6-1.36C121.9,271.19,118,267.08,114,270.26Z"/><path class="cls-34" d="M105.25,276.09l-2.91-5.78c-2.79-7.55-1.17-12.35,7.82-12.55a3,3,0,0,1,1.17,4.1l-.6-.2C106.38,265.51,109.92,272.36,105.25,276.09Z"/><path class="cls-35" d="M110.48,258.64c-6.73,1.08-8.3,5.77-8.14,11.67-.93,0-1.87,0-2.8.06,0-2-.06-3.95-.1-5.92q1.53-7.23,3-14.47a4.66,4.66,0,0,1,3.79-4,7.48,7.48,0,0,1,6.61,3.9,8.37,8.37,0,0,1,.37,6A5.58,5.58,0,0,1,110.48,258.64Z"/><path class="cls-36" d="M65.12,266.94,65,255.82c1.11-2,2.19-4.07,5.1-3.3,4.77,3.76,3.94,7.78.53,11.9Z"/><path class="cls-37" d="M70.63,264.42c-.19-4,.73-8.29-2.89-11.43.13-5.71,3.47-4.28,6.73-3,3.87,4.85,2.23,9.41-.74,13.89l-.16.32Z"/><path class="cls-38" d="M114.54,22.59l10.89-.45a5.59,5.59,0,0,1,1.47,5.65c-10.13,8.29-19.24,17.41-24.06,30-7.24,10.58-4,20.52,1.89,30.29a15.43,15.43,0,0,1,1.21,6.14c0,2.92-1.34,5.57-1.78,8.41-.65,8.64.29,17.58-5,25.31a6.25,6.25,0,0,1-3.69,2.19c-3.47-.21-5-2.53-6-5.46a6.2,6.2,0,0,1,.9-4.09q.12-13,.25-26.07,0-11.79,0-23.59C89.22,50.15,105.43,38.13,114.54,22.59Z"/><path class="cls-39" d="M99.46,56.79c5.57-12.41,9.75-26.06,26-28.88,5.93-5.26,10.2-13.41,20.2-11.54,10.87,4.26,20.59-8.91,31.78-2.24-12.09.15-19.84,13-33.11,10.42-4.45-.88-4.12,5.39-4.45,9.11-.74,3.8-3.45,5.58-6.8,6.69-3.85.59-8.62-.21-8.82,5.9a9.09,9.09,0,0,1-3.2,4.3c-3.75,1.89-8,2.82-11.07,6a11.74,11.74,0,0,1-7.23,2.12A6,6,0,0,1,99.46,56.79Z"/><path class="cls-40" d="M131.22,36.59l8.63-2.93c4.7-3.52,9.47-3.92,15.64-3.62,15.9.79,32.13,3.46,47.83-2.1,4.62,8.17.11,11.42-7.15,12.54-6.06.93-12.35.1-18.27,2.22a21.79,21.79,0,0,1-6.53.7c-3.88-.56-7.72-.69-11.26,1.54-10.26-1-15.92,9-25.16,10.44-3.39-.64-5.88-2.9-8.59-4.77a6.49,6.49,0,0,1-2-5.27C125,41.1,128.87,39.45,131.22,36.59Z"/><path class="cls-41" d="M174.48,39.47c6-3.52,12.61-3,19.11-2.86,6.13.14,10-1.82,9.73-8.67h5.62a10.66,10.66,0,0,0,8.81,5.81c1.59,5,13.76,10.6-.72,14.91a13.79,13.79,0,0,1-4.78-.57c-8.74-2.4-17.7-.83-26.51-1.58C181,46.09,174.76,47.34,174.48,39.47Z"/><path class="cls-42" d="M145.63,16.37c-8.23,1.23-12.42,9.52-20.2,11.54V22.14l17.43-11.09,11.4-3.51q1.38.36,2.76.78C154.88,13.36,148.71,12.68,145.63,16.37Z"/><path class="cls-43" d="M242.62,157.86l-2.38-.29a37,37,0,0,1-2.12-4.09c0,.14-.89-.37-.89-.37s-.93.16-.95.29c-2.11,2.23-4,4.75-6.86,5.37-5.06-.05-10.51,2.31-14.55-3.76-1.07-6.31,4.77-7.11,5.94-11.64,1.73-4.36,3.18-9,7.19-11.05a7.35,7.35,0,0,1,4.94-.1c3.38,1.95,6.5,4.6,10.11,6,2.3,1.69,5.06,3,4.42,7.39l-2.56,9.28C245.85,157.92,244.67,158.42,242.62,157.86Z"/><path class="cls-44" d="M249.67,140.17c-4.75,0-10.22,1.48-11.74-5.48-.92-2.6.63-3.64,2.72-4.35,3.87-.47,6.34,1.91,8.81,4.31l3,2.8A4.4,4.4,0,0,1,249.67,140.17Z"/><path class="cls-45" d="M238.07,127.33l2.84-2.72c5.07,1.21,10.59,2.25,3.06,8.16Q241,130,238.07,127.33Z"/><path class="cls-46" d="M79.34,140.57l2.2-3.28c3.47-4.36,8-3.06,12.49-2.47a9.76,9.76,0,0,1,3.42,2,9,9,0,0,1,1.47,3.74,11.06,11.06,0,0,1-.69,4,12.23,12.23,0,0,1-4,4.69c-7.11,4-11.75.57-15.56-5.26A2.64,2.64,0,0,1,79.34,140.57Z"/><path class="cls-47" d="M94,137.19c-4.12,3.27-8.33-3.32-12.46.1l1-4.62a13.41,13.41,0,0,0,2.53-.84c6.06,0,5.52-4.76,6.27-8.61l3,5.65C96.31,131.72,96.31,134.49,94,137.19Z"/><path class="cls-48" d="M243.59,160.63q-2.58,14.46-5.15,28.91l-6,8.94c-2.57.82-5.08,1.27-7.19-1-1.48-7.15-8.27-11.34-10.24-18.24-.41-4.67,1.26-8,5.95-9.46,7.08,1.63,10.36-2.09,11.76-8.46a9.29,9.29,0,0,1,3.17-2.6A7,7,0,0,1,243.59,160.63Z"/><path class="cls-49" d="M228.75,233.5l-1,0-1-.21c-3.75,1.64-7.47,3-10.74-1a11.16,11.16,0,0,1-1.23-7.94A85.32,85.32,0,0,1,223,207.66c2.32-2.89,4.84-5.34,9-3.78C227.62,213.39,228.15,223.44,228.75,233.5Z"/><path class="cls-50" d="M232,203.88l-5.65,5.79c-5.08,3.13-6.77.24-7.58-4.26.37-3.4,2.33-5.58,5.34-6.95l2.28-.32c2.06-.67,4.17-2.29,6,.34C232.29,200.28,232.14,202.08,232,203.88Z"/><path class="cls-51" d="M217.74,224.14c0,2.88,0,5.75,0,8.63a7.65,7.65,0,0,1-3.06,7.61c0,1.09.05,2.17.07,3.25-5.49.94-5.61,5.12-5.63,9.35,2.5,3.56,1.36,7.41.86,11.21-4.89,2.69-7.1-.65-9.27-4.1a14.26,14.26,0,0,1-.86-6.78c2.3-6.07,1.37-13,4.73-18.79,3.33-3.43,5.16-8.16,9.32-10.88A4.28,4.28,0,0,1,217.74,224.14Z"/><path class="cls-52" d="M214.67,240.38c.36-2.8.49-5.7,3.06-7.61,3,.4,6.18-2.73,9,.53C225.21,239.94,219.54,239.48,214.67,240.38Z"/><path class="cls-53" d="M125.36,267.46,137,270.31a9.56,9.56,0,0,0,3.18,1.84c3.86,1.07,7.16,2.9,9.09,6.63a4.62,4.62,0,0,1-1.26,3.69c-4.68.56-9.43,3.16-13.91-.6l-5.66-8.68C126.09,272,123.84,270.74,125.36,267.46Z"/><path class="cls-54" d="M134.1,281.87c4.9-.44,10.25,1.34,14.41-2.85,6.7-3.93,11-3,11.53,5.67l-2.88.07c-4.52,2.63-13.61-6.26-14.42,5.72C137.43,290.05,134.57,287.15,134.1,281.87Z"/><path class="cls-55" d="M125.36,267.46l3.08,5.73c-5,3.7-8.3.21-11.69-2.82-.9-.05-1.81-.09-2.72-.11C117.14,266.61,121.39,267.62,125.36,267.46Z"/><path class="cls-56" d="M200.42,281.56l-2.91,3.36-2.91,2.73q1.5-8.64,3-17.27c0-3.44,1.41-4.11,4.18-2.17C205.16,273.05,203.4,277.37,200.42,281.56Z"/><path class="cls-57" d="M160,284.69c-2.37-4.89-6.64-5.91-11.53-5.67l0,0c-2.83-4-7.92-3.4-11.53-5.8v-2.87c4.29-3.85-.42-7.69,0-11.54,10.22-6,20.12-7.11,29.94,1.12a15,15,0,0,0,12,3.35c1.44,0,2.85,0,4.28,0,4.85.82,11.28-1,11.69,7.11-3.57,3.41-7.13,6.82-8.82,11.66a3.14,3.14,0,0,1-3,2.86Z"/><path class="cls-58" d="M194.86,270.32c-4.21-4.18-9.62-2.5-14.59-3-6.62-4.86-2.57-6.9,2.29-8.77,6.34.37,13.08-1.66,18.79,2.9a4.75,4.75,0,0,1-1,5.89l-2.76,3C196.7,270.35,195.78,270.33,194.86,270.32Z"/><path class="cls-1" d="M183,284.84l3-2.87c4.47,7.07-1.53,7.25-5.68,8.64Q181.71,287.73,183,284.84Z"/><path class="cls-59" d="M200.37,267.35c-.07-2-.13-4-.2-5.94-.21-2.31.64-3.4,3.07-2.66l4.89,5.8c2.72-.48,2.69,2,3.61,3.4-.08,3.68-.15,7.37-.22,11.05l-11.1,2.56Q200.39,274.45,200.37,267.35Z"/><path class="cls-3" d="M211.74,268l-3.61-3.4q.48-5.79,1-11.57,1.44,2.9,2.89,5.78C211.91,261.82,211.82,264.89,211.74,268Z"/><path class="cls-60" d="M105.23,247.21,102.49,250c-3-1.19-5.67-1.78-6,2.75l-1.43,0-1.43-.06c-3.32-2.43-5.23-5.29-2.86-9.46,3.07-2.86,6.73-3.08,10.6-2.39a9.5,9.5,0,0,1,3.84,2.27A3.16,3.16,0,0,1,105.23,247.21Z"/><path class="cls-61" d="M91,244.55q1.32,4.08,2.63,8.16l-11,4.35,2.47-4.1C86.9,250.07,83.49,243.46,91,244.55Z"/><path class="cls-62" d="M177.39,267.47c-4.16,4.12-6.6-.47-9.8-1.81-7-2.93-13-14.68-22.23-2.82-.4.51-5.48-2.63-8.38-4.07h-5.76c-6.23-8.59-2.81-13.91,5.86-17.48C154.76,243.45,168.59,251.58,177.39,267.47Z"/><path class="cls-63" d="M139.87,244.33c-9.06,1.11-8.69,7.88-8.65,14.45-1,6.62-4.89,4.58-8.67,2.88-5.24,1.61-7.1-2.49-9.51-5.65a5.55,5.55,0,0,1,.44-3.94A39.91,39.91,0,0,1,132,237.79C137.08,235.81,142.85,235.48,139.87,244.33Z"/><path class="cls-64" d="M113.7,255.67c4.16.21,6,3.82,8.85,6-3.66,4.43-7.45,1.81-11.22.2l-.84-3.22c.24-.89.45-1.79.64-2.7Q112.17,253.46,113.7,255.67Z"/><path class="cls-65" d="M113.7,255.67c-.86.08-1.72.17-2.57.27,0-1.94-.09-3.88-.13-5.81a12.5,12.5,0,0,1-.1-9.91c1.23-2.5,2.23-5.11,3.67-7.51,2.64-4.51,5.86-8.6,8.07-13.45,2.42-5.32,8.38-9.1,12.82-5.69,10.24,7.88,22.41,6,33.52,9.1a9.44,9.44,0,0,1,2.59,3.56c2.26,8.8-2,14.58-8.95,19-6.33,4.07-13.14,1.46-17.16-2.41-10.92-10.53-17.84-2.69-24,4.61-2.35,2.77-5.21,3.49-7.5,5.57C113.88,253.91,113.8,254.79,113.7,255.67Z"/><path class="cls-66" d="M114.1,241.62c-1,2.84-2.06,5.67-3.1,8.51l-5.77-2.92c0-.83,0-1.66,0-2.49a10.2,10.2,0,0,1,4-8.77c1.83-1.11,3.68-1.56,5.51,0C115.38,237.94,115.5,239.87,114.1,241.62Z"/><path class="cls-67" d="M243.59,160.63l-8.41-.11c-1.6-1.85-1.84-3.72-.09-5.63q2.81-4.38,5.6-8.75c2.5.16,5,.38,6.07,3.21a7.5,7.5,0,0,1-.21,8.22Z"/><path class="cls-42" d="M99.46,56.79h2.89c4.12,3.36,5.79,1.9,5.76-2.92,2.36-4.91,6.65-6,11.56-5.75C117.44,53,123,51.84,124.28,54a11.7,11.7,0,0,1,2,7.76,15.38,15.38,0,0,1-1,4.06c-5.93,9.29-15.79,14.62-23,22.68C91.73,79,90.92,70.22,99.46,56.79Z"/><path class="cls-68" d="M102.36,88.52c.34-13.3,13.55-15.33,20.22-23.08A7.51,7.51,0,0,1,125,68.89c.8,3.8-.49,7-2.65,10.08-7.42,4.06-8.52,16.45-20,15.26Z"/><path class="cls-14" d="M96.47,128.88c1.68-9.53,3.85-19,3-28.8,2.54-1.7,5-1.82,7.32.41,4,9.62,4.24,19.2-.38,28.71C103.05,131.65,99.71,131.72,96.47,128.88Z"/><path class="cls-69" d="M105.24,100.09H99.51l2.87-5.85c7.07-4.42,9.14-13.88,17.3-17.2,5.62,10.78-3.89,16.48-8,24A5.8,5.8,0,0,1,105.24,100.09Z"/><path class="cls-70" d="M96.47,128.88l8.77,0c2.5,8.14-.22,11.1-8.48,8.55-.92-.08-1.84-.16-2.76-.27.1-2.77.19-5.55.29-8.32C95,128.86,95.75,128.86,96.47,128.88Z"/><path class="cls-71" d="M108.11,53.88c4,2.39,6.78,5.35,4.31,10.36-1.14,2.31-3.39,3.83-5.77,3.2-5.8-1.55-3.75-6.71-4.3-10.64Z"/><path class="cls-71" d="M131.22,36.59c0,4.18-.53,8-5.78,8.65-1,1.22-1.92,1.16-2.87,0-2.4-.58-5.34-1.57-4-4.46C121.1,35.33,126.62,36.93,131.22,36.59Z"/><path class="cls-72" d="M122.57,45.24h2.87l2.9,2.89c.88,4.75-1,6.72-5.78,5.76-2-.33-4.73.91-5.52-1.61-.31-1,1.69-2.75,2.63-4.15Z"/><path class="cls-73" d="M122.72,68.38c0-1-.09-2-.14-2.94s0-1.83,0-2.75c2.8-4.28,4.36-10.18,11.48-8.88,8.15-5,13.44-16.36,25.94-11.46a6.64,6.64,0,0,1,4.76-1.29c16.34,5.68,33.59.28,50.09,4.06l2.84.16,5.45,6.33c-5.65,6.46-13.1.27-19.32,2.79a22,22,0,0,1-6,.06c-5.23-2.14-10.19,1-15.33.83-19.19-2.07-37.41-.61-51.92,14.33a9.65,9.65,0,0,1-4.14.74A9,9,0,0,1,122.72,68.38Z"/><path class="cls-74" d="M214.88,45.12C197.62,43.59,180,48.57,163,42.41c1-2.67,2.44-4.49,5.65-2.95h5.83c7.6,5.43,16.25,1.9,24.37,2.83C204.26,42.92,210.1,40.91,214.88,45.12Z"/><path class="cls-75" d="M134.09,53.81l-11.48,8.88c0-2.93,0-5.87,0-8.8l5.78-5.76C131.79,48.47,133.72,50.35,134.09,53.81Z"/><path class="cls-76" d="M168.65,39.46,163,42.41l-3-.06C161.37,36.81,164,35.24,168.65,39.46Z"/><path class="cls-77" d="M243.67,88.56c1.55,7.91-2.59,13-8.55,17.14-7,3.39-9.51-.34-10.47-6.57,1.55-6.8,9.11-5.25,12.76-9.15A12.31,12.31,0,0,1,241,88.42Z"/><path class="cls-78" d="M241,88.42c-.07,1-.14,2-.22,3-4.73,3.59-8.42,2.43-11.32-2.45a12,12,0,0,1-1-4.41,13.81,13.81,0,0,1,.65-4.42c1.13-2.87,2.88-5.14,6-6.14l5.67,11.77A11.69,11.69,0,0,0,241,88.42Z"/><path class="cls-79" d="M225.8,54.5l6.45,13.71a2.56,2.56,0,0,1,.94,2.3c-.12.85-.29,1.27-.51,1.27A6.81,6.81,0,0,1,227,73.15a10.66,10.66,0,0,1-3.48-1.79c-4.6-3.28-7.95-8.07-13-10.79a17.56,17.56,0,0,1-6-4.75,8.8,8.8,0,0,1-1.55-5.56c7.13-5,13.42,2.89,20.33,1.35C224.05,52.57,224.92,53.54,225.8,54.5Z"/><path class="cls-80" d="M226.93,97.55c0,5.45,3,8,8.19,8.15,8.43,3.19,7.71,10.75,8.41,17.63-2.83,2.31-2.6,5.63-2.88,8.78l-2.72,2.58-6-.11a5.62,5.62,0,0,1-1.59-3c.09-2.78-.26-5.45-2.34-7.59-2.24-3-6.23-3-8.89-5.27-5.07-4.13-12.16-7.19-8.66-16,3.16-4.27,8-5.41,12.7-6.79A5.46,5.46,0,0,1,226.93,97.55Z"/><path class="cls-81" d="M226.39,146.18c-1.17,7.18-6.7,5.62-11.41,5.69l-2.08-.05a11.36,11.36,0,0,1-8.15-8.76,7.87,7.87,0,0,1,3.9-7.08,9.55,9.55,0,0,1,6.14-.66C220.27,137.2,223.8,141.2,226.39,146.18Z"/><path class="cls-82" d="M226.39,146.18c-5.64-.46-9-4-11.54-8.62-1.06-2.34.2-3.86,1.83-5.27a28.07,28.07,0,0,1,9.79-3,6.74,6.74,0,0,1,5.4,2.52c0,.92.07,1.85.09,2.77Q229.17,140.39,226.39,146.18Z"/><path class="cls-83" d="M235.09,154.89l.09,5.63-.11.16a33.91,33.91,0,0,1-3.19,2.67c-3.28,1.67-6.77,1.37-10.26,1.07-3.43-.8-7.06-1-9.94-3.41-2.26-4.24-4.11-8.35,3.26-9.17l0,0C221,157.28,228.37,154,235.09,154.89Z"/><path class="cls-84" d="M246.76,149.35l-6.07-3.21c2-2,4.34-3.79,7-1.38C249.23,146.21,248.1,148,246.76,149.35Z"/><path class="cls-85" d="M96.63,143.29l0-2.89c1.85-1.68,4.18-1.37,6.4-1.58,4.81.31,9.26-1.58,13.89-2.3,11.25-1.76,19.69,1.29,22.08,13.82a8.67,8.67,0,0,1-.78,4.4,10.18,10.18,0,0,1-5.32,3.59c-13.27-1.35-14.32,14.08-24,17.61a6.82,6.82,0,0,1-3.12-2.31c-2.34-4.44-1.86-10.15-6.19-13.72a21,21,0,0,1-3.37-7C95.33,149.67,96.8,146.52,96.63,143.29Z"/><path class="cls-86" d="M102.33,140.52l-5.72-.12.15-2.94c5.27-.42,8.07-3.29,8.48-8.55V100.09L111,100c1.86-1.63,3.83-1.53,5.87-.35,4.24,11.29-4.31,22.45-.1,34.39C117.88,137.29,109.63,143.3,102.33,140.52Z"/><path class="cls-87" d="M81.77,161.07c-.29-5.92-3.58-11.53-1.8-17.66,5.52-3.79,7.47,10.27,13.74,2.75,2.79,2,2.7,5,3,7.9.86,5.25-.63,9.92-3.56,14.22-5.61,4.49-8.31-.22-11.43-3.63A3.38,3.38,0,0,1,81.77,161.07Z"/><path class="cls-88" d="M93.7,154.87c0-2.9,0-5.81,0-8.71,1-.95,2-1.91,2.92-2.87,2.88,2.44,2.83,5.75,2.68,9.08C98.13,154.75,96.69,156.56,93.7,154.87Z"/><path class="cls-89" d="M214.94,151.84c-3.28,2.93-3.44,5.87,0,8.83,6.51,1.12,9.44,4.93,8.63,11.54-5.26.65-5.79,4.45-5.77,8.63.87.75,1.17,1.5.89,2.26s-.55,1.15-.84,1.15c-3.5.64-5.29-1.53-6.85-4.1a27.91,27.91,0,0,1-2.78-5.87c-2.35-9-5.27-18-4.66-27.52a7.08,7.08,0,0,1,2.7-3.41A21.26,21.26,0,0,1,214.94,151.84Z"/><path class="cls-90" d="M223.54,172.21l-8.64-11.54c1.87-2.59,3.79-2.64,5.75-.11,3.82,3.85,7.67,3.8,11.55.1,1,0,1.91,0,2.87,0C234,167.32,238.41,179.4,223.54,172.21Z"/><path class="cls-90" d="M217.69,183.8c0-1,.05-2,.08-3,6.9,3.76,13,7.89,8.62,17.3h0a4,4,0,0,1-3.35,1.35c-3.32-.6-5.81-2.66-8.31-4.71a9.25,9.25,0,0,1-1.84-3.44C212.36,187.47,214.23,185.13,217.69,183.8Z"/><path class="cls-91" d="M214.86,192.4a9.63,9.63,0,0,1,8.74,5.74c-1.07,1.89-2.84,3.43-2.95,5.81.37,3.44,2.21,5.4,5.7,5.72l-8.61,14.47c-.92,0-1.85,0-2.77-.06C206.4,213.55,209.33,203,214.86,192.4Z"/><path class="cls-48" d="M220.65,204c-3.8-4.36-.31-5,2.95-5.81h2.8Z"/><path class="cls-52" d="M214.86,192.4q.06,15.84.11,31.68c-.75,4.58-2.08,8.83-6.41,11.39-4.08-4.1-5.2-10.23-9.65-14.09-3.09-8.24,3.57-13.73,5.78-20.48a17.22,17.22,0,0,1,1.94-5.72,9.8,9.8,0,0,1,4.63-3.85,3.89,3.89,0,0,1,3.63,1.1Z"/><path class="cls-92" d="M203.24,258.75l-3.06,2.66c-5.67,1.66-11.31,4.42-17.06.26-3.59-2.09-6.69-4.57-7-9.16.38-6-1.75-12.56,4.26-17.11,2-.66,4.52-.16,4.77,1.73,1.54,11.49,10.17,11.93,18.78,12.59a3.12,3.12,0,0,1-.31,3.66Z"/><path class="cls-93" d="M203.6,253.38c-.15-1.16-.31-2.32-.47-3.48-6.45-4.79-2.63-12.71-5.7-18.54a10.84,10.84,0,0,1,1.34-8.7l1.74-1.46c9,1.2,9.1,7.41,8.06,14.27C204.11,240.66,208.27,248.24,203.6,253.38Z"/><path class="cls-94" d="M137,273.18c4.65.32,10.2-1.14,11.53,5.8C144,278.45,140,276.81,137,273.18Z"/><path class="cls-95" d="M180.19,253l2.93,8.63c-4.43.13-4.33,2.55-2.85,5.66-1,.07-1.92.11-2.88.14-12.76-7.3-23.25-18.28-37.52-23.14-1.17-5.75-3.61-4.42-7.89-2.44-6.53,3-9.67,11.37-18,11.13,5.69-3.84,5.26-12.52,13.34-15.13,6.4-2.06,11.4-2.43,17.35.9,14.59,8.16,20.19,5.25,24.13-11.72a3.12,3.12,0,0,1,3.78-.34,9.77,9.77,0,0,1,3.11,5.28C176.44,239.16,177.17,246.35,180.19,253Z"/><path class="cls-96" d="M168.71,224.14c-11.63,1.3-23.19,3.63-33-6.31-4.09-4.15-8.51-1-9.48,3.77-1.23,6.1-5.39,9.81-8.91,14.17-4.6-3.78-3.58-8.21-1.48-12.77,2.71-5.06,4.54-10.57,7.78-15.41,5.76-8.62,12.33-12.14,21.25-4.16,6.51,12.38,12.8,7.1,19.08-.29,8.24,3.3,5.86,11,7.15,17.17A7,7,0,0,1,168.71,224.14Z"/><path class="cls-97" d="M168.71,224.14c0-1,0-1.92,0-2.88,2.22-17.72-10.71-29.6-17.23-43.91-1.75-3.85-5.3-6.78-3.21-11.56,4.18-2.94,8.42-2,12.68-.26,7.55,3.1,15.15,5.72,12.88,16.89-1.21,6,4.81,10,7,15.08,1.81,5.8,3.82,11.57,3.29,17.81-1.06,7.25-5.17,11.25-12.56,11.74-1,0-1.9,0-2.86,0C168.74,226.09,168.73,225.11,168.71,224.14Z"/><path class="cls-98" d="M119.7,224.12c-1.87,3.66-3,7.47-2.39,11.65l-3.21,5.85c-.06-2-.11-3.89-.17-5.84a8.34,8.34,0,0,1-2.89-5.24c-.35-2-1-3.91-1.25-5.93-.1-1.32-.14-2.65-.16-4-.08-8.34,1.53-17.2-7-23a7.19,7.19,0,0,1-1.42-4,5.7,5.7,0,0,1,2.53-3.58c2.88-1.63,6-1.68,9.12-1.2,10.52,4.56,13.77,12.44,9.9,23C121.28,215.9,122.07,220.39,119.7,224.12Z"/><path class="cls-99" d="M113.62,229.9c.1,2,.21,3.92.31,5.88l-3.06,2.86c-6.52-1.16-2.17-5.7-2.71-8.72C110,228.42,111.79,228.18,113.62,229.9Z"/><path class="cls-100" d="M116.82,100.12,111,100c-.84-9.07,8.45-14.3,8.72-23,1-2.88,2-5.77,3-8.65l2.89.07a10.06,10.06,0,0,1,2.86,7.8,64.2,64.2,0,0,1-9.81,22.88C118.05,99.47,117.43,99.79,116.82,100.12Z"/><path class="cls-101" d="M128.31,68.31C139,56,150.73,46.51,168.77,50.7c4.56,1.06,9.56.25,14.36.29.93,2.48-.37,4.09-2.12,5.53-15.77,2.49-30.55,8-44.81,15.09C133.07,71.71,130.26,71,128.31,68.31Z"/><path class="cls-102" d="M180.39,54l2.74-3c5,0,9.64-5.18,14.84-.79-.24,2.63.47,5.21.54,7.84a19.19,19.19,0,0,1-.41,4.14,12.05,12.05,0,0,1-6.59,8.2c-8.14,2.08-13-1.49-15.5-9.07C175.82,57.89,178.25,56,180.39,54Z"/><path class="cls-103" d="M128.31,68.31H137c3.31,5.19,12.33,7.87,7.38,16.74-6.41,3.38-12.9,4.89-19.63.87-.81-3.06-1.45-6.11.7-9,.06-2.84.13-5.69.19-8.53C126.51,68.39,127.41,68.34,128.31,68.31Z"/><path class="cls-104" d="M194.29,57.07c-4.1-5.15.58-5.59,3.68-6.87l4.88.07,3.46,3.61C206.09,69.22,199.28,59.7,194.29,57.07Z"/><path class="cls-105" d="M232,71.33c.08-1,.15-2.08.22-3.12.95,1.94,1.91,3.87,2.86,5.8l-2.91,5.85c-4.75,3.08-10.69,4-14.88,8.08-5.08,3.43-9,.25-13-2.32a8.26,8.26,0,0,1-2.19-3.45,6.7,6.7,0,0,1,1.07-3.94c3.36-2.48,6.22-5.66,10.17-7.35C219.71,67.26,225.72,74.94,232,71.33Z"/><path class="cls-106" d="M226.93,97.55l-3.3-.28c-.24-.54-.48-1.07-.73-1.6.46-2.32,1.52-4.43,2.2-6.69,1.65-2.62,3.21-5.46,7.08-3.32.66,5.23,4.48,5.75,8.62,5.77C239,99.86,231.82,96.12,226.93,97.55Z"/><path class="cls-107" d="M214.88,85.65c3.66-8.25,10.26-7.72,17.32-5.79,0,1,0,1.93,0,2.9a42.07,42.07,0,0,1-11.55,5.37A7.51,7.51,0,0,1,214.88,85.65Z"/><path class="cls-105" d="M220.65,85.63c3.18-3.63,7.5-2.7,11.54-2.87,0,1,0,1.93,0,2.9l-5.78,5.59a3.46,3.46,0,0,1-3.55,1C220.56,90.58,218.84,88.69,220.65,85.63Z"/><path class="cls-105" d="M231.33,104.54c3.18-3.63,7.49-2.7,11.54-2.87,0,1,0,1.93,0,2.9l-5.78,5.59a3.46,3.46,0,0,1-3.55,1C231.24,109.49,229.51,107.6,231.33,104.54Z"/><path class="cls-108" d="M191.81,68.31q1.42-4.31,2.84-8.63c5.94.19,12.78,5.88,17.26-2.83,6.6,1.6,9.32,8.1,14.5,11.5-8.2,4.58-17.34,3.22-26.13,4.1-2.5-.16-4.92-.55-7-2.17Z"/><path class="cls-109" d="M211.91,56.85c-3.24,16.29-10.87,5.76-17.26,2.83a22.75,22.75,0,0,0-.36-2.61c4.12-.63,9.87,4.85,12-3.19Z"/><path class="cls-110" d="M197.52,68.39l28.89,0c0,.94,0,1.89,0,2.83-4.16,2.84-8.89.8-13.3,1.58-4.2,1.91-8.46,3.61-13.24,2.86C196.61,74,195.13,71.84,197.52,68.39Z"/><path class="cls-111" d="M212,71.22l14.41,0,5.62.14c-6.13,4.94-13.36,1.91-20,2.78-.74-.64-1-1.28-.73-1.92S211.76,71.22,212,71.22Z"/><path class="cls-112" d="M212,103c-4,9,12,5.87,8.68,14.43-.61,6.12-4.67,9.39-9.74,11.84-8.63,1.71-16.59.65-23.2-5.79-5.26-7.53,2.76-15.37-.53-23a23.4,23.4,0,0,1,3.73-12.9c3.73-2.6,6.15-8.63,12.39-4.84l0,0C208,88.75,214.2,94.06,212,103Z"/><path class="cls-113" d="M212,103c-3.93-6.28-9.26-12-8.64-20.19,4.46-1.5,7.34,3.32,11.53,2.88l5.77,0c1,1.85,2,3.69,3,5.54-1.62,2-2.82,4-.08,6l.1.1C221.17,102.06,216.89,103.15,212,103Z"/><path class="cls-114" d="M212,126a20.13,20.13,0,0,1,8.7-8.6c4,.31,8.32-.89,11.2,3.18-2.24,3.55-4.21,7.23-4.94,11.45-2.59,2.82-6,2.4-9.34,2.45-4.13-1.84-8.6,5.05-12.59-.49C203.19,127.71,209.17,128.23,212,126Z"/><path class="cls-115" d="M226.93,132l-6.37-4.76c2.92-3.67,6.45-6.33,11.32-6.7,4.49,3.75,8.16,7.5,0,11.25Z"/><path class="cls-116" d="M212,126c-2,2.86-5.71,4.58-5.74,8.73.4,1.55,2.4,1.48,2.94,2.89l-2.94,5.74v3c-1.9,3.1-4.12,5.52-8.25,4-6.47-3.49-7.2-16-18.57-11.82a7.63,7.63,0,0,1-5.71-.34c-2.76-2.21-3.65-5.31-4.15-8.6a10,10,0,0,1,.65-3.55c.77-1.5,1.82-2.86,2.62-4.32.68-4.39-9-6.49-2.73-12.1,10.81-4.4,14.83,3.13,18.84,10.69A44.63,44.63,0,0,0,212,126Z"/><path class="cls-117" d="M209.17,137.61c-1.44-.5-4.29.45-2.94-2.89,3.8.44,7.48-4.27,11.36-.25l-2.74,3.09Z"/><path class="cls-118" d="M232.2,160.66q-5.88,12-11.55-.1Z"/><path class="cls-119" d="M108.31,175.12c5.27-7.81,5.28-20.05,18-21.56,1.57-.18,3.29.86,4.94,1.34,10.15,5.93,10.18,15,7.89,24.93a10.54,10.54,0,0,1-2.28,3.4c-7,5.48-15.86,2.9-23.6,5.33a8.93,8.93,0,0,1-3.93-1.7C106.3,183.17,104.38,179.39,108.31,175.12Z"/><path class="cls-120" d="M137,180.85c-.75-8.91-1.07-17.92-5.76-25.95H137c9.16-1.47,10.76,4.63,11.55,11.54,10.43,11,16,24.7,21,38.65,2,5.46,3.91,11-.76,16.17-4-5.07-1.06-12.47-5.77-17.31-9.22-2.7-10-13.93-18-17.81C141.75,185.21,138.63,184.13,137,180.85Z"/><path class="cls-121" d="M102.33,140.52c9.23-1.55,12.51-5.94,8.94-15.47-3.4-9.09,2.6-16.84,5.55-24.93l0-.06a5.33,5.33,0,0,1,6.47-.48c2.8,3.06,3.14,6.61,2.07,10.42.39,5-14,7.32-2.48,14.24,5.68,1.5,11.45,2.71,16.51,5.93.89,9.35,10.42,8.23,15.41,12.64,1.29,3.08.08,5.58-1.81,7.94a15.44,15.44,0,0,1-7.81,4A11.86,11.86,0,0,1,137,152c-4.2-10.9-12-13.88-22.7-10.2C110.1,143.24,106,144.21,102.33,140.52Z"/><path class="cls-122" d="M137,152l8.57,0c5.76-.53,11.51.93,17.27,0a14.91,14.91,0,0,1,3.87.63c6.19,6.11,13.89-.93,20.42,2.3a9.6,9.6,0,0,1,3.21,2.48,8.54,8.54,0,0,1,1,5.93c-2.77,8.12-10.23,5.46-15.79,6.37-5,.83-10.29-1.38-15.52-.43l-11.54-2.9L137,154.9Z"/><path class="cls-123" d="M93.7,154.87l5.61-2.5,3.19,5.41c3.21,5.14,3.27,10.62,1.76,16.28a6.33,6.33,0,0,1-3.71,3c-5.38.14-9.89-.87-10-7.64C90.54,164.31,91,159.35,93.7,154.87Z"/><path class="cls-124" d="M99.45,175.12c1,0,1.91-.06,2.87,0,1.6-1.62,2.49-4.69,5.81-2.89.06,1,.12,1.95.17,2.93q1.4,5.76,2.78,11.53,1.44,2.64-1.22,4C100.11,189.7,92.5,187.28,99.45,175.12Z"/><path class="cls-88" d="M108.13,172.19l-5.81,2.89.18-17.3C108.62,160.93,108.16,166.64,108.13,172.19Z"/><path class="cls-125" d="M99.45,175.12c-.81,8.47,2.62,13.54,11.45,14.28.71.58,1,1.17.74,1.77s-.46.9-.69.9l-8.62.4c-2.45,1.73-4.9,1.15-7.36,0-2.91-1.55-4.81-4.12-6.77-6.63-1.44-2.76-3.83-4.82-5.61-7.35-1.7-2.86-2.53-5.83-1-9,.29-2,.57-4,.86-6.05,6.41-3.06,5,4.54,8.12,6Z"/><path class="cls-126" d="M197.54,149.08l8.69-2.75q2.9,14.38,5.78,28.76c-2.66,1.85-5.28,1.1-7.9-.12a14.09,14.09,0,0,1-3.27-2.64,27.83,27.83,0,0,1-4.77-21.75Q196.79,149.83,197.54,149.08Z"/><path class="cls-127" d="M206.16,172.24l5.85,2.85c.94,1,1.89,2,2.83,3-3.08,4.36,1,10.15-2.84,14.35l-2.81,2.83-2-.91a13.42,13.42,0,0,1-4.93-9.74C202,180,202,175.44,206.16,172.24Z"/><path class="cls-128" d="M212,192.42c.45-4.88-1.41-10.23,2.84-14.35l2.85,5.73c-.93,2.88-1.86,5.75-2.8,8.63Z"/><path class="cls-129" d="M209.19,195.25l0,5.8c-6.6,5.9-7.7,16.8-17.76,19.59a9.88,9.88,0,0,1-4.18-.83c-7.18-8.11,1.62-14.26,2.62-21.38a8.06,8.06,0,0,1,5.27-2.59,30.63,30.63,0,0,0,10.73-2,4.56,4.56,0,0,1,3.32,1.33Z"/><path class="cls-130" d="M191.76,218.37c7.49-4.08,9.57-13.58,17.4-17.32-.87,7.58-8.69,12.18-8.65,20.15l-.24.26C196.35,223.41,192.61,224.85,191.76,218.37Z"/><path class="cls-131" d="M200.52,229.78c4.83,6.19,2.17,13.36,2.62,20.12-3.85,6.35-9.39,4.82-14.69,2.81-8.8-3.33-4.1-11.09-5.19-17a4,4,0,0,1,3.48-.71c6.88,4.21,6.77-4,10.29-5.82A3.09,3.09,0,0,1,200.52,229.78Z"/><path class="cls-132" d="M185.82,235.45l-2.56.31c-5,5.06-2.27,11.48-3.07,17.28-5.06-5.82-8.53-12.32-8.52-20.27,3.7-6.55,8.86-9.77,16.54-7.26a5.42,5.42,0,0,1,2.4,3.57C190.67,232.44,189.21,234.67,185.82,235.45Z"/><path class="cls-133" d="M189.06,230.16l-.15-3.13c-1.65-2.89-3.25-5.79,0-8.66h2.83c2.18,2.83,5.37,2.9,8.51,3.09q.12,4.17.25,8.32l-3,.16C194.77,232.12,192,232.72,189.06,230.16Z"/><path class="cls-130" d="M188.93,218.37c-.4,2.88,2.58,5.78,0,8.66l-17.24,5.74-.06-5.72c1.68-4.75,8.38-5.75,8.64-11.56,3.7-5.44.54-13.88,7.77-17.78a3.72,3.72,0,0,1,3.72.72C194.61,205.61,186.87,211.3,188.93,218.37Z"/><path class="cls-134" d="M111,192.07c0-.89,0-1.78,0-2.67s.11-1.83.18-2.75l2.82,0c8-.84,16.84,2,23.08-5.76v0l11.54,0c1.65,5.92,3.82,11.47,7.8,16.41,4.23,5.24,9.15,13.39,3.43,17.69-6.56,4.93-12.63-2.33-17-8.14-4.5-4.24-7.89-7.32-13.05.55-3.58,5.47-5.88,11.66-10,16.74C118.28,213,126.17,199.39,111,192.07Z"/><path class="cls-135" d="M142.75,206.83c1.21.77,2.39,1.6,3.64,2.29,3.87,2.14,7.86,8,12.18,3.33,3.91-4.26-.7-8.6-3.68-12.4-4.38-5.58-9.45-11.07-6.37-19.18C154.1,188.08,159.9,195.15,163,204c-1.05,5,2.92,13-5.8,13.71C150.26,218.24,144.07,215.08,142.75,206.83Z"/><path class="cls-136" d="M160.05,169.34c8.32-8.42,19.87-.74,28.87-5.79,1.65-2.33,3.17-5,6.69-2.69,3.77,11.22,3.46,21.11-8.82,27.1a7.12,7.12,0,0,1-4-.62c-1.74-1.36-1.84-3.77-3.37-5.42-2,4.58,2.61,8.84.42,13.32a7,7,0,0,1-2.53,3c-3.72-4.11-10.29-7.67-8.17-13.85C172.5,174.64,166.64,172.14,160.05,169.34Z"/><path class="cls-137" d="M177.35,198.2l0-2.93c2.2-1.81.62-6.16,4.55-6.8,2.65,1.95,7-2,8.94,2.65a6.52,6.52,0,0,1-1.91,7c-1.33,6.59-3.94,12.54-8.71,17.41Q178.8,206.83,177.35,198.2Z"/><path class="cls-138" d="M113.52,221.52l-5.39-.33c6.57-10.53-.76-18-5.72-26C119.76,198.21,112.35,211.67,113.52,221.52Z"/><path class="cls-101" d="M122.57,100.13l-5.78-.07c.3-8.66,4.5-15.85,8.63-23.08l0,8.66c3,2.17,3.76,5.2,3.47,8.67C128,97.57,127,100.7,122.57,100.13Z"/><path class="cls-139" d="M145.64,82.76c-4-4.12-14.85-4.18-8.67-14.44,12-12.39,27.11-15.1,43.42-14.32q-1.51,2.84-3,5.67c-4.46,6,1,11.61.89,17.46-1.85,16.05-14.28,8-22.4,9.85C151.93,86.84,148,86.62,145.64,82.76Z"/><path class="cls-140" d="M174.48,77c3.16-5.4-13.87-14.19,2.9-17.31,4.17,4,7.47,9.35,14.43,8.64h0c1.24,4.93-2.62,5.57-5.55,5.4-3.33-.18-2.63,1.89-3.14,3.52C180.15,79.81,177.28,79.25,174.48,77Z"/><path class="cls-141" d="M145.64,82.76h11.55c1.69,2.69.79,5.2-.52,7.68-4.12,4.76-8.91,9.28-6.19,16.63a7.25,7.25,0,0,1-1.68,5.58,9.22,9.22,0,0,1-3.65,1.57c-12.42-.85-11.07-15.32-19.7-19.93V85.64C131.78,81.89,138.79,82.87,145.64,82.76Z"/><path class="cls-102" d="M183.16,74.1c-1.16-.58-4.61-1-1-2.51,3.06-1.32,7.13,0,9.69-3.27l5.71.07c1,1.9,1.95,3.81,2.92,5.71,6.51-.81,2.37,3.64,2.86,5.79,0,1,0,1.89,0,2.83-4.72.19-5.58,8-11.52,5.8-3.2,1.54-5.42-.07-7.47-2.29C181.06,82.47,184.68,78,183.16,74.1Z"/><path class="cls-142" d="M203.3,79.89c-6.11.62-.66-4.47-2.86-5.79,3.19-3.64,7.52-2.71,11.57-2.88,0,1,0,1.92,0,2.88C211.33,79.38,207.48,79.88,203.3,79.89Z"/><path class="cls-143" d="M223.53,97.17,214.65,94c2.74-4.13,6.24-2,9-2.83a17.35,17.35,0,0,0,2.79.08C228.68,94.79,224,94.93,223.53,97.17Z"/><path class="cls-144" d="M188.93,120.25c-6.16-4.22-11.46-10.47-20.21-8.65-1.54,3.15-4,5.86-7.32,3.4-4.6-3.44-1-7.19.87-10.64,6.91-8.64,16.26-4.06,24.69-4.54l2,.18C200.63,106.75,188.31,113.5,188.93,120.25Z"/><path class="cls-145" d="M186,85.61l5.8,2.91c3.56,5,.7,8.31-2.86,11.48l-.06.12c-3.1,2.22-5.9,1.57-8.54-.84-2.83-4.08-9-7.43-5.53-13.28C177.35,81.77,182.12,82.42,186,85.61Z"/><path class="cls-146" d="M165.81,105.83c-1.06,2.32-3.58,5.42-2.85,6.77,1.19,2.23,3.74-.55,5.76-1,3.23,1.88,6.81,3.36,9.61,5.75,3.46,3,6.83,6.76-1.17,8.54a11.2,11.2,0,0,0-8-4c-5.2-.69-10,2.71-15.28,1.44-4.38-1.09-7.64-3.49-9.29-7.81a4.7,4.7,0,0,1,1.07-3.92l2.87,0c2.47-4.72,6.2-7.65,11.62-8.2A7.32,7.32,0,0,1,165.81,105.83Z"/><path class="cls-147" d="M174.55,137.56l2.88-2.87c16.1,1.51,18.67,4.84,12.88,16.72a14.14,14.14,0,0,1-12,.34c-3.9-2.2-5.63-5.67-5.84-10A6.68,6.68,0,0,1,174.55,137.56Z"/><path class="cls-148" d="M188.75,149.23c7.18-13.38-6.91-10.19-11.32-14.54,14.55-6.17,18.1,3,20.11,14.39l0,0c-2.19,1.86-.58,5.63-3.57,7.09a6.21,6.21,0,0,1-5.93-1.09A5.09,5.09,0,0,1,188.75,149.23Z"/><path class="cls-149" d="M171.58,126.11l0,2.58a7.34,7.34,0,0,1-3.8,5.72,12.89,12.89,0,0,1-11.75-.28c-3-2.21-4.1-5-2.45-8.55,1.81-2,4.33-2.26,6.76-2.73C164.68,122,168.71,122,171.58,126.11Z"/><path class="cls-150" d="M171.58,126.11,160.07,126c-.36-8.53,9.11-3.75,11.52-8.52,3.61,1.64,5.58,4.38,5.57,8.42Z"/><path class="cls-151" d="M168.17,132.38l3.44-3.69c2.86,2.33,2.77,5.65,2.93,8.87-.11.85-.23,1.7-.33,2.55-1.07,2-2.79,2.21-4.76,1.85a6,6,0,0,1-2.71-2.55A6.43,6.43,0,0,1,168.17,132.38Z"/><path class="cls-135" d="M137,180.87c-5.54,10.53-13,13.46-23.08,5.76C120,178.49,129.77,184.73,137,180.87Z"/><path class="cls-152" d="M145.63,111.62v2.87c-1.66,3.93-6.59,3.42-8.73,6.57-.9,2.71,1.12,4,2.6,5.64a6,6,0,0,1,1.3,3.47l-.93,1.64-20.19-2.92c-2.57-6.35-2.28-12.22,2.87-17.29,0-3.82,0-7.65,0-11.47l2.88-5.83c6.7.17,14.89-2.17,13,10C137.85,107.92,141.27,111.06,145.63,111.62Z"/><path class="cls-153" d="M154.36,143.45c-5.92-2.52-22.81,8.62-14.49-11.64h0c6.63-4.32,12,1.39,18,2.21,3.56,1.58,6.36,3.69,5.86,8.17C161.11,146.22,157.93,146.29,154.36,143.45Z"/><path class="cls-154" d="M122.55,111.6c.1,5.94.34,11.9-2.87,17.29C110.65,121.47,109.22,115.31,122.55,111.6Z"/><path class="cls-155" d="M163.16,155.11c-6.89,4.77-12.11.11-17.6-3.09l5.85-2.91c3.64-1.8,7-6.18,11.43-2.92C166,148.47,165.17,152,163.16,155.11Z"/><path class="cls-156" d="M163.16,155.11c.39-10.43-6.31-7-11.75-6l3-5.66c3.15-.13,6.33-.18,8.54-3,1.86-1.51,3.74-1.73,5.63,0l.22,0a6.82,6.82,0,0,1,1.83,3.16,21.16,21.16,0,0,1-2,9.1,6.78,6.78,0,0,1-2.84,2.41C164.89,155,164,155.05,163.16,155.11Z"/><path class="cls-157" d="M165.76,155l.07-3c8.38-4.24,16-5.63,20,5.63C179.14,156.82,171.27,165,165.76,155Z"/><path class="cls-158" d="M185.84,157.64c-4.79-8.58-13.08-4.69-20-5.63,0-3.2,0-6.4,2.89-8.64,3.44,1.06,6.11,3.31,8.73,5.64l11.3.22c.06,1.89.12,3.77.17,5.66.74.64,1,1.28.74,1.91s-.5,1-.75,1Z"/><path class="cls-159" d="M188.91,157.76c0-1,0-1.91,0-2.87l5.7-.07a3.87,3.87,0,0,1,1.68,2.89,4.71,4.71,0,0,1-1.63,3l-5.75,2.87C188.92,161.62,188.92,159.69,188.91,157.76Z"/><path class="cls-160" d="M206.16,172.24q0,7.19,0,14.37c-2.81,3.11-6.1,3.64-9.82,1.84-5.52-7.53,1.24-11.23,5-15.89l2.09-.42C204.33,172.16,205.25,172.19,206.16,172.24Z"/><path class="cls-160" d="M194.7,157.76c0-1,0-2-.08-2.94q1.49-2.85,2.95-5.7,2.93,11.5,5.84,23l-.16.11C191,173,199,161.74,194.7,157.76Z"/><path class="cls-161" d="M194.69,186.62h11.48l3,8.57-2.93.3c-3.29,2.67-6.41,1.14-9.53-.39a6.54,6.54,0,0,1-3.54-4.77c.09-.69.19-1.37.28-2Z"/><path class="cls-162" d="M194.41,190l2.73,2.89c2.17,1.6,2.09,3.29.23,5.07l-5.63.44a21.75,21.75,0,0,0-2.78-.34c.13-2.77.25-5.54.38-8.3C191.11,188.19,192.83,187.68,194.41,190Z"/><path class="cls-163" d="M197.37,198c-.08-1.69-.15-3.38-.23-5.07l9.09,2.56C203.4,196.76,203.13,207.08,197.37,198Z"/><path class="cls-164" d="M189.06,230.16l8.49-.22c0,1.86.11,3.73,0,5.59-.19,4.17.2,9.61-5.15,10.05-6.8.55-5.78-5.78-6.6-10.12Z"/><path class="cls-165" d="M182.89,189.41l-5.51,5.86c-.89-5-2.45-10.06-2.47-15.09,0-4.21,2.18-9.25,7.3-8.26s3.35,5.67,2.26,9.33c-.52,1.78-.82,3.63-1.23,5.46.77.71,1,1.35.61,1.91S183.19,189.41,182.89,189.41Z"/><path class="cls-166" d="M194.7,157.76c4.4,3.92,1.78,12,8.55,14.49q-4.27,7.19-8.56,14.37h0c-2.86,2.08-5.73,2-8.6,0,8.61-6.74,6.45-17.06,8.61-25.95Z"/><path class="cls-167" d="M186.06,186.63h8.6c-.08,1.13-.16,2.26-.25,3.4l-5.07-.25c-2.1-1-4.75,7.87-6.45-.35.16-.9.28-1.81.35-2.71Z"/><path class="cls-168" d="M186,85.61c-2.77.34-7.32-.2-8,1.18-2.41,4.86,4.41,6.31,5.12,10.4a8.22,8.22,0,0,1-3.52,2.17c-6.17-.8-12.64-.13-18.29-3.59-2.62-2.13-5.72-3.83-7-7.26,1-1.91,1.93-3.83,2.89-5.74,5.39-3,15,6.4,17.29-5.79,3.21,0,6.42,0,8.68-2.88C186.79,77.27,185.86,81.57,186,85.61Z"/><path class="cls-103" d="M154.3,88.51c3.19,0,6.4,0,8.5,3.06-3.3,5.33-8.74,8.68-12.52,13.57l-1.73.73c-3,1-6.18,1.29-5.08-3.21A21,21,0,0,1,154.3,88.51Z"/><path class="cls-169" d="M160.1,105.88l-11.6,5.72c0-1.91,0-3.82.05-5.73l0-.25c3.06-2.66,6.36-3.47,10.07-1.4C159.14,104.77,159.62,105.32,160.1,105.88Z"/><path class="cls-169" d="M180.05,97.23l3.06,0,5.77,2.93c-2.24,4.41-5.52,5.41-10.24,3.86-4.4-1.46-9-1.88-12.83,1.85l-5.71,0-.11-.15C161.87,91.57,173.13,99.53,180.05,97.23Z"/><path class="cls-170" d="M171.59,117.47c-.61,7.2-8.65,4.36-11.52,8.52l-5.55.43c-3,1.74-5.22,1.23-6.66-2,.55-3.83,4.26-2.79,6.41-4.15C160,119.28,165.49,116.33,171.59,117.47Z"/><path class="cls-171" d="M154.27,120.25l-5.69,2.93-1.36,1.25a7.64,7.64,0,0,1-3.61-.34c-3.46-2.51-8.25-2.09-11.48-5.14l-.93-1.58c4.16-4.24,9.52-2.45,14.43-2.88Z"/><path class="cls-172" d="M177.45,149c-4.23.18-8-.33-8.73-5.64l0-3,5.46-.24Z"/><path class="cls-121" d="M145.66,123.18h2.91l5.94,3.24q1.59,2.92,3.16,5.85a1.89,1.89,0,0,1-.29,2.53c-6.45,2.62-11.9-.65-17.51-3v-2.89C140.15,125.35,142.07,123.42,145.66,123.18Z"/><path class="cls-173" d="M157.38,134.8a17.81,17.81,0,0,1,.29-2.53l10.5.11.36,8-5.63,0Z"/><path class="cls-171" d="M145.66,123.18l-5.79,5.74c-7.12-.67-14.22-1.36-8.67-11.55l0,0c3.17,6,10.64,1.17,14.38,5.73Z"/><path class="cls-174" d="M180.05,97.23c-5.39,5.9-16-.4-20.06,8.5l-11.41-.1c0-9.44,4.71-14.21,14.22-14.06Z"/><path class="cls-175" d="M145.61,123.13c-6,1.07-13.15,5.13-14.38-5.73C136.45,118.24,143.41,114.71,145.61,123.13Z"/><path class="cls-2" d="M217.24,306.45l12.55-2.38c3.59-4.19,3.88-8.82,2.12-13.71a5.58,5.58,0,0,0-3.74-2.6,42.6,42.6,0,0,1-13.85.51c-3.42,5-2.44,12.29-9.68,15.25-1.25,3.61,2.59,2.94,4.18,4.16Z"/><path class="cls-8" d="M246.32,296c7.29-2.67,13.26-7.18,19.28-11.61-2.08-4-5.64-6.62-9.9-8.54-6,0-9.6-7.53-16.59-4.69a3.73,3.73,0,0,0-1.65,2.09c0,2.49,1.17,5,.35,7.5a9.55,9.55,0,0,0,1,5C242.57,288.44,242.83,293.23,246.32,296Z"/><path class="cls-9" d="M229.46,289.16l.33,14.92,8.16-3.72c2.34-6.68-2.59-12.2-3.58-18.36-2.2-2.59-.24-8.2-6.69-7.7a6.55,6.55,0,0,0-2.6,5.33C224.51,283.58,226.28,286.64,229.46,289.16Z"/><path class="cls-10" d="M232.06,283.62,238,300.36l4.2-1.8c2.49-3.09,2.91-6.32.8-9.73-4.94-1.55-4-6.42-6.33-9.43a5.16,5.16,0,0,0-3.12-.49C231.14,280,230.37,281.49,232.06,283.62Z"/><path class="cls-11" d="M271.76,279.21a31.83,31.83,0,0,0-.25-3.66c-.25-1.37.95-3.37-1-3.88-.67-.18-2.07,1.93-3.13,3-2.65.5-4.58,1.8-5.48,4.21a4.75,4.75,0,0,0,.43,2.72c1.51,1.76,3.44,1.68,5.49,1Z"/><path class="cls-12" d="M240.35,289.43c2.81,2.68,1.62,6,1.8,9.13l4.17-2.52c0-4.45,1.12-9.39-6-10.44C239,286.87,239.09,288.15,240.35,289.43Z"/><path class="cls-13" d="M267.83,282.63l-4.89-2.36c-.76-.93-.73-2.16-1.4-3.14a5.61,5.61,0,0,0-4.42-2,4.85,4.85,0,0,0-2.26,1,1.6,1.6,0,0,0,0,2.1c3.77,1.74,6,5.8,10.69,6.14Z"/><path class="cls-23" d="M225.66,287.48c0,.57.07,1.15.11,1.72l3.69,0-1.53-9.39a3.07,3.07,0,0,0-2-1.08,3.17,3.17,0,0,0-2,1.05Q224.76,283.61,225.66,287.48Z"/><path class="cls-28" d="M254.91,278.28l0-2.13c-.07-.43-.13-.86-.19-1.3A15.78,15.78,0,0,0,249,269c-2.75-1.1-5.5-2.24-8.62-1.89a5.74,5.74,0,0,0-2.56,1.43,3,3,0,0,0,.66,3.83C245.25,271.37,248.14,279.31,254.91,278.28Z"/><path class="cls-29" d="M240.35,289.43c0-1.28,0-2.55,0-3.83,0-1.89,0-3.79,0-5.69,1-2.11-.27-3.35-2.06-4.38a3,3,0,0,0-2.67.67,2.9,2.9,0,0,0,.53,3.73C236.19,283.6,235.8,287.41,240.35,289.43Z"/><path class="cls-30" d="M236.34,276q1,.06,2,.15c.56-.41.76-.84.61-1.28s-.32-.68-.5-.68c0-.64.06-1.27.08-1.91,0-1.31.06-2.62.08-3.93.72-1.14,1.19-2.39-.17-3.3-2.24-1.5-3.72.08-5.21,1.35C231.24,270.46,231.91,273.76,236.34,276Z"/><path class="cls-31" d="M238.43,274.23c0,.65-.07,1.31-.11,2l2.09,3.72C243.43,277,242.42,275.16,238.43,274.23Z"/><path class="cls-32" d="M263.41,265.11c.66,4.43,1.34,8.86-.22,13.25,2.51-.17,3.89-1.42,4.2-3.69C267.45,271,267.81,267.23,263.41,265.11Z"/><path class="cls-33" d="M225.82,279.69l2.11.08c.11-1.89.23-3.79.35-5.68l-1-.81c-2.55-.66-5.29-.45-7.79-1.39a58.61,58.61,0,0,0-6.86-1.51,7,7,0,0,0-4.35,1.2c-2.56,3-4.08,5.92,0,8.87,3.17,1.26,5.95-1.35,9-.76C220.17,280.22,223,277.56,225.82,279.69Z"/><path class="cls-34" d="M232.06,283.62l2.15-3.77c2.07-4.92.95-8.09-5.49-8.31a1.89,1.89,0,0,0-.88,2.67l.43-.12C231.35,276.66,228.75,281.12,232.06,283.62Z"/><path class="cls-35" d="M228.48,272.11c4.82.78,5.9,3.87,5.73,7.74.66,0,1.33,0,2,.08,0-1.3.09-2.6.13-3.89l-2-9.52a3.2,3.2,0,0,0-2.68-2.65,5.44,5.44,0,0,0-4.78,2.49,5.09,5.09,0,0,0-.33,3.9A3.91,3.91,0,0,0,228.48,272.11Z"/><path class="cls-36" d="M260.93,278.05q.09-3.66.2-7.3c-.78-1.33-1.54-2.69-3.63-2.22-3.46,2.42-2.9,5.06-.5,7.8Z"/><path class="cls-37" d="M257,276.33c.18-2.62-.44-5.44,2.19-7.46,0-3.75-2.44-2.85-4.8-2.05-2.83,3.14-1.69,6.14.39,9.12l.11.21Z"/><path class="cls-60" d="M232.36,264.67l1.94,1.85c2.14-.75,4.08-1.11,4.29,1.87l1,0,1,0c2.4-1.56,3.8-3.41,2.14-6.17-2.17-1.92-4.79-2.1-7.57-1.69a7,7,0,0,0-2.78,1.45A1.94,1.94,0,0,0,232.36,264.67Z"/><path class="cls-61" d="M242.6,263.08l-2,5.32,7.87,3-1.73-2.71C245.48,266.74,248,262.44,242.6,263.08Z"/><path class="cls-64" d="M226.2,270.12c-3,.1-4.35,2.45-6.41,3.84,2.59,3,5.33,1.27,8.05.25.21-.7.42-1.4.64-2.1-.16-.59-.31-1.18-.44-1.78C227.56,269.24,227,269.17,226.2,270.12Z"/><path class="cls-66" d="M226.05,260.9q1.08,2.82,2.14,5.62l4.17-1.85c0-.55,0-1.09,0-1.64a6.51,6.51,0,0,0-2.78-5.8c-1.31-.74-2.63-1.06-4-.05A3.53,3.53,0,0,0,226.05,260.9Z"/><path class="cls-176" d="M234.39,262.43c0-.5.08-1,.1-1.5,2.65-3.2,3.22-6.16-1.24-8.52-5.95-.51-3.39,4.28-4.85,6.58.54,2,2.12,3.12,4,4Z"/><path class="cls-99" d="M226.52,253.22c-.1,1.28-.19,2.57-.29,3.85L228.4,259c4.69-.7,1.61-3.72,2-5.7A2.81,2.81,0,0,0,226.52,253.22Z"/><path class="cls-2" d="M271.36,264.9l-10.56-7.19c-5.5.43-9,3.49-11.2,8.19a5.68,5.68,0,0,0,.8,4.49,42.35,42.35,0,0,1,10.16,9.43c5.94-1.1,10.43-7,17.63-3.93,3.44-1.67.25-3.91,0-5.9Z"/><path class="cls-8" d="M243.43,251.71c-7.05-3.27-14.46-4.31-21.85-5.43-1.39,4.32-.69,8.67,1,13,4.25,4.29,1.46,12.11,8.41,15.05a3.75,3.75,0,0,0,2.64-.31c1.77-1.76,2.68-4.33,5.05-5.55a9.49,9.49,0,0,0,2.85-4.26C240.71,259.73,243.91,256.16,243.43,251.71Z"/><path class="cls-9" d="M250.49,268.49,260.8,257.7l-8.39-3.14C246,257.64,245.61,265,242,270.08c-.28,3.38-5.64,6-.72,10.17a6.55,6.55,0,0,0,5.61-1.93C250,275.92,251,272.51,250.49,268.49Z"/><path class="cls-10" d="M244.73,270.57l7.68-16-4.25-1.69c-3.94.42-6.53,2.41-7.45,6.31,2.41,4.59-1.72,7.35-2.19,11.14a5.15,5.15,0,0,0,1.86,2.55C242.82,273.78,244.42,273.27,244.73,270.57Z"/><path class="cls-11" d="M213.54,245.62a29.83,29.83,0,0,0-2.41,2.75c-.79,1.15-3,1.72-2,3.45.35.6,2.83.09,4.33.09,2.23,1.52,4.51,2,6.85.89a4.63,4.63,0,0,0,1.62-2.22c.18-2.31-1.24-3.62-3.15-4.61Z"/><path class="cls-12" d="M243,260.59c-.08-3.88,3.12-5.4,5.19-7.73l-4.73-1.16c-3.18,3.12-7.43,5.84-3.17,11.59C242.14,263.38,243,262.4,243,260.59Z"/><path class="cls-13" d="M218.74,246l1.79,5.13c-.13,1.19-1,2-1.23,3.2a5.59,5.59,0,0,0,1.74,4.51,4.7,4.7,0,0,0,2.31.89,1.59,1.59,0,0,0,1.45-1.51c-1.44-3.91-.12-8.32-3.22-11.91Z"/><path class="cls-23" d="M252,272.36c.38-.43.76-.86,1.13-1.3l-2.64-2.58c-1.84,2.58-3.7,5.15-5.55,7.73a3.07,3.07,0,0,0,.66,2.19,3.18,3.18,0,0,0,2.19.7Z"/><path class="cls-28" d="M224.8,258.19l-1.5,1.51c-.25.35-.51.71-.78,1.06a15.63,15.63,0,0,0-.16,8.18c1.17,2.72,2.3,5.46,4.76,7.43a5.63,5.63,0,0,0,2.82.8,3,3,0,0,0,2.24-3.18C226.75,269.9,230.31,262.24,224.8,258.19Z"/><path class="cls-29" d="M243,260.59l-2.71,2.7-4,4c-2.2.79-2.18,2.56-1.65,4.56a3,3,0,0,0,2.37,1.41,2.92,2.92,0,0,0,2.26-3C241.8,267.66,244.77,265.24,243,260.59Z"/><path class="cls-30" d="M236.34,272.9l-1.29-1.51c-.68-.1-1.13.06-1.33.48s-.26.7-.14.83l-1.4,1.29-2.84,2.73c-1.31.29-2.53.85-2.21,2.45.53,2.65,2.69,2.58,4.65,2.73C236,280.45,237.86,277.64,236.34,272.9Z"/><path class="cls-31" d="M233.58,272.7l1.47-1.31c.39-1.37.77-2.74,1.16-4.11C232,267.23,231.43,269.22,233.58,272.7Z"/><path class="cls-32" d="M209.47,261.49c2.67-3.61,5.32-7.22,9.53-9.22-1.89-1.65-3.75-1.74-5.58-.36C210.78,254.46,207.87,256.88,209.47,261.49Z"/><path class="cls-33" d="M246.37,277.75l-1.44-1.54L240.67,280c.05.43.09.85.13,1.28,1.35,2.27,3.43,4.06,4.53,6.49a60.6,60.6,0,0,0,3.78,5.93,7.11,7.11,0,0,0,3.93,2.23c3.9-.29,7.07-1.31,6.25-6.3-1.35-3.14-5.16-3.26-6.94-5.87C250.73,281.38,246.86,281.26,246.37,277.75Z"/><path class="cls-34" d="M244.73,270.57l-4.18,1.14c-5,2-6.4,5-2,9.76a1.89,1.89,0,0,0,2.51-1.27l-.39-.22C240.31,276,245.3,274.67,244.73,270.57Z"/><path class="cls-35" d="M239.12,281.23c-2.85-4-1.43-6.91,1.43-9.52-.46-.48-.92-1-1.36-1.47l-2.85,2.66-5.28,8.18a3.18,3.18,0,0,0,0,3.77,5.46,5.46,0,0,0,5.14,1.61,5,5,0,0,0,3-2.53A3.82,3.82,0,0,0,239.12,281.23Z"/><path class="cls-36" d="M220.38,254.09l-5.3,5c-.39,1.49-.82,3,1,4.14,4.15.73,5.62-1.53,5.87-5.17Z"/><path class="cls-37" d="M222,258.08c-2,1.73-3.55,4.16-6.83,3.74-2.63,2.67-.29,3.74,1.94,4.84,4.22-.23,5.54-3.15,6.17-6.73l.08-.23Z"/><path class="cls-60" d="M231.12,283.76l-.06-2.68c-2.05-1-3.67-2.11-1.72-4.36l-.7-.75-.74-.71c-2.8-.6-5.1-.28-5.87,2.85.18,2.89,1.9,4.87,4.16,6.55a6.89,6.89,0,0,0,3,.94A2,2,0,0,0,231.12,283.76Z"/><path class="cls-61" d="M222.75,277.63l5.16-2.37c-1.16-2.55-2.32-5.11-3.47-7.66-.23,1-.46,2.09-.7,3.14C223.31,273,218.5,274.28,222.75,277.63Z"/><path class="cls-64" d="M239.33,284.25c2.18,2,4.81,1.35,7.25,1.82.25-3.91-2.88-4.67-5.52-5.87l-1.93,1c-.31.54-.62,1.06-1,1.57C237.74,283.91,238.13,284.39,239.33,284.25Z"/><path class="cls-66" d="M232.92,290.87q1.23-2.73,2.45-5.48l-4.25-1.63c-.39.37-.78.76-1.16,1.15a6.5,6.5,0,0,0-2.13,6.07c.39,1.45,1.1,2.6,2.76,2.84A3.55,3.55,0,0,0,232.92,290.87Z"/><path class="cls-177" d="M164.68,132.23l7.44-.21c0,1.8.1,3.61,0,5.41-.17,4,.17,9.28-4.51,9.7-6,.54-5.07-5.58-5.79-9.78C162.78,135.64,163.73,133.94,164.68,132.23Z"/><path class="cls-177" d="M226.29,145.17,219.07,147c-.4-1.74-.87-3.47-1.19-5.23-.7-3.94-2.17-9,2.31-10.39,5.71-1.82,6.15,4.31,7.76,8.22Q227.13,142.38,226.29,145.17Z"/><path class="cls-176" d="M228.1,283.9c-.38.32-.76.65-1.13,1-4.14.39-6.63,2.08-5.15,6.9,3.85,4.57,5.43-.63,8.08-1.22,1-1.79.71-3.71.06-5.66Z"/><path class="cls-99" d="M227.15,296l2.93-2.52-.18-2.89c-3.8-2.82-3.77,1.49-5.46,2.59A2.81,2.81,0,0,0,227.15,296Z"/></svg>