<svg id="Layer_1" data-name="Layer 1" xmlns="http://www.w3.org/2000/svg" viewBox="0 0 320 320"><defs><style>.cls-1{fill:#c1c1c0;}.cls-2{fill:#a8a5a5;}.cls-3{fill:#999493;}.cls-4{fill:#afabaa;}.cls-5{fill:#b0adac;}.cls-6{fill:#afaba2;}.cls-7{fill:#c6c4c4;}.cls-8{fill:#d2d1d1;}.cls-9{fill:#e4cc95;}.cls-10{fill:#a09b9a;}.cls-11{fill:#969190;}.cls-12{fill:#8e8a88;}.cls-13{fill:#c7c5c5;}.cls-14{fill:#b0adad;}.cls-15{fill:#776455;}.cls-16{fill:#bcb7b0;}.cls-17{fill:#cbcbcd;}.cls-18{fill:#d0cfb2;}.cls-19{fill:#c7c6c5;}.cls-20{fill:#8c8786;}.cls-21{fill:#8f8582;}.cls-22{fill:#958770;}.cls-23{fill:#b2976d;}.cls-24{fill:#b57e6f;}.cls-25{fill:#ad746b;}.cls-26{fill:#2e2d31;}.cls-27{fill:#303032;}.cls-28{fill:#ebdaab;}.cls-29{fill:#676567;}.cls-30{fill:#aeaba8;}.cls-31{fill:#cdc8cd;}.cls-32{fill:#1e1e22;}.cls-33{fill:#1a191c;}.cls-34{fill:#bdb9b7;}.cls-35{fill:#b4b0ae;}.cls-36{fill:#8e837e;}.cls-37{fill:#969292;}.cls-38{fill:#aca7a3;}.cls-39{fill:#bebcbf;}.cls-40{fill:#7d7458;}.cls-41{fill:#928b8b;}.cls-42{fill:#b1b4af;}.cls-43{fill:#29282b;}.cls-44{fill:#1a191e;}.cls-45{fill:#827c7b;}.cls-46{fill:#8a8582;}.cls-47{fill:#7e7775;}.cls-48{fill:#c3c0ad;}.cls-49{fill:#aea8a6;}.cls-50{fill:#cecea2;}.cls-51{fill:#c1c1c1;}.cls-52{fill:#c7c6c6;}.cls-53{fill:#827e7b;}.cls-54{fill:#88807d;}.cls-55{fill:#b1aca7;}.cls-56{fill:#b6a79e;}.cls-57{fill:#a4918a;}.cls-58{fill:#6d5e5f;}.cls-59{fill:#ab8570;}.cls-60{fill:#8d614c;}.cls-61{fill:#866a5d;}.cls-62{fill:#171717;}.cls-63{fill:#1c1a1b;}.cls-64{fill:#895a46;}.cls-65{fill:#8f6152;}.cls-66{fill:#a06a5b;}.cls-67{fill:#7e4935;}.cls-68{fill:#332121;}.cls-69{fill:#bcbbb5;}.cls-70{fill:#e8c3bb;}.cls-71{fill:#9f8c8b;}.cls-72{fill:#d6b6af;}.cls-73{fill:#c6aea5;}.cls-74{fill:#191516;}.cls-75{fill:#9a9b98;}.cls-76{fill:#777271;}.cls-77{fill:#cbc8bd;}.cls-78{fill:#aaa7a6;}.cls-79{fill:#19191c;}.cls-80{fill:#443234;}.cls-81{fill:#161a1f;}.cls-82{fill:#785646;}.cls-83{fill:#c7c5c6;}.cls-84{fill:#d9d2e0;}.cls-85{fill:#a8a5a0;}.cls-86{fill:#bdbbbc;}.cls-87{fill:#757477;}.cls-88{fill:#1b1716;}.cls-89{fill:#c0a197;}.cls-90{fill:#7c7170;}.cls-91{fill:#a19b9d;}.cls-92{fill:#b2b2b1;}.cls-93{fill:#706a67;}.cls-94{fill:#babdbc;}.cls-95{fill:#777473;}.cls-96{fill:#96827b;}.cls-97{fill:#715549;}.cls-98{fill:#c9c4bf;}.cls-99{fill:#373430;}.cls-100{fill:#b7aca5;}.cls-101{fill:#90705c;}.cls-102{fill:#83634d;}.cls-103{fill:#a5755e;}.cls-104{fill:#c8b8b8;}.cls-105{fill:#8f5f4c;}.cls-106{fill:#976850;}.cls-107{fill:#996b53;}.cls-108{fill:#8c5c43;}.cls-109{fill:#714e40;}.cls-110{fill:#755146;}.cls-111{fill:#996c5f;}.cls-112{fill:#dbbaa8;}.cls-113{fill:#cfaa9b;}.cls-114{fill:#dcaaa1;}.cls-115{fill:#d8a69b;}.cls-116{fill:#c5a191;}.cls-117{fill:#e3c2ad;}.cls-118{fill:#d7b8aa;}.cls-119{fill:#a29693;}.cls-120{fill:#9c8e8d;}.cls-121{fill:#b3acac;}.cls-122{fill:#bcb4b8;}.cls-123{fill:#b68171;}.cls-124{fill:#9e725c;}.cls-125{fill:#c49788;}.cls-126{fill:#9e735a;}.cls-127{fill:#7a615a;}.cls-128{fill:#d9aca1;}.cls-129{fill:#8f6861;}.cls-130{fill:#d1b3b9;}.cls-131{fill:#a07e6d;}.cls-132{fill:#be8e7c;}.cls-133{fill:#b0806e;}.cls-134{fill:#c69985;}.cls-135{fill:#c09b8b;}.cls-136{fill:#a2725f;}.cls-137{fill:#734d3e;}.cls-138{fill:#92664f;}.cls-139{fill:#b27f6a;}.cls-140{fill:#9f7565;}.cls-141{fill:#dbae9f;}.cls-142{fill:#dfac9e;}.cls-143{fill:#bb8f78;}.cls-144{fill:#b8988a;}.cls-145{fill:#ba847b;}.cls-146{fill:#be8681;}.cls-147{fill:#b89482;}.cls-148{fill:#bf8b83;}.cls-149{fill:#d8ae9e;}.cls-150{fill:#dbb7a4;}.cls-151{fill:#a67e70;}.cls-152{fill:#cda998;}.cls-153{fill:#99786c;}.cls-154{fill:#b69689;}.cls-155{fill:#cc9f91;}.cls-156{fill:#e8bcb5;}.cls-157{fill:#bb948b;}.cls-158{fill:#977b79;}.cls-159{fill:#a07f77;}.cls-160{fill:#ac9694;}.cls-161{fill:#986f68;}.cls-162{fill:#9a7566;}.cls-163{fill:#e3b3ae;}.cls-164{fill:#c8a99d;}.cls-165{fill:#d1ac9e;}.cls-166{fill:#37271a;}.cls-167{fill:#bc8478;}.cls-168{fill:#c6967f;}.cls-169{fill:#ae7b5e;}.cls-170{fill:#b98b76;}.cls-171{fill:#d0a188;}.cls-172{fill:#a77a67;}.cls-173{fill:#cb9e82;}.cls-174{fill:#af8e7b;}.cls-175{fill:#b3826e;}.cls-176{fill:#8f5f52;}.cls-177{fill:#bc8a73;}.cls-178{fill:#c3907f;}.cls-179{fill:#c99888;}.cls-180{fill:#c0978b;}.cls-181{fill:#c9928c;}.cls-182{fill:#e3ada8;}.cls-183{fill:#bf948f;}.cls-184{fill:#cca593;}.cls-185{fill:#a86f72;}.cls-186{fill:#d19d98;}.cls-187{fill:#cea097;}.cls-188{fill:#9a7469;}.cls-189{fill:#dfa6a3;}.cls-190{fill:#d29f97;}.cls-191{fill:#be9285;}.cls-192{fill:#765647;}.cls-193{fill:#926956;}.cls-194{fill:#41291c;}.cls-195{fill:#ba8f78;}.cls-196{fill:#dcb8a2;}.cls-197{fill:#7f6755;}.cls-198{fill:#c59985;}.cls-199{fill:#956356;}.cls-200{fill:#d7a596;}.cls-201{fill:#a67164;}.cls-202{fill:#d4ab9d;}.cls-203{fill:#e2b09f;}.cls-204{fill:#b9877b;}.cls-205{fill:#a77c6e;}.cls-206{fill:#ad766d;}.cls-207{fill:#d7aca3;}.cls-208{fill:#af7f76;}.cls-209{fill:#b9807c;}.cls-210{fill:#cb9790;}.cls-211{fill:#b27971;}.cls-212{fill:#ad776c;}.cls-213{fill:#9f675d;}.cls-214{fill:#6c717a;}.cls-215{fill:#895a4e;}</style></defs><path class="cls-1" d="M115.54,302a42.07,42.07,0,0,1-18.49-7.22c-.77-4.61-3.23-5.45-7.07-3.16l-4.91-2.92c-1.73-8.05,3.74-13.41,7.23-19.53,1.91-2.6,4.29-4.27,7.7-3.91,5,1.53,5.82,10.23,13.22,7.55,5.32-1.25,10.78-2.91,13.5,4.18.58,4-3.53,5.39-4.78,8.39a23.89,23.89,0,0,1-1,3.11C118.69,292.83,120.27,298.71,115.54,302Z"/><path class="cls-2" d="M66.82,276.79,59,269.71c-1.25-3.94-1.44-7.79.91-11.34C61,254.88,56.79,256,56,254.16a7.34,7.34,0,0,1-1.18-3.3c.18-3.41,2.07-5.61,4.95-7.11a13.4,13.4,0,0,1,3.38-1,19.74,19.74,0,0,0,8.16-1.53,13.35,13.35,0,0,1,3.27-.38c3.18.57,6.35.95,9.29-1a10.69,10.69,0,0,1,6.78-1,6.65,6.65,0,0,1,3,2c2.35,4.87-.82,8.12-3.37,11.56a83.4,83.4,0,0,0-10.82,11.17,43.09,43.09,0,0,0-9.73,11.44A8.67,8.67,0,0,1,66.82,276.79Z"/><path class="cls-3" d="M212.63,268.87q2.38,6.44,4.79,12.88c-4.87,5.15-11.85,6.13-18,8-10,3.1-16.79,8.65-20.16,18.48l-7.37.86c-4.19-3.8-.85-8.38-1.32-12.57.12-2.51.1-5,1.23-7.38,5.72-9.48,17.78-9.87,24.87-17.39,2.8-3.28,6.73-4.74,10.46-6.54C210,264.83,211.36,266.8,212.63,268.87Z"/><path class="cls-4" d="M179.26,308.27c-4.17-6.37-2.11-11.47,3.66-15.24,10.44-6.84,21.73-11.4,34.5-11.28,1.1,2.49,2.2,5,3.29,7.48-5.69,7.66-15.4,7.2-22.92,11.21-4.35,2.32-9,4.11-13.19,6.77Z"/><path class="cls-5" d="M184.6,307.21c8.84-12.41,21.51-17.13,36.11-18l4.84,2.66c-.16,7.17-6.61,6.58-10.77,8.23C205.12,304,195.19,307.14,184.6,307.21Z"/><path class="cls-6" d="M82.26,286.82a12.83,12.83,0,0,1-7.67-5.06c-2.35-12.88,7-20.27,13.59-29,3.47-2.44,4.58-7.6,9.55-8.33a5.75,5.75,0,0,1,4.47,3.12,10.28,10.28,0,0,1,.73,5.56c-.86,3.61-2.8,6.69-4.8,9.74-2.86,2.87-5.65,5.78-6.57,9.94C86,275.85,88.88,284.49,82.26,286.82Z"/><path class="cls-7" d="M90.06,253.58,74.59,281.76c-3-1-6.1-1.87-7.77-5l.29-2.8c2.63-4.84,7.29-8.08,10.06-12.8a30.88,30.88,0,0,1,10.15-10.34C89.78,250.21,90.67,251.15,90.06,253.58Z"/><path class="cls-8" d="M127.25,305.06c-3.25-.33-6.78.64-9.54-2-1.24-6.3-1.76-12.59.41-18.81h0c7.11-5,9.89.55,13,5.31,1.69,3.1,4.76,5.49,4.88,9.41C135.54,304.51,132.94,307,127.25,305.06Z"/><path class="cls-9" d="M46.66,258.4l-7.51-10.08c.7-3.87-1.85-8.76,3.5-11.18,4.69-1.25,9.37-2.62,14.27-1A5.64,5.64,0,0,1,60.39,240c-.18,5.19-5.62,7.59-6.56,12.39C52.31,255.46,51.91,259.84,46.66,258.4Z"/><path class="cls-10" d="M169.15,309.31l-15.29,0c-7.66-5.55-.89-10,1.09-14.91a8.72,8.72,0,0,1,5.77-2.26C171.73,293.85,173.86,299.9,169.15,309.31Z"/><path class="cls-11" d="M156.36,296.91c.69,4.45-5.64,7.49-2.5,12.44-5.3.15-10.72,1.34-15.67-1.74a7.55,7.55,0,0,1,1.52-3.08c4.76-2.36,4.63-9.44,10.36-10.82C152.26,294.54,154,296.43,156.36,296.91Z"/><path class="cls-12" d="M169.15,309.31c1.9-8.58-2.63-12.8-10.16-15,7.23-11.76,11-3.11,15.29,2.58q-1.18,6.12-2.39,12.23Z"/><path class="cls-13" d="M90,291.65c1.27-4.42,3-10.32,8.45-7.56,3.64,1.83,2.08,7.42-1.38,10.72Z"/><path class="cls-14" d="M82.26,286.82c3.4-4.71,1.14-12.18,7.54-15.41,1.76-.54,3.56-1.89,5.24.16q-5,8.58-10,17.16Z"/><path class="cls-15" d="M46.66,258.4c4.1-.88,2-5.81,4.87-7.47,1.64-1.5,3.25-1.52,4.83.08l.71,2.58a10.37,10.37,0,0,1,1.67,3.15c.15,4.55-2,6.76-6.58,6.49A8.47,8.47,0,0,1,46.66,258.4Z"/><path class="cls-16" d="M52.16,263.23,57,256.12c3.1-1.07,6.74-3.73,7.38,2.5L59,269.71Z"/><path class="cls-17" d="M141,306.57l-2.83,1c-3.73-.48-7.73.17-10.94-2.55,4.63-.68,6.34-3.62,6.16-8,2.62-1.49,4.8-.43,6.9,1.17C142.44,300.84,143.9,303.52,141,306.57Z"/><path class="cls-18" d="M43.87,238.16q-2.35,5.09-4.72,10.16l-3.71-4.66c.61-4.8,2.66-8.28,8-8.72A2.13,2.13,0,0,1,44.4,237C44.27,237.77,44.09,238.16,43.87,238.16Z"/><path class="cls-19" d="M118.12,284.24q-.21,9.4-.41,18.81a3.33,3.33,0,0,1-2.17-1C116.24,296.07,113.63,289.64,118.12,284.24Z"/><path class="cls-20" d="M238.21,207.9c1.91,3.3,5.38,1.28,7.94,2.35-14.87,6.76-26.06,17.06-31.48,32.88-10.67-2.27-6-8.59-3.82-14.29,1.47-5.27,5.23-9.55,6.47-14.94,2.44-5.75,7.8-7.79,12.9-10.18C233.71,203.54,236,205.72,238.21,207.9Z"/><path class="cls-21" d="M215.27,230.48c-2,4.13-7.91,8.08-.6,12.65l-1.92,5.38a13.55,13.55,0,0,1-3,2c-4,.93-7.38.3-9.79-3.33-1.84-4.3-1.24-8.78-1-13.23,1.21-3.64,2.1-7.41,4.16-10.72a5.41,5.41,0,0,1,3.36-1.71C212.37,221.68,212.83,227,215.27,230.48Z"/><path class="cls-22" d="M202.61,248.36c2.52.29,5.08-2.18,7.56.14,2.9,3.82,0,8.53,1.93,12.5.17,2.62.35,5.25.53,7.87l-5-2.58a3.18,3.18,0,0,1-3.41.64c-3.9-2.77-5.52-6.85-6.56-11.29C197.6,252.06,198.77,249.29,202.61,248.36Z"/><path class="cls-23" d="M212.1,261c-2.92-3.81-1.65-8.28-1.93-12.5h2.58Q212.42,254.75,212.1,261Z"/><path class="cls-24" d="M232.66,100.28a43.16,43.16,0,0,1-.21,20.46c-1.95,3.44-1.56,8-5,10.71-6.15-1.1-5.37-7.14-7.81-10.9a42.9,42.9,0,0,1-1.58-5.33,11.18,11.18,0,0,1,.31-3.78c1-2.46,2.55-4.3,5.31-4.8,2.8.18,4.33,1.86,5.27,4.36a3.79,3.79,0,0,1,.31,1.62c-.23-4.12-4-9.24,1.42-12.55Z"/><path class="cls-25" d="M230.63,100.07V115l-7.78-7.29c-6.7-3.22.3-6.4,0-9.62a9,9,0,0,1,1.78-2.61l1.52-.49,4.4,2.63A8,8,0,0,0,230.63,100.07Z"/><path class="cls-26" d="M91.63,64.27Q93.33,54,95,43.76l5.06-7.7,5-3.09C109,44.29,102.24,60,91.63,64.27Z"/><path class="cls-27" d="M220.09,41.31c1,3.38,4.52,5.94,3.2,10-9.66.42-12.17-12-21.55-12a51.07,51.07,0,0,1-11.54-7.14c-2.53-3-6-4.6-9.47-6.12a7.66,7.66,0,0,1-2.17-2.5,2.73,2.73,0,0,1,1-2.91l5.17,0Z"/><path class="cls-28" d="M43.87,238.16c-.14-1.07-.27-2.15-.41-3.22a5.15,5.15,0,0,0-.1-2c.24-1.41,1.59-1.74,2.47-2.52,2.77-4.63,6.19-6.49,11-2.6a6.57,6.57,0,0,1,2.41,3.14c.61,2.83.3,5.37-2.25,7.21C52.6,240.74,48.24,240.89,43.87,238.16Z"/><path class="cls-2" d="M57.12,230.68c-.11-1-.22-1.93-.32-2.89l5-2.57,2.65.42c2.55,2.25,5.46,4.24,5.87,8.05.24,4.15.21,8.19-4.3,10.35C59.51,242,62,233.87,57.12,230.68Z"/><path class="cls-29" d="M45.83,230.39l-2.47,2.52c-2.13-.48-6.46.35-5.07-3C39.77,226.28,43.27,229.46,45.83,230.39Z"/><path class="cls-30" d="M125.71,279.13c-3-6.89-8.17-3.08-12.67-2.55-11.15,4.82-8.49-6.15-11.79-10.3-2.49-3.49-3.06-7-.2-10.61,1.65-2.08,3.58-3.61,6.45-3.35a6.73,6.73,0,0,1,4.26,3.47,9.64,9.64,0,0,1,.55,3.61c-1.73,5.2.73,6.11,5.51,6.81,6.77,1,13.73,3.09,11.18,12.8A2.93,2.93,0,0,1,125.71,279.13Z"/><path class="cls-19" d="M125.71,279.13c.83.06,1.66.1,2.49.13a7,7,0,0,1,2.67,2.58,10.45,10.45,0,0,1,.85,3.69c-.13,2.66-.9,5-3.41,6.39-2.85-3.29-4-8.77-10.19-7.67C118.72,279.69,122,279.1,125.71,279.13Z"/><path class="cls-31" d="M95,271.57c-1.76.51-3.56,1.87-5.24-.16-.14-4.45,2.34-7.5,5.45-10.21,2.63-1.21,4,.62,5.51,2.23a2.22,2.22,0,0,1-.69,2.82Z"/><path class="cls-14" d="M100.07,266.25a22.81,22.81,0,0,0,0-2.48c.83-1.19,1.69-1.16,2.59-.08,1.83,5.59,1.31,13.06,10.34,12.89C100.59,283.33,102.9,271.56,100.07,266.25Z"/><path class="cls-32" d="M122.65,25.59l5.73-4.67c12.2.36,23.49-9.89,36.24-3.08a5.73,5.73,0,0,1-.8,2.88,10.55,10.55,0,0,1-2.1,2.12,7.89,7.89,0,0,0-3.5,4.52c-1.58,4.72-3.86,9.39.3,13.94,1,1.25,1.64,2.75,2.93,3.76,2.59,2.63,7,3.06,8.63,6.86.1,3.59-2.35,5.38-4.93,7.1a11.78,11.78,0,0,1-3.57,1.07c-6.13.4-12.26-.15-18.39-.08-7.72-1.83-15.49-3.08-18.11-12.82-1.07-4-5.85-5.57-9.73-7.5-8.66-4.33-8.44-6,.66-12C118.23,27,121.37,29.25,122.65,25.59Z"/><path class="cls-33" d="M161.57,20.73l3-2.89a33.69,33.69,0,0,1,14.92,2.81c0,.88,0,1.75,0,2.63C172.83,27.38,167,25.46,161.57,20.73Z"/><path class="cls-34" d="M90.06,253.58l-2.74-2.73c1.77-3.35,5.08-5.89,5.23-10.08A44.1,44.1,0,0,1,91.31,224c10.29-6.78,15.47.24,20.54,7.59a7.26,7.26,0,0,1-1.3,5.4c-3.91,3.52-7.46,7.59-13,8.79Z"/><path class="cls-35" d="M67,233c-.84-2.46-1.68-4.93-2.51-7.39l7.52-.45c3.4.72,5,3.78,7.53,5.68,1.44.74,3,1.18,4.42,1.95,2.29,1.55,5.19,2.28,6.74,4.86a2.76,2.76,0,0,1-.69,3l-4.81,2.49c-3.43-.28-6.83.88-10.26.19l-2.85-.11C64.83,242.62,70.55,235.52,67,233Z"/><path class="cls-36" d="M57.12,230.68c7.8,1,7.15,7,7.38,12.55a1.63,1.63,0,0,1-.2,2.51l-2.69-.11c-1.78-1.13-4-2-2.4-4.85L57,238.14C57,235.65,57.07,233.17,57.12,230.68Z"/><path class="cls-37" d="M90,240.73,89.63,238c-2.45-2.72-3.37-5.75-1.88-9.28a5.81,5.81,0,0,1,4.82-3.16c3.93,5.06,3.88,10.12,0,15.17Z"/><path class="cls-38" d="M64.3,245.74c0-.84.1-1.68.2-2.51,3-2.87,2.3-6.64,2.46-10.2l5.1,10.27C70.12,246.18,68.37,249.65,64.3,245.74Z"/><path class="cls-39" d="M77.17,261.19c-.78,6.3-5.45,9.52-10.06,12.8C67.68,267.53,72.5,264.42,77.17,261.19Z"/><path class="cls-40" d="M59.21,240.78l2.4,4.85L56.36,251l-4.83-.08C53.84,247.35,55.4,243.21,59.21,240.78Z"/><path class="cls-41" d="M74.91,243.41c3.38-2,6.77-3.73,10.26-.19C81.81,246.26,78.4,246.92,74.91,243.41Z"/><path class="cls-42" d="M64.33,258.62c-1.93-2.42-4.63-2.53-7.38-2.5l.12-2.53c3.46,1.29,7-3.56,10.14,0C67.62,254.1,65.36,256.89,64.33,258.62Z"/><path class="cls-43" d="M118.1,28.43c-2,1.5-5.7,3.13-5.61,4.5.31,4.6,4.21,2.12,6.84,2.47,8.57,1.14,9.44,11.82,17.14,14.17l-5.09,3.31,12.31,3.7c-.5,7.86-6.68,5.88-11.22,6.24-6.24.5-12.84-1.16-18.15,3.72-3.78,3.89-9.84,5.92-10.21,12.6-.29,2.94-.34,6-2.77,8.16a3.42,3.42,0,0,1-3.26.36,6.43,6.43,0,0,1-2.86-5.13c-.49,3.71,3.22,4.71,4.65,7.21,1.81,4.09,1,7.51-2.51,10.28-6.71,2-7.13-3.38-7.35-7.15-.55-9.55-2-19.26,1.62-28.6,3.18-11,11.9-19.61,13.49-31.3q1.41-2.16,2.83-4.31l10.2-2.54a1.37,1.37,0,0,1,.55,1.55C118.5,28.17,118.3,28.43,118.1,28.43Z"/><path class="cls-43" d="M118.69,38.48c-2,1.51-5.7,3.13-5.61,4.5.31,4.61,4.21,2.12,6.84,2.48,8.57,1.14,9.43,11.82,17.14,14.17L132,62.94l12.31,3.7c-.5,7.86-6.68,5.88-11.22,6.24-6.24.49-12.84-1.17-18.15,3.71-3.78,3.89-9.85,5.93-10.21,12.61-.29,2.94-.34,6-2.77,8.16a3.42,3.42,0,0,1-3.26.35,6.41,6.41,0,0,1-2.86-5.12c-.49,3.71,3.22,4.71,4.65,7.21,1.81,4.08,1,7.51-2.51,10.27-6.71,2.06-7.13-3.37-7.35-7.14-.55-9.55-2-19.26,1.62-28.6,3.18-11,11.9-19.61,13.49-31.3q1.41-2.16,2.83-4.32l10.2-2.54c.57.53.75,1,.55,1.55S118.89,38.48,118.69,38.48Z"/><path class="cls-44" d="M118.1,28.43c0-.77,0-1.54.05-2.31l4.5-.53c1.78.63,5,1.29,3.58,3.41C124,32.36,120.7,30.78,118.1,28.43Z"/><path class="cls-45" d="M174.28,296.9c-4.8-2.61-9.15-7.89-15.29-2.58l-2.62,2.59c-2.93,1.58-4.84,1.13-5.12-2.57a3.89,3.89,0,0,1-.73-3.43,8.45,8.45,0,0,1,3.72-4.13,13.55,13.55,0,0,1,5.54-1.18c4.92.61,10-3.36,14.81.44a2.31,2.31,0,0,1-.15,3.38C174.39,291.91,174.33,294.41,174.28,296.9Z"/><path class="cls-46" d="M174.44,289.42c0-.89-.07-1.77-.1-2.66-2-4.64,1-7.3,3.91-10,2.92-1.36,5.7-3.09,8.92-3.76,4.29,0,8.83-3.21,12.78,1C193.46,282.47,182.15,283,174.44,289.42Z"/><path class="cls-47" d="M200,274l-12.77,2.58a3.66,3.66,0,0,1-.78-3.72c4.65-6.6,10.33-10.32,18.64-6.64l2.56.07C207.51,271.3,202.2,271.13,200,274Z"/><path class="cls-48" d="M107.88,253.53,103,256.18a2.91,2.91,0,0,1-2.82-2.78c0-1.65.05-3.31.08-5,1.29-2.47.93-6.23,5.05-6.53a7.39,7.39,0,0,1,6.13,3.74C112.26,249.19,111.19,251.86,107.88,253.53Z"/><path class="cls-49" d="M105.25,243.3l-5,5.14-2.62-2.62c3-3.83,4.57-9.16,10.34-10.2C110.5,239.39,109,241.73,105.25,243.3Z"/><path class="cls-50" d="M100.13,253.4l2.82,2.78a6.74,6.74,0,0,0-.25,7.51l-2.59.08-4.86-2.57Z"/><path class="cls-51" d="M128.31,291.92v-7.66c4.24-1.58,8.15.7,12.27,1a7.25,7.25,0,0,1,3,2.47c1.52,5.32,6.53,12.14-5.06,11.82l-5.15-2.5Z"/><path class="cls-52" d="M138.56,299.56c8.45-2.74.67-8.73,2.55-12.78a5.22,5.22,0,0,1,5-1.67c3.37,1,5,3.44,5.35,6.81-.07.8-.13,1.61-.19,2.42-4.54,3.12-1.71,12.42-10.23,12.23Z"/><path class="cls-53" d="M228.21,204.67a3.54,3.54,0,0,1,2.37.55c-.77,6-8.72,4.65-10.19,9.94-10.76,7.77-9.89-3.14-12.82-8a47.11,47.11,0,0,1-2.24-6.87,12.63,12.63,0,0,1,0-3.58c.85-2.84,1.74-5.69,4.8-7l1.74.31c1.57,4.22,3.54,8.12,8.06,10,.2.7.38,1.4.55,2.11C222.39,204.93,225.26,204.93,228.21,204.67Z"/><path class="cls-54" d="M210.21,204.9c4.59,2.23-.32,13.9,10.18,10.26,1.07,6-4.61,9.81-5.12,15.32a17.54,17.54,0,0,1-7.71-7.72,8.55,8.55,0,0,1-2.36-5.37C206.55,213.11,205.46,207.83,210.21,204.9Z"/><path class="cls-55" d="M202.61,248.36q-1.43,3.64-2.87,7.29l-1.37,1.1c-3.28.45-5.8-.56-7.22-3.71a6.71,6.71,0,0,1,.37-3.41c5.44-5.12,4.56-10.89,1.66-16.87a9,9,0,0,1,2.49-7,5.83,5.83,0,0,1,5.58-1.34c3.43,2.5,3,5.62,1.41,8.92Z"/><path class="cls-56" d="M202.66,233.34c-.2-3.1-.4-6.19-3.33-8.17-1.86-2.86-1.61-5.48.88-7.86,5.13-1.22,7,.49,5,5.62C204.93,226.54,205.43,230.34,202.66,233.34Z"/><path class="cls-57" d="M205.24,222.93c-.41-2.88-1.89-4.77-4.84-5.32l-1-1.6a7,7,0,0,1,2-5.2,5.84,5.84,0,0,1,5.3-1.52c3,2.47,2.83,5.33,1,8.4l-.12,5.07C206.78,222.81,206,222.86,205.24,222.93Z"/><path class="cls-58" d="M205,266.22l-17.79,7.9c-2.36.81-3.59-.58-4.63-2.36-1.71-6.25.72-11.19,4.94-15.56,4.24-3.79,8.15,3.8,12.4.38l-.22-.93A17.49,17.49,0,0,1,205,266.22Z"/><path class="cls-59" d="M228.07,130.68c-.15-4,.6-7.65,4.38-9.94,1.87,14.28-7.31,21.36-17.91,27.52-.6.14-1.21.26-1.82.35a7,7,0,0,1-2.67-5.23,13.76,13.76,0,0,1,8.72-12.54C221.84,129.27,225,132.23,228.07,130.68Z"/><path class="cls-60" d="M212.51,143.59l.21,5c-.94,9.56-2,19.1-5.53,28.16a2.73,2.73,0,0,1-3.72-1.05c-2-8.47.37-16.72,1.72-24.92C205.74,147.41,207.22,143.06,212.51,143.59Z"/><path class="cls-61" d="M205.06,176.8l2.13,0,2.94,12.93c-.14,2.76,0,5.58-2.29,7.71-4.29-2.36-4.44-7-6-10.87C201.45,182.81,201.56,179.23,205.06,176.8Z"/><path class="cls-62" d="M226.08,69.15c4.68,8.61-.69,17.24.06,25.85l-.56-.6-.65.49c-14.37,5.12-24.87-4.09-26.24-23,2-10.28-4.16-20.84,1-31,10.47-.22,23.51,10.59,24.06,20.4C223.89,64.22,223.08,67.15,226.08,69.15Z"/><path class="cls-63" d="M226.08,69.15C220,58.35,213.91,47.53,202.5,41.2c-1.61-1.74-1.36-3.47,0-5.19,9.86,1.13,14.59,9.21,20.76,15.34C225.22,57.13,226.71,63,226.08,69.15Z"/><path class="cls-64" d="M205.06,176.8c0,3.4,0,6.8,0,10.19,2.57,5.48.38,11.6,2.3,17.16a8.47,8.47,0,0,1-2.15,6l-2.58,3c-2.39.4-3.52-1-4.31-3-.51-2.64.34-5.24.26-7.87.14-10.08.55-20.17-2.2-30-.34-3.41-.25-6.82-.25-10.24a39,39,0,0,1,.44-6c3.67-11.71,5.33-23.58,3.13-35.81-.85-4.69-.85-9.24,3.32-12.63,6-3.18,6.83,4.16,10.79,5.15,2.5.38,4.63,2,7.23,2l2,3c1.5,5.52,3.43,11.11-2.71,15.28-4.23,2.24-5.43,6.76-7.82,10.39C205.62,153.67,208.21,165.88,205.06,176.8Z"/><path class="cls-65" d="M225.35,97.47c6.11,5.11-5,6-2.5,10.25-.79,1.68-1.57,3.35-2.35,5-3,2.38-5.21,1.14-7.21-1.41a9.85,9.85,0,0,1-.45-8.35C215.49,97.73,220.1,96.86,225.35,97.47Z"/><path class="cls-66" d="M220.33,133.19c2.92-4.74,2.54-10.06,2.71-15.28,4,3.36.9,9.48,5,12.77C226.05,133.25,223.21,133.29,220.33,133.19Z"/><path class="cls-67" d="M215.07,110.38l5.43,2.37c.19.72.38,1.43.56,2.14-2.55,3.41-5.43,1.89-8.3.56C211.35,112.77,210.79,110.47,215.07,110.38Z"/><path class="cls-68" d="M225.35,97.47l-9.88,5.44c-3.69,5.3-7.38,2.88-11.08,0a12.05,12.05,0,0,1-2.09-3c-1.29-3.87-.9-8.23-3.43-11.76A19.83,19.83,0,0,1,196,79.85c-.48-2.47-2.2-4.78-2-7.2,1.13-13.13-6.26-17.79-17.86-18.58a6.7,6.7,0,0,1-2.66-2.94,5.3,5.3,0,0,1,.95-4c13.92-8.28,24.92-3.11,26.74,12.5.47,4.1-1.15,8.42,1.29,12.31,1.42,14.7,6.3,19.68,22.46,22.94Z"/><path class="cls-69" d="M77.17,220.26l10,2.47L88.47,224a5.3,5.3,0,0,1-.86,5.07c-2.76,3.28-7.88,2.84-10.39,6.54-3.27-2.71-4.67-6.36-5.24-10.43Z"/><path class="cls-70" d="M95.51,128.11a4.83,4.83,0,0,1-.05-2.36c1.9-2.44,3.66-5,7.05-5.66a12.34,12.34,0,0,1,3.88-.16,10.86,10.86,0,0,1,3.76,1.22c4.2,2.52,8,5.72,5.88,11.08s-6,9.14-12.65,8C97.77,138.12,100.36,130.69,95.51,128.11Z"/><path class="cls-71" d="M94.8,123.28c-2.33-6.19-6.14-12.52,4-16,2.55-.87.9-4.52,1.07-6.9l1.56-1.11a4.18,4.18,0,0,1,3.3,1.62c2.72,4.75,1.82,9.82,1.29,14.84a10,10,0,0,1-1.7,3.21C101.51,121.25,98.18,122.32,94.8,123.28Z"/><path class="cls-72" d="M95.51,128.11c5.6,1.18,4.82,6.85,7.23,10.27,1.55,1.71,1.37,3.43,0,5.14l-4.94,0Q96.66,135.82,95.51,128.11Z"/><path class="cls-73" d="M94.8,123.28c-.94-7.23,5.32-3.52,8-5.27,1.31,1.67,1.48,3.34,0,5l-7.32,2.74A13,13,0,0,1,94.8,123.28Z"/><path class="cls-71" d="M97.36,100l.54-12.54,0,.1a6.69,6.69,0,0,0,1.88-.71,5.74,5.74,0,0,1,2.82,2.55,8.73,8.73,0,0,1,.06,7.52,22.4,22.4,0,0,1-2.4,3l-.45.46A13.68,13.68,0,0,0,97.36,100Z"/><path class="cls-74" d="M202.47,72c-.79-1.87-2-3.67-2.32-5.61-3-18.56-7.91-22-25.76-17.42-5.16.88-5.88-3.16-5-6.06,2.14-7.32-1.28-11.9-6.29-16.13A9.06,9.06,0,0,1,160.8,24a3.29,3.29,0,0,1,.76-3.26h0c6.19-.63,12,1.11,17.94,2.55h0A23.71,23.71,0,0,0,192,28.59L202.53,36l0,5.19C199.07,51.45,204.51,61.7,202.47,72Z"/><path class="cls-33" d="M192,28.59c-6.66,4.09-10.16.76-12.48-5.32C184.28,23.56,188.86,24.34,192,28.59Z"/><path class="cls-75" d="M128.52,281.56c-.08-.77-.19-1.54-.32-2.3-1.34-7.86-6.46-8.85-13.59-9.24s-13-3.89-4.12-11.37c3.42-2.32,6.91.33,10.36-.18a13.21,13.21,0,0,1,3.5.93c4.27,2.4,7.72,6,11.93,8.47a9.21,9.21,0,0,1,2.37,5.37C137.48,278.69,137.06,285.08,128.52,281.56Z"/><path class="cls-76" d="M120.75,261.15c-4.85,5-7.29.18-10.26-2.5l-.3-2.75c-.19-2.84,1.67-4,4-4.72C121.34,251.21,124.3,254,120.75,261.15Z"/><path class="cls-77" d="M113,253.28l-2.76,2.62-2.31-2.37c.83-2.54,1.67-5.08,2.5-7.62a6.55,6.55,0,0,1,8.41-.17,5,5,0,0,1,.35,5C117.57,252.78,114.74,251.75,113,253.28Z"/><path class="cls-78" d="M128.52,281.56c5.65-1.07,6.59-5.59,7.47-10.16,11.53-7.29,14.22,1.56,17.41,9.51a7.23,7.23,0,0,1-1.24,3.67,5.37,5.37,0,0,1-5,1.28c-2.95-.58-6.07-2.51-8.65.88-5.25,6.81-7.14-.19-10.17-2.48Z"/><path class="cls-79" d="M164.13,23.31c7.75,4.63,13.34,10,8.15,20.08-.61,1.17,1.34,3.65,2.11,5.53l-.12,2.42c-1.58,1.42-3.21,1.66-4.9.19-4.39-.47-9.18,1-12.91-2.65,3.78-2.7,5.62-6.08,3.74-10.79C159,32.47,159.75,27.4,164.13,23.31Z"/><path class="cls-80" d="M110.56,64.58c4.68-5.67,10.52-6.82,17.69-5.77,5.09.74,10.76,1.6,15.44-2.23,6.06-2,12.08.11,18.12.21a4.22,4.22,0,0,1,.22,4,8.6,8.6,0,0,1-4.59,4c-9.39,2-19.25-.94-28.48,2.75a26.07,26.07,0,0,1-4.22.46C119.8,67.71,114.47,69.11,110.56,64.58Z"/><path class="cls-33" d="M164.13,23.31V41.2c-1.81,3.11-4.63,3.17-7.68,2.57C147,38,155.08,30.08,153.91,23.3c2.55-2.14,5.11-1.91,7.67,0Z"/><path class="cls-81" d="M156.45,43.77c2-2.46,4.84-2.56,7.68-2.57,2.5.75,5.52,1.89,3.79,4.95-2.56,4.55-7.53,2.11-11.46,2.73C156.46,47.18,156.46,45.47,156.45,43.77Z"/><path class="cls-80" d="M169.37,51.53l4.9-.19,3,.42a4.91,4.91,0,0,1-.1,5.84,8.57,8.57,0,0,1-3.67,2.08c-3.71.5-7.19.35-9.47-3.29Z"/><path class="cls-79" d="M161.58,23.3h-7.67c.91-5.74,4.31-4.07,7.65-2.57C161.57,21.59,161.57,22.44,161.58,23.3Z"/><path class="cls-82" d="M164,56.39l10.54.49a3.2,3.2,0,0,1-1.1,3.88c-4.36,2.37-8.43,2.52-11.89-1.65.08-.77.15-1.55.22-2.32C162.56,56.68,163.3,56.55,164,56.39Z"/><path class="cls-83" d="M87.2,222.73c5.4-6.59,14.33-5.83,20.87-10,1.69-3.44,4.89-4.6,8.28-5.48a9.69,9.69,0,0,1,7.78,2.37c3.1,3.37,2.79,7.5,2.61,11.61-1.46,4.87-2.26,9.89-3.23,14.88a8.57,8.57,0,0,1-2.44,2.88,7.29,7.29,0,0,1-3.73.39c-3.28-.91-5.24-3.3-6.81-6.13-5.68-3.24-9.79-10.22-18-7.6l-2.52,2.65c-2.06-1.19-.81-3.92-2.46-5.3Z"/><path class="cls-84" d="M110.53,233.2c3.73-.16,6.89.51,7.57,5,2,2.57,2.27,5.11-.15,7.6a7.24,7.24,0,0,1-7.57.13l-5.13-2.61q1.34-3.84,2.68-7.68Z"/><path class="cls-85" d="M77.22,235.62c.49-6.42,4.77-7.81,10.19-7.69,2.25,5.12.6,7.72-5,7.76Z"/><path class="cls-86" d="M82.4,235.69a8.36,8.36,0,0,0,5-7.76l.18-5c.82,1.77,1.64,3.53,2.45,5.3q-.2,4.91-.41,9.79C86.94,238.12,84.29,238.05,82.4,235.69Z"/><path class="cls-1" d="M195.12,305.2a55,55,0,0,0,23.23-8.43c1-5.37,4.05-6.35,8.89-3.68l6.16-3.42c2.17-9.38-4.7-15.65-9.08-22.79-2.4-3-5.4-5-9.67-4.57-6.24,1.79-7.32,11.94-16.61,8.81-6.7-1.45-13.55-3.39-17,4.89-.72,4.71,4.44,6.29,6,9.79a27.29,27.29,0,0,0,1.22,3.64C191.17,294.47,189.17,301.34,195.12,305.2Z"/><path class="cls-2" d="M256.33,275.74l9.87-8.27c1.58-4.6,1.81-9.1-1.14-13.24-1.39-4.07,3.87-2.73,4.84-4.92a8.12,8.12,0,0,0,1.48-3.85c-.23-4-2.6-6.54-6.22-8.3a18.08,18.08,0,0,0-4.25-1.17,26.57,26.57,0,0,1-10.25-1.78,17.65,17.65,0,0,0-4.1-.45c-4,.66-8,1.11-11.68-1.15-2.73-1.08-5.51-1.84-8.52-1.18a8.35,8.35,0,0,0-3.72,2.38c-3,5.68,1,9.48,4.23,13.49a101.2,101.2,0,0,1,13.59,13.06,51.13,51.13,0,0,1,12.22,13.34A11.11,11.11,0,0,0,256.33,275.74Z"/><path class="cls-6" d="M236.93,287.44a16.15,16.15,0,0,0,9.63-5.9c2.95-15-8.84-23.67-17.06-33.84-4.37-2.85-5.76-8.88-12-9.74a7.29,7.29,0,0,0-5.61,3.65,11.19,11.19,0,0,0-.91,6.49c1.07,4.21,3.51,7.81,6,11.37,3.59,3.35,7.09,6.76,8.24,11.62C232.21,274.65,228.61,284.72,236.93,287.44Z"/><path class="cls-7" d="M227.13,248.64l19.43,32.9c3.81-1.13,7.67-2.19,9.77-5.8-.12-1.09-.25-2.18-.37-3.28-3.3-5.64-9.15-9.42-12.63-14.93a37.42,37.42,0,0,0-12.76-12.08C227.48,244.71,226.37,245.8,227.13,248.64Z"/><path class="cls-9" d="M281.66,254.26l9.43-11.76c-.88-4.52,2.32-10.24-4.4-13.06-5.88-1.46-11.76-3.06-17.92-1.2a6.73,6.73,0,0,0-4.36,4.58c.22,6.06,7.06,8.87,8.24,14.47C274.56,250.83,275.07,255.94,281.66,254.26Z"/><path class="cls-13" d="M227.24,293.09c-1.6-5.17-3.73-12-10.63-8.83-4.56,2.13-2.61,8.66,1.74,12.51Z"/><path class="cls-14" d="M236.93,287.44c-4.27-5.49-1.43-14.21-9.47-18-2.22-.63-4.47-2.21-6.58.19q6.26,10,12.52,20Z"/><path class="cls-15" d="M281.66,254.26c-5.15-1-2.5-6.77-6.13-8.72-2-1.74-4.07-1.77-6.06.1l-.89,3a11.75,11.75,0,0,0-2.1,3.68c-.19,5.31,2.5,7.9,8.27,7.57A10.39,10.39,0,0,0,281.66,254.26Z"/><path class="cls-16" d="M274.75,259.9l-6-8.29c-3.9-1.26-8.47-4.35-9.27,2.91q3.36,6.48,6.74,13Z"/><path class="cls-18" d="M285.17,230.63q3,5.94,5.92,11.87c1.56-1.81,3.11-3.63,4.66-5.44-.77-5.61-3.33-9.67-10.07-10.18a2.41,2.41,0,0,0-1.19,2.4C284.67,230.18,284.89,230.63,285.17,230.63Z"/><path class="cls-28" d="M285.17,230.63l.51-3.75a5.63,5.63,0,0,1,.12-2.38c-.3-1.64-2-2-3.1-2.94-3.47-5.4-7.77-7.58-13.78-3a7.73,7.73,0,0,0-3,3.67c-.76,3.3-.37,6.26,2.83,8.41C274.2,233.65,279.68,233.82,285.17,230.63Z"/><path class="cls-2" d="M268.52,221.91c.13-1.13.27-2.26.4-3.38l-6.3-3-3.32.49c-3.21,2.63-6.86,4.95-7.38,9.4-.3,4.84-.27,9.56,5.41,12.08C265.51,235.07,262.41,225.63,268.52,221.91Z"/><path class="cls-29" d="M282.7,221.56l3.1,2.94c2.68-.55,8.12.42,6.37-3.53C290.31,216.76,285.92,220.48,282.7,221.56Z"/><path class="cls-31" d="M220.88,269.65c2.21.59,4.46,2.17,6.58-.19.18-5.2-2.94-8.76-6.85-11.93-3.31-1.41-5.06.72-6.92,2.61a2.46,2.46,0,0,0,.87,3.29Z"/><path class="cls-34" d="M227.13,248.64q1.73-1.59,3.44-3.19c-2.22-3.91-6.38-6.88-6.57-11.76a47.83,47.83,0,0,0,1.56-19.54c-12.93-7.92-19.44.28-25.81,8.87a8,8,0,0,0,1.64,6.3c4.91,4.11,9.37,8.86,16.29,10.26Z"/><path class="cls-35" d="M256.15,224.65,259.3,216l-9.45-.53c-4.27.85-6.32,4.42-9.47,6.63-1.8.86-3.76,1.38-5.55,2.28-2.88,1.82-6.52,2.66-8.47,5.67a3.08,3.08,0,0,0,.88,3.57l6,2.9c4.31-.33,8.58,1,12.9.23l3.58-.14C258.83,235.84,251.65,227.55,256.15,224.65Z"/><path class="cls-36" d="M268.52,221.91c-9.8,1.21-9,8.23-9.27,14.64a1.82,1.82,0,0,0,.25,2.94l3.37-.13c2.24-1.33,5.09-2.37,3-5.67l2.83-3.08Q268.61,226.26,268.52,221.91Z"/><path class="cls-37" d="M227.24,233.64l.43-3.14c3.08-3.18,4.24-6.72,2.36-10.83A7.31,7.31,0,0,0,224,216c-4.94,5.91-4.87,11.82,0,17.72Z"/><path class="cls-38" d="M259.5,239.49c0-1-.13-2-.25-2.94-3.81-3.34-2.9-7.75-3.1-11.9q-3.21,6-6.4,12C252.18,240,254.38,244.05,259.5,239.49Z"/><path class="cls-39" d="M243.33,257.53c1,7.34,6.84,11.11,12.63,14.93C255.25,264.93,249.19,261.3,243.33,257.53Z"/><path class="cls-40" d="M265.89,233.69l-3,5.67,6.6,6.28,6.06-.1C272.64,241.37,270.68,236.53,265.89,233.69Z"/><path class="cls-41" d="M246.17,236.77c-4.25-2.31-8.5-4.35-12.89-.23C237.5,240.1,241.79,240.87,246.17,236.77Z"/><path class="cls-42" d="M259.46,254.52c2.42-2.82,5.81-3,9.27-2.91l-.15-3c-4.35,1.5-8.8-4.16-12.74,0C255.33,249.24,258.17,252.51,259.46,254.52Z"/><path class="cls-49" d="M208.05,236.64l6.34,6,3.28-3.06c-3.8-4.47-5.74-10.69-13-11.91C201.45,232.07,203.38,234.8,208.05,236.64Z"/><path class="cls-50" d="M214.48,248.43l-3.54,3.25a7.4,7.4,0,0,1,.31,8.76l3.25.1,6.11-3Z"/><path class="cls-69" d="M243.33,209.73l-12.6,2.88-1.59,1.51c-.92,2.17-.21,4.08,1.06,5.91,3.48,3.84,9.91,3.32,13.06,7.64,4.11-3.17,5.88-7.43,6.59-12.18Z"/><path class="cls-83" d="M230.73,212.61c-6.79-7.68-18-6.79-26.22-11.73-2.13-4-6.14-5.37-10.41-6.4a12.78,12.78,0,0,0-9.77,2.78c-3.9,3.93-3.51,8.76-3.28,13.55,1.84,5.68,2.84,11.55,4,17.37a10.39,10.39,0,0,0,3.07,3.37,9.69,9.69,0,0,0,4.69.45c4.12-1.07,6.58-3.85,8.55-7.15,7.14-3.79,12.31-11.94,22.57-8.88l3.17,3.1c2.59-1.39,1-4.58,3.08-6.19Z"/><path class="cls-85" d="M243.26,227.67c-.61-7.49-6-9.11-12.79-9-2.83,6-.77,9,6.29,9.06Z"/><path class="cls-86" d="M236.76,227.75c-4-1.89-6.23-4.82-6.29-9.06l-.24-5.81q-1.53,3.09-3.08,6.18.25,5.73.52,11.44C231.05,230.58,234.38,230.51,236.76,227.75Z"/><path class="cls-87" d="M110.56,64.58l15,.06a2.44,2.44,0,0,1,.67,2.1q-.23,1.1-.48,1.11c-5.38,3.55-12.09,4.53-17.08,8.85a8.29,8.29,0,0,1-4.85,2,6.16,6.16,0,0,1-3.22-1.32C100.36,70.31,106.54,68.29,110.56,64.58Z"/><path class="cls-88" d="M97.9,87.48c-1.79.1-4.34,4.86-5.22-.52-.83-5.09.6-9.9,4.3-16.55.4,7.33.67,12.25.94,17.17Z"/><path class="cls-89" d="M100.62,77.35c.79.18,1.57.35,2.37.5,3.85,4.87,5,9.23-2.2,12.1l-1-3.08C100.07,83.7,100.35,80.52,100.62,77.35Z"/><path class="cls-90" d="M179.6,279.27l-5.26,7.49c-5.18,1.1-10.18,3.26-15.65,2.49-1.25-2.24-.76-4.4.26-6.56a17.74,17.74,0,0,1,4.24-5.35A86,86,0,0,1,174,272.43a7.09,7.09,0,0,1,3.36.65C179.41,274.66,179.89,276.83,179.6,279.27Z"/><path class="cls-91" d="M161.25,284.44c-.85,1.6-1.7,3.21-2.56,4.81l-4.38.4c-2.6-.91-4.2-2.38-3.06-5.41l.24-.1c1.2-1.86,2.33-3.83,5-3.75C158.84,280.83,160.59,282,161.25,284.44Z"/><path class="cls-92" d="M151.25,284.24c1,1.8,2,3.61,3.06,5.41l-2.87,2.27-5.25-5.1c-.9-.59-1.19-1.18-.88-1.75s.62-.85.92-.85Z"/><path class="cls-93" d="M179.6,279.27,177,274.43q1.4-6,7.16-3.86l3.11,3.54c0,.83-.06,1.65-.07,2.47Z"/><path class="cls-94" d="M146.23,284.22c0,.87,0,1.73,0,2.6l-5.08,0-2.63,0C138.32,277.44,142.81,282.48,146.23,284.22Z"/><path class="cls-95" d="M228.21,204.67c-4.19,3.94-6.63,2.66-7.73-2.6C223.39,202,226.1,202.42,228.21,204.67Z"/><path class="cls-96" d="M205.23,210.2c0-1.64,0-3.28-.08-4.92,1.59-1.48.39-4.42,2.87-5.43l2.19,5.05c-.39,4.36,1,9.07-2.53,12.79C207.56,215,207.68,212.16,205.23,210.2Z"/><path class="cls-97" d="M208,199.85q-1.44,2.72-2.87,5.43,0-9.15-.07-18.29c3.06,2.91,2.33,6.82,2.76,10.42A10.48,10.48,0,0,0,208,199.85Z"/><path class="cls-98" d="M195.16,233.19c8.35,7.41,7.24,13.3-2.87,17.72-3-3.8-.71-8.06-1.06-12.1a10.75,10.75,0,0,1,1.08-3.45A6.12,6.12,0,0,1,195.16,233.19Z"/><path class="cls-99" d="M200,256.58c-.55,2.91-1.18,6.15-4.94,5.89s-2.29-4.88-4.56-6.61a1.91,1.91,0,0,1-1-2.61,2,2,0,0,1,2.82.24Z"/><path class="cls-100" d="M192.24,253.49l-.81.4-.91-.11a3,3,0,0,1-3.64.39,6.73,6.73,0,0,1-1.86-3.49c1-5.93,1.37-12.38,9.77-12.54a23.16,23.16,0,0,1-2.5,12.77C192.28,251.77,192.26,252.63,192.24,253.49Z"/><path class="cls-101" d="M195.16,233.19c-.21.76-.44,1.52-.7,2.27-2.91,1.06-4.72-.33-6.08-2.74-.7-4.73,0-8.76,5.21-10.62,3.43.48,2.8,3.41,3.39,5.61C196.37,229.53,195.77,231.36,195.16,233.19Z"/><path class="cls-102" d="M197,227.71c-.77-1.66-1.53-3.31-2.29-5a2.93,2.93,0,0,1-.81-2q0-1.11.21-1.11c1.46-2,3.08-3.37,5.64-1.78l.67-.26c-.36,2.52-.71,5-1.07,7.56C198.54,226,197.76,226.86,197,227.71Z"/><path class="cls-103" d="M199.73,217.87l-4.89,2.43c-7.91-.76-15.81-1.09-20.56-9.36-1.87-3.24-6.05-1.86-9.32-2-10.58-.44-12-2.68-9.55-14.26,9.94-3.56,20.42-3.29,30.74-4.21,3.79-.34,7.2,1.68,8,5,1.32,5.2,6.09,8.91,5.82,14.61l2.65,3.18Z"/><path class="cls-104" d="M186.9,253.35l3.62.43a3.51,3.51,0,0,0-.06,2.08q-3.17,7.35-6.32,14.71L177,274.43l-1.26-.21-1.27.09a6.52,6.52,0,0,1-3.06-4.64c-.58-4.16,1.42-7.41,3.76-10.54a28.66,28.66,0,0,1,1.82-3.36C179.72,252.67,182.69,250.46,186.9,253.35Z"/><path class="cls-105" d="M205.09,107.72c-1.5,3.06-3,6.14-1.49,9.65,5.66,13.63.14,26.22-3.64,39-4.91-6.94-5.41-16.22-11.84-22.38,3.13-11.22,1.95-23.68,9.65-33.6a6.08,6.08,0,0,1,3.53-1.74,4.79,4.79,0,0,1,3.54,1.58l.07,0C207,102.67,207.31,105.17,205.09,107.72Z"/><path class="cls-106" d="M200,210.05c-4.58-1.75-11.45-.68-8.32-10,1.79-5.36-3.17-6.09-8.14-5.74-9,.63-18,4.74-27.15.51-.13-.63-.25-1.25-.38-1.88,10-7.54,22.47-7.09,33.66-10.87,7.57-1.24,10.35,3.13,11.43,9.64.73,4.39-1.24,9.06,1.38,13.25Z"/><path class="cls-107" d="M189.73,133.33c12.41,3.67,10.16,13.85,10.23,23,0,1.7,0,3.39-.05,5.09-3,6.68-2.77,14.87-9.41,19.82a18.16,18.16,0,0,1-3.56,1.47c-7.56.33-14.42,6.28-22.45,2.78-3.21-7.86,2.66-9.92,7.89-12.49,4.71-2.31,10.73-2.12,13.93-7.29,2.2-2.84,2.58-6.54,4.46-9.52,1.19-3.31,1.74-6.2-2.85-7.47a8.25,8.25,0,0,1-6.44-7.82c0-3.54,1.33-6.33,4.51-8.08A3.86,3.86,0,0,1,189.73,133.33Z"/><path class="cls-108" d="M187.17,179.36l2.52,0c3.12-3,4.05-8.82,10.24-7.67,4.85,10.78,1.64,22.18,2.55,33.27-3.5-3.34-1.73-8-3-11.85-1.48-4.4-2.08-11.22-9.75-6.06C183.54,186.23,185.38,182.78,187.17,179.36Z"/><path class="cls-109" d="M205.09,107.72l-.18-7.5c3.38,1.43,6.2,5.08,10.55,2.69l-.39,7.47-2.31,5.07c-.36,1.55-.22,3.68-1.19,4.53-1.92,1.68-2.78-.5-3.31-1.92C207,114.68,208.27,110.53,205.09,107.72Z"/><path class="cls-105" d="M199.93,171.66l-10.24,7.67c2-6.78,6-12.4,10.22-17.91C199.92,164.83,199.92,168.25,199.93,171.66Z"/><path class="cls-110" d="M176.91,56.54l.36-4.78c15.48-.44,18.28,1.89,20.33,16.85.51,3.71,1.1,7.41,1.65,11.12-2.75.74-4.76-.48-6.47-2.47a11.86,11.86,0,0,1-1.82-5C189,64.63,181.61,61.78,176.91,56.54Z"/><path class="cls-111" d="M194.93,76.87l4.33,2.86c1.1,2.49,2.21,5,3.33,7.46a8.22,8.22,0,0,1,.09,8.44c-6.63,3.75-13.33,4.65-20.11.43-3.81-8,7.34-5.93,7.53-11.24C190.48,81.42,190.79,78,194.93,76.87Z"/><path class="cls-109" d="M202.27,94.44q.16-3.63.31-7.25c4,3.77,2,8.57,2.26,13h-1.17l-1.18,0A4.37,4.37,0,0,1,202.27,94.44Z"/><path class="cls-112" d="M107.94,171.61c11.52-4.47,5.24-11.44,2.52-17.91a4.51,4.51,0,0,1,5-1c6.87,3,4.89,11.84,10.4,15.75,2.8,2.44,7.09,2.17,9.54,5.25,2.32,3.49,3.76,7.08,1.18,11.09-3.89,3.71-8.19,3.41-12.65,1.24-3.47-1.75-5.17-5.9-9.21-6.93-1.39-.63-3-1-3.85-2.41Q109.4,174.15,107.94,171.61Z"/><path class="cls-112" d="M103.31,163.36c11.52-4.46,5.24-11.44,2.53-17.91a4.51,4.51,0,0,1,5-1c6.87,3,4.89,11.84,10.4,15.75,2.8,2.44,7.09,2.17,9.55,5.25,2.32,3.49,3.75,7.08,1.18,11.09-3.9,3.71-8.19,3.41-12.66,1.25-3.47-1.76-5.16-5.91-9.21-6.94-1.39-.63-3-1-3.85-2.41Z"/><path class="cls-113" d="M123.21,181.89a21.3,21.3,0,0,0,12.65,2.44l.9,1.54a4.81,4.81,0,0,1-1.58,3.09c-4.41,2.31-9.14,2.47-14,2.15A5.16,5.16,0,0,1,118,187a19.12,19.12,0,0,0-7.42-7.76c.08-.87.17-1.74.26-2.61l4.65.15C118.41,178,120.6,180.27,123.21,181.89Z"/><path class="cls-114" d="M102.74,143.52v-5.14c7.45-3.16,17.11-5.57,5.11-15.24,5.54-5.19,10.39-4.53,14.6,1.7,1,2.81.14,5.47-.7,8.12a11,11,0,0,1-1.52,3.54c-4.73,3.54-8.3,8.94-14.92,9.59Z"/><path class="cls-115" d="M105.31,146.09c3.12-4.75,6.41-9.27,12.59-10.27,1.78,1.87,1.34,4,.77,6.16-2.1,3.29-.54,7.31-2.08,10.72l-1.09,1.16-5-.16Q107.9,149.89,105.31,146.09Z"/><path class="cls-115" d="M96.62,147.05c3.12-4.74,6.41-9.27,12.59-10.26,1.77,1.87,1.34,4,.77,6.16-2.11,3.29-.55,7.3-2.08,10.71-.36.39-.73.78-1.1,1.16l-5-.15Z"/><path class="cls-116" d="M120.69,128.16c-2.09-7.28-8.15-4.4-12.84-5-.82-.06-1.64-.1-2.47-.11-1-3.66,1.57-4.76,4.2-5.81a24.71,24.71,0,0,1,4.12-.43c3.49,0,7-.1,9.9,2.45a7,7,0,0,1,1.55,5.85C124.39,127.17,123.27,128.73,120.69,128.16Z"/><path class="cls-117" d="M110.34,120.35l-5,2.68-2.6,0c0-1.67,0-3.33,0-5v0c1.86-1.59.4-5.29,3.76-5.93C111.09,113.32,113.45,115.59,110.34,120.35Z"/><path class="cls-73" d="M105.39,112.93q-1.29,2.52-2.59,5-.09-9-.19-17.92c6.4-2.73,7.34,1.37,7.73,6.17C109.87,109.33,107.82,111.27,105.39,112.93Z"/><path class="cls-89" d="M107.81,107.77c.06-3.78-.51-7.13-5.2-7.72-.78,0-1.55,0-2.33-.09,0-.86,0-1.71,0-2.57,4.57-4.8,10-4.41,15.71-2.69a7.35,7.35,0,0,1,2.84,2.72,5.35,5.35,0,0,1-1.5,5.15,26.92,26.92,0,0,0-3.73,3.59,6.76,6.76,0,0,1-4.3,2.26Z"/><path class="cls-118" d="M118.3,97.68l-18-.29q.24-3.72.49-7.44c2.59-3.7,1.74-8,2.2-12.1l2.75-3.34a2.29,2.29,0,0,1,2.91-.48c3,1.8,4,4.9,5.1,7.91a5.38,5.38,0,0,0,4,4c5,1.15,9.31,3,8.85,9.35C124.48,98.49,122,100,118.3,97.68Z"/><path class="cls-119" d="M133.46,268.82c-6.16,1.25-7.3-4.33-10.22-7.5-1.81-4.14-3.07-8.2,1.59-11.46,6.33-.42,9.44,3.52,11.67,8.65C137.12,262.42,136.81,266.07,133.46,268.82Z"/><path class="cls-120" d="M133.46,268.82l0-10.17c2.38-1.58,4.35-.4,6.31.9,2.3,2.17,3.66,5.49,7.34,6a12.94,12.94,0,0,1,2.9,1.69,32.28,32.28,0,0,1,4.4,5.21c1.51,2.94,4.78,5.59,1.65,9.35l-4.55,2.33c-2.39-7.63-6.05-13.71-15.5-12.74Z"/><path class="cls-121" d="M125.76,251c-3.13,2.89-2.35,6.73-2.52,10.35-.83,0-1.66-.09-2.49-.17.47-5.67-2.14-8.28-7.8-7.87l4.89-2.55c3.61-3.65-.29-8.86,2.64-12.65l.26.14c4.5-1.06,6,2,7.43,5.31A7.42,7.42,0,0,1,125.76,251Z"/><path class="cls-122" d="M120.48,238.08c-.21,4.35,1.56,9.12-2.63,12.65,0-1.65.07-3.3.11-4.95q.06-3.81.14-7.6C118.9,238.16,119.69,238.13,120.48,238.08Z"/><path class="cls-123" d="M128.18,64.15c9.81-5.29,20.48-.85,30.6-2.67,7.18-1.15,14.43-.9,21.69-1.08a10.65,10.65,0,0,1,5,6.89c.27,6.06,1,12.31-6.44,15.08a11.35,11.35,0,0,1-6.17-.2c-7.82-2.73-9.13-15.72-20.46-13a32.14,32.14,0,0,1-8.14-.08C139,67.2,132.31,69.74,128.18,64.15Z"/><path class="cls-124" d="M179.46,61.81c-6.92,1.24-13.82,1.46-20.68-.33l2.81-2.37,12.66,0C177.31,57.47,179.78,57,179.46,61.81Z"/><path class="cls-125" d="M128.18,64.15l18.18.54c-2.11,8-8.41,6-13.92,5.85a9.77,9.77,0,0,1-4.16-.87,7,7,0,0,1-2.87-3.08,10.74,10.74,0,0,0,.17-2Z"/><path class="cls-126" d="M179.46,61.81l-5.21-2.75c.1-.73.21-1.46.33-2.18.77-.15,1.55-.26,2.33-.34Q192,57,194.67,71.86c-2.64,1.85-3,6.86-7.8,5.75C183.2,74.92,184.55,70,182,66.79Z"/><path class="cls-127" d="M123,222.84l.27-12.94-.12.23c1.51-2.11,3-4.35,6.16-3.23,3.13,1.87,4.38,4.72,4.33,8.26-1.84,4.76-.54,10.39-4,14.74a5,5,0,0,1-3.5,1.28C122.67,229.34,123.45,225.86,123,222.84Z"/><path class="cls-119" d="M123,222.84c2.76,1.89,2.62,4.83,2.78,7.66,3.37,4.42,5.17,8.81-.33,13l-4.72-5.29C121.32,233.07,119.19,227.52,123,222.84Z"/><path class="cls-128" d="M125.41,66.59l2.94.41c.36,10.91-7.09,11.06-14.85,10.8A13.24,13.24,0,0,1,108,74.56c-.75,0-1.5,0-2.25,0C110.92,68.43,117.82,66.65,125.41,66.59Z"/><path class="cls-129" d="M156,281.81l-4.78-7.74c-1.16-2.34.31-3.3,2.14-4.08,4.9-.44,8,2.64,11.22,5.63a3.18,3.18,0,0,1-.39,3.42l-3,5.4Z"/><path class="cls-130" d="M164.23,279c-.17-.75-.32-1.51-.46-2.27a3.82,3.82,0,0,1-.69-3.14,8.31,8.31,0,0,1,2-2.71c2.84-1.69,5.44-4.41,9.22-2.2.05,1.86.11,3.73.16,5.59C172.31,278.63,168.73,279.82,164.23,279Z"/><path class="cls-131" d="M189.79,233l4.68,2.46c.1.89.21,1.79.32,2.68l-7.9,12.71a2.2,2.2,0,0,1-3.39.06,9.06,9.06,0,0,1-1.71-7.49C183.48,239.2,184.87,234.73,189.79,233Z"/><path class="cls-132" d="M184.52,250.83l2.37,0a17.38,17.38,0,0,1,0,2.5,10.09,10.09,0,0,0-7.51,5.21c-8,.3-4.73-8.2-8.65-11.1a23.79,23.79,0,0,1-2.48-2.54c-2.16-4.27-4.28-7.77-10.42-6.95-5.22.7-9.38-1.49-7.29-8.24a10.57,10.57,0,0,1,4.63-3.4c6.76-5.05,14-8.55,22.75-6.63,11.67,4,10.62,12.28,7.06,21.35C183.28,244.22,181.22,247.39,184.52,250.83Z"/><path class="cls-133" d="M182.1,243.32c3.71-8.21,4.6-15.7-5.21-20.47-9.06-6.21-20.85-7.26-28.95-15.33-2.95-4.69-3.53-9.29.44-13.75,2.91-1.58,5.63-1.44,8.12.88l-.11.14c-.36,7.27.8,12.43,10.4,10.45,5.08-1.05,11.11-1.67,13.18,5.92,1.15,4.22,4.88,4.16,8.31,3.15,5.69-1.68,6.48,1.7,6.56,6-.06.82-.11,1.63-.15,2.44L189.79,233c-.62,4-2,7.59-5.16,10.31C183.8,244.55,183,244.61,182.1,243.32Z"/><path class="cls-134" d="M174.33,243.32c4.7,4.08.48,11.12,5.07,15.24-.05.87-.09,1.75-.13,2.63-2.25,1.78-4.75,1.73-7.34,1C166.73,255.12,168.12,248.91,174.33,243.32Z"/><path class="cls-135" d="M171.79,261.19h7.48c-1.67,2.5-4.89,4-5,7.53l-7.65,5c-3.31-3.27-1.72-6.81-.57-10.33a8.5,8.5,0,0,1,2.38-2.78A3,3,0,0,1,171.79,261.19Z"/><path class="cls-136" d="M189.73,133.33h-2.54c-3.82-3-2-6.88-1.31-10.37,1-4.78.21-8.94-2.93-12.7a9.75,9.75,0,0,1-.38-3.94c1.52-8,6.92-9.6,14-8.44a5.73,5.73,0,0,1,3.24,2.41C195.66,111.07,196.93,123.49,189.73,133.33Z"/><path class="cls-137" d="M199.78,100.29a13.76,13.76,0,0,0-2.4-.25c-4.36-2.64-8.64-.43-13,0-4.61.41-9.81.07-6.33-7.21a2.94,2.94,0,0,1,3.76-.27c6.52,4,13.58,2.17,20.49,1.93.07,1.9.15,3.8.22,5.7Z"/><path class="cls-138" d="M156.5,194.65l-7.75.12c-5.3,3.39-9,2.22-11-3.84,2.64-7.57,9.86-3.81,14.69-6,1.09-.46,2.21-.86,3.33-1.26,2.84-.59,5.72-1.53,8.33.71l23.09-5.07c0,2.84.07,5.64,2.54,7.66Z"/><path class="cls-139" d="M164.08,184.43l-7.69,2.48c-4.49-3.47-2.24-8-2-12.3.08-4.86-4.08-9.57-.57-14.58,3.71-2.86,7.72-4.41,12.42-2.72,4,3.6,5.43,11.7,13.71,7.68,2.85.09,5.74-.35,8.55.48l1.32,1.13c-.61,5.63-4.55,7-9.38,8C174,176,167.4,177.65,164.08,184.43Z"/><path class="cls-139" d="M184.66,110.22c4.88.15,8.12,1.55,6.41,7.51-1.48,5.15-2.6,10.4-3.88,15.6L184.58,141c-2.08,1.94-.65,4.57-1.31,6.79a3.12,3.12,0,0,1-3,1.5c-2.53-1-3.55-3.14-4-5.63.27-8.86,7.69-17.25,1.72-26.54a7.32,7.32,0,0,1,1.83-5A6.1,6.1,0,0,1,184.66,110.22Z"/><path class="cls-139" d="M194.81,158.86l-5,7.74-.15-.1c-3.29-2.56-5.12-6.35-7.93-9.32-1.52-2.9-2.37-5.78.32-8.52l0,0C196.63,146.47,196.63,146.47,194.81,158.86Z"/><path class="cls-136" d="M194.81,158.86c2.4-11.72-7.08-8.61-12.77-10.22,0-2.83.12-5.64,2.54-7.67.83,1.37,1.52,3.82,2.52,3.95C199.25,146.55,199.26,146.46,194.81,158.86Z"/><path class="cls-124" d="M187.19,77c2.8-1.27,1.87-8,7.49-5.16.08,1.67.16,3.35.25,5a7.71,7.71,0,0,0-.14,7.87c-3.34,4.48-7.76,9.88-12.91,4.61C176.16,83.53,183.3,80.33,187.19,77Z"/><path class="cls-140" d="M187.19,77a7.93,7.93,0,0,0,.36,1.2c2.18,4.64-8.67,5-3.66,9.74,4.25,4,6.72-3.72,10.9-3.21,2.16,13.46-8.68,5.15-13,7.76h-1.07l-1.07,0A7.33,7.33,0,0,1,174.21,94c-4.05-1.48-6.29-4.19-5.93-8.68,1.5-4,6.64-2.39,8.66-5.6,7.26-2.1,4.42-8.18,5.08-12.88C185.21,69.46,186.62,73,187.19,77Z"/><path class="cls-113" d="M135.86,184.33q-1.22-5-2.42-10.07c-.83-3.16-1.38-6.31.66-9.27a4.09,4.09,0,0,1,3.39-1.7c3.9,7.11,16.44,11.84,6.31,22.84a7.37,7.37,0,0,1-7.64-1.5Z"/><path class="cls-141" d="M123.2,171.66c-6.84-4.09-5.1-11.88-7.7-17.8l.08-.24c4.62-1.83,8.73,0,12.87,1.76a6.9,6.9,0,0,1,1.63,3.06,19.37,19.37,0,0,1-1.62,8.66A8.51,8.51,0,0,1,123.2,171.66Z"/><path class="cls-142" d="M123.2,171.66l2.57-5.11c3.41-2.39,6.81-2,10.22,0,0,2.86-.08,5.68-2.55,7.72C129.85,174.09,126,174.81,123.2,171.66Z"/><path class="cls-142" d="M100.87,158.69l2.57-5.11c3.41-2.39,6.81-2,10.22,0,0,2.86-.08,5.68-2.55,7.72C107.52,161.12,103.7,161.84,100.87,158.69Z"/><path class="cls-142" d="M102.11,163.37l2.57-5.11c3.4-2.39,6.81-2,10.22,0,0,2.87-.09,5.69-2.56,7.73C108.75,165.8,104.94,166.53,102.11,163.37Z"/><path class="cls-141" d="M123.21,181.89a8.63,8.63,0,0,1-7.69-5.07C120.55,174.78,121.11,179.5,123.21,181.89Z"/><path class="cls-143" d="M136.16,184.63l7.52-.23c4.37-2.47,7.53-5.05,2.75-10.23a10.59,10.59,0,0,1-2.18-11.4,5.68,5.68,0,0,1,2.58-2.34,5.51,5.51,0,0,1,3.4.67c3.54,4,5.33,9.11,8.78,13.13q-1.31,6.35-2.62,12.68l0,0c-5.47,3.65-12.26-1-17.7,2.81,2,4.37,6,4.82,10.1,5-.15,4.44.33,8.75,2.61,12.68a2.25,2.25,0,0,1-.28,3.21c-10.07-.93-14.51-8.77-19.53-15.91-.74-3.85,1.48-6,4.45-7.73C136,186.22,136.09,185.42,136.16,184.63Z"/><path class="cls-144" d="M136,187c-.83,2.53-1.67,5.06-2.5,7.59a4.49,4.49,0,0,1-3,1.37c-2.76-.71-5.07-2.32-7.42-3.84-.68-.94-1.35-1.89-2-2.84C125.76,186.62,130.92,187.09,136,187Z"/><path class="cls-145" d="M115.45,140.92q1.23-2.55,2.45-5.1c.19-.82.36-1.64.52-2.46,3.18-2.31,5.1-.66,6.68,2.11,1.13,3.87,0,7.06-2.93,9.69C118,146.77,113.25,149.36,115.45,140.92Z"/><path class="cls-146" d="M123.27,136l-4.85-2.59c.76-1.73,1.51-3.46,2.27-5.2l2.59-2.49c2.55-.54,3.78,1,4.67,3C128.29,132.32,128.52,135.9,123.27,136Z"/><path class="cls-147" d="M115.45,140.92c.23,3.78,2.29,4,5.14,2.62a2.69,2.69,0,0,1,3.12-.86,8.22,8.22,0,0,1,3.26,4.09c1,2.74,4,4.25,4.68,7.24-.36,1.93-1.1,3.31-3.44,2.38a12,12,0,0,1-12.63-2.77C113.56,149.41,111.35,145.19,115.45,140.92Z"/><path class="cls-148" d="M125.82,128.27l-2.54-2.6c0-1.67,0-3.34,0-5a7.93,7.93,0,0,1,1.11-3c1.83-2.39,4-3.92,7.22-3a6.32,6.32,0,0,1,3.27,4c.34,4.73-1.38,8.33-5.73,10.51A3.8,3.8,0,0,1,125.82,128.27Z"/><path class="cls-149" d="M125.69,120.42c-.8.07-1.6.14-2.39.23l-10.36-.23a7.52,7.52,0,0,1-.53-7.93C120.27,109.38,124.51,112.35,125.69,120.42Z"/><path class="cls-150" d="M113,112.82l-.06,7.6-2.6-.07a8,8,0,0,0-5-7.42l2.42-5.16h0C109.79,109.22,114.42,107.94,113,112.82Z"/><path class="cls-151" d="M133.16,117.77l-2.36-2.43c-4.52-.57-9.63,0-11.5-5.81a14,14,0,0,1-.68-3.27c-.3-2.13-.65-4.27-.78-6.44.15-.71.3-1.43.46-2.14l7.25-3c12.43-3.44,13.39,5,14.12,13.65a14.38,14.38,0,0,1-1.24,6.31A6,6,0,0,1,133.16,117.77Z"/><path class="cls-152" d="M120.59,107.77q5.1,3.8,10.22,7.57l-5.12,5.08c-3.76-3.31-7.4-6.84-12.69-7.6l-5.15-5.06,2.58-2.44C114.94,101.5,117.75,104.7,120.59,107.77Z"/><path class="cls-153" d="M117.84,99.82l5.48,3.83-2.77,1.57c-3.24-.46-7.84,1-7.16-5Z"/><path class="cls-154" d="M113.39,100.18l7.16,5c0,.85.06,1.7,0,2.55l-10.16-2.45C110.6,103.13,111.3,101.26,113.39,100.18Z"/><path class="cls-155" d="M136.39,110.32c0-7.68-2.09-14-10.84-15.61-2.72-5.38-7.76-4.87-12.57-5-.77-6.9,5.61-5.44,8.88-7.62a11.1,11.1,0,0,1,7.38.38c4.62,5.64,12.94,1.95,17.82,7,1.73,3.76.24,7.39-.46,11-1.76,3.38-1.45,7.73-4.8,10.38A4.53,4.53,0,0,1,136.39,110.32Z"/><path class="cls-156" d="M125.76,84.57l-2.62.2c-4.28,1.46-8.54,2.59-12.62-.54q-1.27-4.85-2.54-9.67l5-.07c3.44,2.89,7.81,1.7,11.62,2.75C129.17,78.5,130.94,81.24,125.76,84.57Z"/><path class="cls-157" d="M110.52,84.23l12.62.54-10.16,5C109.25,89.2,107.26,87.89,110.52,84.23Z"/><path class="cls-158" d="M125.46,243.51l.33-13c.72,0,1.44.11,2.16.2l1.59.76a7.93,7.93,0,0,1,2.33,4.5c.24,4.39,1.16,8.54,4.3,11.89,3.27,2.76,8.09,4.09,8.61,9.37a4.69,4.69,0,0,1-1.46,2.94,6.81,6.81,0,0,1-4.84,1l-5-2.47L125.76,251Z"/><path class="cls-159" d="M141.08,258.67l2.64-.09c1-2.65.91-6.35,5.42-5.62,3.52,2.24,4,6,4.78,9.58a9.82,9.82,0,0,1-.8,3.62A5.48,5.48,0,0,1,148.6,269c-.82,0-1.63-.05-2.45-.1C143.47,266,139.49,263.7,141.08,258.67Z"/><path class="cls-160" d="M141.08,258.67c1.76,3.36,5,6,5.07,10.2-5.46.3-7.85-2.46-7.67-7.75Z"/><path class="cls-161" d="M148.6,269l2.8-2.7c4.2-.14,4,2.13,2.76,5l-2.9,2.79Z"/><path class="cls-128" d="M130.88,66.81c5.17-.61,10.67,1.15,15.48-2.12l7.45-.3c11,6,11.84,11,3.37,19.51a11,11,0,0,1-3.7.36c-3.73-.47-6.9-2.6-11-2.6C132.85,81.67,128.52,76.63,130.88,66.81Z"/><path class="cls-125" d="M156.45,82.1c5.38-6.84.89-12.21-2.64-17.71,11.5-1.6,14.91,6.44,17.86,15-3.06,4-6.7,6.73-12.15,5.3A6.57,6.57,0,0,1,156.45,82.1Z"/><path class="cls-162" d="M159.3,82.22l12.37-2.81,5.27.26c1.52,8.1-5,3.83-7.89,5.12C164.85,87.52,160.94,89.14,159.3,82.22Z"/><path class="cls-163" d="M130.88,66.81c3.1,5.49,3.88,13.94,14.27,9.38,1.72-.76,5.8,3.86,8.79,6,.62,2.4-.65,3.89-2.46,5.11-7.95,1.23-16.09,4.11-23.16-2.59l-2.56-.13c1.24-3.17.21-4.94-3.23-5-4.12,0-7.55-1.2-9.55-5.12,6.61.56,12-1.3,15.37-7.49A17.84,17.84,0,0,1,130.88,66.81Z"/><path class="cls-164" d="M123.1,192.14c2.89-.06,5.71.08,7.79,2.53a9.31,9.31,0,0,1,2.58,5.45c-.23,3.75-1.68,6.67-5.42,8l-4.89,2C124.74,204.13,127.18,198.12,123.1,192.14Z"/><path class="cls-165" d="M128.05,208.17l2.84-8.33c8.28-2.76,8.91,4.32,11.48,8.92-.76,5.4-4.76,8.59-8.25,12.14a5,5,0,0,1-3.6-.16,4.8,4.8,0,0,1,0-5.22Z"/><path class="cls-166" d="M130.51,215.52l.9,4.68a11.38,11.38,0,0,1,2,3.44c0,3.4.33,7-4.79,6.67l-.62.39C129.16,225.7,126.36,220,130.51,215.52Z"/><path class="cls-167" d="M154.16,271.27l-2.76-5c0-.84,0-1.68,0-2.52a5.43,5.43,0,0,1,4.23-2.11,11.3,11.3,0,0,1,6.12,2.37,9.27,9.27,0,0,1,2.09,2.53c.35,2.55,2,5,.53,7.71-.21.84-.41,1.68-.62,2.52C159.39,277,156.71,274.25,154.16,271.27Z"/><path class="cls-168" d="M164.39,274.25l-2.83-7.91c1.79-3.17,4.22-4.38,7.67-2.57q-1.29,5-2.59,10Z"/><path class="cls-169" d="M182.1,243.32h2.53c0,2.5-.07,5-.11,7.52C178.57,250,180.69,246.54,182.1,243.32Z"/><path class="cls-134" d="M151.31,230.57c6.75,11.81,12.08-3,18.64-.87,1.92,4.23-3.18,9.73,1.86,13.61,1.06,5.29-3.95,6.15-6.43,8.86a9.07,9.07,0,0,1-3.38.61c-3.89-.65-7.1-3.4-11.16-3.61-3.47-1-6-3.46-8.52-5.87a11.92,11.92,0,0,1-2-3c-1.54-4.42-5.38-8.6-1.54-13.64a8.49,8.49,0,0,1,7.26-1.28A7.43,7.43,0,0,1,151.31,230.57Z"/><path class="cls-170" d="M151.3,210.12l.06-2.67c9.53,3.44,21.16,3.39,25.53,15.4-8.35-1.54-13.7,5-20.53,7.6-1.79-2.48-4.85-2.24-7.26-3.43a5.22,5.22,0,0,1-1.78-2.77,9.05,9.05,0,0,1,.26-3.36C149.67,217.6,147.58,212.85,151.3,210.12Z"/><path class="cls-171" d="M164.13,251c.2-4.92,5.43-4.8,7.68-7.66h2.52q-1.26,8.94-2.54,17.87c-.84,0-1.68,0-2.53,0C158.9,262.14,161.38,256.62,164.13,251Z"/><path class="cls-172" d="M149,225.48c3.68-.15,6.87.42,7.39,5l-5,.11-5-2.5A2.64,2.64,0,0,1,149,225.48Z"/><path class="cls-173" d="M164.13,251c.23,4.16-.88,9,5.13,10.25q0,1.27,0,2.55l-7.67,2.57h0c-6.06-5.13-9-10.25,0-15.36Z"/><path class="cls-111" d="M174.22,92.32l5.43.15c-1.77,4.49,1,4.94,4.39,5.12,4.54.24,9.44-1.32,13.34,2.45-6.64-1.36-9.91,2.91-12.87,7.71a6.68,6.68,0,0,1-5.93,2.45,10.37,10.37,0,0,1-3.19-1.12,15.34,15.34,0,0,1-4.67-4.85c-1.46-2.42-4.25-3.85-5.15-6.72a6,6,0,0,1,.57-3.43C168.39,91.46,171.12,91,174.22,92.32Z"/><path class="cls-174" d="M176.92,107.81l7.59-.06c.06.82.11,1.64.14,2.47L182,112.83C177.72,113.79,176.25,111.88,176.92,107.81Z"/><path class="cls-175" d="M138.65,189.75c5.3-4.73,11.79-2,17.7-2.81C151,191.37,144.57,189,138.65,189.75Z"/><path class="cls-175" d="M182,148.66l2.57,7.66c3.82,5.16,2.73,9.37-2.51,12.76-1.22.09-2.57-.14-3.64.31-11.76,5-14.43.06-11.83-10.73-1.66-3.36-.3-5.8,2.4-7.8a4.32,4.32,0,0,1,3.22,0,9.84,9.84,0,0,1,1.47,1.6c.8-1.08.41-2.28.32-3.51.65-3,1.06-6.25,5.46-5.41C180.33,145.25,181.17,147,182,148.66Z"/><path class="cls-176" d="M169.31,151.16l-2.7,7.51L154,161.61c-1.74,1.42-3.43,1.24-5.09-.15l.06-.12c-2.15-4.77,1-7.33,4.11-9.94,4.91-1.28,9.59-4.68,15-1.7Z"/><path class="cls-177" d="M182.08,169.08c2.21-4,2.72-8.3,2.51-12.76,6,1.24,4.9,6,5,10.18Z"/><path class="cls-175" d="M148.86,161.46l5.09.15q2.53,6.31,5.06,12.62C153.63,171.56,151.16,166.58,148.86,161.46Z"/><path class="cls-178" d="M171.83,151.2l-2.52,0-.48.2a21.06,21.06,0,0,1-3.1-4.76c-1.54-4.78-4-9.49-1.24-14.62a6.58,6.58,0,0,1,2.63-2.31,8.84,8.84,0,0,1,3.2-.15c1.86.38,3.61.32,4.75-1.58.63-2.43-1.09-3.51-2.64-4.71a8.71,8.71,0,0,1-2-2.81,7.78,7.78,0,0,1,0-3.59,5.66,5.66,0,0,1,4.12-3.41,5.72,5.72,0,0,1,5,2c10.81,9.38,1.77,18.76,0,28.14-2.46,2-2.54,4.83-2.58,7.65A3.39,3.39,0,0,1,171.83,151.2Z"/><path class="cls-179" d="M179.49,115.41l-5.2,0c-7-1-13.78,5.27-20.88.53a6.36,6.36,0,0,1-.36-6.07,9.23,9.23,0,0,1,3-3.17c7.17-4.15,14.09-3.47,20.8,1.09l.09.06,5.09,5Z"/><path class="cls-180" d="M174.22,92.32l-7.3,2.8a2.37,2.37,0,0,1-2.94.34c-2.24-4.22-4.53-2.73-6.82,0a13.1,13.1,0,0,1-2.6,2.28c-2.67,1.07-5,3-7.89,3.51-.58-.07-1.16-.16-1.73-.24l-1.35-1.11,2.66-10.06c.69-2.71,3.25-3.57,5.09-5.14l2.6-2.53,2.51-.08,2.84.12c2.62,3.26,6.34,2.35,9.76,2.57Z"/><path class="cls-181" d="M146.15,161.73c0,3.87.89,7.55,3.41,10.51,7.4,8.67,3.09,11.51-5.88,12.17,2.18-8.57-7.52-12.71-7.6-20.44-2.92.38-3.45-1-2.47-3.41a8.68,8.68,0,0,1,7.63-2.39A6.91,6.91,0,0,1,146.15,161.73Z"/><path class="cls-182" d="M133.67,161.4c.8.86,1.6,1.72,2.41,2.57l-.09,2.57a9,9,0,0,1-10.22,0c0-2.88.14-5.72,2.64-7.74C131.44,157.08,133.5,157.32,133.67,161.4Z"/><path class="cls-182" d="M107.24,149.41l2.4,2.58c0,.85-.06,1.71-.08,2.56a8.94,8.94,0,0,1-10.22,0c0-2.87.13-5.71,2.64-7.74C105,145.09,107.07,145.33,107.24,149.41Z"/><path class="cls-183" d="M133.67,161.4l-5.26-2.59c-.06-.81-.13-1.62-.2-2.42l2.75-2.06a4.84,4.84,0,0,1,2.6-4.53c5.83-.44,12.4-3.89,16.26,3.91,0,5.83-5.38,5.59-8.68,7.71Z"/><path class="cls-184" d="M151.3,210.12c-.42,4.33,6.41,10.07-2.49,12.74-5.66-2.44-7.9-6.93-7.67-12.88-3-3.76-4.52-9.1-10.25-10.14v-5.17l2.61-.06Z"/><path class="cls-185" d="M141.14,161.42l7.54-7.62c.86-2.58,2.52-3.79,5.29-3.07a2.36,2.36,0,0,1,.72,2c-.12.72-.26,1.08-.44,1.08l-5.34,7.52-2.76.39Z"/><path class="cls-186" d="M125.82,128.27c.75-.1,1.51-.19,2.26-.27a9.22,9.22,0,0,1,5.28,1.63c3,3.13,8,5.11,6.11,11-4.72,5.07-10.06,6.77-16.4,3-.83,0-1.65,0-2.48-.06l2.68-7.59C125.64,133.9,125.83,131.12,125.82,128.27Z"/><path class="cls-187" d="M123.07,143.6c5.15-1.76,10.91-1.66,15.48-5.16,2.48-.72,3.65.75,4.52,2.71a7.43,7.43,0,0,1-1,5.88c-2.42,3.05-6.07,2.75-9.36,3.41-3.44.95-6.7.82-9.52-1.72Z"/><path class="cls-188" d="M123.22,148.72l10.2,0c.77.54,1.07,1.13.89,1.76s-.39,1-.62,1L131,154.33C127.24,154,123.85,153.29,123.22,148.72Z"/><path class="cls-189" d="M131.23,131c-1-1-2.09-2-3.15-3q2.55-5.11,5.08-10.23l2.7-2.5c9.77.46,9.09,6.79,7.64,13.57C140.21,134,136,134,131.23,131Z"/><path class="cls-190" d="M141.16,128.26c0-5,.29-10.22-5.3-13,.17-1.65.35-3.3.52-5l4.67,0a8.62,8.62,0,0,1,5.62,5.69c.79,4.16,1.22,8.27-1.74,11.89A3,3,0,0,1,141.16,128.26Z"/><path class="cls-128" d="M151.34,84.71l-5.09,5.14c-6.6.46-14.16,4.26-17.93-5.15A31,31,0,0,0,151.34,84.71Z"/><path class="cls-191" d="M143.61,115.39l-2.55-5.1c.17-3.62-.53-7.46,2.53-10.38l.11.17c3.48,3.44,4.13,7.54,2.78,12.09A7.17,7.17,0,0,1,143.61,115.39Z"/><path class="cls-192" d="M133.52,250.93c-4.92-4.12-5.77-9.52-4.84-15.47,3.88-1.35,1.83-6.92,5.84-8.2,5.17,3.47,5.76,9.39,7.83,14.53C142.13,247.47,142.52,253.75,133.52,250.93Z"/><path class="cls-193" d="M133.52,250.93c5.81-.8,5.12-6.47,7.43-9.89a1.59,1.59,0,0,1,2.66-.23l0-.05c1.83,4.18,7.81,6.72,5.05,12.73l-5,5.09C142,253.81,136.38,254.2,133.52,250.93Z"/><path class="cls-194" d="M133.89,227.67c.19,2.39.29,4.79.59,7.17s1.64,5.36-1.67,5.87c-1.09.16-2.74-3.39-4.13-5.25,0-1.71-.07-3.43-.11-5.15,2.32-2.06,2.29-4.87,2.39-7.63C135.23,222.41,134.84,224.88,133.89,227.67Z"/><path class="cls-195" d="M148.68,253.49q-2.52-6.37-5.05-12.73l7.71,5.09c10.65,3.42,6.31,11.11,5.1,17.91h-5Q150.06,258.62,148.68,253.49Z"/><path class="cls-196" d="M141.14,210c4.94,2.87,6.68,7.65,7.67,12.88l-.1-.07c-4.15,3.39-8.38,3.41-12.68.28a15.47,15.47,0,0,1-2.49-3.1C133.34,214.56,135.11,210.65,141.14,210Z"/><path class="cls-170" d="M133.54,220a8.49,8.49,0,0,0,2.17.41c1.75,2.17,4.25,4,3,7.43l4.89,13L141,241l-7.06-13.37-2.93-5,.45-2.48C132.12,220.15,132.83,220.08,133.54,220Z"/><path class="cls-168" d="M156.44,263.76c0-6.46,1.13-13.23-5.1-17.91,4.34-.15,8.12.82,10.24,5.12-3.05,5.11-3,10.23,0,15.36Z"/><path class="cls-165" d="M138.72,227.81l-3-7.43a25.43,25.43,0,0,0,13,2.41c.09.9.17,1.79.26,2.69l-2.61,2.58Z"/><path class="cls-174" d="M176.83,107.75c-6.89.17-13.94-1-20.46,2.37-2.34-11.4,7.31-7.33,12.18-9.45a7.87,7.87,0,0,1,5.71,2.19Z"/><path class="cls-197" d="M174.26,102.86l-5-.08a4.8,4.8,0,0,1-5.66.07c-.86-2.81-1.44-5.47,2.91-5.56C170.15,97.66,172.88,99.31,174.26,102.86Z"/><path class="cls-174" d="M166.49,97.29l-2.31,5.3c-5.58-.11-9.44-1.76-7.6-8.5,2.66-1.57,5.19-1.73,7.46.72l2.88.3C166.77,95.84,166.63,96.57,166.49,97.29Z"/><path class="cls-198" d="M171.83,151.2h5.07c-.83,4.56,2.08,13.14-3.71,12.55C166.14,163,173.63,155.5,171.83,151.2Z"/><path class="cls-199" d="M154.25,153.82c-.09-.85-.19-1.7-.29-2.55-2.88-1.6-8.46,1-8.31-5.31a7.23,7.23,0,0,1,2.73-2.65c3.64-1.49,7.47-1.24,11.27-1.22,4-.64,7.5-.07,9.5,4-.1,1.74-.21,3.49-.31,5.23Z"/><path class="cls-200" d="M169.24,130.75c-.77-.07-1.55-.12-2.32-.16-4-.07-6.2-2.25-7.1-6a7.28,7.28,0,0,1,.94-4c3.58-3.83,7.27-3.3,11-.23l2.59.13c3.52,2.48,6.61,5.18,5,10.18-3,2-3.87,12.66-9.93,2.48a1.45,1.45,0,0,0,.45-1.67C169.67,131,169.44,130.75,169.24,130.75Z"/><path class="cls-201" d="M161.7,125.37l5.22,5.22c-1.15,5.45,1.56,10.34,2.23,15.53a7.68,7.68,0,0,0-7.66-.2c-3.31-2.64-6-5.6-5.63-10.28C156.93,131.72,157.61,127.57,161.7,125.37Z"/><path class="cls-202" d="M154.08,115.48c6.73-1.37,13.45-5.45,20.22-.11l-2.5,2.55c-3.77,2.56-8.42.46-12.32,2.36C156.54,120,153.61,119.64,154.08,115.48Z"/><path class="cls-203" d="M169.24,130.75c.42-2.11-2.17-4.71.85-6.27.5-.26,2.25.93,2.75,1.82,2.15,3.79.71,6-3.39,6.88C169.35,132.37,169.28,131.57,169.24,130.75Z"/><path class="cls-179" d="M179.38,130.7q-2.52-5.08-5-10.18C180.2,121.85,184.29,124.05,179.38,130.7Z"/><path class="cls-204" d="M158.89,118.24l12.91-.32c0,.82,0,1.65,0,2.47-3.68.35-7.72-.61-10.51,2.93a2.5,2.5,0,0,1-3-.45A3.83,3.83,0,0,1,158.89,118.24Z"/><path class="cls-205" d="M156.36,95.13l7.82,7.46,5.06.19c-3.31,4.17-11.4,0-12.87,7.35q-1.08.21-2.16.39l-1.42.23c-2.42.57-4.09,2.67-6.52,3.21a2.77,2.77,0,0,1-2.56-1.16q0-6.36,0-12.72c.83-.08,1.66-.14,2.49-.19A16,16,0,0,0,154,95.21l-.11-.31A1.43,1.43,0,0,1,156.36,95.13Z"/><path class="cls-206" d="M158.89,118.24c0,1.62.07,3.24.1,4.86a5.05,5.05,0,0,1-3.18,4.11c-10.25,1.06-11.21-4.56-8.95-12.48,1.45-2.61,2.78-5.4,6.6-4.62l.75.41c-.05,1.65-.09,3.31-.14,5Z"/><path class="cls-207" d="M156.36,95.13a22.31,22.31,0,0,0-2.45-.23c.69-4.32,3.8-6.11,7.58-7,2.08-.48,4.39-.24,5.28,2,.95,2.36-1.72,3.33-2.72,5Z"/><path class="cls-174" d="M154,95.21c0,5.86-2.35,7.92-7.83,4.68C147.88,96.78,150.39,95.06,154,95.21Z"/><path class="cls-208" d="M146.37,146.26l7.59,5-5.28,2.53c-4.52-3.91-10.37.89-15-2.3l-.27-2.75,7.69-2.69C142.92,144.54,144.67,144.74,146.37,146.26Z"/><path class="cls-209" d="M141.16,128.26c.84,0,1.68-.06,2.51-.07a7.23,7.23,0,0,1,2.61,2.63,11.29,11.29,0,0,1,.76,5.57,7.76,7.76,0,0,1-2.55,4.94,2.82,2.82,0,0,1-3.37-.36l-2.57-2.53c-1.92-3-7.52-2.35-7.32-7.43C134.65,130.5,138.44,131.3,141.16,128.26Z"/><path class="cls-210" d="M141.12,141l2.63-.13c5.19-1.66,7.11-.19,5,5.19-.79.05-1.57.12-2.34.23l-5.26-.2C141.11,144.36,141.11,142.67,141.12,141Z"/><path class="cls-211" d="M143.71,130.79c0-.87,0-1.74,0-2.6l-.06-12.8c0-.86.07-1.72.1-2.59.73,0,1.47,0,2.2,0,1.86,0,2.19,1.6,2.89,2.8-3.92,8.22,3,8.2,7.58,10C156.35,137.69,150,134.19,143.71,130.79Z"/><path class="cls-212" d="M148.71,146c-.14-3.18-2-4.71-5-5.19l0-5c5.11-3.46,10.21-3.29,15.29.05q1.25,5,2.48,10.07Z"/><path class="cls-213" d="M159,135.86c-5.1,1.69-10.19.27-15.29-.05,0-1.68,0-3.35,0-5,4.54-.93,10.77,2.29,12.67-5.15L159,123.1l2.26.22a8.09,8.09,0,0,1,.45,2.05Q160.35,130.62,159,135.86Z"/><path class="cls-214" d="M128.44,106.77c2.08,1.33,2.21,3.5.28,4.88a5.85,5.85,0,0,1-6.78-.21.72.72,0,0,1-.64,0,1,1,0,0,1-.43-.53,2.39,2.39,0,0,1-.42-.94,4.26,4.26,0,0,1,0-.5c0-.26,0-.51,0-.77a1.53,1.53,0,0,1,.18-.49,4.62,4.62,0,0,1,3.07-2.31c.23,0,.46-.13.69-.18a10.68,10.68,0,0,1,2.83.19C127.8,106.05,128.48,106.16,128.44,106.77Z"/><path class="cls-215" d="M148.8,115.65l-2.89-2.8c.41-6.73,2.84-7.89,7.55-2.74Z"/><path class="cls-214" d="M166.64,106.12c1.75,1.17,1.86,3.08.24,4.29a4.74,4.74,0,0,1-5.7-.18.58.58,0,0,1-.53,0,.84.84,0,0,1-.37-.47,2,2,0,0,1-.35-.82,3.31,3.31,0,0,1,0-.44c0-.23,0-.45,0-.68a1.8,1.8,0,0,1,.14-.43,3.94,3.94,0,0,1,2.59-2c.2,0,.38-.12.58-.16a8.24,8.24,0,0,1,2.38.17C166.1,105.48,166.67,105.58,166.64,106.12Z"/></svg>