<svg id="Layer_1" data-name="Layer 1" xmlns="http://www.w3.org/2000/svg" viewBox="0 0 320 320"><defs><style>.cls-1{fill:#483332;}.cls-2{fill:#3d2b2b;}.cls-3{fill:#533d3d;}.cls-4{fill:#362727;}.cls-5{fill:#382829;}.cls-6{fill:#483636;}.cls-7{fill:#422e30;}.cls-8{fill:#3b2a28;}.cls-9{fill:#544037;}.cls-10{fill:#cb7f65;}.cls-11{fill:#614542;}.cls-12{fill:#5a3f3f;}.cls-13{fill:#4f3b36;}.cls-14{fill:#ed6262;}.cls-15{fill:#e79a7d;}.cls-16{fill:#2f2121;}.cls-17{fill:#bc7660;}.cls-18{fill:#fba288;}.cls-19{fill:#4c3835;}.cls-20{fill:#cb8871;}.cls-21{fill:#57433c;}.cls-22{fill:#fbb294;}.cls-23{fill:#645048;}.cls-24{fill:#98807b;}.cls-25{fill:#5c3d36;}.cls-26{fill:#e1cdc6;}.cls-27{fill:#905c4a;}.cls-28{fill:#5a3731;}.cls-29{fill:#b49990;}.cls-30{fill:#c28975;}.cls-31{fill:#da947e;}.cls-32{fill:#89716a;}.cls-33{fill:#040201;}.cls-34{fill:#4f3e3e;}.cls-35{fill:#c2775f;}.cls-36{fill:#52413a;}.cls-37{fill:#563d3c;}.cls-38{fill:#030100;}.cls-39{fill:#352223;}.cls-40{fill:#332223;}.cls-41{fill:#3b2928;}.cls-42{fill:#332525;}.cls-43{fill:#261919;}.cls-44{fill:#43322b;}.cls-45{fill:#261817;}.cls-46{fill:#65362b;}.cls-47{fill:#2f1c19;}.cls-48{fill:#614d46;}.cls-49{fill:#af8e82;}.cls-50{fill:#e29172;}.cls-51{fill:#dc8f72;}.cls-52{fill:#da8b6c;}.cls-53{fill:#de8a69;}.cls-54{fill:#e4997c;}.cls-55{fill:#6f5153;}.cls-56{fill:#c9aba3;}.cls-57{fill:#fba57e;}.cls-58{fill:#f59973;}.cls-59{fill:#eb9576;}.cls-60{fill:#fead87;}.cls-61{fill:#e79473;}.cls-62{fill:#d07f5f;}.cls-63{fill:#fca380;}.cls-64{fill:#b9745e;}.cls-65{fill:#3b2420;}.cls-66{fill:#42322e;}.cls-67{fill:#f5dfca;}.cls-68{fill:#372825;}.cls-69{fill:#261917;}.cls-70{fill:#fbebdb;}.cls-71{fill:#72493e;}.cls-72{fill:#fefdf6;}.cls-73{fill:#f8e7d9;}.cls-74{fill:#f2d6c7;}.cls-75{fill:#b36f55;}.cls-76{fill:#90523f;}.cls-77{fill:#734033;}.cls-78{fill:#e6cabe;}.cls-79{fill:#d8bcb4;}.cls-80{fill:#ec946f;}.cls-81{fill:#b29d95;}.cls-82{fill:#201414;}.cls-83{fill:#a7674e;}.cls-84{fill:#2c1e1d;}.cls-85{fill:#44302d;}.cls-86{fill:#905442;}.cls-87{fill:#a05e48;}.cls-88{fill:#fdfcf5;}.cls-89{fill:#6c554d;}.cls-90{fill:#786159;}.cls-91{fill:#d1b3a8;}.cls-92{fill:#9d7c73;}.cls-93{fill:#f7e2d5;}.cls-94{fill:#edcdbf;}.cls-95{fill:#d4b4a6;}.cls-96{fill:#fba582;}.cls-97{fill:#ce7663;}.cls-98{fill:#f58e84;}.cls-99{fill:#ae584d;}.cls-100{fill:#fdb38b;}.cls-101{fill:#df8a6d;}.cls-102{fill:#fdc197;}.cls-103{fill:#b86a54;}.cls-104{fill:#cd795b;}.cls-105{fill:#c2795e;}.cls-106{fill:#ca8568;}.cls-107{fill:#b96b53;}.cls-108{fill:#9f5642;}.cls-109{fill:#fcfae9;}.cls-110{fill:#f1d7c6;}.cls-111{fill:#fdfcf4;}.cls-112{fill:#f9a88b;}.cls-113{fill:#b8664c;}.cls-114{fill:#d0785d;}.cls-115{fill:#ab5347;}.cls-116{fill:#833026;}.cls-117{fill:#913931;}.cls-118{fill:#883f2c;}.cls-119{fill:#7a3625;}</style></defs><path class="cls-1" d="M286.94,230.82c-.17,1.85,1.31,3.37,1.08,5.23a34.48,34.48,0,0,0-6.73,4.37c-1.65,1.55-3.7.51-4.26-1.87a12.16,12.16,0,0,1-.13-2.89c0-1,.31-1.91.33-2.88-.39-.17-.43.2-.6.36-1.78,1.76-3.91,3.31-2.17,6.37.43.75-.22,1.89-.7,2.73-2.45,4.26-3.14,9.12-4.83,13.63-1.48,3.91-2.42,8-4.69,11.73A54.31,54.31,0,0,0,259,279.51a10.39,10.39,0,0,1-4.58,6.12c-1.9,1.14-3,3-4,4.85-.43.76-1.26,2-1.88,1.26-2-2.24-5.64-.82-7.19-3.63-3.89-.29-5.93-2.85-8-5.81-1.09-1.53-3.55-1.49-5.63-.39-3,1.61-4.57.66-4.76-2.72a8.81,8.81,0,0,1,.55-4.28c2-4.49,3.92-9,5.7-13.63a8.44,8.44,0,0,1,1.6-2.41,4.1,4.1,0,0,0,1-3.75c-.58-2.88.68-4.51,3.61-4.4,1.7.06,2.46-.54,3.43-1.89a11.45,11.45,0,0,1,7.62-4.78c1.74-.26,2.86-.93,3.25-2.74s1.54-2.69,3.38-1.59c1.68,1,2.82,1.66,2.92-1.31.06-1.86,1.78-2.71,3.58-2.7s2.46,1.23,2.42,2.94c0,1-.08,2.45,1.25,2.57s3-1.1,2.9-2.33c-.24-3.22,2.86-6.4.12-9.64a1.67,1.67,0,0,1-.06-1.69c1.46-3-.75-4.2-2.62-5.56-1.27-.92-2.18-.56-2.5,1-.16.75-.06,1.55-.29,2.3a1.31,1.31,0,0,1-1.45,1.11c-2.12-.14-4.26-3-3.45-4.94.71-1.72.18-1.92-1.42-2.41-4.08-1.24-8.53-1.66-11.71-5.16-1.37-1.51-2.23-1.07-2.69.93-.53,2.28-.18,4.7-.75,6.91-1.17,4.54-1.53,9.27-3.15,13.7A7.93,7.93,0,0,1,235,238.1c-2.81,3.05-3.17,7-3.77,10.73a16.11,16.11,0,0,1-4.23,8.35c-1.39,1.55-2.26,3.08-1.7,5.21a4.6,4.6,0,0,1-.48,3.1c-2.95,6.2-4.88,12.83-8,18.93a10.45,10.45,0,0,0-1.18,4.73c-.59,2.93-.59,2.94,2.23,3,2.1,0,4.2,0,6.31,0s4.36-.16,6.54,0c1.1.07,2.34-.08,2.94,1.22-.85,1-2,.46-3,.47-15.27.19-30.54-.47-45.82-.26a6.83,6.83,0,0,1-2-.11c-1.22-.37-2.67.29-3.68-.46-1.25-.93.21-2.44-.25-3.52-1.49-3.52-.32-6.28,1.9-9.05,1.2-1.51,1.14-3.67,1.83-5.47s1.65-3.06,3.88-2.4c1.9.57,2.61-.64,3.07-2.16.59-2.89,2.1-5.56,2.2-8.58.76-1.62.57-3.65,2.12-4.93,2.15,1,2.75,3.36,1.44,6.23a7.37,7.37,0,0,0-1.08,3.55c.07,1,.26,1.34,1.53,1.44a7.17,7.17,0,0,0,5.91-2.11,3.21,3.21,0,0,1,4-.27c.56.32,1.13.81,2,.28-.14-1.19-1.32-1.52-2-2.24-1.57-1.73-1.69-3.43-.13-5.1a3.61,3.61,0,0,0,1.24-2.5c0-.49,0-1.14.38-1.36,3.18-1.87,2.5-4.6,2.13-7.56-.28-2.21.52-4.47,3.32-5.14-2.42-1.62-2.54-2.54-.35-4.36a3.21,3.21,0,0,0,1.46-3.18c-.21-1.5.66-2.47,1.76-3.41,2.54-2.16,2.43-2.68.89-5.47a53.89,53.89,0,0,1-3-7.12c-1-2.63,1.66-4.06,3-5.82,1.06-1.33,2.38-.95,3.65-.21a1.8,1.8,0,0,0,2.71-.72c.43-.65.86-1.42,1.61-1.62a9.44,9.44,0,0,0,6.45-5.62c.86-1.82,3-1.22,4.62-.24,4.63,2.78,9.76,4.54,14.43,7.23a3.8,3.8,0,0,0,2.55.31,3.58,3.58,0,0,1,2.27.17c4.28,2.3,9.14,3.12,13.43,5.29,2.55,1.28,4.68,3.34,7.34,4.52.69.31,1.28.87,2.1.86,2.46,0,3.1,1.47,3.14,3.57,0,1.26-.25,2.52-.14,3.76.17,2.19,1.4,2.76,3.33,1.72C284.82,231.21,285.58,230,286.94,230.82Z"/><path class="cls-2" d="M233.53,293.43c-3.26-1.05-6.62-.21-9.91-.49-.19-1.57,1.07-1.65,2-1.86a8.71,8.71,0,0,0,3.91-2.37c1.08-1,.73-1.66-.45-2.12a5.63,5.63,0,0,0-4.25-.07c-1.84.73-3.24.38-4-1.5s-1.75-1.35-2.78-.22a9.64,9.64,0,0,0-1.32,2.23c-.39.79-.46,2-1.82,1.85-.28-3.09,1.38-5.63,2.7-8.11,2.78-5.2,3.77-11.13,6.81-16.19.19-.32.42-.83.3-1.09-2.27-4.75,2.41-6.79,4-10a8,8,0,0,0,1.29-3.28c.22-3.25.79-6.88,2.17-9.38a80.18,80.18,0,0,0,4.2-8.65,4,4,0,0,0,.51-1.32c0-5.89,2.55-11.42,2.44-17.35,0-1.57,1.1-2.21,2.59-1.25a20.51,20.51,0,0,1,2,1.63c1.85,1.54,3.58,3.06,6.31,3,2.08,0,3.75,1.86,6.15,1.64,1.37-.12,1.71,1.25.52,2.46-.64.64-1.62,1.5-.71,2.45a13,13,0,0,0,3.24,2.34c.53.28.7-.47.72-1a18,18,0,0,0,0-2.32,1.9,1.9,0,0,1,1.61-2.09c2.52-.68,2.89,2.42,4.93,2.88.85.2,1.35,1.83.59,3.06-1,1.64-1,3,.79,4.21.38.24.74,1.3.56,1.5-1.86,2.14-1.09,4.8-1.67,7.16a4.53,4.53,0,0,1-4.06,3.17c-1.39,0-2.14-2-1.79-3.65.22-1.05.33-1.92-.84-2.41a2.94,2.94,0,0,0-2.95.63,1.84,1.84,0,0,0-.82,2.49c.41.69,1,1.33.06,2a2,2,0,0,1-2.42-.19c-.55-.39-1.15-.71-1.69-1.12-1.34-1-2.05-.36-2.11,1-.12,2.78-1.74,3.23-4.16,3.68-3,.56-5.95,2.06-7.21,5.24-.62,1.56-1.45,1.73-2.88,1.45-3.21-.61-4.43.71-3.45,3.75a3,3,0,0,1-.5,3c-4.21,5.09-5.12,11.74-8.25,17.35-.81,1.44-.52,3.29-.2,4.85.49,2.32,2.11,1.76,3.55.87,3.55-2.21,7.32-.88,8.54,3.13.43,1.4,1.07,2.19,2.63,2.05,1.8-.17,3.53-.12,4.24,2,.16.48.65.95,1.09.77,2.06-.8,3.44-.19,4.49,1.71.34.62,1.07.42,1.31-.29a12.43,12.43,0,0,1,5.81-6.77,4.39,4.39,0,0,0,1.86-2.16c1.39-4.22,3.54-8.11,5.12-12.23a17,17,0,0,1,2.12-4c2.07-2.92,2.51-6.55,3.71-9.84,1.57-4.29,2-9,4.44-13,1.69-2.79,1.43-5-1-7.44,2.37-.69,4.55-1.31,4.89-4,.05-.44.4-1,1-.68a1.28,1.28,0,0,1,.6,1.51,25.45,25.45,0,0,0-.58,5.44c0,1.29.37,2.34,1.57,2.85s1.82-.47,2.41-1.19a8.34,8.34,0,0,1,6.45-3.27c2.33,6.21,4.42,12.51,7,18.59,2.74,6.35,4.82,13,7.65,19.25a99.12,99.12,0,0,1,5.39,15.89c.89,3.42.23,4.89-2,5.38-.94-.72-2.05-.38-3.08-.49-2-.23-2.5-1.32-1.46-2.95a5.69,5.69,0,0,1,1.21-1.24c3.18-2.61,3.19-2.61,1.95-6.47a53.27,53.27,0,0,0-1.86-5.18c-.56-1.28-1.24-1.76-2.68-1-2.46,1.3-4.32.36-4.56-2.45s-.08-5.43-2.49-7.37a.9.9,0,0,1-.25-.81c1-5-2.15-8.85-4.06-12.89-1.43-3-4.57-4.85-8.07-5.31-3.65-.49-4.28-.89-5.39-4.61-1.18,2-2.38,3.81-2.47,5.79-.19,4.28-2,8-3.28,11.94-2.32,7-4.1,14.22-6.21,21.31-1.11,3.73-1.13,3.77-5.06,4-1.78.11-2.12,1.32-2.52,2.67s-.09,3.24-2.13,3.7c-5.79,0-11.57,0-17.35,0C235.38,293.78,234.38,294.13,233.53,293.43Z"/><path class="cls-3" d="M286.94,230.82c-1.35,0-1.85,1.33-2.93,1.72-.84.3-1.61,1.39-2.61.55s-2.16-1.85-1.73-3.4a15.72,15.72,0,0,0,.27-3.74c.09-1.9-.57-2.39-2.67-2.65a13,13,0,0,1-6.47-3.24c-3.11-2.74-6.9-3.63-10.58-4.9a14.81,14.81,0,0,1-4.51-1.85,3.62,3.62,0,0,0-3.48-.69c-2.85.81-4.81-1.62-7.08-2.63s-4.32-2.46-6.8-3c-1.39-.3-2.3-1.33-3.36-2.17-1.87-1.5-3.8-.91-4.32,1.41a4.18,4.18,0,0,1-2.09,3c-2.34,1.16-5.1,1.48-6.32,4.42-.33.8-1.78.42-2.54-.36-1.42-1.49-2.42-1.11-3.35.57a8.86,8.86,0,0,1-1.77,1.91c-.68.66-1.2,1.59-.78,2.34a61.92,61.92,0,0,1,3.25,7.48c.36.87,2.29,1,1.73,2.31s-1.07,3-2.59,3.7c-1.91.87-2.26,2.19-1.55,4a1.46,1.46,0,0,1-1.15,2.19,2.53,2.53,0,0,0-1.63,1.11c-.49.85-1.78,2.16.75,1.9a1.28,1.28,0,0,1,1.57,1.29c0,.77-.59.81-1.18.95-2.62.64-3.83,2.77-2.87,5.55.89,2.57,1.21,4.73-1.89,5.94a1.36,1.36,0,0,0-.77,1.93c.59,1.34,0,1.93-1.11,2.48-2.19,1.08-1.44,2.62-.48,4.08.29.46.89.71,1.35,1.07.85.66,2.49,1.07,1.52,2.55s-2.09.73-3.22-.1c-1.73-1.29-3.89-.57-5.53,1.71-.43.6-.78,1.26-1.42,2.3-.72-2.41-1.7-3-3.44-1.25-.76.8-1.58,0-1.62-.83-.08-1.77-.44-3.5.78-5.27,1.33-1.93,1.67-4.24-.31-6.22a1.2,1.2,0,0,1,.05-1.82c2.43-.61-.11-1.92.39-2.81,1-1.47,2-1.29,3.07-.17.8.83,1.53,2,2.87,1.3s.51-2.07.33-3.15a3,3,0,0,1,.24-2,25,25,0,0,0,2.76-12,5.5,5.5,0,0,1,.78-3.05,9.36,9.36,0,0,0,1.58-5.48c0-1.79,1.49-2.83,2.15-4.21s-2.09-2.2-2-4.07,1.19-3.45,1.81-5.16c.77-2.13,1.47-4.14.65-6.44-.51-1.44.12-2.86.7-4.2a9.13,9.13,0,0,0-1.63-10.13c-.44-.53-1-1-.95-1.72.26-2.39.34-4.69-.86-6.94-.39-.73.23-1.43,1.07-1.77,1.18-.47,1.06.81,1.63,1.15,3,6.53,8.74,9.77,15.05,12.3,12.64,5.05,25.34,9.89,38.33,14,6.84,2.19,13.2,5.91,19.76,9a5.89,5.89,0,0,1,2.84,3.19A28.5,28.5,0,0,1,286.94,230.82Z"/><path class="cls-4" d="M254.4,293.49c.2-1.13.39-2.26.59-3.39.61-3.49,1.08-3.93,4.58-3.2a1.71,1.71,0,0,0,2.31-1.45c.77-3.05,2.42-5.82,2.45-9.12,0-2.77,2.39-4.84,2.63-7.74.3-3.64,1.85-7,3.3-10.38a16.09,16.09,0,0,0,1.6-7c-.09-2.88,2-5.12,2.71-7.82.08-.33.32-.77.81-.64a1.34,1.34,0,0,1,.93,1.33c-.2,4,2.55,3.76,5.32,4.24a12,12,0,0,1,7.76,5.12c2.09,3,2.33,7.1,4.8,10-1.71,3.15.82,5.14,1.92,7.6.5,1.12,0,2.67.11,4,.18,2.62,1.53,3.24,3.67,1.81,1.52-1,2.66-1.22,3.45,1.06,1,2.81,2,5.61,2.86,8.47.59,1.89.09,2.91-1.54,3.72a10.31,10.31,0,0,0-2.15,1.43c-.56.48-1.28,1-.86,1.94s1.17.45,1.81.56c.94.15,2.24-.53,2.61,1.05H295.62c-3.11-1-6.3-.27-9.44-.47-1.54-.1-3.09,0-4.63,0-.94,0-2-.28-2-1.24-.1-3.55-2.72-6.05-3.59-9.35-1.36-5.14-1.53-10.49-3.14-15.55a4.58,4.58,0,0,0-.14-.56c-.41-1-.43-2.76-1.78-2.57s-.73,1.75-.62,2.75c.25,2.36-1.27,4.2-1.84,6.32-.87,3.18-1.27,6.43-1.83,9.64s-2.22,6.29-2.48,9.64c-1,.35-2-.08-3,.06C258.9,293.62,256.62,294.19,254.4,293.49Z"/><path class="cls-5" d="M19.84,295.15c-1.53-2.66-.74-5.53-.41-8.22a112.65,112.65,0,0,1,4.08-19.21,37.35,37.35,0,0,0,1.17-16.85A21.77,21.77,0,0,1,29,234.28c1.75-2,1.92-5.2,5-6.11,1.17-1.16,2.36-1.55,3.74-.24a5,5,0,0,0,3.14,1.34c3.25.15,6.47.61,9.73.6a4.17,4.17,0,0,1,.87-.15,2.53,2.53,0,0,1,2.7,2.08c.88,2.87,3,4.53,5.52,5.88,3.08,1.62,5.4,3.94,5.74,7.67a1.46,1.46,0,0,1-.31,1.07c-.09,0-.24.13-.26.1-2.37-2.62-6.09-3.33-8.2-6.57-3.14-4.82-7.45-8-13.86-6.72-2,.41-2.8,1.14-2.17,3.08.46,1.41.84,2.77-.08,4.16-.42.63-.42,1.32.4,1.68a1.22,1.22,0,0,0,1.83-.81c.16-.46.2-1,.4-1.4,1-2.11,2.81-2.66,4-.84,1.39,2.16,3.39,3.65,5,5.55,2,2.42,2.1,5.58,3.24,8.33a57,57,0,0,1,3.14,9c.77,3.4-.79,4.86-4.08,3.86a9.53,9.53,0,0,1-4.26-2.41c-3.51-3.79-8.61-4.64-12.81-7.13a2.3,2.3,0,0,0-3.27.88c-.85,1.27-1.79,2.63-.47,3.89,2.29,2.16,1.75,5.22,2.78,7.76.5,1.23-1.76,4.52-3.24,5.11-2,.78-3.08-.44-4-1.89-.75-1.14-1.66-2.14-2.48-3.22s-1.6-.78-2,.45a4.89,4.89,0,0,0,.47,3.64,105.46,105.46,0,0,0,4.55,9.69c1.22,2.17.21,3.94-1.93,3.18-4.19-1.48-5.19,1.84-7.12,3.9-.11,1.29,0,2.57-.1,3.85a3.64,3.64,0,0,1-.18.87A2.61,2.61,0,0,1,19.84,295.15Z"/><path class="cls-6" d="M99.88,194.75c6.71-3.29,12.7-7.74,19.05-11.61,2.07-.68,2.79-3.12,4.9-3.74a2.69,2.69,0,0,1,2,1.58,3.71,3.71,0,0,1,.18,1.81c-.94,6.84-2,13.67-3.54,20.42,3.63.93,4.14,1.7,3.17,5.26a16.27,16.27,0,0,0-.32,6.59c.43,3.2-.31,6.53,1.2,9.63.33.67-.12,1.51-.4,2.23s-.68,1.61-.32,2.24c2.37,4.14-.73,7.09-2.16,10.39a4.72,4.72,0,0,1-2.4,2.4c-2,.92-3.84,1.84-3.27,4.68.22,1.11-1,1.4-2,1.77-1.84.75-2,1.8-.55,3.15a5,5,0,0,0,1.75,1c2.18.8,2.82,2.2,1.7,4.3a4.22,4.22,0,0,0-.16,3.65c1.48,3.77,2.48,7.72,4.44,11.3a6.12,6.12,0,0,0,1.56,2.06,6.68,6.68,0,0,1,2.64,5.53c.08,3.27,2.2,5.94,2.84,9.06.29,1.42,1.29,3-.64,4.05a1.81,1.81,0,0,1-1.05-1.3c-.82-4.72-3.35-8.79-5-13.2-1.35-3.68-4-6.76-5.15-10.59-2.26-7.31-6.21-14-8.36-21.32a6,6,0,0,1-1.26-2.25,4.63,4.63,0,0,1-.22-.81,6,6,0,0,0-.1-1.15c-2-4.83,1.77-6.71,4.68-8.87,1.49-1.1,2.27-2.86,4-3.74.86-.44.26-1.17-.37-1.56-3.61-2.22-3.57-5.87-3.49-9.41,0-1.37.19-2.62-.53-3.89a57.55,57.55,0,0,1-5.08-10.46c-.56,1.91-.18,4-2.45,3.4-2-.5-2.06-2-1.76-3.71.55-3.11,1.29-6.2,1.89-9.36C103.34,193.6,101.81,196.43,99.88,194.75Z"/><path class="cls-7" d="M99.88,194.75c1.7.3,2.89-.91,4.3-1.45.6-.23,1.21-.93,1.84-.37s.34,1.28.2,1.93c-.66,3-1.37,6-2,9-.19.85-.44,1.75.34,2.43.51.45,1.14.88,1.84.53s.45-.94.27-1.52c-.24-.8-.75-1.87.47-2.16s1.63.91,1.89,1.79a33.27,33.27,0,0,0,3.6,7.48c1.18,2,2.5,3.81,1.39,6.51-1,2.33,1.29,4.49,1.33,6.92,0,.85,1.14.84,1.89,1a2.21,2.21,0,0,1,1.68,2.13c.11,1-.77,1.21-1.58,1.29a1.91,1.91,0,0,0-1.59,1.08c-.71,1.23-4.91,4.68-6.48,5.39-.59.27-1.12.68-.68,1.29,1.28,1.76.62,3.71.68,5.59a1.5,1.5,0,0,1-1.63-.49c-1.72-2.44-3.17-5-3.22-8.09,0-2.52-2.48-4.07-2.72-6.52a8.27,8.27,0,0,0-1.44-4.27c-1.89-2.58-1.53-4.4,1.06-6.33a8.19,8.19,0,0,1,4.49-1.74,9.52,9.52,0,0,0,3.6-.87c1.84-1.87,1.43-4-1.11-5a33.61,33.61,0,0,1-4.54-1.72c-1.64-.71-2-2.54-3.15-3.57s-2.65,1.5-4.19.79a6.47,6.47,0,0,0-5.78-.34A9.64,9.64,0,0,0,87.85,207c-1.39,1.33-2.89,2-4.65.66-1-.77-1.66-.22-2.46.5-3,2.64-4.55,2.55-7.19-.42a3.38,3.38,0,0,0-4-.83,5.67,5.67,0,0,1-4.21,0c-1.1-.48-2,.17-3,.52-3,1-6,3.11-9.3.95a2.08,2.08,0,0,0-2.71.56,8.3,8.3,0,0,1-3.1,4.21c4,.34,3.92,3.56,5,5.79.46.91.58,2,1,3,1.74,3.82,1.23,5.75-2.17,8.33h0c-3.64-.46-7.51.54-10.84-1.83-.71-.5-1.67-.54-2.41-1-2-1.14-3-.32-3.59,1.63a4,4,0,0,0-3.36,2.6c-.45,1-.68,2.2-1.94,2.6,3.13-6.59,6.47-13.08,10.21-19.35a15.18,15.18,0,0,1,6.85-6c4.8-2.21,9.61-4.39,14.85-5.43,7.71-2,15.48-3.81,23.34-5.19,4.25-.74,8.61-1,12.72-2.43a10.1,10.1,0,0,0,2.9-1.15Z"/><path class="cls-8" d="M232.41,80.62a31.52,31.52,0,0,1-4.61,8.59,2.94,2.94,0,0,0-.87,1.13c-2.16,3.89-5.06,4.76-9,2.55a17.47,17.47,0,0,1-5.73-4.77,38.38,38.38,0,0,0-2.88-3.23c-1.7-2.78-3.78-5.34-5.16-8.31a10.62,10.62,0,0,0-3.93-4.15c-4.55-3.08-9.19-6-14.76-7a31.21,31.21,0,0,1-6.58-2.13c-.89-.36-1.84-.73-1.86-1.94,1.45-1.58,3,.27,4.77-.16-1.33-1.67-3.31-2.23-4.67-3.55-.7-.67-2-.91-1.72-2.3,1.49-.86,2.6.05,3.68.85,2.73,2,5.29,4.31,9.14,2.51,1.28-.6,2.23.89,3.56,1.08-1.46-1.5-3.47-2.26-5-3.65-2.79-2.48-4.33-5.85-6.64-8.66-1.55-1.89-.48-3.59,2-3.58,1.52,0,2.25-.29,2.58-1.91.45-2.25,1.51-2.66,3.52-1.62a11.19,11.19,0,0,1,3.9,3.4,32.55,32.55,0,0,0,3.74,4,5.35,5.35,0,0,0,5.53,1.54c4.15-1.08,6.21,0,8.28,3.7.66,1.2,1.68,2.12,2.43,3.25s1.39,2.46.18,3.68-2.46.9-3.79.37a2,2,0,0,1-1-.64c-1.93-3-4.77-2.19-7.5-1.87-.5.06-1,.15-1.2.66a1.11,1.11,0,0,0,.57,1.48c3.13,1.3,4.63,4.32,7,6.46,1.28,1.17,2.52,1.86,3.85,0,.95-1.3,2.12-1.12,3.3-.27.31.22.61.48.92.71,3.53,2.65,7.09,1.9,9.25-1.94,2-3.52,3.83-3.81,6.83-1a13.33,13.33,0,0,1,3,3.52C234.78,72,233.91,76.34,232.41,80.62Z"/><path class="cls-9" d="M254.4,293.49l7,.05c.31.21.31.43,0,.65-5.39,0-10.79.08-16.19.05q-33.14-.21-66.28-.47c-1.93,0-3.85-.13-5.78-.21-4.18-.74-8.4-.19-12.6-.32-3-.1-3.14-.21-3.3-3.31-.2-3.69.64-7.46-1.2-11-.67-1.29.46-2.11,1.78-2.32s2.69,0,4-.24a4.76,4.76,0,0,0,.7-.47c.66-1.12.22-1.56-.94-1.69-3.68-.4-3.8-.55-3.72-4.28a7.63,7.63,0,0,1,.28-2.28c.84-1.7,1.55-2.55,3.7-1.06,1.33.92,3.61.33,5.44.42,1.21.06,1-1.63,0-2.11-3.71-1.82-3.89-4.63-2.65-8.05a12.36,12.36,0,0,0,.28-3.45,5.82,5.82,0,0,1,1.94-4.09,2.41,2.41,0,0,1,2.9-.65,2.16,2.16,0,0,1,1.31,2.62,3.25,3.25,0,0,0,1,3.64,4.94,4.94,0,0,1,1.21,2.6c.64,2.91,2.86,4.49,5,6.14.88.67,1.59.59,2.09-.46a14.1,14.1,0,0,1,.9-1.83c.44-.65.95-1.27,1.86-1.1s.93.88,1.12,1.53a22.31,22.31,0,0,0,1.91,5.13,3.85,3.85,0,0,1,.81,1.75c.2,2.1,1.36,2.05,2.85,1.34a1.09,1.09,0,0,1,.7.32c-.92,2.42-2,4.64-5.17,2.73-.9-.53-1.25.16-1.48.79a19.84,19.84,0,0,0-1.38,4.4,6.52,6.52,0,0,1-2.12,4.27,4.29,4.29,0,0,0-.6,6.16,1.07,1.07,0,0,1,.07,1.44c-1.53,2.66-.11,2.91,2.19,2.89,8.4-.09,16.83-.45,25.2.08,8.78.55,17.53.29,26.3.37Z"/><path class="cls-10" d="M207.33,157c-1,3-3,5.45-4.66,8.06-1,1.51-1.61,3-1.06,4.82a.85.85,0,0,1-.26,1.31c-.89.14-1.81-.85-2.68.08-1.8,4.12-4.95,7-8.45,9.63A17.69,17.69,0,0,1,185.4,184c-4.25,1.44-7.8,4.2-11.76,6.19a14.52,14.52,0,0,1-4.3.38c-2.5-.46-3.28,1-3.54,3.06-.2,1.53,0,3.09-.18,4.62-.41,2.83-2.24,4.09-4.68,2.78a27.13,27.13,0,0,1-8.64-7.5,2.5,2.5,0,0,1-.58-2.18c.87-2.59-.68-3.9-2.46-5.22a20.3,20.3,0,0,1-3.67-3.68,6.29,6.29,0,0,0-3.82-2.42,5.12,5.12,0,0,1-4.24-4.16c2.39-1.14,4.2.14,5.95,1.48a133.42,133.42,0,0,1,12.86,11.61c1.93,1.92,2.93,1.76,4.78-.23a2.23,2.23,0,0,0,0-3.53,11.53,11.53,0,0,0-4.11-3.1,8.68,8.68,0,0,1-3.75-3.08c-.45-.57-1.07-1.26-.12-2,1.56-.69,3-.05,4.52.3a28,28,0,0,0,14.53-.27c2.1-.21,3.42-2,5.3-2.65,1.52-.31,2.42-1.56,3.59-2.39a91.82,91.82,0,0,1,15.47-8.48,21.61,21.61,0,0,0,8.77-6.9c.51-.56,1-1.2,1.89-.81C207.66,156,207.73,156.52,207.33,157Z"/><path class="cls-11" d="M123.76,179.74c-1.84.81-2.45,3.35-4.83,3.4,4.25-3.3,7.1-7.77,10.19-12,1.87-.5,1.49.88,1.38,1.79-.21,1.63-1.08,3.1-1.29,4.73a42,42,0,0,0,2.73,21.72c1.6,3.92,2.89,7.92,4.15,11.94a9.73,9.73,0,0,0,.82,4.79,4.4,4.4,0,0,1,.24.86,11,11,0,0,0,1,4.63c.09,1.78,1.25,3.26,1.41,5a7.52,7.52,0,0,1-.82,4.46,4.26,4.26,0,0,0,1,6c3.26,2.38,2.66,5.7,2.81,8.83.06,1.12-.15,2,1,2.7a1.58,1.58,0,0,1,.85,1.7c-.74,3.25,1.32,5.38,3,7.69,1.33,2,1.17,4.49,2.36,6.52a3.84,3.84,0,0,1,.28.87c.2,2.4,2.14,4.62.71,7.17-2.46-1.55-5.35-1.36-8-2A2.82,2.82,0,0,1,140.5,268a6.19,6.19,0,0,0-4.74-5.27c-2.52-.66-2.54-3.19-3.44-4.9-1.19-2.24-2-4.84-1.15-7.54a5,5,0,0,0,0-2.58c-.87-4.15-1.05-8.23.73-12.22a3.13,3.13,0,0,0,.25-2.27c-1.22-3.1-.81-6.44-1.64-9.64a24.79,24.79,0,0,1,1.1-14.75c.64-1.78.64-3.22-.81-4.44s-2-3-4.23-3.08c-.82,0-1.47-1-1.57-1.9-.3-2.78-.87-5.67.57-8.24,1.67-2.95.79-5.71,0-8.56V180.9C125.06,180.29,125.52,178.36,123.76,179.74Z"/><path class="cls-12" d="M208.64,184.34c-.64-.21-1.15-1.31-1.95-.37a1.68,1.68,0,0,0,.41,2.32c1.41,1.14,1.53,2.05.56,3.64-.61,1-.93,2.61,1,3.31,1.21.43,1.43,1.54,1.67,2.78.64,3.29,1.38,6.5-.77,9.58a2.24,2.24,0,0,0-.31,1.91c2.15,3.57-.22,6.55-1.48,9.43-1.1,2.52-1.36,4.05,1.39,5.31,1.1.5,1.82,1.62.06,2.11-2.09.58-2.45,2-2.39,3.73a7.56,7.56,0,0,1-1.61,5.4,4.4,4.4,0,0,0-.76,3c.05,4.34-.52,8.53-3,12.22-.65,1,.17,1.62.41,2.4.39,1.24.8,2.66-.71,3.26-1.33.53-2.87.63-3.72-1.12-.71-1.49-1.57-2.42-2.75-.33.44.77.67,1.53,0,2.27-.68.42-.56,1.1-.58,1.74-.83,1.47-.57,3.33-1.68,4.7l-.36-.34c-.72-1.65,0-3.25.35-4.78,2.1-8.67,3.5-17.47,5.36-26.18.27-1.24.1-2.49.25-3.73,1.32-4.37,1.68-8.89,2.35-13.37s2.5-8.88,3.94-13.27a10.09,10.09,0,0,0,.6-3.39c-.12-6,.49-12-1-17.87a3.26,3.26,0,0,1,.26-2.54c.51-.81,1.06-.69,1.45.16C206.23,179.15,208.15,181.47,208.64,184.34Z"/><path class="cls-13" d="M232.41,80.62c.44-3.48,1.5-6.88,1.1-10.46a7.06,7.06,0,0,0-.62-3c-1.06-1.8-1.9-3.6-4.2-4.46s-3.68-.26-4.82,1.62c-.85,1.4-1.57,3.1-3.63,2.68a4.87,4.87,0,0,1-3.93-3.47c-.66-2.75-2.37-4.83-3.9-7s-3-3.93-4-6.29a5.2,5.2,0,0,0-3-2.58A8.92,8.92,0,0,1,202,45c-1.61-2-1.42-3.9.6-5.51,1.51-1.19,3.27-2,4.7-3.35,1-.32,1.66.43,2.45.77,7.61,3.41,12.68,9.54,17.23,16.19,3.44,5,6.4,10.3,7.38,16.46A16.3,16.3,0,0,1,232.41,80.62Z"/><path class="cls-14" d="M118.55,122.22c-.79-2.45-.57-5-.52-7.49,1.59-1.2,3.26-2.25,4.27-4.13.87-1.63,2.25-1.63,3.51-.31a9,9,0,0,0,4.52,2.33c2.27,1.22,5.07.81,7.22,2.4.91,1.53.07,2.07-1.31,2.2-1.22.12-2.42-.33-3.9-.21a9,9,0,0,0,2.51,2.67,19.84,19.84,0,0,0,8.77,1c1.43-.21,2.79-.2,3.59,1.15a3.64,3.64,0,0,1-.37,4.09,24.09,24.09,0,0,1-10.16,8.3c-5.13,2.39-14-1.5-15.24-7.69-.17-.82-.16-1.77-1-2.31a4.38,4.38,0,0,1-.7-.45C119.17,123.41,119,122.68,118.55,122.22Z"/><path class="cls-15" d="M130.11,113a4.71,4.71,0,0,1-4.3-1.76c-1.7-2.18-2.69-1.3-3.56.66a4.46,4.46,0,0,1-4.22,2.85c-.18-5.06-.73-10.13.47-15.14a5.45,5.45,0,0,1,1.13-2.88c2.29.66,2.66,1.43,1.9,3.88-.36,1.19-1.39,2.35.09,4.13.92-2.74,1.38-5.23,2.27-7.56.22-.65.28-1.45.74-1.88,2.94-2.72,2.29-6.26,2.3-9.64a12.22,12.22,0,0,1,7.87-11.57c1.18-.45,2.34-.92,3.51-1.39a9.84,9.84,0,0,0,5.41-4.94c1.67-3.31,4.67-3.23,6.81,0a1.92,1.92,0,0,1-1.2.53c-2.19-.42-3.69.24-4.56,2.46a8.48,8.48,0,0,1-5.29,5c-2.07.75-3.81,2.19-5.87,3.08s-1.8,3.46-2.59,5.27a3.66,3.66,0,0,0-.12,1.15c-.45,7.32,2,10.4,9.61,11.8a19.94,19.94,0,0,1,6.57,2.17c.86.67,1.67,1.36,1.22,2.64a1.44,1.44,0,0,1-1.64,0c-3.91-2.22-8.35-2.61-12.59-3.72a8.93,8.93,0,0,0-1.68-.4,2.27,2.27,0,0,0-2.49,1c-.58,1.24.61,1.64,1.33,2.19,3,2.35,6.86,2.31,10.32,3.39a2.62,2.62,0,0,1,.74.48c.72.88,1.7,1.78,1.13,3s-2,1.2-3.28,1.22c-2.68.05-5.35,0-8,0-1,0-2.31-.33-2.8.85-.39.92.76,1.41,1.24,2.09a1.6,1.6,0,0,1,.28.79A.42.42,0,0,1,130.11,113Z"/><path class="cls-16" d="M264.27,293.52c-.86-1.38-1.26-2.58,0-4.15,1.85-2.36,1.57-5.52,2.12-8.27.78-3.86,1.2-7.75,3.09-11.28a2,2,0,0,0-.12-2.18c-.77-1.24-.1-2.23.57-3.18.82-1.15,1.55-1.26,2.3.18a19.6,19.6,0,0,1,2.4,7.91c.23,4.76,1.73,9.22,2.78,13.76.54,2.35,3.14,4,2.77,7-.14,1.07,1.33.8,2.14.81,3.67,0,7.34,0,11,0,.9,0,2-.37,2.33,1.05H292.1a128.77,128.77,0,0,0-16.2,0l-.61,0c-1.16-.84-2.48-.76-3.81-.78C269.05,294.34,266.56,294.71,264.27,293.52Z"/><path class="cls-17" d="M152.78,177.42c1.66,3.47,5.74,3.93,8.15,6.53,1,1.09,2.44,2.26,2,3.54a7,7,0,0,1-3.83,3.74c-1.16.5-1.95-.48-2.7-1.24a175.39,175.39,0,0,0-12.94-11.89c-1.77-1.46-3.72-1.87-5.74-2.42-2.46-.1-3.23-2.11-3.4-3.86a7.48,7.48,0,0,0-2.42-4.85c-2.29-4.26-5.82-7.71-8-12.07a4.09,4.09,0,0,1-.78-2.39c-.07-1.43.92-1.06,1.67-.9s1.3,1,2.08,1.3c4,1.47,6.23,4.61,7.95,8.31a53.28,53.28,0,0,0,6,9.86c2.05,2.67,5.36,4,8.59,5C150.55,176.44,151.88,176.35,152.78,177.42Z"/><path class="cls-18" d="M224.73,102.09c4.62,2.89,6.43,7.3,5.13,13.53a38.09,38.09,0,0,1-3.35,10.12c-1.26-1.22-1.26-1.22-.56-3.87-2.55,2-4.25,5.14-7.59,6.64-2.48,1.12-3,3.84-3.78,6.17-.31.88,0,1.94-.75,2.72a2.16,2.16,0,0,1-1.71-3.19c1.39-2.71.93-4.6-1.55-6.2-.29-.18-.26-.69-.3-1.08,0-1.4.8-2.56,1.18-3.85a2.84,2.84,0,0,1,3.76-1.87,2.52,2.52,0,0,1,1.07.74c.18.22.3.49.47.71.62.82.37,2.66,1.88,2.36,1.2-.23,1.26-1.71,1.33-2.86a4.48,4.48,0,0,0-3.05-5c-1-.41-1.93-1-1.82-2.31s1.09-1.7,2.16-2c.37-.1.83-.15,1.06-.42,2.18-2.55,4.33-2.82,6.68-.18.62.69,1.29.15,1.42-.66A3.46,3.46,0,0,0,225,108a2.58,2.58,0,0,0-3.43.35c-.73.62-1.2,1.51-2,2.11s-1.78,1.29-2.87.55-1-2-.53-3.09a18.46,18.46,0,0,1,2-2.79,7.89,7.89,0,0,1,1.05-1.26C220.93,102.69,222.84,102.42,224.73,102.09Z"/><path class="cls-19" d="M123.65,42.46c3.13-3.27,6.23-6.57,10.46-8.49a.52.52,0,0,1,.73,0c-.2,1.93-2,2.42-3.19,3.43-1.64,1.41-2.87,2.81-2,5.2.53,1.45-.21,2.82-.75,4.17a3.84,3.84,0,0,0,1.73,5.16c3.5,2.18,3.5,2.18,2.6,6.16-.46,1.79-5.39,5.49-7.09,5.27-1.47-.2-1.74-1.26-1.69-2.55,0-1.05.72-2.65-1.09-2.67-1.5,0-2.08,1.46-1.92,2.74.39,3-.74,5.4-2.23,7.84-1.34,2.2-.4,5.19,1.91,6.72.55.37,1.27.47,1.72,1a2.45,2.45,0,0,1,.13,2.23,16,16,0,0,0-1.47,6.72c0,.89-.35,1.9-1.33,2-1.2.11-.6-1.16-1-1.75a5.79,5.79,0,0,1-.62-3.64c.37-2.78-.88-4.77-2.42-6.76v0a20,20,0,0,0-1.52-3.41,2.81,2.81,0,0,1-.08-3.25,2.64,2.64,0,0,0,.6-1.89c-.61-3.73,1.43-6.46,3.45-9.17A61.26,61.26,0,0,0,125,46.32a1.17,1.17,0,0,0-.53-1.69A1.62,1.62,0,0,1,123.65,42.46Z"/><path class="cls-20" d="M131.87,167c2.16.48,3.19,1.61,3,4-.17,2,1.19,3.53,2.84,4.67,1.25,2,2.62,3.61,5.26,3.88a4.94,4.94,0,0,1,3.17,2.3,21.73,21.73,0,0,0,4.78,4.59c1.34,1,3.15,2.05,1.49,4.41-.7,1,.2,2.3,1,3.09,2.16,2.05,4.37,4.07,6.7,5.93a3.26,3.26,0,0,0,3.49.76c1.31-.66,1.37-2,1.36-3.27,0-1.07,0-2.13,0-3.19.07-3.59,1.21-4.56,4.71-4.31a28.26,28.26,0,0,0,4-.27c-.5,1.9-2.34,1.7-3.63,2.14-1.84.64-2.26,1.68-1.47,3.25a5.7,5.7,0,0,1,0,5.73c-.94,1.68.69,3.34.09,5-2.22,1.23-3.23-1.29-5-1.58-1-.52-1.95-1-2.91-1.6a152.24,152.24,0,0,1-20.48-19.16c-3.51-3.83-6.84-7.9-7.05-13.51-1.41,0-1.24,1.87-2.5,1.84a2.48,2.48,0,0,1-.62-1.91Z"/><path class="cls-21" d="M123.65,42.46c1.23,1.91,1.16,4,.77,6.48-.54,3.47-3.15,5.64-4.76,8.4-1.81,3.11-4.7,5.66-3.49,9.79-2.81,2.71-.34,5.41,0,8.12-6-8.83-4.58-16.37.69-24.53C118.81,47.73,120.77,44.7,123.65,42.46Z"/><path class="cls-22" d="M213.75,137.35c-.65-3.11,1.23-5.49,2.34-8.1.14-.34.44-.85.69-.87,3.36-.24,4.27-3.82,6.91-5,1.58-.72,1.36-2.91,3-3.81,1.36,2.17-1.9,4.14-.15,6.18-.79,3-2.74,5.45-3.79,8.3-.49,1.33-.56,2.82-1.08,4.14-.58,1.49-1.34,3-3.3,3.12-1.84-.31-4,.09-5-2.25A1.6,1.6,0,0,1,213.75,137.35Z"/><path class="cls-23" d="M209.75,36.88l-2.37-.57c-2.28-.61-4-2.19-6-3.31a47.55,47.55,0,0,0-7.1-3.19c-1.87-1-3.08-.6-4.72,1-2.11,2-4.66,3.59-6.82,5.63a3.38,3.38,0,0,1-4.53.36A3.53,3.53,0,0,1,177,32.38a13.28,13.28,0,0,0,.41-1.68c.35-1.72-.21-2.45-2.1-2.38-3.26.11-6.55.33-9.78-.42-.59,0-1.19-.09-1.78-.1-1.11-.07-2.21-.12-2.94-1.14a.7.7,0,0,1,.12-.86c2.54-.22,5,.58,7.44.92a30.49,30.49,0,0,0,9.76-.27c5-.92,10.07-.92,15,1.2C199,30.16,204.88,32.61,209.75,36.88Z"/><path class="cls-24" d="M130.17,169.83c.67.45.54,1.17.63,1.82.93,1.19.38,2.52,0,3.6-1.77,5.05-1,10.05-.14,15.11.46,2.85.57,5.76,2.2,8.29.41,1,.76,2,1.22,2.93a49.26,49.26,0,0,1,4.53,14.83,77.86,77.86,0,0,0,5,17.73,28.08,28.08,0,0,1,1.46,7.06c.86,7.2,3,14.1,4.95,21a2.58,2.58,0,0,1-.76,2.3c-1.81-1.76-1.3-4.37-2.33-6.43-3-5.62-3.44-11.93-4.84-18-1-4.48-2.62-8.82-3.22-13.4.09-1.85-1.78-3.24-1.2-5.2-.72-1.48-.65-3.14-1.12-4.68a3.37,3.37,0,0,0,0-.55c-.76-1.46-.66-3.14-1.14-4.67-1.31-4.68-3.25-9.15-4.77-13.75-2.68-8.12-4.06-16.42-.93-24.82.29-.76.92-1.69-.56-2A1.8,1.8,0,0,1,130.17,169.83Z"/><path class="cls-25" d="M209.68,84.52c2.79,1.91,4.17,5.25,7.21,6.93a10.61,10.61,0,0,0,4.46,1.81c2.32.15,4.21-.22,5.07-2.71a1.8,1.8,0,0,1,1.38-1.34c-.93,2.83-3.23,5-3.63,8.1-.5.59-.11,1.37-.44,2-.64,3.2-1,3.39-3.64,1.8a13.52,13.52,0,0,0-2-1.18c-3.44-1.35-5.86-3.36-6.48-7.35-.29-1.81-2.18-3.16-2.83-5-.37-1-1.37-1.94-.81-3.22A1.4,1.4,0,0,1,209.68,84.52Z"/><path class="cls-26" d="M205.56,176.34c-1.5-.84-1.05.34-1,1,.4,3.73,1.06,7.42,1.16,11.19.15,5.62,0,11.08-2.3,16.4a39.29,39.29,0,0,0-2.91,12.84,42.14,42.14,0,0,1-1.85,9c-.62,2.75-1.05,5.54-1.49,8.33-.1.58-.12,1.17-1,1-.86-1-.6-2.21-.71-3.36a18.9,18.9,0,0,1,1.33-7.24,10.82,10.82,0,0,0,.91-4.21c-.31-6.66,2.36-12.59,4.43-18.66.19-.55.28-1.12.43-1.68a21.86,21.86,0,0,0,1.2-10.66,51.38,51.38,0,0,1-.18-7.13,19.2,19.2,0,0,0-3.35-11.3c-.07-.53.07-.88.69-.85.59-.17.53-.7.64-1.14C203.1,171.9,205.24,173.57,205.56,176.34Z"/><path class="cls-27" d="M223.57,99c.08-.61-.08-1.31.6-1.72.71,1.53-.79,3.32.56,4.78-1.36,1.58-3.6,1.07-5.15,2.19-6.63,2.33-9.28.75-11.58-3.37-.69-5.21-3.7-10-3.16-15.39.22-2.27-2-3.76-1.76-6,2-.87,2.23,1.08,3.11,2,2.65,4.31,3,9.25,3.61,14.07.28,2.23.91,3.54,3.17,4.1s4.57,1.79,7.12,2.17C222.8,102.28,223.51,101.34,223.57,99Z"/><path class="cls-28" d="M116.2,75.23c2.14,1.54,4.58,2.67,2.82,6.31-.64,1.32,0,3.73,1.37,5.5-.21-3.77,1.62-7.05,2.2-10.63a14.38,14.38,0,0,1,3.66-6.64c.59-.59,1.26-1.68,2.39-.67a1.92,1.92,0,0,1-.27,1.65c-3.44,5.39-3.88,11.54-4.49,17.65a8.79,8.79,0,0,1-1.48,4c-.8,1.18-1.68,1.29-2.15-.35-.24-.52-.15-1.15-.52-1.64A155.69,155.69,0,0,0,116.2,75.23Z"/><path class="cls-29" d="M157.43,293.52A26.37,26.37,0,0,1,154,294c-10.49.05-21,.05-31.46.07a.65.65,0,0,1,.29-.87c2-.81,4-.45,6.06-.43.83.31,1.65-.1,2.48-.07,6.22-.05,12.45,0,18.68,0,3.22,0,3.22,0,3.16-3.16a3.25,3.25,0,0,1,.18-1.12c.71-1.35,1.49-.63,2.23.13.38-2.28.38-2.28-.41-4.33-1.17.95.07,3-1.7,3.57-.08-.06-.22-.11-.23-.17-.63-4-2-7.91-2.24-12a1.88,1.88,0,0,1,.46-.75c1.66-.11,1.1,1.84,2.59,2.51.27-3,.29-6.16,3-8.14a.76.76,0,0,1,.82-.19c1,2.76-.82,5-1.45,7.39-.24.94-.8,1.84-.29,2.73C158.8,283.8,157.55,288.71,157.43,293.52Z"/><path class="cls-30" d="M126.65,153.6c-1.38.29-1.65-3-3.53-1.09-2.75-5.66-3.18-11.82-3.87-17.92a71,71,0,0,1-.7-12.37,1.13,1.13,0,0,1,1.16,1.18c1.56,2.08,0,4.72,1.25,6.86a4.26,4.26,0,0,1,.36.82,7.57,7.57,0,0,1,.26,1.77c.08,1-.16,2.15.47,3.07a11,11,0,0,1,2,8.63c-.36,2.07,1.61,4,2.17,6.13C126.48,151.63,127.46,152.49,126.65,153.6Z"/><path class="cls-31" d="M213.76,139.08c1.23,1.36,3,1.71,4.58,2.23-1.67-.24-3.22.72-5,.25-1.63-.43-1.53,1.42-1.75,2.4a71.63,71.63,0,0,1-3.46,11.86,6.58,6.58,0,0,1-.78,1.14c-.74-2-1.14.15-1.72.14-.67.48-1.13.2-1.49-.43-.22-2.54,1.67-4.45,2.06-6.81,1.36-3.15,3-6.16,4-9.49C210.93,137.89,211.83,137.7,213.76,139.08Z"/><path class="cls-32" d="M157.43,293.52c0-2.28,0-4.55,0-6.83a12.16,12.16,0,0,0-1.3-6.26c-1.32-2.32-.25-5.2.9-7.66.56-1.19,1.56-2.28.45-3.66a1.38,1.38,0,0,1-.56-1.25c.93-3.59.77-7.35,1.65-10.94.15-.63.38-1.33,1.31-1.15a16.18,16.18,0,0,1-1.27,11.63c0,1.15.06,2.3,0,3.45-.11,2,0,3.41,2.78,2.55,2.25-.69,2.91.62,1.86,3.28-.7-.78-1.34-1.71-2.95-.95,1.12.41,2.27.13,2.95.95-1.63,1.3-3.52.42-5.28.61-.95.1-2.12.37-1.35,1.44,2.36,3.28,1.2,6.93,1.36,10.41.18,3.83.05,3.71,4,3.86,3.71.15,7.48-.71,11.13.56A128,128,0,0,1,157.43,293.52Z"/><path class="cls-33" d="M19.84,295.15c0-.12.05-.25.07-.38.88-1,2.08-.87,3.22-.9,12.59-.37,25.17.14,37.76,0,6.94-.08,13.88-.15,20.82,0a9.34,9.34,0,0,1,3.71.38,1,1,0,0,1,.56.9q-25.53.06-51.06.11C29.89,295.27,24.86,295.19,19.84,295.15Z"/><path class="cls-34" d="M99.9,194.72a13.72,13.72,0,0,1-7.58,2.92A180.57,180.57,0,0,0,64.91,203a9,9,0,0,1-4,.53c6.3-2.4,12.9-3.62,19.5-4.85S93.52,196.55,99.9,194.72Z"/><path class="cls-35" d="M119.73,90.43l.62,1.1a31.47,31.47,0,0,0,1,4c.45.49.64,2.08,1.59.33.36-.65.21-2.1,1.69-1.18a5.32,5.32,0,0,1-.29,2.56c0,2.21-1.44,4-1.53,6.28,0,.77-.1,2.6-1.61,2a2.57,2.57,0,0,1-1.41-3.13,16.7,16.7,0,0,1,1-2c.81-1.63.6-2.94-1.22-3.72Q119.69,93.58,119.73,90.43Z"/><path class="cls-36" d="M160.93,25.8v.63a2,2,0,0,1-1.22.7c-4.75.48-9.54.8-14,2.69-2.68,1.07-5.35,2.16-7.92,3.49-.91.48-1.81,1.16-3,.75l-.67-.09C142.26,28.65,150.81,24.66,160.93,25.8Z"/><path class="cls-37" d="M86,295.15c0-.15,0-.31,0-.48s.15-.28.22-.43c1.33-1.27,3-.78,4.59-.94.82,0,1.64,0,2.46,0,1.21,0,2.42-.11,3.64,0,7.29.48,14.51-1.13,21.8-.66,1.4.09,2.91-.23,4,1a2.54,2.54,0,0,0-.14.47c-10.78.18-21.55.34-32.33.56A41.11,41.11,0,0,0,86,295.15Z"/><path class="cls-1" d="M264.27,293.52c3,.19,6.08.39,9.12.56a2.13,2.13,0,0,1,1.9,1.07c-4.59-1.08-9.31-.35-13.94-1v-.65Z"/><path class="cls-38" d="M275.9,295.18a53.33,53.33,0,0,1,16.2,0Z"/><path class="cls-39" d="M214.91,288.88c1.51-1.5,1.41-3.93,3.23-5.33,1.61-1.24,2.64-1.67,3.18.82.38,1.72,1.23,2.36,3.12,1.55,2.56-1.1,6.57-.15,7,1.43.3,1-3.37,4-5.46,4.39-1,.15-1.93.12-2.4,1.2h-7c-3.24,0-3.24,0-2-2.95A8.19,8.19,0,0,0,214.91,288.88Z"/><path class="cls-40" d="M230.54,213.51c1.21-.08,1.75.56,1.75,1.71,0,1.36-3.22,3.79-5.2,3.87-1.12,0-2.14-.28-2.25-1.63C224.69,215.78,227.8,213.65,230.54,213.51Z"/><path class="cls-12" d="M190.52,270.3l-.63,0a9.09,9.09,0,0,1,2.3-8.74l.14.11C192.84,264.77,190.6,267.31,190.52,270.3Z"/><path class="cls-1" d="M194.59,255.21c0-.76,0-1.51,0-2.27.77.45,2,.59,1.47,2C195.83,255.59,195.27,256,194.59,255.21Z"/><path class="cls-16" d="M290.63,266.06c-1.81,2.65.52,5.71-.92,8.38-.43.78-.2,2.08-1.53,2.19a2.17,2.17,0,0,1-2.34-1.75,2,2,0,0,0-2.6-1.65c-2.55.4-3.16-1.81-4.37-3.16s-3.49-2.21-1.55-4.68c.57-.74-.55-1.25-1-1.83-1.51-1.91-2.12-4-.85-6.28.61-1.1,1.61-1.88,2.86-1.33,1.64.71,2.54,0,3.36-1.23a2.17,2.17,0,0,1,1.92-1.07c2,0,5.95,4.55,5.39,6.48s-.34,3.18,1.11,4.38A1.41,1.41,0,0,1,290.63,266.06Z"/><path class="cls-41" d="M96.47,294,93,294c-.62-.85,0-1.41.46-2,1.61-2.2,1.38-4.17-.88-5.49a28.94,28.94,0,0,1-12-13.42,3.36,3.36,0,0,0-2.39-1.89c-1.14-.31-2.4-.71-2.92-1.73-1.8-3.51-4.31-6.57-5.85-10.31-1.66-4-2.83-8.11-4.23-12.17,0-.14,0-.28,0-.42-.61-4.28-2.94-7-6.93-8.8a7.58,7.58,0,0,1-4.64-5.58,2,2,0,0,0-2.37-1.88c1.06-1.23,1.3-3,2.54-4.12.55-.52.25-1.22,0-1.88-1.26-3.06-2.53-6.13-3.68-9.24-.39-1-.95-1-1.77-.72s-1.37.4-1.61-.53c-.18-.65-.25-1.73.37-1.8,2.4-.25,1.83-2.67,3-3.76.92,3.83,2.75,7.32,4.08,11a7,7,0,0,0,2.09,3.35,3.44,3.44,0,0,1,1.54,2.9c2.67-3.18,6-2.63,9.27-1.82,1.67.42,3.3,1.11,5,1.47a11.2,11.2,0,0,1,6.67,4.06c3.89,4.63,8.33,8.79,15,9.29,2,.15,3.72,1.48,6.07.4,1.63-.75,2.93,1.2,3.54,2.72a11.12,11.12,0,0,0,4.19,5.18c1-1.12-.33-2.66.64-3.72l1.16.59h0c.64,2.08,1.38,4.13,2,6.21,3.46,8.43,7.36,16.68,10.33,25.32,1,2.84,3,5.2,4.17,7.94.62,1.41,1.5,2.72,1.53,4.33,0,.88,0,1.83-1,2.22s-1.42-.33-2-.89c-.27-.27,0,.08-.18-.22a62,62,0,0,1-9.49-18.1c-2.48-7.56-4.78-15.28-10.61-21.24-2.53-2.58-3.78-3.3-7.26-3.79-2.68-.37-4.95-2.09-7.64-2.62a5.68,5.68,0,0,0-4.41.67c-3.08,1.89-3.81,1.62-5.56-1.93-1,.71-1.64,1.81-2.86,2.22-2.68.88-3.79.49-5.24-1.93a51.86,51.86,0,0,1-3.79-6.49c-.46-1.11-1.33-2-2.72-1.48s-1,1.69-.67,2.73c1.3,4.14,3.49,7.95,4.7,12.13A1.66,1.66,0,0,0,70.36,250c2,0,3,1.24,3.33,3,.67,3.27,2.53,5.68,4.45,8.4,2.69,3.82,6.62,6.83,8.09,11.59,2.77-2.05,5.62-1.2,7.63.4,2.64,2.08,5.71,3.56,8,6.09a15.81,15.81,0,0,0,8.26,4.58c.94.21,1.92.58,2.16,1.68s-.63,1.77-1.46,2.27a5.49,5.49,0,0,0-2.29,3.22,3.43,3.43,0,0,1-4,2.47A32,32,0,0,0,96.47,294Z"/><path class="cls-42" d="M19.87,289.49c0-.79-.09-1.6,1-1.75.59-.07,1.4-.17,1.48-.72.58-3.92,2.77-2.76,5-1.74a2.06,2.06,0,0,0,2.18-.46c.8-.72-.17-1.22-.46-1.68-2.1-3.37-3.23-7.2-5.07-10.69-.86-1.62-.33-3,.2-4.41.6-1.56,1.69-1.76,2.75-.22s2.05,3,3.16,4.47,2.2,2.14,3.83.13,2-3.23,1.14-5.8a19.24,19.24,0,0,0-2.53-5.75c-1.47-2,.51-3.41,1.45-4.83a2.56,2.56,0,0,1,3.66-.47c4.3,2.83,9.81,3.48,13.38,7.65a7.1,7.1,0,0,0,3.78,2c.95.22,1.87.74,2.72-.05a2.4,2.4,0,0,0,.37-2.71c-1-3.19-2.1-6.39-3.29-9.53a21.18,21.18,0,0,1-1.3-4.09,8.42,8.42,0,0,0-3.22-5.33,6.91,6.91,0,0,1-2.75-3.19c-.31-.86-1.08-2.05-2.37-1.66a2.22,2.22,0,0,0-1.4,2.32c0,.94.2,2.28-1.08,2.31-1.05,0-2.42,0-3.19-1s.09-1.79.76-2.47c1-1,.31-1.93-.07-2.92-1.22-3.19-.5-3.88,2.78-4.44,7.21-1.24,11.53,2.42,15,8,.79,1.25,1.69,3,3.88,2.25,1.09-.37,1.3.69,1.49,1.34a3.53,3.53,0,0,0,1.88,2.43c.87,1.39,1.8,2.77,1.34,4.55-.87.53-1.33-.17-1.56-.72-1-2.39-3-2.78-5.24-2.72s-3.11-.61-3.13-3c0-4.09-3.69-8.47-7.6-9.57-.71-.2-1.54-.63-2.07.25-.42.69,0,1.35.48,1.82,1.43,1.45,2.11,3.68,3.82,4.66,3.62,2.06,5,5.49,5.46,9.06.65,4.75,3.29,8.82,3.92,13.51.16,1.18,1.32,2.37.21,3.52s-2.51.29-3.74-.15c-.37-.13-.74-.23-1.1-.36a12.89,12.89,0,0,1-7.16-4,4.11,4.11,0,0,0-2.23-1.22c-1.63-.7-3.06-1.81-4.77-2.39-1.25-.49-2.64-.67-3.71-1.58-1.09-.68-2.22-.79-3.07.24s-.38,1.95.38,2.8a18.82,18.82,0,0,1,1.31,1.64c1.16,2.1,2.81,3.93,3.52,6.3a2.76,2.76,0,0,0,1.66,1.52c3.53,1.73,3.7,2.73.81,5.43,1.36.7,3.41.11,4,1.89.87,2.53,2.1,5,1.67,7.85C48,288,46.71,288.59,44.45,288c-4.53-1.14-7.35-4.41-10-7.91-.18-.24-.28-.51-.44-.76-.56-.85-1.09-2.28-2.33-1.35s-.48,2.11.25,3.1a3,3,0,0,0,.9.72c1,.62,2.15,1.15,1.81,2.62a3.68,3.68,0,0,1-2.61,2.5,4.29,4.29,0,0,1-1.41.3,12.53,12.53,0,0,0-7.29,2.5C22.22,290.56,20.91,291.18,19.87,289.49Z"/><path class="cls-16" d="M19.87,289.49c1.28.82,2.33.42,3.38-.52a9.35,9.35,0,0,1,6.63-2.4,5.05,5.05,0,0,0,2.78-.64c.75-.46,1.56-.95,1.56-1.94s-.91-1.21-1.62-1.4c-1.88-.5-2.28-1.93-2.31-3.55,0-.89-.38-2.11,1.07-2.29,1.27-.16,2.29-.1,3,1.44a17,17,0,0,0,10.42,9.25c1.81.57,2.72.09,2.89-1.92.22-2.61-1.17-4.82-1.66-7.24-.31-1.5-1.91-.91-3-1-.86-.07-1.92.06-2-1.09s.82-1.14,1.6-1.25,1.56-.52,1.51-1.44a1.88,1.88,0,0,0-1.84-1.91c-2.23.1-2.89-1.32-3.16-3-.38-2.31-2.87-3.46-3-5.83a2.44,2.44,0,0,1,2.75,1.58c1.57,3,4.49,4.81,6.48,7.43a90.21,90.21,0,0,1,6.62,9.39,3.93,3.93,0,0,1,.56,3.26c-.68,2.79-.12,3.83,2.74,4.59a44.49,44.49,0,0,1,5.87,2.32c1.45.62,2.2,1.69.46,3a4.56,4.56,0,0,1-.9.08c-4.84,0-9.68,0-14.52,0-1.45,0-2.3-.31-2.7-1.89-.77-3.06-5.79-6.06-8.78-5.14-3.83,1.18-7.93,1.91-10.29,5.86-1,1.68-2.83,1.31-4.46.9Z"/><path class="cls-43" d="M19.9,294.14c1.48-.11,3.25.4,4-1.5,1.44-3.64,5.17-3.8,8-5.42,4.19-2.43,7.42.64,11,1.67,1.21.35,1.45,1.75,1.34,3-.16,1.82.66,2.31,2.38,2.28,4.82-.08,9.65,0,14.48,0,.19.12.26.25.19.37s-.13.18-.19.18l-41.13.11C19.91,294.56,19.9,294.35,19.9,294.14Z"/><path class="cls-41" d="M34.33,229.08c.11-2.43,1.19-3.34,3.58-2.38,1.58.63,3.42.75,4.45,2.42.17.27.78.57,1,.46,2.76-1.37,5.2.74,7.82.66-4.66.26-9.56,1-13.67-1.57C35.71,227.54,35.26,227.81,34.33,229.08Z"/><path class="cls-1" d="M96.47,294a14.61,14.61,0,0,1,7.9-.82c1.85.39,3.34-.49,3.52-2.09a4.35,4.35,0,0,1,2.92-3.87c.64-.27,1.3-.65,1.07-1.48-.16-.61-.76-.81-1.37-.9-4.65-.69-7.74-3.89-11.26-6.59-2.82-2.17-5.43-5-9.3-5.59-1.19-.18-2.31-.6-2.82,1-.18.56-.44,1.19-1.16,1s-.45-.95-.56-1.48a8.15,8.15,0,0,0-2.28-4.27c-2-2-4.1-3.85-4.79-6.76a1.35,1.35,0,0,0-.71-.85c-3.43-1.22-3.72-4.32-4.42-7.21-.47-1.92-.54-4.35-3.74-3.16-.77.28-1.23-.37-1.4-1.11-1.1-5-3.73-9.36-5.42-14.12C62.06,234,63.2,233.5,64,233a2.29,2.29,0,0,1,3.44,1c1.36,2.53,2.79,5,4.29,7.45s4.41,2.77,6.09.47c.54-.73.57-2.21,1.74-2s.39,1.49.66,2.25c.51,1.39,1.52,2.85,2.89,1.52,3.88-3.77,7.58-1.36,11.14.14,1.93.82,3.59,1.33,5.46.45,1.48-.69,3-.05,3.14,1,.5,3.1,3.28,4.39,4.68,6.73a42.46,42.46,0,0,1,4.12,8.56c.71,2.17,2,4.16,2.76,6.41,1,2.86,1.52,5.86,2.92,8.65a75.81,75.81,0,0,0,7.5,12.56c.34.45.57,1.18,1.26.93s.58-1.17.5-1.77c-.32-2.46-1.72-4.51-2.92-6.57a43.76,43.76,0,0,1-4-9.17c-1.19-3.74-3.44-7.19-4.66-10.8S111,254,111,250c-.36-1.53-1.31-3-.58-4.64a1.64,1.64,0,0,1,1.12,1.54c-.2,3.64,2.23,6.24,3.54,9.29,1.68,3.93,3.17,7.95,4.5,12a12.76,12.76,0,0,0,1.38,3.11c2.46,3.68,3.78,7.88,5.71,11.79a40,40,0,0,1,2.91,9.28c.35.66-.26.84-.58,1.16l-6.28.07C114,292.93,105.23,294.46,96.47,294Z"/><path class="cls-37" d="M129,293.52l.58-1.16c1.38-3.17-.8-5.7-1.7-8.39-.61-1.84-1.41-3.55-1.22-5.55a3.26,3.26,0,0,0-1-2.91c-5.32-4.24-5.63-10.88-8-16.5a2.32,2.32,0,0,1,.62-2.41c1.62-2,.72-2.85-1.31-3.42a3.82,3.82,0,0,1-2.42-1.4c-1.84-2.57-1.51-3.61,1.56-4.12.87-.14,2.12-.26,1.4-1.45-2-3.31,1.47-4.09,2.71-4.54,2-.72,2.66-2,3.44-3.5.7-1.35,1-2.87,2.21-4a1.93,1.93,0,0,0-.13-2.86,3.36,3.36,0,0,1-.55-3.81c1.33-2.1.81-3.79-.27-5.61-.15-.25-.39-.58-.33-.79,1.22-4.23-1.14-8.55.43-12.8,1.26-3.44.9-3.79-2.79-3.73-1.44,0-1.37-.68-.88-1.65,2.08-4.16,2.19-8.8,3-13.24a60.84,60.84,0,0,1,1.24-7.05c.56,0,1.62.11,1.49.51-.86,2.58,1.76,5.26-.41,7.84s-1,5.56-.92,8.37a1.74,1.74,0,0,0,2.74,1.48c.52-.28,1.5-.58,1.37-.05-.56,2.25,1.46,2.43,2.33,3.56s1.66,2.91.66,4c-2.26,2.57-1.41,5.7-1.92,8.52s.37,5.87.8,8.82c.61,4.13,2.37,8.31.1,12.74-1.28,2.49-.62,5.66.1,8.52.77,3.07-1,6.31.6,9.36,1.33,2.56,1.72,5.71,5.43,6.46,2.4.48,2.9,2.84,3.29,5,.28,1.52.68,2.7,2.61,1.85,1-.45,1.65.12,2.15.91s1.06.73,1.6.07c2.11-2.61,2.17-.67,2.4,1a3.45,3.45,0,0,0,.52,1,1.7,1.7,0,0,1,.55.74,19.13,19.13,0,0,0,1.27,7.54c1.3,3.35.68,7,1.5,10.51.27,1.16-.31,1.82-1.58,1.81-2.31,0-4.62,0-6.93,0a2.06,2.06,0,0,1-2.24-2.12c-.19-1.62-1-2-2.34-1.34-1.74.8-3.43,1.16-5.21,0-1-.6-1.47.11-1.59,1a3.1,3.1,0,0,1-2.57,2.73Z"/><path class="cls-7" d="M110.4,245.34c0,1.57.87,3,.58,4.64-1.56-1.86-1.72-4.1-1.75-6.38Z"/><path class="cls-37" d="M123.76,179.74a3.76,3.76,0,0,1,.65-.91c.59-.45,1-1.73,2-.94.73.62-.24,1.31-.56,1.94a5.31,5.31,0,0,0-.32,1.07Z"/><path class="cls-5" d="M108.07,243c.42,1.76,1.17,3.53-.17,5.37-2-2.19-4.73-3.64-5.52-7-.25-1.1-1.77-3.85-3.95-1a1.36,1.36,0,0,1-1.32.2c-2.64-1.82-5.9-1.59-8.74-2.73a19.67,19.67,0,0,1-7.45-5.45c-2.77-3-5.5-7.11-10.75-7-2.22,0-4.14-1.72-6.6-1.62s-4.43.12-5.44,2.77c-4-5.74-7.92-11.24-8.12-18.36a2.5,2.5,0,0,1,2.9-.59c3.94,2.94,5,3,8.87,0,1.39-1.06,2.6-1.55,4.19-.74a3.74,3.74,0,0,0,3.32-.18c2.89-1.13,3.37-.9,4.68,1.84s7.6,4.1,10.14,1.94c1.18-1,2.4-1.94,3.55-3a5,5,0,0,1,3.75-1.21c2.22.11,3.17,1,2.61,3.11a8.18,8.18,0,0,0,.85,6.91c.71,1.13.17,2.45.31,3.67,4.53-.27,4.34,4.15,6.35,6.35.49.52.27,1.49.74,2.14C105.49,232.82,105,238.64,108.07,243Z"/><path class="cls-41" d="M102.27,228.5a68.15,68.15,0,0,1-3.8-6.11c-.71-1.43-1.09-2.53-2.8-1.12a1.16,1.16,0,0,1-1.58-.2c-.53-.51-.39-1,0-1.53,1.11-1.33.51-2.58-.28-3.71a5.12,5.12,0,0,1-.78-5.4c.46-1,1.14-2.48-.09-3.13a4.13,4.13,0,0,0-4.16.21,30.26,30.26,0,0,0-3.36,2.72,9,9,0,0,1-11.25.3c-.15-.12-.37-.25-.4-.41-.57-4-2.87-4-5.84-2.55a1.16,1.16,0,0,1-.86,0c-2.55-1-4.44-.19-6.47,1.58-3,2.6-4.59,2.1-7.71-1.56,3.46,2.15,6.46.25,9.52-1.08.52-.22,1.21-.76,1.54-.59,2.62,1.3,5.17.11,7.75-.07a2.84,2.84,0,0,1,2.58,1.55c1.84,2.64,4.59,2.63,6.28-.24,1-1.6,1.6-1.71,2.72-.38,1.34,1.58,2.81,1.34,3.86-.15,1.6-2.27,4.4-1.66,6.38-3a1.07,1.07,0,0,1,1,.21c1.63,2.15,3.12,1.53,4.82,0,1.07-.95,2.29-1,2.23.91s1.41,2.36,2.37,3.36c-1.81,1.37-3-.79-4.73-.88a6.39,6.39,0,0,0,2.8,4.66c2.33,1.79,5.09,2.66,7.74,3.77a6.14,6.14,0,0,1-4,1.17,7.26,7.26,0,0,0-5,2.4c-1.38,1.34-1.66,2.81-.2,4.24A5.79,5.79,0,0,1,102.27,228.5Z"/><path class="cls-5" d="M109.82,215.73A12.84,12.84,0,0,1,98.28,208c-.31-.62-.36-1,.15-1.5s1.14-.7,1.76-.1a5,5,0,0,0,3.82,1.76c1.53.19,2.83,1.07,4.4,1.31,1.86.28,2.78,2,3.1,3.78C111.73,214.53,111.4,215.61,109.82,215.73Z"/><path class="cls-41" d="M50.05,224c-.22,1.81-1.52,2.4-2.51,2.95-1.15.64-1.28-.81-1.61-1.46-.89-1.74-1.68-3.53,0-5.33.83-.91,1.62-1.06,2.37,0C49.16,221.38,48.9,223.13,50.05,224Z"/><path class="cls-5" d="M102.47,195.44c.9.17,1.54.58,1.32,1.35-.34,1.19-.9,2.41-2.34,2.58-.83.09-1.55-.43-1.25-1.41A3.31,3.31,0,0,1,102.47,195.44Z"/><path class="cls-44" d="M194.59,29.36a34.62,34.62,0,0,1,12.79,7c-.1,1.91-1.9,2-3,2.75-3.81,2.54-3.79,5.62.48,7.45a8.53,8.53,0,0,1,5.26,5.62c.67,2,2.73,3.14,3.75,5.07s2.7,3.81,3.2,6.31c.3,1.5,1.92,2.65,3.6,2.94,1.5.26,1.76-1.19,2.36-2.14.94-1.48,2-3,4-2.7,4.47.76,5.2,1.54,5.87,5.5-1.2-1.11-2.38-2.26-3.61-3.33-2.08-1.79-4-1.55-4.68,1-.85,3.27-3.88,3.6-5.95,4.92-1.58,1-3.49-1.17-4.87-2.41-1.56-1.4-2.58-2-3.59.42-.65,1.52-1.93,1.2-2.9.43a21.56,21.56,0,0,1-3.72-3.61c-1.19-1.57-2.33-3-4.32-3.62a2.12,2.12,0,0,1-1.56-2.72c.41-1.29,1.72-.89,2.72-1.22,3.64-1.17,6,.12,8.29,2.75a2.3,2.3,0,0,0,3.17-.16c1.08-1,.26-1.89-.35-2.78-1.18-1.72-2.38-3.43-3.45-5.25-1.35-2.28-4.16-2.42-6.52-1.51-2.62,1-4.33-.05-6.22-1.6-2.62-2.15-4-5.48-7-7.22-2.31-1.3-2.81-1.17-3,1.39-.12,1.85-.64,2.79-2.68,2-.78-.29-1.79-.54-2.36.38a2,2,0,0,0,.47,2.42c3.12,2.8,4.42,7.08,8,9.55,1.21.84,2.9.53,3.78,1.92.41.64,1.25,1.19.59,2a1.31,1.31,0,0,1-2.06-.08c-1.51-2-3-1.22-5-.65-2.57.74-4.64-1.31-6.6-2.75-1.27-.92-2.34-2-4.05-1.92-1.39.9-2.43.67-3-.93a1.32,1.32,0,0,1,.81-.74c3.54-1.32,4.58-3.54,3.32-7.06-1.16-3.26-1-3.6,2.34-4.63,1-.31,2.24-.47,2.6-1.57,1-3.11,3.1-4.23,6.68-3.18-1.25-2.75-.6-4.06,1.94-4.42,1-.15,1.33-1.28,1.71-2.17C192.31,29.57,193,28.55,194.59,29.36Z"/><path class="cls-45" d="M230.11,75.94c-1.08,2.88-1.63,6.39-3.55,9.28-2.14,3.22-7.76,3.52-10.47.73-1.86-1.92-3.45-4.11-5.67-5.69-.63-.44-1.65-1.1-.89-2.1.59-.76,1.68-1.51,2.53-1,5.16,3,6.9-1.42,8.54-4.39a5.28,5.28,0,0,1,6.18-2.89C229.06,70.41,229.84,73.08,230.11,75.94Z"/><path class="cls-46" d="M209.68,84.52H208c-1.31-.88-1.54-2.52-2.58-3.6a8.11,8.11,0,0,0-3.52-3.68c-4.52-2.2-8.11-5.78-12.49-8.1-2.24-1.18-4.88-1.54-7.17-2.74-2.68-.5-4.95-2.56-7.89-2.08A4.57,4.57,0,0,1,173,64c-2-1.79-4.87-1.44-7.07-2.77a1.26,1.26,0,0,1,.28-1.34,8.73,8.73,0,0,1,6.64,0,13.47,13.47,0,0,0,3,.66,2,2,0,0,1,1.29.73c2.09,2.26,5.12,2.79,7.78,3.28A35.54,35.54,0,0,1,203,73.93C206,76.69,207.51,80.94,209.68,84.52Z"/><path class="cls-47" d="M177.17,61.31l-1.17,0a24.24,24.24,0,0,0-7.13-2,11,11,0,0,1-3.57-1A3.72,3.72,0,0,1,164,53.46c.93-1.75,2.37-1.7,3.93-1a10.33,10.33,0,0,0,1.6.61c1,.42,2.19.35,3,1.25.62,1.29,1.81,1.14,2.93,1.14a36.34,36.34,0,0,0,6.37,4.34c.87.41,1.49,1,1,2s-1.33.64-2,.3A6.21,6.21,0,0,0,177.17,61.31Z"/><path class="cls-48" d="M158.58,267.4a76.29,76.29,0,0,0,1.08-11.68c-1.57-2.53.4-4.74.65-7.11.12-.42.27-.84.42-1.25a31.76,31.76,0,0,1,2.34-5.24c2-3.45,1.45-6.35-.86-9.25a5.76,5.76,0,0,1-.69-1.27c-.89-2.54-3.19-4-4.78-5.93-1-1.23-1.94-2.37-1.62-4.07a15.57,15.57,0,0,1,5.12-6.79c.66-.3,1.32-.76,2-.13-.82,3.74-.06,6.51,4,8,1.42.53,2.11,2.46,2.27,4.18a9.06,9.06,0,0,0,4.18,7.21c.84.55,1.69,1.39,1.45,2.34-.7,2.81,1.52,4.9,1.59,7.5,0,1.05,1.1,1.52,1.85,2.11a56,56,0,0,1,8.68,19.78,1.58,1.58,0,0,1-.42,1.59c-1.7-1.39-1.55-3.58-2.3-5.38-.21-.48,0-1.3-.75-1.29-.34,0-.72.54-1,.89-.92,1.13-.35,3.46-2.3,3.58-1.59.09-2.34-1.84-3.71-2.58a7,7,0,0,1-3.18-4.65c-.37-1.45-.71-2.75-2.14-3.55-1.1-.61-.93-1.58-.37-2.49.65-1.07.66-2-.48-2.72s-1.95.1-2.69.85a4,4,0,0,0-1.35,2.8,23.71,23.71,0,0,1-1,7.08c-.57,1.95.85,3.22,2.62,3.91s2.45,1.84,1.42,3.58c-.38.66-1,1.33-1.9.79-1.41-.85-2.68-1.82-4.18,0-.51.6-1.07-.18-1.24-.7C160.45,264.94,159.5,266.84,158.58,267.4Z"/><path class="cls-49" d="M185.88,267.4c-1.42-7.58-4.64-14.42-8.67-20.92-4.07-5.28-4.05-9.35-.74-15,1.72-3,4.69-5.62,3.69-9.68a1.91,1.91,0,0,1,.34-.82c1.84-.4,2.17,1.13,2.85,2.21a18.71,18.71,0,0,0,.79,2.4c1.61,3.28,1.63,3.34-1.89,4.49-2.07.68-3.26,2.24-4.47,3.84a6.93,6.93,0,0,0-1.3,2.53,8,8,0,0,0,1,5.89,112.72,112.72,0,0,1,10.09,23.37,2,2,0,0,0,.93,1.36c2.33-6.41,3.18-13.13,5.05-19.58.39-2.39.81-4.78,1-7.2.46-1.46.34-3.18,1.87-4.14,1.29-3,.57-6.48,2.3-9.35,0,4.65-1.34,9.1-2.2,13.61-1.36,7.06-2.85,14.1-4.29,21.15-.93,2.87-2.06,5.69-2.3,8.74-.83.35-1.14,1.74-2.27,1.32s-1.11-1.58-1.2-2.62A7.2,7.2,0,0,0,185.88,267.4Z"/><path class="cls-50" d="M177.75,175.09c-2,.16-2.79,3.09-5.22,2.33a14.79,14.79,0,0,1-7.07.81c-7.91-.67-16.14-.42-23-5.44A15.41,15.41,0,0,1,136.4,162a5.31,5.31,0,0,0-2.41-4.31c-2.29-1.5-3.31-4-4.22-6.43a2.2,2.2,0,0,1,1-3c1.2-.57,2,.33,2.7,1.16a17.52,17.52,0,0,0,2.69,3c.61.46,1.21,1.25,2,1.12,2.52-.44,4.68.87,7,1.21a4.64,4.64,0,0,1,.91.13c1.73,1.18,4.32-.06,5.73,2-2,1.34-1.28,2.3.41,3.2a7.5,7.5,0,0,0,3.59.81,26.74,26.74,0,0,1,8.1,1.7c1.61.54,2.79,1.5,1.43,3.41a12,12,0,0,1-9.09,1.81,16.54,16.54,0,0,0-8.47,1.13c-1.94.67-2.05,1.58-.4,2.79,2,1.43,4.05,2.6,6.62,2.52a13.39,13.39,0,0,1,3.46.23c4.27,1.47,8.77.89,13.15,1.24,2.51.2,4.7-1.92,6.61-3.66,1.36-1.22,2.54-2.62,4.44-3,1.16,1.19.18,2.11-.52,2.88A17.73,17.73,0,0,1,177.75,175.09Z"/><path class="cls-51" d="M168.47,205.86c-.78-2.35-1.64-4.67.05-7,.92-1.28-.22-2.34-.66-3.45-.78-2-1.5-3.9,1.88-4.22,1.35-.13,2.63-1,3.94-1.55a107.64,107.64,0,0,1,10.26-5.83c5.46-2.69,10.88-5.71,13.25-12,.21-.55,1-.9,1.46-1.34a1.87,1.87,0,0,1,.29,2.38c-1.4,2.61-1.85,5.6-3.58,8.09s-1.43,2.92,1.33,3.67a1.64,1.64,0,0,1,1.34,1.88c-1,3-3.46,4.55-5.83,6.23-1.79-.42-1.2-1.6-.9-2.72.76-2.76.26-3.24-2.59-2.81a11.79,11.79,0,0,0-5.87,2.94c-2.82,2.37-2.72,5.56.19,8.48.67.68,1.57,1.25,1.31,2.39a2.35,2.35,0,0,1-1.85,1.65,2.31,2.31,0,0,1-1.89-.43c-2.73-1.49-4.53-1.11-6.52,1.29a12,12,0,0,1-2.21,2.65C170.71,206.93,169.46,207.58,168.47,205.86Z"/><path class="cls-52" d="M145.25,155.34c-.7.36-1.34.65-2.11,0-1.25-1.09-2.61-1-4.28-.76-2.52.42-3.65-2-5.18-3.5-.88-.86-1.21-3.12-2.76-2.24-1.86,1-.29,2.74.33,4,.95,2,1.91,4,4.2,4.9a2.83,2.83,0,0,1,1.68,2.78c.49,7.63,4.39,12.2,11.46,14.72,3.37,1.2,6.81,1,10.11,1.74,4.68,1,9.22.44,13.83.42-2.57,2-5.66,1.17-8.5,1.46-3.81.39-7.43-1.49-11.25-1.46-4.32-.09-7.72-2.46-11.29-4.45a5,5,0,0,1-1.87-2.1c-2.37-4.14-4.85-8.22-7.16-12.4a10.7,10.7,0,0,0-5.81-4.87c-.78-1.95-1.46-4-2.37-5.85s-1.64-3.26-.69-5.39c.67-1.48-.26-3.21-1.32-4.53a6.46,6.46,0,0,1-1.4-5.13c1.27-.24,1.64.78,2.14,1.55a10.42,10.42,0,0,0,9,5.2c5.07.17,8.09,4,11.12,7.41a2.45,2.45,0,0,1,.5,2.7c-1,.86-2,.3-2.89-.22a10,10,0,0,0-2-1.06c-1.1-.31-2.2-.28-2.65.95s.44,1.81,1.37,2.15a49.32,49.32,0,0,0,5.43,1.8C143.85,153.73,145.2,153.83,145.25,155.34Z"/><path class="cls-53" d="M177.75,175.09c1.29-2,3.54-3.29,4.06-5.81,0-3.86,1.05-7.19,4.69-9.2a5,5,0,0,1,4.46-.46c3.57,1.54,6.54.32,9.45-1.72,1.18-.84,2.23-2.31,4.05-1.39a1.21,1.21,0,0,0,1.15.59c-1.35,3.29-4.49,5-7.21,6.29-7,3.33-14,6.69-20.08,11.6C178.19,175.1,177.94,175.06,177.75,175.09Z"/><path class="cls-54" d="M197.52,186.72c-.11-.82.13-1.65-1.39-1.45-2.63.34-3.66-1-2.32-3.15,1.75-2.87,2.82-6,4.24-9a6,6,0,0,0,.6-2.72c1.07-1.11,1.72-.41,2.32.53l-.53.63a66.68,66.68,0,0,1,1.59,7A8.26,8.26,0,0,1,197.52,186.72Z"/><path class="cls-55" d="M138.86,226.74a43.23,43.23,0,0,1,3.28,10c1.43,6.68,2.42,13.46,4.74,19.93a4.92,4.92,0,0,1,0,1.44c-1.92-2.26-4.57-4.24-3.09-7.85.09-.22,0-.73-.14-.78-4.23-1.76-1-5.34-1.89-7.94-.36-1.08-.37-2.15-1.38-2.95-3.43-2.7-3.84-4.61-1.89-8.44C139.09,229.05,138.71,227.87,138.86,226.74Z"/><path class="cls-56" d="M161,248.3c0,2.54-1.62,4.82-1.32,7.42q-1.09,6.69-2.21,13.39c0,.22-.07.44-.11.67-2-1.06-4,.28-6,.19a15.34,15.34,0,0,1-2-4.91,4.34,4.34,0,0,1-.09-.52c0-.79,0-1.57.05-2.36.75-.23.95.37,1.25.83.5.77.41,2.11,1.47,2.28a10.37,10.37,0,0,0,3.88-.55c1.25-.29.56-1.6.8-2.45.48-3,.9-5.9,1.28-8.87C158.23,251.5,157.93,248.78,161,248.3Z"/><path class="cls-24" d="M149.34,265.06l2.29,4.66a4.56,4.56,0,0,1,.14,5.22l-.29,0c-1.3-.09-.34-1.39-1-1.83a1.4,1.4,0,0,0-.06-.5C151.14,270,149.22,267.65,149.34,265.06Z"/><path class="cls-55" d="M135.38,211.64a9.08,9.08,0,0,1,1.14,4.67C135,215,135.39,213.29,135.38,211.64Z"/><path class="cls-55" d="M136.54,216.86a9.43,9.43,0,0,1,1.12,4.68C136.19,220.24,136.55,218.51,136.54,216.86Z"/><path class="cls-3" d="M207.35,201.84c.07,1.29-.39,2.29-1.54,2.57-.75.19-.78-.68-.74-1.24.08-1.17.3-2.51,1.57-2.79C207.54,200.19,207.26,201.33,207.35,201.84Z"/><path class="cls-57" d="M149.3,67.68h1.16a1.57,1.57,0,0,1,1-.59c4.78-.14,9.7-.55,14.29.35,3.09.61,6.24.55,9.31,1.35A25.34,25.34,0,0,1,186.93,75a36.31,36.31,0,0,0,9.5,6.49c4.51,2.23,5.6,4.27,5.1,9.23-.28,2.77,0,5.35,2.44,7.28,1.57,1.23,1.33,3.34,2,5a31.45,31.45,0,0,1,2.21,9.23c-.23,1.67.9,3.3.19,5a.8.8,0,0,1-.71.48c-1.61-1.21-1.37-3.08-1.65-4.74-.63-3.66-2.45-4.82-5.92-3.85-1.89.53-2.48,1.55-1.79,3.45,1.56,4.35.62,6.34-3.82,7.79-2.48.81-5,1.32-7.07,3.15a2.43,2.43,0,0,1-1.63.54c-5.07,0-10.24,1-15.08-1.53a5.26,5.26,0,0,0-5.75.53c-1.68,1.18-2.63.57-3.07-1.32a19.41,19.41,0,0,0-1.52-5.27c-1.28-2.25-2.93-2.33-4.45-.21a5.07,5.07,0,0,0-1,2.37c-.53,5.2-3.69,8.75-7.4,12a2,2,0,0,1-1.62.48c-.45-.41-.74-1.23-1.58-.42-1.17,1.14-2.47,2.14-3.64,3.29-6.11,6-14,5.24-19-1.76a11.82,11.82,0,0,0-.76-1.22v0c-1.49-2.41-.33-5-.56-7.53,1.18.06,1.63.74,1.75,1.87.77,7.76,11.33,11.91,18.18,6.28,2.22-1.82,4.57-3.5,6.13-6a3.14,3.14,0,0,0,.28-3.5c-.62-1-1.71-.74-2.85-.61-3.28.37-6.59.39-9.56-1.5,1-1,2.19-.44,3.3-.3a12.44,12.44,0,0,0,8.89-1.72c3.26-2.18,7.24-3,10.1-6.07,1.72-1.81,4.34-1.17,5.67,1a5.15,5.15,0,0,0,4.59,2.93,4,4,0,0,1,3.29,1.62c2.5,3.79,6.33,4.34,10.35,4.54-3.17-2.08-3.28-3-.57-4.93,2.06-1.24,4.17-.29,6.2,0s3.91-.26,5.88-.9a11.27,11.27,0,0,0-7.33-2.49c-2-.25-3.79-1.18-5.78-1.41-1.25-.5-2.74-.9-2.44-2.68s1.83-2,3.33-2.08a27.56,27.56,0,0,1,4.89.19,10.24,10.24,0,0,0,6.35-1.5c1.45-.77,1.29-1.75,0-2.64a6,6,0,0,0-3.59-.83c-3.94-.05-7.88,0-11.83-.11a2.44,2.44,0,0,1-1.27-.56c.26-2.73,2.37-2.11,3.88-1.88a55.75,55.75,0,0,0,10.41.22c2.44-.1,2.67-.44,1.17-2.43a5.94,5.94,0,0,1-.84-6.24,6.7,6.7,0,0,0-1.28-7.52,11,11,0,0,1-2.09-4.09c-1.38-4.24-4.39-6.17-8.78-6.76-4-.53-8-.85-12-1.54-3.76-.65-7.7.21-11.44-1C151.54,70.27,149.67,69.93,149.3,67.68Z"/><path class="cls-58" d="M180.08,117.64c-.35.75-2,.41-1.62,1.68.58,2,2.57,2,4.15,2.71-3.35,1.74-9.65.4-11.75-2.58-1.24-1.75-2.63-3.12-4.92-3-2,.11-3.16-.81-4-2.6-1.48-3-4-3.22-6-.56A5.49,5.49,0,0,1,154,115c-3.28,1.62-6.52,3.3-9.81,4.89-2.38,1.14-4.91.63-7.39.41-.86-.08-1.71-.24-2.56-.37-1.19-1-3.37-1.94-2.86-3.4.56-1.61,2.48.28,3.86,0,1-.21,2.4.84,2.47-1.19.09-.1.18-.21.28-.31,1.51-.59,3.21-.59,4.61-1.58a2.91,2.91,0,0,1,2.79,0,4.88,4.88,0,0,0,3.39.16c5.29-1.64,5.79-3.24,2.49-7.54-1-1.36-2.63-2.33-3.09-4.12.08-1-.84-1.49-1.16-2.29,2.38-.89,4.34.38,6.13,1.53,2.23,1.43,4.35,1.85,6.77.71a4.32,4.32,0,0,1,2.53-.43,25.69,25.69,0,0,0,8-.19c1.3-.18,2.71-.35,3.84.69h1.16a.6.6,0,0,1,0,.77,2.62,2.62,0,0,1-.75.37,16.37,16.37,0,0,0-6.17,1.31c-3.49,1.71-4,5-1.07,7.59a8,8,0,0,1,2,2.08c1.6,3.08,4.14,3.74,7.29,2.94a7.19,7.19,0,0,1,2.22,0A1.86,1.86,0,0,1,180.08,117.64Z"/><path class="cls-58" d="M130.11,113l.63,0c2.27-1.69,4.2.33,6.3.58a2.07,2.07,0,0,1,.76.47,1,1,0,0,1-.08,1.24l-.05.06C135.19,114.38,132.29,114.85,130.11,113Z"/><path class="cls-59" d="M120.27,123.43c1.17,2.43-.1,5.06.57,7.53-1.89-1.08-1-2.89-1.12-4.41a27.57,27.57,0,0,1,0-3.15Z"/><path class="cls-60" d="M174.27,101.93c-4.21-.36-8.4,1.48-12.62.1-4.08,2.81-7.56.8-11.11-1.27A17.22,17.22,0,0,0,147,99.62c-4.59-1.81-9.73-1.9-14-4.86a5.67,5.67,0,0,1-2.77-4.1,22.34,22.34,0,0,1,1.28-11c.27-.66,1-1.62,1.5-1.64,2.5-.1,3.89-2.34,6.07-2.93a7.2,7.2,0,0,0,5.17-5c.88-2.76,2.52-3.37,5.05-2.43,3.45,3.2,7.66,3.39,12,3.06a7.14,7.14,0,0,1,2.3-.06c4.82,1.24,9.8,1.23,14.67,2a9.28,9.28,0,0,1,7.86,6.69,11.87,11.87,0,0,0,2.61,5c2.13,2.28,2.07,4.89.93,7.5-1,2.31-.82,4.15,1,6,.63.63,1.81,1.53,1.22,2.69s-1.83.6-2.87.63c-4,.12-8.05.37-12.05-.43A2.19,2.19,0,0,0,174.27,101.93Z"/><path class="cls-61" d="M207.37,112.38c0-4.62-2.49-8.62-3.17-13.07a1.8,1.8,0,0,0-.92-1.06c-3.29-1.72-2.82-4.8-2.45-7.53.57-4.24-.65-6.67-4.61-8.52a28.71,28.71,0,0,1-8.48-5.36,24.89,24.89,0,0,0-13.58-7.28c-3-.56-6.55.75-9.17-1.83-.2-.2-.77-.12-1.13,0-4.47,1.17-8.94-.47-13.4,0-4.45-2.42-4.42-2.41-6.74,1.8-1.68,3-4.89,4-7.81,5-5.26,1.89-8,5.62-8.23,11.14a16.1,16.1,0,0,0,.26,4.76,2.2,2.2,0,0,1-.62,2.36c-1.44,1.24-2.08,2.94-2.95,4.52,0-1,0-1.93-.05-2.89a.92.92,0,0,1-.17-.83c.83-1.47.39-3.21,1-4.71,1.35-2.59.36-5.41.77-8.09a4.46,4.46,0,0,1,.16-.9c1.31-4.72,4.36-7.56,8.85-9.59,3.28-1.48,7.34-1.81,9.64-5.23a1.56,1.56,0,0,1,1.26-.65c5.18.68,10.21-3,15.49-.35a15.37,15.37,0,0,0,5.93,1.17c7.19.47,14,2.29,20,6.52A69.49,69.49,0,0,0,196,76.85c3.13,1.58,6.31,3.42,7.81,7-2.52,6.18,1.62,11,3.45,16.21.28.8.82,1.51,1.13,2.32.55,2.53.21,5.22,1.25,7.67.4,1,.69,2.29,1.78,2.47s1.54-1.25,2.13-2.07a39.56,39.56,0,0,1,2.59-3.83c.74-.81,1.43-1.92,2.86-1.2-.45,1.31-2,1.81-2.31,3.25-.16.77-.46,1.48.39,2a1.38,1.38,0,0,0,1.82-.36c.7-.64,1.17-1.51,1.83-2.2,1.51-1.58,3.31-2.21,5.1-.65a4.51,4.51,0,0,1,1.1,5.54c-.66,1.4-1.72.72-2.51-.18-1.6-1.82-3.16-3.46-4.93-.12-.44.84-1.45.81-2.33.86a1.41,1.41,0,0,0-1.52,1.42,1.38,1.38,0,0,0,1.21,1.4c3,.8,4.16,2.86,3.91,5.85-1.49,3-2.3,3-4.64,0l-.59-.58a20.43,20.43,0,0,0-3.76-2c-1.94-.56-3.15-1.56-3.29-3.77A22.43,22.43,0,0,0,207.37,112.38Z"/><path class="cls-62" d="M137.69,114.12c-2.47.5-4.46-1.82-6.95-1.16a10.14,10.14,0,0,0-1.15-.83c-1.09-.61-1.94-1.43-1.58-2.74s1.65-1,2.67-1.06q4.47,0,8.92,0c4,0,4,0,2.15-3.47.79-.94,2-.43,2.95-.72a6.16,6.16,0,0,0-6.58-3.77c-.55.08-1.24,0-1.38.73s.48,1,1,1.28a15.7,15.7,0,0,0,2.38.94c.72.31,1.79.31,1.67,1.54-4-.49-8-1-11.37-3.53-.84-.65-2.46-1-1.75-2.52a3.07,3.07,0,0,1,3.55-2c5.31,1.71,11.17,1.74,16,5.07,2.53,1.55,3.78,4.29,5.86,6.27a2.38,2.38,0,0,1,.19,3c-1.12,2-6.55,4-8.65,3.09-1.25-.56-2.24-.79-3.4.21s-2.88.85-4.42.81c0-.38,0-.75,0-1.13,1.18-1.19,3.28-.33,4.31-2,.57-.93.84-1.55-.43-1.91a15.46,15.46,0,0,0-9.18.23C134.3,111.58,137.5,110.65,137.69,114.12Z"/><path class="cls-63" d="M213.76,139.08c-1.62-1-2.53-.3-2.87,1.33-.74,3.51-2.58,6.55-4.11,9.72a24.67,24.67,0,0,1-2.69,2.62c-3.47,2.21-6.83.87-7.73-3.09s-2.18-5.25-6.31-4.86a9.48,9.48,0,0,1-8.47-3.37,76.07,76.07,0,0,0-7.39-6.49c-1-.83-1.63-1-2.32.55-1.74,3.78-4.18,4.59-8.6,3.2a.78.78,0,0,1-.11-.84c1-.87,2.38-.64,3.54-1.11,2.58-1.07,3-2.39,1.45-4.64-.72-1-2.47-2-1.34-3.39,1.3-1.52,3-.47,4.46.35a13.87,13.87,0,0,1,3.32,2.28c3.11,3.41,7.61,4.43,11.29,6.85a3.92,3.92,0,0,0,2.77.66c3.07-.56,6.14.28,9.2,0,5.22.19,5.77-4.32,7.4-7.57a18.26,18.26,0,0,1,3-4.51c.85-.89,1.79-1.18,2.57.14a2.38,2.38,0,0,0,2.15,2.29c2,.32,2.18,1.08.87,2.59-1.52,1.76-2,3.68-.11,5.57C213.76,137.93,213.76,138.5,213.76,139.08Z"/><path class="cls-64" d="M219,105.39c-3.53,1.2-4.19,4.84-6.06,7.39-1.41,1.92-1.78,1.34-2.75,0-2.17-3.11-2.27-6.63-2.2-10.21a1.74,1.74,0,0,1-.18-1.68.53.53,0,0,1,.77-.07c2,2.86,4.39,4.71,8.18,3.53a9.83,9.83,0,0,1,2.87,0Z"/><path class="cls-57" d="M210.84,126.9c-3.23-.73-3.74,2.2-4.49,3.93-1,2.28-2.37,4.36-3.24,6.71s-3.37,1.35-5,2.13a1.74,1.74,0,0,1,.76-2,14.55,14.55,0,0,0,4.43-7.94,7.88,7.88,0,0,1,1-2.37c1.94-3,3.54-6.07,3.62-9.74h0c1.76,0,2.06,1.45,2.33,2.66a6.34,6.34,0,0,0,1.74,3.15Z"/><path class="cls-63" d="M212,123.42c-1.51.08-2.36-.52-2.33-2.14a3.76,3.76,0,0,0-1.74-3.67l-.57-5.23a11.39,11.39,0,0,1,1.21,2.55c.48,2.4,1.56,3.94,4.2,4.31,1.22.17,2.07,1.31,2.7,2.44C214,121.56,212.53,121.56,212,123.42Z"/><path class="cls-63" d="M216.07,122.26c1.55,1.38,3.1,2.7,4.64,0-.15,1.64-.4,3.77-2.16,3.88C216.28,126.28,216.73,123.71,216.07,122.26Z"/><path class="cls-65" d="M128.39,68.85c-3.21,1.54-3.44,5.37-5.8,7.56-3.69-.33-6.08-4.46-4.29-7.62,1.46-2.58,3.36-5,2.2-8.25-.18-.5.24-1.34.59-1.88.77-1.19,1.74-2,3.35-1.46s1,1.88.93,2.92-.89,1.92.27,2.56,1.8-.31,2.51-.9a4.08,4.08,0,0,1,2.27-1.12c1.68-.17,2.23-1.27,2.05-2.84,1.12-2,2.64-2.49,4.84-1.7,1.71.6,3.64,1,4.65-1.31a5.71,5.71,0,0,1,3.36-2.25,4.86,4.86,0,0,1,.93-.14c3.88-.66,7.59.74,11.41.95a2.76,2.76,0,0,1,2.61,3.43c-.51,1.93-2.1,2-3.47,1.49a4.94,4.94,0,0,0-5.25,1c-2.3,1.83-5.4.82-8.07,1.58-.9.25-1.93,0-2.74.65-.32.23.13,0-.22.17C136,63.26,132.18,66,128.39,68.85Z"/><path class="cls-66" d="M145.82,53.17h-.59c-1-1.65-.53-3.06.55-4.49,1.22-1.6,2.76-2.94,3.52-4.92,1.06-2.76,1.15-2.73-1.59-3.5A3,3,0,0,0,146,40c-.74.88,0,1.61.37,2.31,1.22,2.49.64,4.74-.9,6.79-2,2.64-4.56,2.38-6.1-.54a6,6,0,0,0-.86-1.49,1.31,1.31,0,0,0-1.29-.49,1.13,1.13,0,0,0-.85,1.33,16,16,0,0,1,.17,3.46c-.51,3.55.94,4.79,4.46,3.85.45-.12.84-.49,1.36-.26-.24,3.64-3.16,2.61-4.69,2a4.55,4.55,0,0,0-5.18.86c1.3-2.82.89-4.65-2.58-5.35-1.67-.34-2.71-3.89-1.85-5.52,1-1.86,1.56-3.66.54-5.72-.54-1.11,0-2.06.91-2.79,1.75-1.47,3.53-2.92,5.29-4.38a59.48,59.48,0,0,1,10.46-4.69c.77,1.89-.7,2.35-1.9,2.88a28,28,0,0,0-3,1c-1.86,1.06-3.55,2.11-3.48,4.79.07,3.07-2.29,4.95-4.25,6.95-2.53,2.58-2.31,3.64,1,5.62.46-.24.35-.61.22-1a5.53,5.53,0,0,1,3.19-7.2,2.26,2.26,0,0,1,2.43.4,5.59,5.59,0,0,1,1.17,1.63c.65,1.13.61,3.57,2.48,2.79s1.26-2.91.5-4.56c-.08-.18-.15-.36-.23-.53-.58-1.48-2.07-2.63-1.62-4.48,1-2.19,2.56-2.38,4.41-1.13a10.4,10.4,0,0,0,3.53,1.82c3.35.77,3.81,1.48,3.61,5a7.82,7.82,0,0,1-2.08,2.72c-.58.65-1.48,1.33-1.22,2.2.94,3.2-1.2,3.81-3.47,4.41A1.68,1.68,0,0,0,145.82,53.17Z"/><path class="cls-21" d="M130.06,54.52c-.32,1.36-1,2.07-2.06,2.06-1.39,0-2.82-.39-3-2.07a2.26,2.26,0,0,1,2.08-2.65C128.73,51.83,128.85,53.94,130.06,54.52Z"/><path class="cls-54" d="M168.47,205.86c2.32,1.38,3.35-.36,4.36-1.9,1.27-1.92,2.56-3.47,5.23-3.46,1.23,0,2.09-.28,2.84,1s1.94.49,2.65-.19c1-1,0-1.4-.71-2-4.21-3.4-3.89-7.44.57-10.68a13.75,13.75,0,0,1,6.61-2.54c2.3-.28,3.12,1,2.4,3.2-.33,1-2.08,2-.17,3.15a1.88,1.88,0,0,1-.46,2.13c-3.35,4.13-6.64,8.35-11.64,10.64-1.88.86-3.22,2.46-5,3.39a11.5,11.5,0,0,1-9.87-2.53c-.78-.67-1.71-1.29-1.48-2.56C165.66,203.67,166.62,205.69,168.47,205.86Z"/><path class="cls-67" d="M132.43,198.93c-2.65-2.86-2-6.64-2.81-10-1.39-5.87-.49-11.6,1.18-17.26.17-.34.33-.68.51-1,.48-.9.83-2.33,2-2.13,1.33.24.79,1.74.9,2.73.56,5,3.78,8.52,7,12,6,6.48,12.12,12.89,19.33,18.11.27.2.35.66.51,1l-.31.3c-2.08,0-3.59-1.35-5-2.51a113.66,113.66,0,0,1-20.29-20.59,27.18,27.18,0,0,1-3-5.6c-1.73,4.15-1.67,8.14-1.2,12.11.45,3.72.48,7.53,1.93,11.09a1.8,1.8,0,0,1-.07,1.14A1.4,1.4,0,0,1,132.43,198.93Z"/><path class="cls-67" d="M163.78,203.58c2.92,3.89,7,4.95,11.57,4.56a.47.47,0,0,1,.76,0,.78.78,0,0,1-.17.82,2.34,2.34,0,0,1-.78.41c-3.72.58-7.26.38-10.25-2.29-1.63-1.3-3.56-2.35-4.07-4.64l.14-.17C162.18,202.14,162.89,203.05,163.78,203.58Z"/><path class="cls-68" d="M144.07,42.14c.76,1.45,1.56,2.83.72,4.63-.44.95-.84,1.81-1.89,1.93s-1.56-.94-2.13-1.67a2.37,2.37,0,0,1-.18-.55c-.58-1.37-.54-3.49-2.41-3.57s-2.93,2-4.12,3.29,0,2.3.63,3.36c.39.64.92,1.38.06,2.06s-1.39.24-2.07-.26c-3.37-2.49-3.51-3.92-.55-6.85,2.32-2.31,4.19-4.44,4.14-8.35,0-2.32,3.42-3.87,6.18-4.38,1.49-.27,2.58-.77,2.79-2.41,4.55-2.45,9.54-2.61,14.52-2.86a5,5,0,0,1,.16,2.54,8.83,8.83,0,0,0,.24,2.56c.53,1.67,2.84,3.49,3.79,2.84,1.45-1,.78-2.57.68-4-.08-1.18-1.67-2-.83-3.4l1.71,0a6.69,6.69,0,0,1,2.06,1.56,1.81,1.81,0,0,0,2.8.15c1.58-1.36,3.74-1.56,5-.46s0,3.06-.7,4.48c-1.08,2.29-1.93,2.66-5.68,3,.83,4.13.2,5.89-2.75,7.85a2.9,2.9,0,0,1-4.13-.47c-2.26-2.39-2.27-2.38-4.44-.07-.4.42-.75.88-1.13,1.33a7.78,7.78,0,0,1-1.09,1.27c-.75.63-1.59,1.15-2.52.53s-.71-1.59-.19-2.46c.31-2.89-.28-4.94-3.88-4.76-1.14.06-2.06-.88-2.89-1.71-1.52-1.51-2.8-1.48-3.68.67C141.24,40.14,143.5,40.78,144.07,42.14Z"/><path class="cls-36" d="M156.27,43.88c.62-.72,1.21-1.49,1.88-2.17,2.32-2.34,2.31-2.32,4.09.64,1,1.59,2.27,2.21,3.77.74,1.9-1.88,4.78-3.48,1.73-6.83-.92-1,.31-1.62,1.45-1.54,3.59.26,5.62-1.44,6.05-5,.06-.5.18-1.06-.36-1.25a3.45,3.45,0,0,0-3.06.07c-1.12.79-1.71,2.56-3.52,1.85-1.45-.56-1.77-2.22-2.79-3.22a32.67,32.67,0,0,0,10.89.35c1.71-.17,2,.22,1.95,1.69a7.92,7.92,0,0,1-.52,3.09c-.7,1.53-.83,2.93.77,4.05a2.8,2.8,0,0,0,4.05-.74c1.61-3.54,6.24-3.45,7.8-7.19.63-1.51,2.74.45,4.14,1-.67,0-1.52-.07-1.73.71-.65,2.35-1.43,4.27-4.52,4.13-1-.05-.29,1,.11,1.5s1.2,1.18.6,2a1.67,1.67,0,0,1-1.89.34c-2.9-1.08-4.28,0-4.88,2.91-.34,1.58-1.82,1.65-3.21,1.89-2,.34-3.73.61-1.93,3.61,2.49,4.16.1,7.83-4.65,7.92-1-.17-2.07.35-2.89-.59a19.68,19.68,0,0,0-2.22-1.32c-1.83-1.26-3.38-1.38-4.76.91-1.16,1.92-3.58,1.69-4.71-.22-.65-1.1-.07-1.73.91-2.3,2.32-1.35,2.26-1.44.14-3.16C157.75,46.68,155.52,46.3,156.27,43.88Z"/><path class="cls-69" d="M163.8,27.1a9.39,9.39,0,0,1,1.77,6.64c-.24,1.83-1,2.27-2.7,1.55-3.61-1.51-4.65-4.34-3.11-8.78l1.16-.08A4.19,4.19,0,0,0,163.8,27.1Z"/><path class="cls-70" d="M132.43,198.93l.11-.63c1.09-.16,1.53.66,2,1.39q1.8,3,3.89,5.73a6.22,6.22,0,0,1,1.18,6.23c-.74,2,.08,4,.39,5.95.27,3.58,1.73,6.88,2.5,10.34a10.65,10.65,0,0,0,.39,1.93c.44,1.46,1.18,1.83,2.46.81.65-.52,1.36-1.08,2.29-.53.41.61-.31,1.29.1,1.9,4.6-3.84,9-1.47,13.52.28,2,1.55,3.85,3.64,3.34,6C164,241,163.25,244,160.84,246c-.19-.22-.47-.51-.4-.74,1.6-4.78-2.11-7.1-4.64-9.92-1.82-2-3.68-2.28-6.29-1-2.08,1-2.62,2.55-2.58,4.93.12,6.23.68,12.33,2.88,18.21.05.15.07.24.08.28,1.62,5.38,2.46,5.94,7.55,5.05.33,2.15-.69,2.37-2.68,3.1-4.07,1.49-4.4-1-5.25-3.5,0-.07-.14-.12-.21-.18a160.51,160.51,0,0,1-5.75-25c-.67-4-2.35-7.86-3.62-11.77a58.83,58.83,0,0,1-2.39-11c-.55-4.56-2.37-8.7-4.25-12.82A5.59,5.59,0,0,1,132.43,198.93Z"/><path class="cls-71" d="M205.63,81c1.41.75,1.54,2.34,2.33,3.49,1.55,3.83,4.87,6.79,5.36,11.15a2.31,2.31,0,0,0,1.87,2,11.3,11.3,0,0,1,4.77,2.55c2.16,1.77,3,1.17,3.61-1.19,0,3.33-3,4.82-6.72,3.17a30.81,30.81,0,0,0-5.59-2.17c-1.45-.33-2.07-1.29-2.2-2.92-.45-5.3-.72-10.68-3.45-15.49-.16-.13-.21-.27-.15-.4S205.58,81,205.63,81Z"/><path class="cls-72" d="M175.46,208.78l.55,0c1-1.08,2.35-1.68,3.27-2.81,6-3.41,10.21-8.59,14.4-13.88,2.68-3.38,5.76-6.4,8-10.12,1.07-1.77,2-.44,2.68.77-.34,4.74,1,9.45.15,14.23a13.6,13.6,0,0,1-1.27,4.25c-3.28,7.53-6.43,15.1-5.52,23.61a1.15,1.15,0,0,1-.27.79c-.57,2.29-1.36,4.54-1.19,7a6.91,6.91,0,0,0-.57,2.5c-.34,2.61-1.79,3.26-3.9,1.66a14.79,14.79,0,0,1-3.91-4.93c-1.64-3-3.51-5.92-5-9-2.31-3.46-5.63-6-8.15-9.31-.7-.91-1.82-1-2.86-1.23-.46-.1-1-.26-1.07-.82s.37-1,.88-1.33C172.85,209.43,174.34,209.64,175.46,208.78Z"/><path class="cls-73" d="M183,222.64a39.54,39.54,0,0,1,5.17,8.19,18.54,18.54,0,0,0,3.95,5.27c1.3,1.15,2.84,1.81,3-1a3.55,3.55,0,0,1,1.13-2.56c0,1.19.06,2.38.08,3.58-.4,1.32-.81,2.65-1.21,4-1.24,2.38-.46,5.07-1.17,7.53-1.57,7.15-2.75,14.41-5.59,21.8-2.34-4.24-3.06-8.44-4.62-12.32a142.15,142.15,0,0,0-6.41-13.2c-1.27-2.4-2.78-4.93-1.37-7.87,2.21-2.79,5.63-1.86,8.47-2.63s2.81-.39,1.46-3.2c-.78-1.55-1-3.38-2.37-4.63-.82-.57-.49-1.47-.63-2.23A.43.43,0,0,1,183,222.64Z"/><path class="cls-74" d="M204.4,182.72c-1.23-1.29-1.79-1.08-2.94.47-5.26,7.08-10.53,14.19-17.28,20a52.84,52.84,0,0,1-4.69,3.25c-1.21.5-2,1.88-3.48,1.76l-.66,0a9.86,9.86,0,0,1,4.25-3.37c5.57-2.71,9.34-7.25,12.65-12.27,1.43-2.23,4.05-3.38,5.27-5.79,3.86-3.51,4.65-7.69,2.86-12.51-.29-.79-1.1-1.77.06-2.6C204.1,174.48,203.84,178.74,204.4,182.72Z"/><path class="cls-73" d="M197.49,225.6a23.05,23.05,0,0,1,2.21-16.16c1.35-2.67.72-6.21,3.58-8.24-.76,2.32-1.39,4.7-2.32,7-2.16,5.2-2.16,10.75-2.91,16.19A5.59,5.59,0,0,1,197.49,225.6Z"/><path class="cls-75" d="M208.53,100.77h-.59c-2.11-2.44-2.46-5.64-3.63-8.48a16.53,16.53,0,0,1-.53-6.59,5.31,5.31,0,0,0-2.34-5.27c-2.31-1.52-4.4-3.45-7-4.48-3.81-1.48-6.92-4.14-10.39-6.21a2.15,2.15,0,0,1-1.19-1.86.87.87,0,0,1,.65-.54c4.23.86,7.72,3.17,11.14,5.67a73.93,73.93,0,0,0,6.43,3.81c1,.58,2,1.18,2.23,2.47a15.41,15.41,0,0,1,2.36,10.16c-.13,1.22.61,2.24,1.09,3.25C208,95.28,207.81,98.12,208.53,100.77Z"/><path class="cls-76" d="M203.28,79.3c-6.44-4.1-12.61-8.66-19.72-11.62-.52-.39-1.25-.57-1.3-1.39l.15-.37c4.93,1.6,9.9,3.15,13.66,7a14.46,14.46,0,0,0,4.71,2.72A9.52,9.52,0,0,1,205.63,81c0,.2,0,.4,0,.59C204.77,80.92,204.45,79.68,203.28,79.3Z"/><path class="cls-77" d="M128.39,68.85c2.71-2.91,5.31-6,9.66-6.48.69-.08,1.31-.71,2-1.08,1.72-1,3.8-1,5.57-1,4.75-.16,9-3.23,14-1.92,2.19.59,4.52.65,6.57,1.78v1.16c-1.6,1.31-3.26.66-4.92.15-2.81-.85-5.61-1.38-8.35.23a12,12,0,0,1-5.12.67c-4.83-.42-8.43,2.94-12.86,3.75-2.37.43-4.27,2.52-5.37,4.93-3.31,4.81-3.87,10.39-4.37,16-.27,2.91-1.42,5.56-2.08,8.36-.28,1.2-1.15,1.45-2.22.79-1-1.44-.25-3.08-.5-4.6l1,1.36c2-2.43,1.75-5.38,2.1-8.18C124.08,79.11,125.33,73.69,128.39,68.85Z"/><path class="cls-11" d="M150.5,273.13c.32.61.65,1.22,1,1.83q1.22,6.39,2.45,12.78h0A19.57,19.57,0,0,0,154,290c.49,3.37.51,3.39-3.1,3.41l-19.61.06c1-.8,2-1.52,1.76-3.05a2.13,2.13,0,0,1,1.29-2.38c1.06-.46,1.18.73,1.68,1.2a2.49,2.49,0,0,0,3.19.29,11,11,0,0,1,2.64-1.15c1.14-.22,2.5-.41,1.93,1.65-.62,2.26.6,3,2.64,2.88s4.67.58,6.25-.38c2-1.2-.12-3.68,0-5.65a16.82,16.82,0,0,0-1.81-8.36C150.09,276.77,150.61,274.94,150.5,273.13Z"/><path class="cls-78" d="M151.77,274.94c-.05-1.74-.09-3.48-.14-5.22,1.91-.58,3.83-2.5,5.71.06a9.07,9.07,0,0,0-2.29,7.41,1.26,1.26,0,0,1-.94,1.56c-.87.16-1.14-.57-1.39-1.18C152.37,276.71,152.08,275.82,151.77,274.94Z"/><path class="cls-79" d="M153.93,287.74c0-1.15,0-2.31.07-3.46,0-.69.17-1.43,1-1.52s1,.62,1.25,1.28a8,8,0,0,1-.27,6.16c-1.25-.36-.68-2.25-2.06-2.47Z"/><path class="cls-59" d="M163.23,137.93c0,.19,0,.38,0,.57-1,1.07-2.71.47-3.79,1.45a4.63,4.63,0,0,1-.81.3c-2.29.68-4.21-1.12-6.42-.95a11.55,11.55,0,0,0-1.44,0c-.86.14-2.23-.54-2.37.84-.1.93,1.1,1.3,1.94,1.42,3.66.55,7.11,2.79,11,1.43,2.45-.33,4.88-.73,7.3-1.28a.67.67,0,0,1,.52.63c-1.59,3.45-5.12,3.25-7.95,3.7-3.46.55-7.12.73-10.57-.61a3.68,3.68,0,0,0-1.13-.24c-1.26-.05-3-.19-3,1.38s1.75,1,2.75,1a120.59,120.59,0,0,1,18.07,2c1.76.34,3.23.5,3.79-1.8.28-1.17,1.5-1.69,2.45-2.35,1.16-.79,2.29-1.67,1.41-3.29a2.59,2.59,0,0,0-3.62-1.38,1.25,1.25,0,0,1-1.36-.06c.23-2.85,1.79-3.92,4.33-3,4.49,1.67,6.41,7.94,3.65,11.92-1.68,3.38-4.7,3.18-7.75,2.87-4.39-.45-8.66-1.62-13.12-1.81-3.37-.15-6.73-.27-10.1-.41-1.22-.05-2.54.25-3.54-.81-.52-2.24-1.91-3.71-3.64-5.24-3-2.7-6.16-4.37-10.33-4.41-3.37,0-5.36-2.6-7.1-5.2-.47-.71-.67-1.61-1.56-2l0-1.72c2.5,2.16,4.61,4.59,8.1,5.67,3.8,1.17,6.81.64,9.66-1.73,1.92-1.59,3.69-3.36,5.45-5.13.55-.56,1-1.45,1.82-.92s-.24,1.38-.05,2.1a1,1,0,0,1,.18.86c-.92,3.31-.54,3.83,2.87,4.18,4.27.45,8.45,1.88,12.84,1.25A1.68,1.68,0,0,1,163.23,137.93Z"/><path class="cls-80" d="M177.75,148.94c2.32-3.65-.1-9.85-4.3-10.78-2-.45-2.92.86-3.25,2.67.18.95-.23,1.32-1.15,1.17L169,142c-1-2.22-3-1.41-4.69-1.46s-3.59.49-5.13-.81c.94-1.84,2.67-.94,4.07-1.18,1.26,0,2.51,0,3.77,0a4,4,0,0,0,4.28-3.78c.25-2.51,1-2.28,2.6-1a96.77,96.77,0,0,1,9.3,8.21,6.47,6.47,0,0,0,6.48,2c4.1-.84,6.6,1.07,7.27,5.26.6,3.77,3.91,5.09,7,2.8.91-.67,1.45-1.88,2.81-1.88-.27,2.31-1.83,4.15-2.32,6.38-2.17.23-3.36,2.11-5.11,3-2.69,1.43-5.32,2.41-8.4.79-2.37-1.25-6.16.72-7.25,3.53-.68,1.78-1.26,3.61-1.89,5.41-3,1.95-5.33,4.8-8.54,6.53a5.64,5.64,0,0,1-4.34.74c-3.35-.81-6.89.22-10.24-.89a11.79,11.79,0,0,1-1.26-.56c1.51-1.28,3.32-.78,5-.72,2.51.09,5,0,7.51-.07a8,8,0,0,0,5-2.11,2.71,2.71,0,0,0,.91-3.6c-1.25-2.15-1-4.24-.2-6.4a3,3,0,0,0-.33-3.25,25.1,25.1,0,0,1-1.72-1.85c0-.9.64-1.2,1.27-1.56a14.21,14.21,0,0,1,2.39-.78c1.83-.15,3.49-1,5.29-1.26,1.53-.24,2.28-1.11,1.77-2.61s-1.24-2.91-3.33-2.13C179.92,149.15,178.87,150,177.75,148.94Z"/><path class="cls-81" d="M163.22,276.68a6.94,6.94,0,0,1-1.44,0c-1-.19-2.79.68-2.94-.82s1.78-1.12,2.76-1.38c1.87-.5,1.56,1.08,1.62,2.19Z"/><path class="cls-82" d="M61,294.66v-.55h.58c.68-.73,2.42-.39,2.26-1.84s-1.5-1.9-2.81-2a14.16,14.16,0,0,1-4.19-1.09c-3.47-1.4-3.67-1.7-3.26-5.52a6.13,6.13,0,0,0-.19-2c-.17-.73-.57-1.58.26-2.11s1.71-.06,2.4.46a35.53,35.53,0,0,0,4.66,3.42c.58.3,1.18,1,1.81.48s.11-1.26-.19-1.84a20.53,20.53,0,0,0-8.16-8.41,2.45,2.45,0,0,0-2.73,0c-1.75,1.13-3.14.43-4.39-.82a71.07,71.07,0,0,1-7.23-9c-1.23-1.71-.36-3.07,1.82-3.36,2-.26,3.22,1,4.53,2.14a13.91,13.91,0,0,1,2.53,2.37c1.6,2.31,3,4.37,6.59,3.75,2.05-.35,4,1.79,6,2.56,1,.38,2,.89,3,.05s.61-1.93.18-2.91c-.66-1.51-.81-3.17-1.37-4.72-.39-1.07-.39-2.26.92-2.65a1.87,1.87,0,0,1,2.23,1.43c.57,1.93,1.6,3.87,1.55,5.82-.12,4,2.4,6.57,4.76,9.11A21.77,21.77,0,0,1,78.49,290c.39,3.31.21,3.33,3.75,3.38,1.24,0,2.51-.15,3.66.53a.59.59,0,0,1,.13.84l-.09,0Z"/><path class="cls-83" d="M120.85,96.13c1.16.07,1.62-.43,1.87-1.62a85.41,85.41,0,0,0,2.21-12.38,22.23,22.23,0,0,1,4-11.54c2.48-2.84,4.91-5.73,9.23-5.54,1.54.07,2.34-2.07,4.1-1.5.95,1.31.21,2.18-.85,2.86a10.84,10.84,0,0,1-3.68,1.66c-6.49,1.33-9.73,5.7-11.16,11.8l0,.59c-1.26,2.55,0,5.37-.87,8-1.31,1.57-.36,3.75-1.44,5.39,0,.19,0,.38,0,.57-1,1-.47,2.78-1.67,3.81C121.75,97.76,121.37,96.88,120.85,96.13Z"/><path class="cls-16" d="M86,294.7l0-.59a1.62,1.62,0,0,1,.13-1.65c.86-1.56.3-2.65-.87-3.83-4.06-4.14-8.15-8.35-10.79-13.54-2-4-5.15-7.34-6.15-11.95-.78-3.64-3.24-6.78-4-10.54A1.7,1.7,0,0,0,62,251.18c-2,.6-3.86,2.89-3.18,4.5,1.24,2.94,1.92,6.08,3.24,9a6.73,6.73,0,0,1,.73,1.88,3.11,3.11,0,0,1-.89,3.18c-1,.77-2,.44-3-.05-1.2-.61-2.49-1.12-3.13-2.44l.09-.42c.38,0,.77,0,1.15.09,1.17.15,2.3,1.83,3.4.6,1-1.08-.47-2.27-.75-3.42-1.46-6-3.79-11.78-5-17.87a2.18,2.18,0,0,0-1.1-1.63c-3.2-1.53-4.64-4.76-7-7.13-.8-.82-1.51-1.86-.57-3.09s1.89-.39,2.88-.14c4.91,1.27,7,5.19,8.85,9.36.25.57-.27.86-.44,1.29-.53,1.33,0,2.34,1.38,2.05,3.89-.86,6.09,1,7.62,4.21,1.36,1.8,1.55,4.09,2.37,6.11,1.14,2.83,2.57,5.52,3.74,8.32,2.51,6,6.8,10.54,11.39,15,3.13,3,6.4,6.09,8.53,10,1,1.78.34,2.94-1.62,3.39C89.12,294.18,87.47,293.73,86,294.7Z"/><path class="cls-5" d="M90.68,294c1.33-1.05,2-1.86.62-3.73-3.31-4.62-7.55-8.33-11.4-12.42a43.37,43.37,0,0,1-8.46-12.46,83.73,83.73,0,0,1-5.17-14.22c.36-1.73-1-3-1.16-4.64,1.87,1,1.54,2.93,2,4.54.63,2.21.87,4.57,2.68,6.28.62.59.53,1.4.56,2.17,0,.58-.1,1.48.2,1.67,2.74,1.71,3.06,4.92,4.67,7.31.37.54,1,1.33,1.45,1.35,4.22.16,4.47,4,6.32,6.42,2.78,3.69,5.51,7.53,10,9.49a3.91,3.91,0,0,1,1,6.54A2.38,2.38,0,0,0,93,294Z"/><path class="cls-43" d="M82,294.1c-4.13,0-3.81,0-4.16-3.92A20.7,20.7,0,0,0,72.15,278c-2.41-2.68-5.54-5.17-4.9-9.69.26-1.81-1.8-3.47-1.5-5.65,0-.4-.82-1.5-1.69-1.2s-.74,1.25-.34,2c1,1.86.74,4.19,2.07,6,.69.92.07,1.57-.55,2.25a2.71,2.71,0,0,1-3.15.82,24.77,24.77,0,0,1-4.65-2.28,4.49,4.49,0,0,0-4.87-.56c-.92.45-1.52.5-2-.69-1.26-3.15-4-5.1-6.41-7.25a2.88,2.88,0,0,0-4,0c-1.13,1.07.33,2,.87,2.62,2.49,2.67,4.17,6,7,8.39,1.12,1,2,1.47,3.17.18.87-1,1.8-.88,2.85-.29a24,24,0,0,1,9.63,10.06A1.77,1.77,0,0,1,63.3,285c-.75.59-1.4.19-2.07-.31-2.35-1.75-4.74-3.44-7.75-5.61.68,2.64,1.71,4.47.33,6.43-.63.9.42,1.66,1.17,2,1.83.79,3.58,1.92,5.69,1.93a6.27,6.27,0,0,1,1.44.09c1.77.45,3.13,1.6,2.86,3.44s-2.19.79-3.35,1.11c.42-.81.8-2-.39-2.07-2.19-.2-3.69-1.84-5.87-2.16-3.77-.55-4.7-2.36-3.47-5.81a2.24,2.24,0,0,0-.48-2.33c-2.23-3.21-4.42-6.45-6.63-9.69-2.13-3.52-5.11-6.33-7.9-9.29-1-1.08-1.82-2.07-1-3.5s2.06-1.3,3.24-.59c.89.53,1.93,0,2.76.61,1.79.28,3.18,1.38,4.64,2.32,1.89,1,3.1,2.7,4.67,4,2.92,1.87,6.29,2.79,9.32,4.45,1.38.76,2.65.4,2.37-1.79-.4-3.07-2.12-5.71-2.71-8.71-.15-.74-.62-1.42-.77-2.18-.37-1.95.57-2.84,2.41-2.21a8.77,8.77,0,0,1,5.58,4.74,32.72,32.72,0,0,1,2.38,9.17,2.66,2.66,0,0,0,.81,2c4.74,3.84,7.51,9.23,10.32,14.38C82.15,287.79,82.22,291.15,82,294.1Z"/><path class="cls-84" d="M41.88,259.27a8.71,8.71,0,0,1-3.39-.44,1.63,1.63,0,0,0-2.06.55,1.83,1.83,0,0,0,.16,2.38c1.7,1.94,3.23,4.11,5.23,5.67a6.87,6.87,0,0,1,3,4.61c-3.53-2.5-5.36-6.6-8.71-9.28a2,2,0,0,1-1.16-1.17c-1.24-3.13-.17-4.38,3.49-4.06C39.18,258.87,40.93,258.27,41.88,259.27Z"/><path class="cls-16" d="M50.59,265.66a16.92,16.92,0,0,1-4.07-4.07,2.32,2.32,0,0,1,2.12.7c1.85,2.38,4.42,3.59,7.18,4.53h0C53.67,268.24,52.17,266.78,50.59,265.66Z"/><path class="cls-16" d="M38.4,257.53c-2.53.19-4.23,1.08-3.49,4.06a2.2,2.2,0,0,1-.75-3.43C35.23,256.56,36.8,256.5,38.4,257.53Z"/><path class="cls-8" d="M182.62,53.88a.89.89,0,0,1-.91.94c-1.38.08-1.65-1-2-2a.57.57,0,0,1,.62-.73C181.5,52.18,182.05,53.08,182.62,53.88Z"/><path class="cls-13" d="M208.45,64.63c-.14.59-.39,1.11-1.14.9a1.27,1.27,0,0,1-1.06-1.45c.05-.7.43-1.06,1.11-.91A1.33,1.33,0,0,1,208.45,64.63Z"/><path class="cls-85" d="M166.14,60.13c-2.68.59-5-.85-7.57-1.27a13.21,13.21,0,0,0-5.3.43,95.66,95.66,0,0,1-13.25,2c2.06-2.09,4.85-1.17,7.28-1.64,1.91-.36,3.73-.19,5-2.13.87-1.29,2.34-1.15,3.62-.31a2.85,2.85,0,0,0,3.48.15,1.67,1.67,0,0,0,.08-2.15c-.78-1.16-2-.93-3.23-1.09-3.48-.44-6.9-1.31-10.45-.95a2.37,2.37,0,0,1,1.71-1.4c1.77-.47,2.3-1,1.73-3.18s2-3.34,3.52-4.71c.14.78-.4,2,.76,2.17,1.53.26,1.78-1.48,2.73-2.17.3,2.21,2.42,2.55,3.79,3.64.78.62,1.62,1.29,1.61,2.29,0,1.22-1.28,1.24-2.14,1.56-.51.19-1.23,0-1.38.77s.69,1,1.15,1.48a1.6,1.6,0,0,0,2.09.39,1.69,1.69,0,0,0,.4-.4c.87-1.2,1.14-3.49,2.93-3.14a8.56,8.56,0,0,1,4.88,3.3,4.76,4.76,0,0,1-1.65-.38c-1.38-.9-2.85-1.51-3.4.57-.41,1.52-.82,3.52,1.91,3.94a71,71,0,0,1,7,1.71A3.4,3.4,0,0,1,176,61.29C172.7,61,169.54,59.48,166.14,60.13Z"/><path class="cls-86" d="M152.76,61.28c2.44-2.59,5.4-1.46,8-.76a19,19,0,0,0,5.36.77c2.58,0,5.14.13,7,2.29-.81.86-1.78.51-2.69.29-3.52-.88-7.21-.79-10.7-1.79-2.18-.89-4.51.41-6.69-.47Z"/><path class="cls-87" d="M159.74,61.31l13.42,2.27,1.1.05c.83.66,1.83.48,2.78.62s2.16.35,1.66,1.9c-1.79,1-3.58.53-5.26-.2a17,17,0,0,0-7.53-1.55,8.65,8.65,0,0,1-6.08-2.19A.73.73,0,0,1,159.74,61.31Z"/><path class="cls-76" d="M178.9,66c-.43-1-1.32-1.21-2.31-1.17a2.11,2.11,0,0,1-2.33-1.15c3.12-.67,5.46,1.44,8.15,2.29l0,0a2.72,2.72,0,0,1-3.13.32C179.13,66.18,179,66.06,178.9,66Z"/><path class="cls-88" d="M157.44,262.76c-3.4,2.57-6.2,1.49-7.64-2.78-2.18-6.51-3.74-13.05-3.51-20,.16-4.89.52-5.82,5.22-7.09,2.79-.75,4.18,1,5.54,2.69,1,1.22,1.81,2.5,3.3,3.13a2,2,0,0,1,1.13,2.4c-.16,1.62-.37,3.24-.56,4.85.59.49.08,1.25.44,1.79-.13.19-.25.39-.38.59-1.9,1.27-2.12,3.43-2.26,5.32C158.5,256.71,157.91,259.72,157.44,262.76Z"/><path class="cls-89" d="M180.57,221.53c1.16,2.27.52,4.07-.93,6.1-1.6,2.24-2.94,4.7-4.34,7.09-1.83,3.11-.24,6.15.77,9.13.31.9.76,1.76,1.14,2.63a3,3,0,0,1-2.34-3c0-2.53-2.54-4.57-1.32-7.36.24-.55-.55-1.23-1.14-1.54-3.12-1.64-4.33-4.32-4.57-7.69a5.38,5.38,0,0,0-3.09-4.59c-4.22-2.08-4.24-2-2.78-6.62a4.78,4.78,0,0,0,.1-1.15c-.31-1.43.92-1.73,1.74-2.28a1.56,1.56,0,0,1,2.12.1,1.38,1.38,0,0,1,.06,2.07c-1.18,1.26-.44,2.16.3,3.27a15.79,15.79,0,0,0,6,4.85,2.42,2.42,0,0,0,3.17-.43c.92-1,.29-2-.3-2.88-.21-.32-.46-.62-.65-1-.36-.67-.91-1.4-.09-2.06.64-.51,1.34-.12,1.83.33C177.86,218.09,179.73,219.36,180.57,221.53Z"/><path class="cls-90" d="M180.57,221.53c-2.15-1.42-3.44-3.86-5.94-5.22-.35,1.51.91,2,1.37,2.8.6,1.1,1.51,2.09.38,3.33s-2.29,1.81-3.86,1.1a20.56,20.56,0,0,1-8.2-7,1.07,1.07,0,0,1,.3-1.71c.64-.48,1.89-.81,1.08-1.89-.93-1.26-1.66.17-2.41.53a5.5,5.5,0,0,0-1.22,1.15l-1.6.57-.32-.27c.16-2,2-2.53,3.18-3.7a4.1,4.1,0,0,1,3.63-.1,26.47,26.47,0,0,0,4.18,1.17,7.75,7.75,0,0,1,5.92,3.72c1,1.8,3.49,2.54,3.62,5Z"/><path class="cls-91" d="M161.36,247.71c-.67-.47-.41-1.16-.44-1.79,1-2.12,2.15-4.21,3.05-6.39.74-1.8-.34-3.32-1.24-4.77a19.94,19.94,0,0,0-1.82-2.19c-2.61-2-5.19-3.89-8.81-3a1.66,1.66,0,0,1-2.15-1.37c.07-2.55,1.7-4.15,3.47-5.67a.86.86,0,0,1,.75.24c.91,2.91,4.06,3.69,5.69,6,.65.9,1.52,1.71,2.19,2.66,4.61,4.41,3.08,9,.51,13.71C162.1,246,161.75,246.85,161.36,247.71Z"/><path class="cls-92" d="M162.05,231.42c-2.6-1.89-4.37-4.78-7.53-6-1.1-.43-.45-1.69-.46-2.59s.55-1.48,1.58-1.29c-.16,3.41,3,4.64,4.62,6.85C161,229.34,162,230.07,162.05,231.42Z"/><path class="cls-91" d="M155.64,221.5l-1.58,1.29-.22-.18c.24-3.42,3.55-7.31,6.34-7.47a.37.37,0,0,1,.29,0A36.89,36.89,0,0,0,155.64,221.5Z"/><path class="cls-93" d="M180.68,220.93c-1.44-1.67-2.93-3.3-4.31-5a7.24,7.24,0,0,0-5.66-3c-2.54-.06-4.69-2.51-7.45-1.19a1,1,0,0,1,.07-1.51c1.23-1,1.29-2.44,1.64-3.79,3.1,2.55,6.73,2.72,10.49,2.34-.9,1.67-3,1.13-4.19,2.28,5.74,2,8.62,6.93,11.75,11.58,0,.24-.06.48-.08.72C182.1,222.63,181.82,221.38,180.68,220.93Z"/><path class="cls-94" d="M186.42,229.7c.9.7.91,1.85,1.4,2.76.78,1.45,0,1.91-1.39,1.82A25.09,25.09,0,0,0,176,236.05a3.66,3.66,0,0,1,1.13-2.36C180.24,232.37,183.21,230.75,186.42,229.7Z"/><path class="cls-95" d="M186.42,229.7c-.11.36-.2,1-.34,1-3.23.23-5.48,3.45-8.94,2.95a9.52,9.52,0,0,1,6.47-4.76c2.66-.6-.54-2.18,0-3.34C185.39,226.35,185.46,228.34,186.42,229.7Z"/><path class="cls-26" d="M194,247.64c0-1.71,0-3.43,0-5.15,0-1,.11-1.91,1.17-2.38A23.47,23.47,0,0,1,194,247.64Z"/><path class="cls-96" d="M175.42,158.25c1.5.81,2,1.79,1.2,3.53-1.05,2.18-1.59,4.34,0,6.75,1.36,2-.21,3.47-1.79,4.83-2.89,2.51-6.45,1.8-9.67,1.92-2.54.09-5.19,0-7.78-.18-4,.29-7.68-.14-10.9-2.8-.78-.65-1.57-1.22-1.53-2.26.05-1.23,1.2-1.4,2.1-1.66,3.29-1,6.43-1.92,10.1-1.06,2.45.58,5.31-.33,7.79-1.52s4.74-2.42,6.1-5A5,5,0,0,1,175.42,158.25Z"/><path class="cls-97" d="M174.86,156.05l-1.19,1a2.31,2.31,0,0,1-1.87,1.23c-6.24.46-12.5.9-18.71-.37a2.5,2.5,0,0,1-1.48-.84c-1.75-1.23-4.2,0-5.81-1.72.85-1.05,2.16-.49,3.19-.91-.57-3.76-.61-3.71-4.67-3.45-2.15.13-1.18,1.63-1.43,2.61-2,.28-3.65-1.05-5.53-1.44-1.58-.33-2.92-1.55-2.11-3.37s2.48-2,4.18-1.19c1.36.64,2.32,2.1,4.07,1.91,6.34-.33,12.66.3,19,.67,2.4.14,4.78,1,7.19,1.46,3.33.64,6.1.29,8.09-2.72a4.42,4.42,0,0,0,2.46-.61c2.58-1.19,4.85.09,5,2.95.1,1.52-.23,2.95-2.26,2.91s-3.76,1.48-5.85,1.13c-.84-.94.7-1.43.49-2.18-4.31-.59-8.07,1.33-12.21,2.16,2,1.35,3.68,1.4,6.77.31a3.3,3.3,0,0,1,2.06-.11A1.17,1.17,0,0,1,174.86,156.05Z"/><path class="cls-98" d="M151.61,157.09c3.44.34,6.92,1.18,10.31.89,3.91-.34,7.91.33,11.75-.91a1.79,1.79,0,0,1,1.75,1.18c-2.18,1.39-4.17,2.83-5.41,5.34-.87,1.76-3,2.29-5,2.21.67-1.19.47-2-1-2.35-2.79-.67-5.5-1.87-8.44-1.69a6.6,6.6,0,0,1-4.81-1.57c-.78-.65-2.18-.95-1.73-2.29C149.43,156.77,150.68,157.16,151.61,157.09Z"/><path class="cls-99" d="M142.89,153.62c-.18-1-2.09-1.53-1.25-2.56a3.74,3.74,0,0,1,3.22-.76c.65.12,1.26.46,1.95.18,1.67-.69,2.92-.2,2.4,1.66-.4,1.47,2.92,1.75.85,3.06-.9.57-2.44.13-3.69.16h-.57l-.55,0Z"/><path class="cls-100" d="M163.23,137.93c-5.52,1.12-10.82-1-16.25-1.23-2.55-.12-3.09-2.82-1.18-5.17,1,1.43,1.82,2.92,3.92,2.89,4.5-.06,9,.72,13.5-.13.55-.1,1.19,0,1.51-.65-.18-.84-.94-.88-1.54-1a3.68,3.68,0,0,1-3-3.7,6.17,6.17,0,0,0-.33-1.7q-1.5-4.39-4.87-1.08a20.56,20.56,0,0,0-2,2.82c-1.6,2.21-3.23,2.59-6,1.45.78-1.72,2.46-2.65,3.63-4a15,15,0,0,0,3.53-8.25,6.42,6.42,0,0,1,1.58-3c1.78-2.13,3.65-1.85,5.08.52a16.93,16.93,0,0,1,1.82,6.33c.26,1.61.78,1.54,1.79.63a5.39,5.39,0,0,1,6.7-.69c4.83,2.67,10.4,2.45,15,1.12a42.77,42.77,0,0,0,10.69-4.49c1.83-1.15,2.64-2.73,1.17-4.88-1.06-1.55-2.12-3.51.28-4.67,2.69-1.29,6-1.68,7.36.52a6.65,6.65,0,0,1,1.23,3.8,7.92,7.92,0,0,0,1.14,4.36c1,3,.08,5.59-1.82,8a9.05,9.05,0,0,0-1.85,3.57c-.85,4.26-3.2,7.55-6.19,10.49-3.15.2-6.29-.58-9.44,0-1.65.29-2.95-.71-4.34-1.38a69.16,69.16,0,0,1-13.05-8.34,5.27,5.27,0,0,0-2.57-1.26c-.55-.07-1.26-.21-1.6.33s.23,1,.6,1.46c1.28,1.4,3.33,2.75,2.19,4.87s-3.4,2.71-5.77,2.59C163.81,137.92,163.52,137.93,163.23,137.93Z"/><path class="cls-101" d="M176.61,117.6c-3.14,1.07-5.83.19-7.36-2.5a5.94,5.94,0,0,0-2.28-2.54,4,4,0,0,1-2.37-4.23,5.72,5.72,0,0,1,3.5-4.63,14.21,14.21,0,0,1,6.75-1.18c.1,1.81-1.53,1.63-2.52,2.18s-2.23.94-1.86,2.2c.42,1.42,1.82.85,2.73.55,2-.66,4.11-1,6.17-1.47.54-.13,1.28-.23,1.37-.88s-.69-1-1.25-1.38c-1.25-.76-2.93-.07-4.07-1.21,0-.19,0-.38,0-.57h12.48a5.41,5.41,0,0,1,2.83.42c1.19.67,2.56,1.33,2.56,2.86s-1.52,1.63-2.53,2.06c-2.38,1-4.76,2-7.5,1.1a11.73,11.73,0,0,0-3.46-.06c-1.14,0-2.44-.28-2.92,1.22-.59,1.85,1.53,1.34,2,2.26-.92,1-2.15.69-3.27.76a4.4,4.4,0,0,0-2.91,1.09c-.95.92-.92,1.64.52,2S176.3,115.55,176.61,117.6Z"/><path class="cls-102" d="M147,130.38c2.78.25,5.29,0,6.09-3.34a.48.48,0,0,1,.17-.23c1.44-1.35,2.63-3.77,4.82-3.14s2.94,3,2.81,5.24c-.14,2.53,1.62,2.78,3.29,3.15,1,.23,2.2.48,2.14,1.52-.07,1.22-1.34,1.32-2.46,1.48-5,.69-10,.25-15,0-2.44-.12-3.2-1.36-3.08-3.54,0-.19,0-.37,0-.56Z"/><path class="cls-103" d="M176.61,117.6a4.31,4.31,0,0,0-3.68-1.17c-.79,0-1.59-.08-1.94-.9-.42-1,.3-1.59.89-2.22,2-2.14,4.62-1.32,7-1.51,2.1-.41,3.8,1.14,5.81,1.17,1.16.9,2.86.32,4,1.43.49.48,1.08.87.88,1.65s-.88,1-1.56,1a9.26,9.26,0,0,1-4-.22,5.68,5.68,0,0,0-5.15.72Z"/><path class="cls-101" d="M178.89,117.6a3.68,3.68,0,0,1,4.56-1.46,10,10,0,0,0,3.72.31c.68,0,1.79.39,1.87-.72.07-.86-1-1.1-1.65-1.39-.93-.39-2.2-.1-2.67-1.37,2.58-.41,4.74,1,7.07,1.69.65.18,1.76.65,1.49,1.8s-1.18,1-2.05,1.17a18.17,18.17,0,0,1-8.42-.4,3.28,3.28,0,0,0-2.73.41Z"/><path class="cls-104" d="M175.42,102.51c2,0,4-.25,5.71,1.32,1.42,1.33,1,2.23-.55,2.65-2.84.76-5.75,1.24-8.61,1.94a2,2,0,0,1-2.57-1.16c-.61-1.23.52-1.66,1.06-2.38,1.1-1.48,3.47-.57,4.39-2.36Z"/><path class="cls-105" d="M159.75,61.88a17,17,0,0,0,9.49,1.74c1.29-.15,2.1.86,3.17,1.25A15.21,15.21,0,0,0,178.9,66h0c1.09,1.19,3.28-.16,4.07,1.75,3.34,3.37,7.68,5.18,11.61,7.65,3.24,2,7.52,3,9.19,7.13a8.91,8.91,0,0,1,.7,3.62,16.24,16.24,0,0,0,.57,6c-2.35-.3-2.26-2-2.23-3.77,0-1.46,1.08-2.81.49-4.35a19.08,19.08,0,0,0-8.36-6.76c-4.95-2-8.75-5.8-13.49-8.11-1.39-.67-2.84-.47-4.11-1.06-6.16-2.9-13.09-1.89-19.51-4-3.67-1.23-8.11,1.47-12.35,1.32-.37,0-.83.47-1.13.82A8.54,8.54,0,0,1,139,69.33,18.28,18.28,0,0,0,131.46,73a17.07,17.07,0,0,0-4.84,6.89,13.19,13.19,0,0,1,10.13-12.31c2.22-.48,5.15-.62,5.6-3.92l.36-.36C148.37,62.54,154,60.94,159.75,61.88Z"/><path class="cls-106" d="M203.3,83.94c1,1.26.67,2.67.29,4A3.35,3.35,0,0,0,205,92.06l2.9,8.72v1.74c-2.51-3.76-3.93-8-5.63-12.16C201.42,88.2,202.59,86,203.3,83.94Z"/><path class="cls-105" d="M125.48,88.56c.43-2.7-1-5.66,1.17-8.1,0,2,0,4,0,6,0,1.08,0,2.13-1.15,2.71-.17-.14-.23-.28-.19-.42S125.42,88.56,125.48,88.56Z"/><path class="cls-35" d="M125.48,88.56l0,.64c-.3,1.56.77,3.47-1.17,4.62C124.28,92,124.26,90.13,125.48,88.56Z"/><path class="cls-107" d="M141.75,104.84c-1.46-1.35-3.71-.87-5.18-2.26-.57-.55-1.3-.9-1.06-1.83s1-1,1.79-1.14c3.4-.54,6,.86,8.09,3.35.41.49,1.13.91.69,1.71s-1.06.52-1.76.37a18.18,18.18,0,0,0-2.57-.2Z"/><path class="cls-108" d="M137.69,114.12c-1.05-2.21-2.95-2.48-5.09-2.33-.62,0-1.47.18-1.69-.69s.47-1.48,1.22-1.66a17.15,17.15,0,0,1,10.69.39c.59.24,1.41,1.08.91,1.51-1.06.91-1.64,2.46-3.16,2.75a15.25,15.25,0,0,1-2.87,0Z"/><path class="cls-19" d="M142.34,54.92c-1.32,1.43-5.46,1.57-6.89.22-.2-.19-.5-.54-.44-.69,1-2.56.77-5.19.59-7.86,0-.76,1-1.22,1.77-1.21A2.32,2.32,0,0,1,139.53,47c.72,2.06,1.28,4.34,4.32,2.74,2-1,3.07-4.7,2.05-6.86a10.22,10.22,0,0,1-1.16-2.28c-.27-1.37.17-2.56,1.83-1.54,1.5.93,4.54.21,4.53,1.7a9,9,0,0,1-2.81,6.05c-1.87,1.76-3.48,3.51-3.06,6.31Z"/><path class="cls-85" d="M144.07,42.14c-1.2-1.09-3.28-1.8-1.74-4.06C141.88,39.87,144.08,40.53,144.07,42.14Z"/><path class="cls-109" d="M165,206.44c2,2.59-1.32,3.47-1.71,5.3-.63,1.49-2.61,1.76-3.08,3.4-3.3,1.48-4.61,4.65-6.34,7.47-1.16,1.75-2.88,3.14-3.4,5.29-.65,1.17-1.28,2.37-2.9,2.33a2.41,2.41,0,0,0-.83.2c-3.78,2.51-3.77,2.51-4.91-1.93,3.89,0,6.22-2.15,8.36-5.25,3.18-4.6,7-8.74,10.46-13.13,2-2.52,2.13-3.15-.36-5.13a35.7,35.7,0,0,0-6-4,24.78,24.78,0,0,1-8.18-5.89,6.28,6.28,0,0,0-7.8-1.94c-2.59,1-2.95,1.55-2.34,4.34a7,7,0,0,0,3.16,4.63c4.23,2.75,5,6.12,2.27,10.27-1,1.6-.78,3.58-1.92,5.08-.86-2.13-1.39-4.31-.43-6.53a3.48,3.48,0,0,0-.24-3.53c-2.05-3-4.14-6.08-6.21-9.11a63.06,63.06,0,0,1-2.43-18.07c0-2.47,1.09-4.68,1.26-7.08a.79.79,0,0,1,.68-.81c.6-.07.76.35,1,.83,4.11,9.78,11.87,16.5,19.55,23.3a35.34,35.34,0,0,0,8.28,6Z"/><path class="cls-93" d="M176,208.18c1.21-.49,1.91-2,3.48-1.76a4.39,4.39,0,0,1-3.48,2.34Z"/><path class="cls-72" d="M139.42,217.47a8.29,8.29,0,0,1,1.49-5.75c2.27-3.33,1.78-6.79-1.84-8.69-2.94-1.54-3.65-4-4.22-6.76-.36-1.7.13-2.81,2.06-3.46,5.24-1.74,6.91-1.43,10.53,2.74,1.89,2.18,4.41,3.41,6.89,4.66a41.45,41.45,0,0,1,7.39,5c1.75,1.41,1.84,2.67.28,4.59-4.18,5.13-8.75,9.94-12.34,15.55a6.76,6.76,0,0,1-7.86,3.13C141.24,224.77,139.08,221.39,139.42,217.47Z"/><path class="cls-110" d="M147.54,230.23l2.9-2.33c.31,1.58,1.52,1.31,2.47,1,3.8-1.18,6.07.81,8,3.65-2.54-.67-5.1-1.25-7.59-2a2.45,2.45,0,0,0-2.87.6,3.91,3.91,0,0,1-.84.79c-1,.48-1.91,2.06-2.86,1.3C145.59,232.29,147.13,231.23,147.54,230.23Z"/><path class="cls-111" d="M191.6,245.62c-.19,3.6-2.56,7.36-3.66,11.52-.34,1.3-1.72,1.33-2.39.07-2.73-5.09-5.37-10.23-8-15.38-1-1.91,0-3.72,2.23-4.43,4-1.26,9.73,1.34,11.41,5.19A5.28,5.28,0,0,1,191.6,245.62Z"/><path class="cls-87" d="M183,67.7c-1.06-1.27-3.4.42-4.07-1.75h3.48c.39.58.78,1.15,1.18,1.72Z"/><path class="cls-86" d="M142.35,63.64c-4.6,2-9.95,2.63-13.37,7a9.53,9.53,0,0,1,7-5.7,10.17,10.17,0,0,0,4-1.34c3.94-2.63,8.49-1.73,12.79-2.27l0,0c-.07,1.34-1.14,1-1.93,1.13-2.84.39-5.75.27-8.51,1.19Z"/><path class="cls-112" d="M169.05,142l1.15-1.17c1.42-1,2.72-2.18,4.53-.44,2.39,2.29,2.32,4-.52,5.68-1.46.88-3.24,1.33-2.59,3.81.29,1.11-1.07.78-1.74.8-3.1.1-6-1.1-9.11-1.3-4.39-.29-8.76-1.11-13.2-1-.92,0-2.53.53-2.44-1.08.06-1.22.61-2.74,2.31-2.92a6.62,6.62,0,0,1,2.88.08c5.32,2,10.57,1.11,15.82-.22A4.25,4.25,0,0,0,169.05,142Z"/><path class="cls-113" d="M159.18,139.68H165c.71.66,2.32.59,1.92,2.11-.31,1.21-1.44,1.1-2.4,1.07a7.19,7.19,0,0,0-3,.88c-4.55,1.59-8.48-1.25-12.73-1.85a2,2,0,0,1-1.7-2.32c.18-1.43,1.38-1,2.26-1.08s1.91,0,2.87,0c2.24.91,4.44,2.09,7,1.16Z"/><path class="cls-114" d="M161.49,143.73a3.29,3.29,0,0,1,2.52-1.15c.84-.05,1.89.22,2.32-.71.58-1.24-1.28-1.22-1.35-2.2a20.84,20.84,0,0,0,2.5,0c2.14-.28,2,.85,1.52,2.29C166.68,143.29,164,143.27,161.49,143.73Z"/><path class="cls-80" d="M159.17,139.68a5.93,5.93,0,0,1-7-1.16C154.61,138.32,156.68,140.29,159.17,139.68Z"/><path class="cls-115" d="M172.57,156c-2.19,1.86-4.74,1-7.17.88a1.47,1.47,0,0,1-1.33-1.62c.08-.82.8-1.06,1.49-1,3.76.11,7-2.41,10.89-1.89.93.13,2.2-1,2.74.42s-1.13,1.2-1.73,1.8c-.19.18-.22.52-.32.78l-2.28.73,0-.23c-.3-1.11-.85-1.85-2.16-1.42-.42.14-1.12,0-1.08.64C171.61,155.47,172.35,155.54,172.57,156Z"/><path class="cls-84" d="M50.59,265.66c1.67.71,3.31,1.54,5.23,1.16,1,.7,2,1.49,3.08,2.09.87.49,1.9,1.36,2.84.22a2.78,2.78,0,0,0,.15-3.28c-2-3.12-2.15-7-4-10.17-.93-1.6,1.77-5.05,4.27-5.56,2.19-.46,2.7,1.08,3.09,2.87a55.15,55.15,0,0,0,5.41,14.16c3.15,5.81,6,12.12,11.2,16.69,1.8,1.59,3,3.65,4.94,5.2,2.14,1.75-.16,3.41-.8,5.07H82c-.51-2.47-1.49-4.74-1.41-7.47.06-2-1.72-4.21-3.17-5.92A65.62,65.62,0,0,1,73,274.29c-.73-1.11-1.12-2.42-2.9-2.34a1.32,1.32,0,0,1-1.25-1.63c1.22-2.84-1-5.16-1-7.86,0-2.89-3.81-6.26-6.7-6.91-1.64-.36-1.45.95-1.18,1.52,1.21,2.52,1.46,5.33,2.53,7.88.14.35.6.64.61,1,0,1.67,1.68,3.51.32,4.92-1.52,1.58-2.93-.45-4.34-1-1.86-.68-3.38-2.08-5.6-2A3.41,3.41,0,0,1,50.59,265.66Z"/><path class="cls-83" d="M142.35,63.64c2.58-2,5.81-.73,8.6-1.72.6-.22,1.36,0,1.84-.6,2.32.12,4.64-.83,7,0,0,.19,0,.38,0,.57C153.86,61.6,148.23,63.85,142.35,63.64Z"/><path class="cls-116" d="M172.57,156c-.85-.42-2.52.63-2.56-.89,0-1,1.46-1.38,2.54-1.47s1.92,0,2.86,0c.35,1-.7,1.42-.58,2.21Z"/><path class="cls-117" d="M145.45,151.26c1.17.23,2.59.18,2.61,1.94,0,.89-.73,1.12-1.42.92-1.14-.35-2.65-.38-2.86-1.93C143.62,150.92,144.78,151.45,145.45,151.26Z"/><path class="cls-14" d="M190.92,125.16c1.52,0,2.78,0,4,0,2.47,0,3.22,1,2.32,3.19-1.2,3-3.14,5.49-6.56,5.89-5,.6-10,.33-14.21-3.1-.95-.78-2.18-1.74-1.48-3.14a3.78,3.78,0,0,1,3.49-2.2C182.77,126.06,186.94,124.82,190.92,125.16Z"/><path class="cls-118" d="M176.76,112.94c.37,0,.57,0,.76,0,1,.09,2.2-.26,2.88.85.34.57.13,1.06-.41,1.49-1,.81-2,1.48-3.41,1.07-.09,0-.21,0-.26-.11-.76-1.07-3.18-.61-2.87-2.26S175.72,113.22,176.76,112.94Z"/><path class="cls-119" d="M141.58,111.3c-.26,1.06-.79,2-1.88,1.9a2.75,2.75,0,0,1-2.63-2.27c-.27-1.63,1.18-.77,1.79-.83C139.92,110,141.25,109.72,141.58,111.3Z"/></svg>