<svg width="205" height="195" viewBox="0 0 205 195" fill="none" xmlns="http://www.w3.org/2000/svg">
<g filter="url(#filter0_d_41_8)">
<path d="M198 17.9693L127.407 176H28L50.5706 25.6547L154.78 5.00024L198 17.9693Z" fill="#FFFDE7"/>
<path d="M198 17.9693L127.407 176H28L50.5706 25.6547L154.78 5.00024L198 17.9693Z" stroke="#CCAB01" stroke-width="3"/>
</g>
<g clip-path="url(#clip0_41_8)">
<path d="M68.896 170.696C75.1037 172.112 81.0303 175.025 87.6541 174.25C87.8073 172.769 87.312 171.257 87.8705 169.787C88.3766 166.812 89.4458 163.795 87.4761 160.907C86.6985 160.114 85.7266 159.54 84.6575 159.24C80.9933 158.301 77.3914 157.088 73.5846 156.831C72.8373 156.862 72.1005 157.018 71.4045 157.291C69.577 158.417 67.1138 158.641 66.0103 160.875C64.8588 164.771 67.5909 167.522 68.896 170.696Z" fill="#7D242B"/>
<path d="M96.3089 174.962L105.274 175.147C108.443 172.585 109.442 169.183 109.085 165.262C108.937 164.716 108.673 164.208 108.312 163.773C107.95 163.338 107.499 162.986 106.989 162.74C103.699 162.818 100.552 162.026 97.4563 160.959C94.2668 164.13 93.6659 169.733 88.2197 170.803C86.7423 173.296 89.4767 173.397 90.348 174.557L96.3089 174.962Z" fill="#8C373A"/>
<path d="M52.9385 140.122C51.0068 143.683 49.0721 147.241 47.1347 150.797C45.3811 152.546 43.7663 154.359 44.1454 157.119L47.5066 159.895C51.1629 161.349 52.6707 159.215 53.3298 156.163C53.7635 154.131 53.9976 152.05 54.7783 150.098C55.0013 146.49 57.5652 143.634 58.0293 140.096C57.9819 139.599 57.8278 139.118 57.5775 138.686C57.3272 138.254 56.9867 137.882 56.5792 137.594C54.1233 136.699 54.0132 139.095 52.9385 140.122Z" fill="#D8B3A2"/>
<path d="M62.3128 167.807L62.8102 168.095L63.3727 168.203C66.0175 169.945 67.568 169.692 66.7471 166.105C66.331 164.292 65.2025 162.624 65.4138 160.656C64.7997 156.712 61.9663 155.001 58.5871 153.806C57.8273 153.7 57.0538 153.747 56.3122 153.944C55.5707 154.141 54.876 154.484 54.2691 154.953C53.1071 156.796 51.9147 158.636 51.7677 160.909C55.1585 163.419 59.0201 165.172 62.3128 167.807Z" fill="#B95B64"/>
<path d="M52.294 160.889C53.234 159.116 54.1707 157.342 55.1041 155.567C56.4301 154.38 57.8318 153.263 58.238 151.385C58.2568 151.022 58.2 150.659 58.0711 150.32C57.9422 149.98 57.744 149.671 57.4893 149.412C56.1697 148.477 54.8476 148.245 53.4552 149.24C53.2187 151.31 48.8772 151.609 51.4835 155.31C52.8038 157.186 49.9586 159.254 47.4907 159.896C48.495 161.523 50.0351 162.151 51.8601 162.125C52.3719 161.998 52.5988 161.791 52.5453 161.442C52.4918 161.093 52.4353 160.924 52.294 160.889Z" fill="#CCA89B"/>
<path d="M64.1275 160.654C61.9621 162.983 67.7969 166.1 63.3689 168.217C64.7886 169.983 66.8678 170.289 68.8926 170.71C70.6035 167.081 67.7406 164.526 66.7366 161.535C66.1524 160.383 65.2574 160.157 64.1275 160.654Z" fill="#B54D5C"/>
<path d="M52.2944 160.889C52.0562 161.264 51.9073 161.689 51.8593 162.13C54.7502 165.075 58.1143 167.232 62.3128 167.807C60.0926 163.881 56.9098 161.345 52.2944 160.889Z" fill="#B54D5C"/>
<path d="M44.1306 157.115C45.8928 155.374 46.6568 153.155 47.1199 150.794C44.7092 150.68 44.1116 153.586 41.9493 153.89C41.5866 155.697 42.0094 156.979 44.1306 157.115Z" fill="#CCA89B"/>
<path d="M90.3575 174.56L88.2853 171.228C87.5532 170.236 86.6299 169.916 85.4757 170.448C82.4537 173.862 86.6454 173.144 87.6395 174.246L90.3575 174.56Z" fill="#973B41"/>
<path d="M117.942 171.738C123.375 170.887 128.224 168.465 133.096 166.101C132.367 162.769 130.4 160.269 127.81 158.2C123.691 157.236 122.566 151.089 117.302 152.112C116.669 152.354 116.143 152.814 115.82 153.41C115.364 155.261 115.765 157.282 114.767 159.046C114.378 160.309 114.314 161.649 114.581 162.943C116.694 165.499 116.063 169.11 117.942 171.738Z" fill="#AD565D"/>
<path d="M122.607 165.303C128.065 164.437 132.896 162.006 137.766 159.647C137.037 156.315 135.07 153.815 132.481 151.741C128.362 150.782 127.237 144.635 121.973 145.658C121.34 145.898 120.815 146.357 120.491 146.951C120.034 148.807 120.435 150.828 119.437 152.592C119.049 153.854 118.986 155.194 119.251 156.488C121.366 159.04 120.714 162.651 122.607 165.303Z" fill="#AD565D"/>
<path d="M107.632 163.989L105.274 175.147L111.475 173.658C114.225 169.04 111.814 164.167 112.204 159.422C111.157 157.149 113.461 153.273 108.972 152.642C107.442 153.355 106.74 154.675 106.285 156.206C105.224 159.065 105.896 161.618 107.632 163.989Z" fill="#876957"/>
<path d="M110.363 160.265C110.726 164.732 111.1 169.197 111.484 173.66L114.666 172.972C116.889 171.06 117.734 168.721 116.892 165.848C113.786 163.925 115.283 160.449 114.216 157.841C113.652 157.335 112.934 157.035 112.177 156.992C110.361 157.423 109.578 158.418 110.363 160.265Z" fill="#8C745F"/>
<path d="M138.191 163.182C138.396 162.27 138.551 161.348 138.655 160.419C138.719 159.365 139.883 158.06 138.646 157.373C138.22 157.134 136.908 158.495 135.999 159.123C134.103 159.08 132.568 159.75 131.535 161.407C131.287 162.073 131.225 162.794 131.357 163.492C132.084 165.046 133.41 165.285 134.922 165.125L138.191 163.182Z" fill="#B9A895"/>
<path d="M115.012 165.89C116.48 168.319 115.08 170.625 114.666 172.972L117.94 171.743C118.754 168.441 120.327 164.932 115.682 163.044C114.517 163.769 114.371 164.735 115.012 165.89Z" fill="#95645A"/>
<path d="M134.922 165.125L131.995 162.6C131.643 161.785 131.873 160.875 131.592 160.042C131.347 159.498 130.976 159.02 130.51 158.646C130.045 158.273 129.498 158.015 128.913 157.893C128.317 157.868 127.726 158.006 127.203 158.293C126.979 158.479 126.825 158.734 126.764 159.018C126.704 159.302 126.74 159.598 126.868 159.859C129.141 161.747 129.935 165.11 133.081 166.097L134.922 165.125Z" fill="#A67A75"/>
<path d="M139.27 73.5549C139.737 73.6047 140.199 73.6943 140.651 73.8229C140.999 73.4798 141.337 73.1343 141.701 72.79L141.287 70.9675C141.266 67.9707 143.443 65.1797 142.112 62.0668C138.13 65.1412 137.088 68.9506 139.27 73.5549Z" fill="#4E443D"/>
<path d="M114.471 22.5473C105.701 18.7375 98.0047 23.6554 89.9233 25.5438C89.6373 25.8078 89.4428 26.1561 89.3681 26.5381C89.2935 26.9202 89.3425 27.3161 89.5081 27.6683C90.0714 28.7372 91.0227 29.4264 91.9473 30.14C101.33 34.7107 111.784 35.6082 121.594 38.6103C126.432 35.752 125.318 32.7284 121.083 31.0232C117.99 29.7753 114.946 28.8594 112.502 26.1542C115.33 28.7681 117.835 31.4938 121.995 29.1865C123.459 25.0728 118.997 24.8308 117.661 22.5173C117.173 22.2444 116.621 22.1036 116.062 22.1088C115.502 22.1141 114.954 22.2652 114.471 22.5473Z" fill="#2C2018"/>
<path d="M55.3212 124.692L54.167 127.048C56.1375 131.631 53.1847 135.749 52.9241 140.118C54.0278 139.414 55.1278 138.703 56.2267 137.997C59.9134 138.007 60.6942 134.965 62.0306 132.499C62.1867 131.813 62.2267 131.105 62.149 130.405C61.5102 127.463 59.0999 126.006 57.0341 124.22C56.7389 124.083 56.4048 124.056 56.0912 124.142C55.7776 124.228 55.5048 124.423 55.3212 124.692Z" fill="#EC8E90"/>
<path d="M85.4757 170.448L88.2853 171.228C95.6564 172.011 96.9469 170.779 98.0998 161.763C100.399 162.769 102.714 163.629 105.236 162.515C107.013 160.819 106.085 158.673 106.194 156.7C104.253 153.949 101.413 155.259 98.8966 155.072C96.8476 155.44 95.7129 157.067 94.3349 158.36C93.2376 159.878 91.8158 160.803 89.864 160.756C88.9422 160.895 88.1115 161.389 87.5507 162.134C85.517 164.557 86.6874 167.817 85.4757 170.448Z" fill="#822A2E"/>
<path d="M64.1274 160.654L66.7402 161.52L71.6643 159.675C70.7221 157.314 68.4632 156.039 67.0829 154.03C66.3981 153.362 65.62 152.798 64.7729 152.355C62.6664 151.531 60.5823 150.49 58.2586 151.679C57.7449 152.715 54.7325 153.512 57.9371 154.912L64.1274 160.654Z" fill="#992F3C"/>
<path d="M65.4536 155.168C66.6962 157.82 68.7344 159.361 71.669 159.676C71.7795 159.228 71.8899 158.78 72.0004 158.332C72.0176 158.011 72.0348 157.689 72.058 157.364C71.6439 155.754 71.8258 154.114 71.818 152.469C71.4745 149.419 70.5265 146.788 67.1725 145.847C66.7956 145.819 66.417 145.869 66.0601 145.993C65.7032 146.118 65.3757 146.314 65.0979 146.571C62.4979 149.552 64.7689 152.328 65.4536 155.168Z" fill="#933A41"/>
<path d="M72.0251 158.338L84.7087 161.382C85.9057 159.817 85.283 158.423 84.3063 157.061C83.7554 156.474 83.1226 155.97 82.4276 155.565C79.0535 154.077 75.6296 152.959 71.9194 154.323C69.9625 155.701 70.9987 157.01 72.0202 158.316L72.0251 158.338Z" fill="#651C1B"/>
<path d="M84.0374 158.256C84.2655 159.301 84.4957 160.344 84.7279 161.387L87.5555 162.115L90.3745 162.773C93.5688 161.427 92.7552 159.697 90.5811 158.288C88.5362 156.962 86.2268 156.563 84.0374 158.256Z" fill="#742022"/>
<path d="M105.327 162.145C103.039 161.179 100.486 161.038 98.1048 161.744C99.9002 164.542 101.816 166.833 105.11 163.445C105.548 163.222 105.747 162.956 105.644 162.641C105.541 162.326 105.464 162.178 105.327 162.145Z" fill="#993C40"/>
<path d="M105.327 162.144C105.257 162.577 105.182 163.008 105.11 163.445L107.637 163.99C107.823 161.577 108.019 159.17 108.21 156.758C108.098 156.5 107.935 156.268 107.73 156.075C107.525 155.883 107.283 155.734 107.019 155.638C106.455 155.582 105.892 155.747 105.448 156.098C105.406 158.113 105.366 160.129 105.327 162.144Z" fill="#71302A"/>
<path d="M53.4564 149.235L57.4978 150.153C58.2535 150.013 58.9473 149.643 59.4849 149.093C60.7287 147.596 61.481 145.752 61.6393 143.812C61.7122 142.279 61.9115 140.737 61.0551 139.327C59.6035 137.859 58.3923 138.413 57.2786 139.786C55.4083 142.679 51.1976 144.648 53.4564 149.235Z" fill="#CFBFA3"/>
<path d="M57.2836 139.767L60.4494 138.997C61.2547 138.89 62.0169 138.57 62.6576 138.07C63.2983 137.571 63.7945 136.91 64.0951 136.155C64.6169 133.514 64.6627 131.169 60.9314 131.298L56.2289 137.988L57.2836 139.767Z" fill="#E8BBA4"/>
<path d="M57.9373 154.912C57.1107 153.675 58.0988 152.957 58.7348 152.137C58.6987 151.995 58.6319 151.863 58.5391 151.749C58.4463 151.636 58.3297 151.544 58.1976 151.481C58.0656 151.417 57.9212 151.383 57.7746 151.381C57.628 151.38 57.4828 151.41 57.3492 151.47C55.6388 152.31 55.1863 153.831 55.1045 155.567C56.0504 155.349 56.9947 155.131 57.9373 154.912Z" fill="#90564E"/>
<path d="M57.3491 151.47L58.7347 152.138C60.6208 152.556 62.1852 154.3 64.3641 153.489C65.1903 152.38 64.6372 151.438 64.0099 150.503C62.5463 148.308 60.6763 147.615 58.2556 148.925C57.9954 149.331 57.7449 149.739 57.498 150.153C57.5015 150.597 57.4514 151.039 57.3491 151.47Z" fill="#D46774"/>
<path d="M126.863 159.858L127.223 158.272C127.247 157.943 127.278 157.609 127.317 157.262C126.855 155.283 125.878 153.461 124.485 151.981C122.797 150.738 121.124 149.458 118.933 149.228C118.22 149.265 117.531 149.495 116.939 149.894C116.594 150.3 116.387 150.807 116.348 151.339C116.31 151.871 116.443 152.402 116.727 152.854C121.471 153.207 122.072 159.571 126.863 159.858Z" fill="#A85E67"/>
<path d="M115.012 165.891L115.683 163.044L116.694 158.813C117.742 157.392 117.087 156.275 116.029 155.224C115.726 155.073 115.389 155.001 115.05 155.015C114.712 155.029 114.382 155.128 114.092 155.304C113.738 155.684 113.519 156.169 113.467 156.686C113.416 157.202 113.535 157.721 113.806 158.163C113.18 160.913 112.236 163.672 115.012 165.891Z" fill="#AC7A6B"/>
<path d="M114.591 155.293C115.033 155.428 115.474 155.567 115.912 155.717C116.1 155.66 116.264 155.544 116.379 155.386C116.495 155.228 116.555 155.037 116.552 154.841C116.528 154.479 116.448 154.299 116.331 154.27C116.451 153.783 116.563 153.33 116.713 152.866L117.434 149.943C118.131 149.211 118.654 148.348 117.883 147.47C116.613 146 115.331 146.945 114.095 147.663C112.076 150.338 111.967 152.9 114.591 155.293Z" fill="#945B5A"/>
<path d="M116.331 154.27L115.912 155.717L116.699 158.814C119.27 157.082 118.876 155.6 116.331 154.27Z" fill="#9D4E4D"/>
<path d="M134.937 151.38C134.616 154.778 134.293 158.181 132.511 161.219C134.25 161.482 135.408 160.765 136.013 159.127C136.675 156.401 137.565 153.65 134.937 151.38Z" fill="#A59984"/>
<path d="M106.801 156.375L108.254 156.769L109.47 152.589L108.929 151.83C107.298 150.943 105.401 150.672 103.857 149.578C102.386 148.838 101.002 147.934 99.4394 147.378C98.3946 147.08 97.2785 147.158 96.2851 147.598C94.0267 149.402 92.477 151.371 94.7739 154.211C96.7181 155.651 99.0602 154.136 101.075 155.061C102.841 155.879 105.235 154.346 106.801 156.375Z" fill="#743B2D"/>
<path d="M110.363 160.265L112.475 157.799C114.74 154.456 114.528 151.924 110.173 150.747C109.98 150.798 109.8 150.887 109.643 151.009C109.485 151.13 109.353 151.281 109.254 151.454C109.156 151.627 109.092 151.817 109.067 152.014C109.043 152.212 109.057 152.412 109.11 152.604L109.427 152.578C111.083 154.976 108.537 157.887 110.363 160.265Z" fill="#89725D"/>
<path d="M109.911 151.138C113.06 152.472 113.261 154.945 112.475 157.799C112.928 157.911 113.386 158.024 113.832 158.165C114.072 157.19 114.335 156.248 114.591 155.293C114.673 152.823 114.765 150.353 114.867 147.885C114.924 147.391 114.823 146.892 114.577 146.459C114.332 146.027 113.955 145.685 113.501 145.481C112.844 145.315 112.154 145.33 111.505 145.525C110.855 145.72 110.271 146.087 109.813 146.587C109.167 147.402 108.846 148.428 108.913 149.465C109.035 150.124 109.389 150.718 109.911 151.138Z" fill="#9A7A69"/>
<path d="M131.009 160.626L132.402 155.224C132.102 154.117 131.824 152.979 130.314 153.005C127.54 154.263 127.461 156.321 128.627 158.737L131.009 160.626Z" fill="#756F64"/>
<path d="M128.628 158.737C129.201 156.812 129.268 154.612 131.408 153.517C132.03 150.72 130.231 151.016 128.49 151.248C126.022 153.145 126.274 155.563 127.183 158.102L127.222 158.277L128.628 158.737Z" fill="#787371"/>
<path d="M136.274 35.6719L131.024 34.1452C130.577 34.4043 130.21 34.7819 129.964 35.2365C129.718 35.691 129.602 36.2046 129.63 36.7207C133.568 41.975 136.911 47.511 137.747 54.2222C140.003 60.2449 137.232 64.6976 133.19 68.7493C132.558 69.5972 132.106 70.5656 131.863 71.5948C131.513 73.0171 131.847 74.4688 131.72 75.9049C131 80.1915 129.468 84.4332 131.117 88.8336C131.434 89.5021 131.978 90.0369 132.651 90.3433C134.367 90.6577 135.391 89.7113 136.23 88.4042C136.49 87.7314 136.509 86.9889 136.282 86.3039C137.284 82.0729 138.287 77.83 139.291 73.5754C140.234 69.7469 141.178 65.9167 142.123 62.0849C145.299 52.1361 138.846 44.335 136.274 35.6719Z" fill="#302923"/>
<path d="M139.514 54.141C138.291 47.4275 137.894 40.2768 130.317 36.9522C128.06 33.6781 126.959 29.1956 121.863 28.9058C116.057 29.6757 112.904 22.0937 106.652 23.9991C112.523 25.5237 114.756 32.7134 121.529 33.0499C123.802 33.1556 122.889 36.17 122.603 38.0216C122.507 39.9614 123.613 41.1538 125.112 42.0967C126.916 42.8463 129.336 43.0294 128.7 46.0295C128.79 46.9417 129.153 47.8055 129.742 48.5082C131.342 49.879 133.3 50.8423 134.414 52.7599C135.264 53.7352 136.413 54.4032 137.681 54.6606C138.332 54.6904 138.975 54.5081 139.514 54.141Z" fill="#241C16"/>
<path d="M126.469 40.4886L122.617 38.0253C120.75 35.7464 118.475 34.9789 115.434 34.3842C107.594 32.86 99.368 32.2119 92.3882 27.6186C89.157 31.0435 90.9635 33.168 94.3653 34.5852C97.2055 35.7658 100.369 36.1167 102.998 37.8601C103.967 38.3894 105.012 38.7687 106.095 38.9851C108.052 39.1782 109.938 39.5759 111.394 41.0872C116.512 41.8319 118.068 47.3824 122.396 49.1932C124.124 49.2885 125.608 48.4866 127.153 47.9011C127.579 47.6591 127.944 47.3241 128.222 46.9213C128.5 46.5184 128.684 46.058 128.76 45.5743C128.957 43.4322 127.27 42.1638 126.469 40.4886Z" fill="#322923"/>
<path d="M105.052 36.6975C102.552 34.2625 99.2697 33.7222 96.0868 33.01C93.0841 32.3422 91.4343 30.9228 92.3883 27.6186L89.6508 26.9439C89.0446 27.6469 88.2658 28.1799 87.3911 28.4907C86.5164 28.8014 85.5759 28.8791 84.662 28.7161C83.2872 30.9607 76.6869 32.2272 83.2225 36.0651C83.9979 36.3036 84.8092 36.4039 85.6193 36.3614C90.1646 36.2417 94.3405 38.0822 98.7218 38.7747C101.081 39.1392 103.97 40.4973 105.052 36.6975Z" fill="#2B211B"/>
<path d="M121.878 28.9094C125.739 30.4967 126.785 35.0377 130.332 36.9558L131.024 34.1452L123.866 26.6507L118.734 23.5722C118.258 23.5787 117.778 23.5949 117.296 23.6208C117.734 26.3327 120.821 26.7422 121.878 28.9094Z" fill="#2D2620"/>
<path d="M57.6469 86.1829L58.841 86.3274C59.3845 85.7804 59.8934 85.2001 60.3647 84.5898C60.3479 84.658 60.8426 84.5164 60.8426 84.5164C60.8426 84.5164 61.2764 84.706 61.2705 84.7717C62.0305 86.1113 62.6486 87.5657 63.9672 88.211C66.4379 88.7942 68.8092 90.5981 71.5059 88.1265C72.7847 85.1814 70.0361 84.0906 70.0101 81.7436C69.6909 79.4121 69.5417 76.978 67.8346 75.498C67.1345 75.0141 66.2886 74.7874 65.4404 74.8561C63.5599 75.4001 61.722 76.3163 59.7955 76.5648C58.4723 77.1119 56.9706 77.4186 56.7553 79.6338L56.888 84.4613C56.0664 85.8244 56.5811 86.2096 57.6469 86.1829Z" fill="#936C53"/>
<path d="M56.3366 76.7199C58.6503 77.2902 61.137 78.6678 62.713 75.4602C63.4733 74.3042 62.8432 73.6115 61.9104 73.0147C60.0818 72.3212 58.5929 73.1839 57.1016 74.0563L55.3042 75.06C55.3373 75.3974 55.4476 75.7226 55.6266 76.0105C55.8057 76.2983 56.0486 76.5411 56.3366 76.7199Z" fill="#705138"/>
<path d="M63.5284 71.8583L62.4716 70.1925C59.8568 70.1731 57.0432 70.0169 60.0014 73.7997C61.1876 73.138 62.3632 72.4908 63.5284 71.8583Z" fill="#644B32"/>
<path d="M139.255 97.3653L138.577 95.5035C137.411 92.9631 135.048 93.0525 132.79 92.8008C132.123 92.8563 131.474 93.0482 130.884 93.3643C130.377 93.8179 129.978 94.3804 129.719 95.0096C129.546 95.6719 129.497 96.3606 129.575 97.0408C129.793 98.0655 130.27 99.0173 130.96 99.8055C133.943 102.608 136.615 101.494 139.171 99.1116C139.395 98.8804 139.527 98.5757 139.542 98.2543C139.558 97.933 139.456 97.6169 139.255 97.3653Z" fill="#89533E"/>
<path d="M132.52 93.9588C134.134 96.0463 136.976 93.3418 138.577 95.5035L138.645 93.1331C138.245 92.9336 137.866 92.6948 137.513 92.4202C134.562 91.6926 135.396 89.4389 135.493 87.4735L133.353 89.8654C132.052 91.0171 131.719 92.3663 132.52 93.9588Z" fill="#956B57"/>
<path d="M56.8415 87.4158C56.5219 92.3179 56.2011 97.2179 55.879 102.116L57.7282 107.191C58.8815 107.899 60.0501 108.419 61.3504 107.567C62.9298 104.262 66.7402 103.036 68.5282 99.912C69.2886 97.6865 68.875 95.864 66.7658 94.5897C63.1215 94.5336 61.9705 92.3278 62.0534 89.057C61.7705 88.4231 61.3496 87.8604 60.8215 87.4099C60.2354 87.0081 59.5412 86.7936 58.8306 86.7946C58.12 86.7957 57.4264 87.0123 56.8415 87.4158Z" fill="#A96F53"/>
<path d="M55.3213 124.692L55.8084 124.812L56.3207 124.83C57.9504 126.079 59.5991 127.188 61.6721 125.632C62.6335 124.628 63.1869 123.302 63.2246 121.912C62.8922 118.81 62.2215 115.753 61.2245 112.796C60.4415 111.11 59.5082 109.614 57.2946 109.874C58.2862 115.032 56.8214 119.864 55.3213 124.692Z" fill="#936144"/>
<path d="M57.2944 109.874L59.3512 113.373C61.4499 115.507 62.62 114.302 63.5549 112.208C63.7829 110.507 63.0899 109.21 61.7883 108.181L60.7161 107.752C59.7931 107.178 58.9599 106.135 57.7527 107.197C57.5853 108.086 57.4423 108.98 57.2944 109.874Z" fill="#B0795A"/>
<path d="M61.8077 121.455C61.4619 122.857 61.1173 124.255 60.7715 125.658C60.471 126.322 60.3656 127.058 60.4677 127.779C60.5699 128.501 60.8753 129.178 61.3483 129.732C61.2175 130.263 61.0634 130.783 60.924 131.307C63.4853 132.424 63.0419 134.475 62.5438 136.537C60.8986 137.971 60.9916 139.983 60.7789 141.894C62.8378 143.792 64.3153 142.43 65.7865 141.01C66.4508 140.06 66.8739 138.962 67.0195 137.811C66.6279 134.578 67.913 131.314 66.9715 128.091C65.7613 126.02 65.4379 123.497 63.7381 121.672C63.4561 121.487 63.1343 121.37 62.7989 121.333C62.4635 121.295 62.1239 121.337 61.8077 121.455Z" fill="#946B57"/>
<path d="M61.3532 129.734C61.514 128.327 61.7988 126.898 60.7763 125.66C59.267 125.494 58.0939 123.588 56.3289 124.837C56.272 128.254 59.0891 128.711 61.3532 129.734Z" fill="#975F4A"/>
<path d="M101.604 153.647L95.592 153.638C95.0409 153.922 94.4398 154.097 93.8222 154.152C91.8135 154.21 89.9864 154.705 88.5985 156.29C88.4832 156.608 88.4387 156.947 88.4682 157.283C88.4977 157.62 88.6004 157.946 88.7692 158.239C90.9815 159.074 92.9831 160.91 95.6167 159.617L99.4158 156.068C100.703 155.771 101.951 155.427 101.604 153.647Z" fill="#76332C"/>
<path d="M95.6168 159.617C93.2828 158.814 90.4632 159.039 88.9399 156.498C86.1483 153.78 83.9421 153.716 82.643 157.876L84.0374 158.256C85.9233 160.079 91.4184 156.841 90.3745 162.773C93.0126 163.201 94.7539 162.132 95.6168 159.617Z" fill="#742A28"/>
<path d="M101.604 153.647L99.4158 156.068C101.407 158.471 103.433 157.167 105.448 156.098C105.893 156.182 106.341 156.272 106.787 156.371C105.71 154.22 103.519 154.201 101.604 153.647Z" fill="#8E3E3C"/>
<path d="M63.3499 151.503L64.3639 153.489L65.4536 155.168C65.6581 152.242 65.8621 149.318 66.0658 146.396C66.4788 144.72 65.8725 144.225 64.2903 144.837C62.0628 146.789 62.4014 149.104 63.3499 151.503Z" fill="#AF4C56"/>
<path d="M82.6627 157.88C84.4043 155.783 86.6066 155.799 88.9597 156.503C90.8184 154.894 93.2256 155.798 95.2722 155.062L95.6168 153.664C93.9894 151.274 96.7447 149.969 97.0023 148.043C92.7446 143.894 88.0557 142.164 82.2843 144.994C81.3175 145.472 80.2593 145.736 79.1814 145.769C78.1036 145.802 77.0312 145.603 76.037 145.185C75.3356 145.012 74.6488 144.843 73.9523 144.671C71.4914 144.488 68.5779 142.83 67.4045 146.731C68.734 148.82 70.0586 150.909 70.3007 153.469C70.2423 153.847 70.3235 154.234 70.5293 154.557C70.735 154.879 71.0511 155.116 71.4186 155.223L82.6627 157.88Z" fill="#66372A"/>
<path d="M67.4079 146.696C69.9604 145.165 72.3939 146.633 74.8748 146.986C78.6828 145.414 76.9551 143.934 74.8123 142.439C71.6797 141.858 68.6405 140.06 65.3117 141.596C64.9384 141.994 64.7129 142.507 64.6729 143.051C64.6328 143.595 64.7806 144.137 65.0916 144.585L66.0758 146.377C66.5081 146.489 66.9586 146.59 67.4079 146.696Z" fill="#854B42"/>
<path d="M71.4413 155.192L70.3246 153.434C67.2985 156.341 70.1994 157.149 72.054 158.324C71.8331 157.278 71.6289 156.234 71.4413 155.192Z" fill="#7D242B"/>
<path d="M65.0804 144.587C65.3546 143.622 65.624 142.655 65.891 141.718C66.2707 140.618 65.9875 139.985 64.715 140.054L61.6368 142.292C60.3695 141.731 60.0864 142.943 59.4701 143.515C59.0673 145.317 58.6583 147.122 58.2506 148.923L63.3499 151.503C63.9288 149.197 64.5056 146.891 65.0804 144.587Z" fill="#B3535B"/>
<path d="M59.4643 143.539L61.6309 142.316C61.9385 140.397 62.2391 138.479 62.5329 136.56C61.8332 137.387 61.1326 138.21 60.4313 139.029C60.1234 140.508 59.7987 142.014 59.4643 143.539Z" fill="#D8B3A2"/>
<path d="M113.841 146.2L114.84 147.888C116.445 147.669 117.816 147.702 117.433 149.948L118.129 150.12L118.833 150.262C120.742 149.477 122.016 148.314 121.362 145.998C120.21 144.236 118.454 143.69 116.486 143.561C115.73 143.603 114.996 143.824 114.343 144.206C114.036 144.424 113.816 144.745 113.724 145.11C113.632 145.476 113.674 145.862 113.841 146.2Z" fill="#9B8588"/>
<path d="M121.091 146.613C120.336 147.832 119.582 149.052 118.83 150.272L123.666 153.712L122.955 151.418C122.426 149.794 124.88 146.984 121.091 146.613Z" fill="#C2B5B9"/>
<path d="M76.2598 147.405C77.7914 149.911 79.531 147.968 81.2506 147.7C85.012 147.113 89.3453 142.11 92.4172 148.995C92.5508 149.292 95.4022 148.372 96.9877 148.019L99.7934 148.71C103.859 145.274 102.832 142.272 99.0377 139.493C90.1666 138.422 82.454 140.721 76.2598 147.405Z" fill="#6F432D"/>
<path d="M97.3137 140.639C101.593 142.267 100.6 145.52 99.7921 148.716C99.4844 152.06 101.624 151.534 103.669 151.159C106.028 152.573 107.427 150.799 108.98 149.549C109.306 148.946 109.398 148.244 109.239 147.577C107.774 143.856 105.23 140.659 101.932 138.398C99.6956 136.823 96.9247 135.97 97.3137 140.639Z" fill="#774534"/>
<path d="M108.699 149.304C106.648 148.907 105.318 150.444 103.668 151.164C104.919 153.761 107.08 152.94 109.109 152.609L109.905 151.141C109.895 150.679 109.901 150.215 109.918 149.749C109.779 148.857 109.373 148.709 108.699 149.304Z" fill="#6D372C"/>
<path d="M108.699 149.304C109.108 149.446 109.516 149.593 109.918 149.744C110.151 148.799 110.428 147.865 110.679 146.93C111.203 146.254 111.583 145.478 111.796 144.65C112.009 143.822 112.051 142.959 111.918 142.115C111.619 140.749 111.445 139.358 111.032 138.016C110.287 135.502 109.21 133.124 108.716 130.496C108.176 127.614 105.727 125.057 103.155 126.185C97.2206 128.794 91.5184 126.417 85.7346 126.593C85.0674 126.928 84.4886 127.415 84.0456 128.016C81.8882 132.031 83.2693 135.358 86.1239 138.345C88.7185 141.088 92.349 140.634 94.7717 139.232C101.355 135.414 103.784 140.063 105.908 144.359C106.721 145.99 108.027 146.684 108.893 147.972C108.823 148.425 108.756 148.864 108.699 149.304Z" fill="#885840"/>
<path d="M110.191 142.412C110.337 143.916 110.514 145.422 110.679 146.93L113.841 146.2C113.94 145.796 114.04 145.392 114.139 144.987C114.394 144.183 114.445 143.328 114.289 142.499C114.132 141.67 113.773 140.892 113.244 140.235C112.486 139.475 111.639 139.034 110.56 139.574C110.01 140.466 109.719 141.392 110.191 142.412Z" fill="#9A7F77"/>
<path d="M56.8415 87.4158L60.9512 88.372C61.9526 87.6629 62.294 86.7809 61.671 85.6404C61.1091 83.9932 60.55 82.3484 59.9938 80.706C58.7569 80.4838 57.5127 80.2908 56.6517 81.5408C56.128 82.0533 55.7652 82.7076 55.6081 83.4233C55.4509 84.1391 55.5062 84.8851 55.7671 85.5699L56.8415 87.4158Z" fill="#B08365"/>
<path d="M139.513 54.1411L138.106 53.7941C135.696 54.9361 135.057 54.0244 135.651 51.6802C135.091 49.0053 133.132 47.9593 130.71 47.4915C131.211 50.1363 128.642 48.9037 127.759 49.8021C126.727 50.7209 126.052 51.9744 125.853 53.3418C125.757 54.0378 125.757 54.7435 125.853 55.4395C127.626 60.6766 131.788 64.4566 134.333 69.2482C140.612 65.8875 142.061 61.7081 139.513 54.1411Z" fill="#2D2620"/>
<path d="M134.291 69.2482C135.723 62.7291 129.532 60.1542 127.214 55.5784C126.561 55.8802 126.008 56.3625 125.621 56.9683C124.775 58.7232 125.019 60.4368 125.701 62.1964C128.828 65.0649 127.876 71.232 133.611 72.0307L134.291 69.2482Z" fill="#39271D"/>
<path d="M132.315 89.6145C132.641 84.7708 132.721 79.8975 134.311 75.2261C133.278 74.0931 132.095 73.7392 130.697 74.5469C127.593 78.7525 126.326 83.39 127.435 88.5769C128.777 90.1737 130.396 90.6088 132.315 89.6145Z" fill="#4E443D"/>
<path d="M131.5 74.538L134.291 75.226L133.595 72.0319C130.682 69.0301 130.81 64.1737 127.233 61.5768C123.202 66.1529 127.15 70.0712 128.249 74.2276C128.697 74.5986 129.247 74.8265 129.826 74.8819C130.406 74.9372 130.989 74.8175 131.5 74.538Z" fill="#483327"/>
<path d="M132.315 89.6145L128.043 88.5616C125.848 92.2263 126.817 93.9947 131.147 93.7443C131.604 93.8158 132.062 93.8873 132.524 93.9442C132.807 92.583 133.097 91.218 133.381 89.8568C133.033 89.7813 132.668 89.6912 132.315 89.6145Z" fill="#513626"/>
<path d="M135.65 51.6851C133.415 52.369 131.705 53.477 132.307 56.2139C132.585 57.476 133.498 58.4865 134.733 58.4654C137.744 58.4068 137.365 55.6473 138.105 53.799L135.65 51.6851Z" fill="#282523"/>
<path d="M126.469 40.4884C125.967 42.5245 125.767 44.4488 128.246 45.3958C128.586 46.1101 129.042 46.1913 129.644 45.7403C130.882 45.746 132.433 45.6167 132.128 44.0482C131.55 41.0898 128.669 41.2063 126.469 40.4884Z" fill="#282523"/>
<path d="M129.644 45.7404L128.246 45.3958L126.486 46.4553C125.487 48.6633 126.166 49.8486 128.61 49.9549C129.624 50.0343 130.805 50.9661 131.492 49.8334C131.763 49.3836 130.999 48.291 130.709 47.4963L129.644 45.7404Z" fill="#302924"/>
<path d="M126.792 56.9936C126.912 56.5065 127.076 56.0303 127.213 55.5784C127.351 55.1265 127.433 54.687 127.544 54.2389C126.694 51.818 126.642 48.7568 123.018 48.5352C119.648 45.1212 118.436 38.9527 111.759 39.8386C111.218 39.1758 110.444 38.7461 109.595 38.6388C100.954 39.4436 93.2 34.7422 84.7091 34.6024L83.3066 34.3393L79.8919 36.7683C81.8684 40.5932 86.2404 38.4726 88.9676 40.4469C89.9006 40.8287 90.8815 41.0809 91.8829 41.1965C94.6873 40.7821 96.7263 42.907 99.2504 43.4414C108.846 44.7371 117.546 47.6358 122.82 56.6551C123.391 57.0792 124.05 57.372 124.747 57.5126C125.46 57.5035 126.161 57.3257 126.792 56.9936Z" fill="#543425"/>
<path d="M84.6948 34.5988C93.2857 35.9258 101.27 40.4671 110.29 39.5077C110.124 38.0871 109.641 37.0277 107.893 37.3924L105.053 36.6924C100.699 38.4248 96.9095 35.6669 92.8426 35.1449C90.1318 34.8023 87.5285 33.122 84.6948 34.5988Z" fill="#38291F"/>
<path d="M123.004 48.5317L127.529 54.2354C127.881 52.8082 128.234 51.3761 128.586 49.949L126.462 46.4493C124.765 46.2067 123.599 46.8907 123.004 48.5317Z" fill="#322016"/>
<path d="M107.893 37.3924L110.29 39.5077L111.759 39.8386C111.757 36.9757 110.664 35.8952 107.893 37.3924Z" fill="#493C32"/>
<path d="M65.4555 52.3014C63.7508 55.9682 65.1563 58.9446 67.5623 61.6767C70.5649 64.1684 72.2353 62.6529 73.4509 59.7336C73.5124 56.2353 69.6439 56.0826 68.3342 53.7447C67.8806 53.267 67.3535 52.8649 66.7729 52.5538L65.4555 52.3014Z" fill="#73492E"/>
<path d="M66.7729 52.5539C66.687 53.0494 66.601 53.5449 66.5199 54.0416C68.3928 56.3582 70.3294 56.2362 72.3279 54.2074C72.7922 53.6019 73.1372 52.9137 73.3445 52.1794C73.5365 51.4522 73.6088 50.6987 73.5586 49.9484C73.3527 48.4147 72.7729 47.0989 71.3732 46.2372L67.1982 51.2895C67.105 51.7258 66.9623 52.15 66.7729 52.5539Z" fill="#92684B"/>
<path d="M78.2497 37.8566L73.4619 43.7602C73.2641 43.852 73.0929 43.9927 72.9645 44.1689C72.836 44.3452 72.7546 44.5512 72.7279 44.7677C72.6843 45.1961 72.7166 45.4211 72.8238 45.4475C73.1303 45.8514 73.5228 46.182 73.9728 46.4154C74.4229 46.6488 74.9193 46.7791 75.426 46.7968C76.0852 46.7646 76.7328 46.6106 77.336 46.3427C79.9704 45.2973 82.1773 43.3664 84.9637 42.6478C86.2309 42.38 87.4235 41.8359 88.4565 41.0545C89.2008 40.3977 89.7019 39.5091 89.8791 38.5324C87.0064 35.2409 82.9953 38.3288 79.8144 36.7491C79.3338 37.1266 78.7936 37.4946 78.2497 37.8566Z" fill="#9C6F4D"/>
<path d="M72.5303 58.6904C71.8759 61.345 70.1085 62.2269 67.5625 61.6768C63.0733 62.2185 62.5163 65.9874 61.3493 69.2545C62.4504 70.7195 61.9398 72.309 61.698 73.877L62.7131 75.4602L65.6489 76.127C66.149 75.8307 66.5453 75.387 66.7835 74.8567C67.0735 73.4918 67.5645 72.2332 68.8346 71.4406C70.2859 70.2483 72.2294 70.7273 73.7976 69.941C76.763 68.538 80.5839 67.8988 79.9368 63.1873C78.9103 60.728 76.6897 59.5916 74.566 58.3551C73.8697 58.1973 73.1392 58.3176 72.5303 58.6904Z" fill="#98664C"/>
<path d="M66.9544 82.4423C66.6622 86.0801 69.5431 85.9842 71.8289 86.5838L72.8481 86.8092C73.9082 86.7825 74.9398 86.4606 75.8269 85.8797C76.714 85.2987 77.4215 84.4818 77.8697 83.5208C78.0653 82.834 78.071 82.107 77.8861 81.4173C77.7013 80.7275 77.3329 80.1008 76.8201 79.6039C75.9936 78.9383 74.9695 78.5659 73.9086 78.5452C71.0136 78.803 68.8139 80.3275 66.9544 82.4423Z" fill="#7B513F"/>
<path d="M66.9546 82.4425C69.757 82.8956 71.8186 81.5747 73.6105 79.6293C74.4078 78.6168 73.9766 77.7251 73.3519 76.8426C72.0565 75.7009 70.5622 74.8071 68.9435 74.2059C68.4429 74.0712 67.9181 74.0533 67.4096 74.1537C66.901 74.2542 66.4224 74.4702 66.0106 74.785C65.9002 75.2332 65.7544 75.6778 65.6342 76.1235C66.0751 78.2335 66.5153 80.3398 66.9546 82.4425Z" fill="#4E3321"/>
<path d="M61.6713 85.6405L60.9515 88.372L60.9859 88.4631C61.3621 89.049 61.774 89.6113 62.2191 90.1467C63.6163 91.3539 65.3523 91.6268 67.0882 91.8997C68.855 91.9219 70.6472 92.2603 72.3394 91.4322C73.9493 89.6383 75.3438 87.8584 71.8524 86.5741C68.2475 88.4963 65.0514 86.0138 61.6713 85.6405Z" fill="#A67557"/>
<path d="M56.652 81.5408L59.994 80.706C59.26 79.4917 58.3351 78.3388 56.7501 79.1933C55.8259 79.7147 56.1614 80.7223 56.652 81.5408Z" fill="#B29580"/>
<path d="M130.506 96.6142L130.853 95.2065C130.154 94.166 128.982 94.0373 127.926 93.6685C125.546 93.2419 123.605 91.7871 121.436 90.8805C116.168 88.6725 111.69 89.1447 109.022 94.961C108.778 95.6809 108.727 96.4521 108.874 97.1979C109.317 98.2058 110.075 99.0432 111.034 99.5853C117.66 100.521 116.318 108.163 120.61 111.045C121.269 110.974 121.893 110.713 122.407 110.294C124.08 108.412 124.531 105.573 127.069 104.354C128.076 103.516 128.918 102.497 129.551 101.349C130.374 99.8779 130.036 98.1671 130.506 96.6142Z" fill="#895A46"/>
<path d="M128.063 94.5806L130.863 95.2089L131.143 93.7589C128.627 92.9216 127.608 91.1874 128.039 88.5761L131.5 74.5381L128.705 73.8027C127.994 72.7854 127.023 72.5976 125.888 72.9275C122.467 77.9177 125.292 84.3801 121.807 89.6906C120.876 91.1403 124.173 95.0583 128.063 94.5806Z" fill="#644839"/>
<path d="M135.61 107.059C136.462 104.21 138.738 101.873 138.607 98.6731C136.373 96.1642 133.735 102.779 131.584 98.3629C129.985 99.0021 129.669 100.474 129.174 101.851C128.125 104.305 128.29 106.758 129.201 109.205C131.395 112.065 133.275 110.095 135.204 108.809C135.429 108.584 135.586 108.301 135.658 107.992C135.73 107.683 135.713 107.359 135.61 107.059Z" fill="#814435"/>
<path d="M130.543 102.607C130.891 101.194 131.241 99.7766 131.589 98.364C131.216 97.7812 130.844 97.1935 130.511 96.6155C128.816 97.4582 128.442 99.0765 128.116 100.716C128.4 102.016 128.884 103.071 130.543 102.607Z" fill="#81513E"/>
<path d="M71.8522 86.5742C73.0981 88.3952 72.8231 89.8464 70.7921 90.8752C67.4866 90.6391 65.602 92.1432 65.2029 95.4601C67.687 96.4082 67.4889 98.3228 66.9773 100.356C66.4635 100.617 66.2273 100.947 66.2724 101.35C66.3176 101.754 66.4023 101.977 66.5435 102.011C68.1715 102.743 69.3039 101.901 70.3724 100.837C71.1546 100.078 71.8456 99.2304 72.4313 98.3114C74.6565 94.2097 77.1594 90.1764 78.0053 85.4661C77.9191 84.7257 77.6023 84.0312 77.0995 83.4809C75.0869 83.98 73.2635 85.0549 71.8522 86.5742Z" fill="#A26A4D"/>
<path d="M65.2176 95.4636L70.8116 90.88C70.2117 89.3939 69.2825 89.139 68.0241 90.136C65.7011 91.5527 63.8318 91.0661 62.3862 88.798C61.8991 88.6779 61.4558 88.5687 60.9882 88.4534C60.7098 91.8259 57.1113 97.1805 65.2176 95.4636Z" fill="#996548"/>
<path d="M66.6755 101.811C66.7955 101.324 66.8912 100.831 66.9967 100.34C63.1843 101.343 59.7172 102.623 60.7208 107.732C60.8655 108.012 61.0739 108.253 61.3292 108.437C61.5845 108.621 61.8796 108.743 62.1905 108.792C63.8797 108.898 65.3399 108.194 66.8037 107.495C67.3386 107.109 67.785 106.613 68.113 106.041C68.831 104.239 68.2011 102.875 66.6755 101.811Z" fill="#996548"/>
<path d="M67.0213 106.34C66.1162 106.124 65.1679 106.174 64.2904 106.484C63.4129 106.793 62.6436 107.35 62.0749 108.087C62.3692 109.136 63.0464 110.098 62.8143 111.271C62.221 112.902 61.0894 113.636 59.3511 113.373L61.8076 121.455C62.2557 121.565 62.7087 121.677 63.1641 121.758C68.6027 117.658 68.4422 112.167 67.0213 106.34Z" fill="#A67053"/>
<path d="M62.8086 111.295C65.1831 109.628 63.5599 108.897 62.0693 108.111L60.7054 107.775L62.8086 111.295Z" fill="#A96F53"/>
<path d="M67.0214 106.34C65.734 111.479 64.4483 116.618 63.1642 121.758C62.9796 124.079 63.1172 126.309 64.9189 128.076C67.3985 126.568 68.68 123.717 71.311 122.371C73.8055 118.728 71.2206 115.255 70.9546 111.701C71.047 110.688 70.9596 109.666 70.6964 108.682C70.3687 107.704 69.7414 106.853 68.9034 106.251C68.6044 106.104 68.2729 106.036 67.9403 106.054C67.6077 106.071 67.2851 106.174 67.0032 106.351L67.0214 106.34Z" fill="#975F4A"/>
<path d="M64.7153 140.054L65.8864 141.717C68.4489 143.206 70.8647 145.228 74.165 143.892C76.1646 143.305 77.9723 142.469 78.6744 140.271C79.2097 137.302 81.0348 134.363 78.6537 131.425C77.7587 130.863 76.4712 130.804 76.1225 131.695C73.9929 137.107 69.7365 136.285 65.4634 135.573C65.229 135.806 65.0748 136.109 65.0229 136.436C64.9711 136.763 65.0243 137.098 65.1749 137.393L64.7153 140.054Z" fill="#67352D"/>
<path d="M65.1846 137.395C65.3969 136.848 65.6141 136.302 65.8313 135.756C69.5482 134.197 68.6384 129.881 70.8337 127.41C71.203 126.745 71.4287 126.01 71.4962 125.252C71.5637 124.495 71.4715 123.731 71.2256 123.011L70.5533 122.091C66.0254 121.595 65.2311 124.608 64.9141 128.074C66.4634 131.138 63.527 134.331 65.1846 137.395Z" fill="#703A31"/>
<path d="M95.2476 155.036C92.9442 154.633 90.4161 153.256 88.935 156.476C91.2052 156.762 93.3505 156.444 95.2476 155.036Z" fill="#642B21"/>
<path d="M76.6328 140.021L74.1695 143.872C76.3117 144.468 75.9724 145.634 74.8781 146.972C75.3568 147.126 75.8002 147.256 76.2642 147.385C83.3559 145.362 89.7838 141.273 97.3181 140.619C98.5784 137.959 99.6072 138.899 101.454 140.378C104.275 142.623 104.799 147.077 108.886 147.96C106.575 145.407 107.827 141.23 104.204 138.989C101.334 137.217 98.9433 136.437 95.6452 137.344C87.5588 139.567 85.1805 137.477 85.2989 128.738C85.1086 128.451 84.8292 128.235 84.5037 128.123C84.1782 128.011 83.8249 128.01 83.4985 128.119C82.565 128.602 81.8117 129.373 81.3497 130.317C80.1211 133.729 78.9023 137.144 76.6328 140.021Z" fill="#7A4C3A"/>
<path d="M85.6896 127.341C91.1984 129.371 96.5495 131.894 102.521 128.23C105.012 126.7 106.786 128.765 106.686 131.204C106.553 134.323 108.134 136.63 109.325 139.176C112.019 137.887 112.054 135.607 111.579 133.134C110.867 130.344 110.637 127.44 109.64 124.694C107.869 119.803 105.091 117.3 99.7884 120.116C95.1311 125.365 92.7012 122.038 90.5295 117.684C86.1197 118.302 86.3545 122.338 84.9853 125.189C84.9759 125.964 85.2236 126.721 85.6896 127.341Z" fill="#915F45"/>
<path d="M85.6899 127.341C85.81 126.854 85.9204 126.406 86.0357 125.938C87.0819 117.041 94.8064 112.806 99.7003 106.619C101.015 104.954 103.096 103.953 102.652 101.374C100.969 99.4397 98.7906 99.3885 96.5067 99.7246C92.457 100.328 88.4405 100.692 88.2051 106.405C88.0741 109.473 84.6615 110.699 82.9849 112.91C81.4069 115.518 79.735 118.087 79.244 121.19C78.8899 124.849 80.4115 127.291 83.9523 128.417C84.4394 128.537 84.8778 128.645 85.3454 128.76C85.4412 128.288 85.5637 127.811 85.6899 127.341Z" fill="#89513A"/>
<path d="M109.565 133.216C110.036 135.223 110.129 137.215 109.33 139.178L110.191 142.412C110.461 141.445 110.712 140.531 110.975 139.588C111.904 139.13 112.629 138.345 113.012 137.383C113.423 136.451 113.969 135.598 114.333 134.645C114.54 134.014 114.719 133.371 114.891 132.715C115.931 128.663 116.211 124.154 121.062 122.353C121.623 121.892 122.031 121.272 122.234 120.575C122.242 120.197 122.175 119.822 122.038 119.471C121.9 119.119 121.694 118.799 121.432 118.527C120.225 117.388 118.711 116.989 117.133 116.848C111.462 117.806 108.933 121.254 109.55 126.862C109.782 129.022 108.858 131.115 109.565 133.216Z" fill="#997562"/>
<path d="M111.832 136.761C111.543 137.724 111.259 138.646 110.975 139.588L112.122 141.349C115.437 141.567 113.864 138.833 114.489 137.427C113.773 136.475 112.93 136.143 111.832 136.761Z" fill="#F3F7F4"/>
<path d="M125.855 73.1625L128.705 73.8028C130.203 69.4858 126.306 65.8229 127.219 61.5528C127.077 60.0299 126.937 58.5021 126.796 56.9792L125.38 56.6663C124.768 57.0433 124.243 57.5466 123.842 58.1426C123.44 58.7386 123.17 59.4136 123.05 60.1223C122.917 64.323 123.607 68.5091 125.082 72.4448C125.334 72.6982 125.598 72.9285 125.855 73.1625Z" fill="#5B3C29"/>
<path d="M124.078 56.2884C120.349 49.0089 115.775 42.978 106.485 42.853C104.136 42.8218 101.798 41.8269 99.4551 41.2701C98.7043 42.3664 99.1442 43.3067 99.8237 44.2182C107.206 47.3245 113.744 51.7829 119.839 56.9485C121.351 57.373 122.805 57.3646 124.078 56.2884Z" fill="#673F29"/>
<path d="M100.428 43.0653L99.4539 41.2751C97.0184 40.6748 95.3802 37.5945 92.3203 39.1085C92.1214 40.4184 91.4658 41.5899 91.1159 42.8625C90.9423 43.5383 90.8425 44.231 90.8186 44.9283C90.8036 45.8423 90.996 46.7478 91.3815 47.5767C91.767 48.4055 92.3354 49.1362 93.044 49.7137C96.7592 51.7041 99.5551 50.5487 101.683 47.1567C102.187 45.5088 101.231 44.2965 100.428 43.0653Z" fill="#945D44"/>
<path d="M124.078 56.2884L119.845 55.2451C117.61 57.3757 112.894 57.5981 114.24 62.5129C116.957 64.9289 119.937 66.4436 123.698 65.2936C124.459 63.9003 125.137 62.4915 124.437 60.8257C124.749 59.4351 125.057 58.0385 125.369 56.648C124.945 56.5435 124.513 56.4111 124.078 56.2884Z" fill="#754833"/>
<path d="M93.2892 42.8917C95.9046 40.8755 93.6778 40.0993 92.3215 39.1036L89.9361 38.5518L87.8174 39.8947C86.0827 47.3931 90.5428 43.5737 93.2892 42.8917Z" fill="#B68C70"/>
<path d="M73.209 45.3101C73.2901 44.8134 73.3857 44.279 73.4765 43.764C72.7808 44.5949 72.0815 45.4197 71.387 46.2457L72.1021 49.4446C74.0459 51.5151 76.8288 52.6765 78.3799 55.1669C80.4425 57.4475 82.7337 56.3692 84.9906 55.5976C85.5952 55.2566 86.1044 54.7692 86.4716 54.1801C86.6689 53.5092 86.6521 52.7934 86.4234 52.1325C85.0846 50.5211 84.0733 48.6288 82.3522 47.3313C79.684 44.8032 75.8345 47.8225 73.209 45.3101Z" fill="#9D684D"/>
<path d="M72.5303 58.6904L74.1713 58.9502C74.3531 58.716 74.5336 58.4866 74.719 58.2585C74.7735 57.0732 74.5105 55.9182 74.4506 54.7357C73.9615 53.2614 73.5426 51.6908 71.4007 52.2685C70.4512 54.7368 68.5281 54.5314 66.5091 54.0441C66.3738 58.3664 70.3201 57.4067 72.5303 58.6904Z" fill="#9E6F54"/>
<path d="M79.8287 54.3406C79.0365 49.8826 75.7581 49.3484 72.0875 49.4408C71.9674 49.9279 71.8557 50.3809 71.7393 50.8534C73.1869 52.4326 74.8665 53.7822 76.7204 54.8558C77.245 54.9993 77.7945 55.0276 78.331 54.9387C78.8676 54.8497 79.3785 54.6457 79.8287 54.3406Z" fill="#996348"/>
<path d="M77.0205 53.6382C75.9074 51.4883 73.6915 51.4226 71.7441 50.8547C71.624 51.3418 71.5124 51.7948 71.3959 52.2673L73.5401 55.6841C73.6949 55.9726 73.9281 56.2114 74.2129 56.3731C74.4976 56.5347 74.8222 56.6124 75.1492 56.5974C76.4701 56.0601 77.5348 55.346 77.0205 53.6382Z" fill="#9D684D"/>
<path d="M69.5477 61.5669C68.4346 59.417 66.2236 59.3525 64.2712 58.7834C64.1512 59.2705 64.0395 59.7235 63.9231 60.196L66.0673 63.6128C66.2221 63.9013 66.4553 64.1401 66.74 64.3017C67.0247 64.4633 67.3494 64.5411 67.6764 64.5261C68.9972 63.9888 70.0668 63.2759 69.5477 61.5669Z" fill="#9D684D"/>
<path d="M93.1475 48.6643C93.0314 47.1511 92.9156 45.6362 92.8003 44.1198C89.8842 43.4991 85.8693 45.4494 84.7329 40.669C81.326 40.6559 79.2207 43.4954 76.2893 44.5296C79.7336 47.745 84.3489 48.18 88.5248 49.664C89.7617 49.8862 90.9873 49.9868 92.195 49.4474L93.1475 48.6643Z" fill="#AA7256"/>
<path d="M84.7332 40.669C84.3555 48.9928 89.3363 44.7798 92.8006 44.1198C92.9397 43.7013 93.1029 43.2913 93.2894 42.8917C91.3582 42.0902 87.8995 44.0691 87.8273 39.8971L84.7332 40.669Z" fill="#AF7E63"/>
<path d="M90.357 48.0178L76.2849 44.5491C76.172 45.007 76.0579 45.4697 75.9451 45.9276C77.6304 47.8104 80.1793 47.3846 82.2337 48.294C84.0502 49.7287 85.9211 51.0682 88.3394 51.2768C90.1266 50.8596 91.1069 49.9852 90.357 48.0178Z" fill="#9F674C"/>
<path d="M82.9638 47.6576L75.9449 45.9275L73.1906 45.3209C75.5833 48.4632 79.4688 47.8553 82.5986 49.0763C83.0359 48.8534 83.2394 48.5729 83.1847 48.2288C83.1301 47.8846 83.0807 47.6864 82.9638 47.6576Z" fill="#AB7256"/>
<path d="M79.1482 63.1374C80.016 68.0015 72.5983 64.5559 73.1877 69.124C72.75 72.1782 74.335 74.2585 76.5104 76.0606C80.5087 77.9297 84.5132 78.3691 88.5061 76.0258C91.9723 72.9895 89.0071 68.2078 91.5258 64.8863C92.096 62.6646 92.0028 60.3244 91.2577 58.155C89.7531 56.4407 89.2983 53.213 85.8038 54.3099C82.8075 56.6766 79.15 58.5187 79.1482 63.1374Z" fill="#A2674E"/>
<path d="M79.1483 63.1374C81.8165 60.5503 85.0995 58.4041 85.7808 54.3404C83.7885 53.0742 81.807 55.0762 79.8189 54.3588L77.0084 53.6661C76.2992 54.4471 75.5911 55.2233 74.8819 56.0044C75.4309 57.1731 75.7753 58.2913 74.2005 58.9365L74.1398 58.9732C74.7945 61.5785 76.7484 62.6233 79.1483 63.1374Z" fill="#A56E53"/>
<path d="M76.3867 74.3407C75.8871 72.306 74.767 70.477 73.1815 69.1072C71.1959 68.7779 69.2358 67.6747 67.3443 69.3114C68.0092 71.3095 68.5269 73.3385 68.3758 75.4817C69.2988 77.1663 71.0102 77.3711 72.6311 77.7965C74.8637 77.3961 76.2137 81.2889 78.8224 79.0694C80.4726 76.2314 77.4974 75.7667 76.3867 74.3407Z" fill="#82533A"/>
<path d="M68.3943 75.4706L72.0686 73.9168C71.0869 71.7786 69.6869 70.0591 67.3592 69.2942C64.7219 70.5817 62.484 71.9677 66.0084 74.774L68.3943 75.4706Z" fill="#664228"/>
<path d="M76.3867 74.3405C77.0175 75.9737 78.6181 77.257 78.1344 79.282C77.7535 79.989 76.7877 79.7147 76.3554 80.3367L77.0983 83.4856L76.7381 84.9469C77.2914 86.685 78.0821 88.1303 80.2763 87.8858C83.8468 86.9626 85.7044 80.9568 90.7408 84.3579C91.5785 84.8907 92.5904 85.0771 93.5629 84.8779C95.1726 84.1328 95.9783 82.7297 96.6169 81.1872C96.7627 80.5964 96.7999 79.984 96.7265 79.38C96.5315 78.5569 96.1834 77.7684 95.969 76.9611C96.1649 74.7412 101.132 74.8805 98.7515 71.3951C94.0144 67.954 91.1522 71.1392 88.2912 74.3401C84.3958 75.4145 80.2822 75.4147 76.3867 74.3405Z" fill="#8E5942"/>
<path d="M76.3712 80.3356C77.1326 80.265 78.4067 81.0699 78.1502 79.2809C76.2464 79.039 75.0194 76.3029 72.6468 77.7952L73.6105 79.6293L76.3712 80.3356Z" fill="#8F604E"/>
<path d="M62.386 88.798C63.3349 93.1653 65.2142 93.6114 68.0239 90.136L62.386 88.798Z" fill="#915A3A"/>
<path d="M120.996 110.716C119.367 106.279 120.831 100.316 114.817 98.0531C114.074 97.777 113.111 98.077 112.25 98.1127C106.594 99.7825 105.49 104.197 105.413 109.309C105.519 109.992 105.758 110.647 106.116 111.238C108.867 114.748 113.493 114.555 116.971 116.668C117.696 116.723 118.423 116.601 119.089 116.312C121.008 114.878 122.397 113.268 120.996 110.716Z" fill="#905E44"/>
<path d="M106.333 110.062C107.768 105.812 109.006 101.462 112.254 98.1139L109.449 97.4223C105.163 95.6065 103.652 98.3856 102.437 101.657C96.0361 105.762 91.6781 111.767 87.5678 117.961C85.938 120.381 84.3425 122.85 85.9965 125.929C88.5536 123.94 88.01 119.982 90.8853 118.19C95.7005 117.982 97.4287 112.606 101.791 111.676C103.496 111.616 105.145 111.464 106.333 110.062Z" fill="#8F5A41"/>
<path d="M128.063 94.5806C123.753 92.7174 122.683 90.1853 125.566 85.9719C128.313 81.9525 126.321 77.4571 125.855 73.1624L125.863 73.1331C125.53 72.6477 125.047 72.2856 124.487 72.1029C123.928 71.9202 123.324 71.9271 122.769 72.1225C121.038 73.2768 120.446 74.9652 120.509 76.9495C119.719 79.3381 126.45 82.1959 120.008 84.1834C117.061 84.2321 114.105 84.1287 111.254 85.0896C109.698 89.5371 105.19 87.8473 102.23 89.3963C101.232 90.7416 101.521 92.1046 102.159 93.4811C102.964 94.7443 104.119 95.7468 105.482 96.3672C106.914 96.7941 108.455 96.6665 109.797 96.0098C113.152 91.2047 117.309 90.6897 122.079 93.7669C123.952 94.9726 125.832 95.9373 128.063 94.5806Z" fill="#78513E"/>
<path d="M109.797 96.0099L105.623 94.9809C102.881 94.0312 99.9047 94.052 97.2107 92.9074C96.567 92.7687 95.9077 92.7157 95.25 92.7496C91.5013 94.9826 88.596 90.6289 85.0275 91.4182C84.3555 91.5567 83.7209 91.8372 83.1661 92.2408C82.444 92.9877 82.0179 93.9716 81.9671 95.0092C82.3414 99.297 86.2945 98.897 88.8934 100.008C91.2292 101.012 94.0713 100.571 96.5047 101.662L102.474 101.635L109.449 97.4224L109.797 96.0099Z" fill="#7F4C35"/>
<path d="M130.543 102.607L128.111 100.715L125.908 102.967C123.727 105.086 123.04 107.748 123.096 110.686C123.311 111.486 123.83 112.17 124.543 112.593C127.146 113.307 129.464 113.356 130.331 110.072C130.949 107.584 131.321 105.113 130.543 102.607Z" fill="#67301F"/>
<path d="M125.311 111.78C124.824 111.66 124.388 111.521 123.913 111.435C123.328 110.454 123.264 108.852 121.43 109.33C121.281 109.81 121.138 110.265 120.996 110.737C120.08 112.495 119.167 114.256 118.257 116.019C117.578 116.761 117.616 117.46 118.371 118.114C123.239 118.802 127.237 118.537 125.311 111.78Z" fill="#7B4B33"/>
<path d="M121.435 109.31L123.918 111.416L125.907 102.967C122.548 103.767 122.087 106.603 121.435 109.31Z" fill="#81513E"/>
<path d="M125.311 111.78C124.689 116.003 122.41 118.06 118.02 117.361C117.604 117.558 117.392 117.81 117.447 118.134C117.501 118.457 117.563 118.628 117.675 118.655L121.826 119.885C122.811 121.022 124.074 121.033 125.411 120.769C127.014 120.363 128.248 119.339 129.504 118.352C130.537 117.181 131.948 116.464 133.119 115.445C134.291 114.257 135.052 112.91 134.687 111.182C134.786 110.173 134.89 109.165 134.994 108.132C132.24 105.871 132.014 109.743 130.319 110.079L125.311 111.78Z" fill="#8E5C42"/>
<path d="M80.659 87.3187L76.7563 84.9359C74.6636 89.3733 72.5741 93.8116 70.4879 98.2506C71.5614 99.4711 72.9276 99.4204 74.3503 99.1407C75.028 98.9401 75.6717 98.639 76.2601 98.2474C77.7282 97.0067 78.9243 95.4761 79.7734 93.7517C80.6226 92.0272 81.1065 90.146 81.1949 88.2259C81.0211 87.9247 80.8425 87.6223 80.659 87.3187Z" fill="#AB6E55"/>
<path d="M73.6797 97.5649L70.4881 98.2508C69.9102 98.625 69.3273 98.998 68.7494 99.3723C69.7262 101.866 67.0437 104.196 68.4098 106.703L69.4388 108.419L70.5222 108.216C71.3751 107.812 72.1338 107.234 72.7489 106.519C73.3641 105.804 73.822 104.967 74.093 104.063C74.7744 101.844 75.3218 99.6231 73.6797 97.5649Z" fill="#A86B52"/>
<path d="M68.4121 106.693C68.7788 104.262 70.3271 101.88 68.7516 99.3625L66.6755 101.811C66.7827 103.326 66.8911 104.835 67.0032 106.351L68.4121 106.693Z" fill="#B1765B"/>
<path d="M69.4408 108.409L68.7445 111.234C71.2509 114.901 70.478 120.342 75.0432 122.909C75.7395 123.096 76.4683 123.13 77.1788 123.006C81.6499 119.918 78.1019 115.866 78.4696 112.278C77.9826 111.385 77.1771 110.709 76.2136 110.383C74.4295 109.934 72.7405 109.168 71.2273 108.121C70.9296 108.041 70.6187 108.021 70.3134 108.064C70.0081 108.107 69.7145 108.211 69.4504 108.37L69.4408 108.409Z" fill="#683820"/>
<path d="M75.1554 121.763C71.9969 118.877 72.1243 114 68.7595 111.238C68.2731 115.034 71.5299 118.214 70.5535 122.091L70.6392 122.247C72.3145 123.667 73.9633 124.818 75.1554 121.763Z" fill="#70402E"/>
<path d="M69.5184 126.269C66.4225 128.705 66.8573 132.516 65.8265 135.755C66.9394 139.31 69.8216 139.23 72.6445 138.888C77.3307 138.322 75.9731 133.978 77.2136 131.23C77.0222 130.988 76.7773 130.792 76.4981 130.66C76.2189 130.527 75.9128 130.461 75.6038 130.467C71.7471 131.691 72.7864 127.705 71.2904 126.396C71.0436 126.196 70.7413 126.077 70.4243 126.054C70.1074 126.031 69.7911 126.106 69.5184 126.269Z" fill="#47211D"/>
<path d="M75.998 130.796L77.2077 131.255C79.0356 134.32 76.9351 137.119 76.6284 140.04C79.7918 137.813 82.2625 135.063 83.2121 131.19C82.1963 127.555 80.0695 125.367 76.0273 125.668C75.676 125.788 75.3531 125.978 75.0783 126.228C74.8036 126.477 74.5828 126.78 74.4296 127.118C73.997 128.748 74.4404 130.009 75.998 130.796Z" fill="#6C3E37"/>
<path d="M75.0546 127.83L75.5034 126.324C76.6541 125.114 77.7817 123.894 76.5432 122.106L75.1647 121.766C73.7631 122.883 72.2008 122.534 70.6486 122.249C70.2758 123.594 69.9023 124.935 69.5279 126.272L70.9699 126.71C72.0379 128.1 73.3152 128.724 75.0546 127.83Z" fill="#64332B"/>
<path d="M76.5335 122.103C76.3826 123.554 74.5829 124.609 75.4938 126.321L83.2021 131.187L83.9181 128.408C83.6701 125.893 80.5266 124.601 81.0975 121.74C79.9484 118.646 82.501 114.914 79.4476 112.147C79.1688 111.962 78.8455 111.856 78.5115 111.839C78.1775 111.822 77.8452 111.895 77.5492 112.051C75.2989 115.206 78.3858 118.907 76.5335 122.103Z" fill="#70402E"/>
<path d="M117.65 118.649C117.757 118.216 117.864 117.782 117.971 117.349C118.078 116.915 118.137 116.444 118.213 115.988L116.84 115.649C113.044 114.279 108.397 114.601 106.289 110.072L100.668 108.687C99.1538 111.372 97.4305 113.815 94.8987 115.743C92.2092 117.788 88.8342 121.167 91.104 123.948C93.7075 127.137 97.5358 124.33 100.362 122.024C103.063 120.499 105.084 119.406 106.652 123.859C107.739 126.953 108.117 130.245 109.513 133.214C111.591 127.97 109.382 120.393 117.65 118.649Z" fill="#976148"/>
<path d="M100.413 122.027C99.7311 122.257 99.0567 122.519 98.365 122.705C96.223 123.283 93.5759 125.658 92.0324 122.865C90.6393 120.32 93.4059 118.76 95.3137 117.267C98.1171 115.075 101.246 113.009 100.719 108.689C97.1356 111.531 93.4616 114.278 90.8891 118.217C90.8002 120.779 87.9059 124.199 92.0681 125.591C95.3849 126.683 98.7794 125.887 100.413 122.027Z" fill="#956047"/>
<path d="M96.4877 101.688C93.446 96.5882 86.898 98.9423 83.1205 95.4019C82.5966 94.0689 82.1768 92.5858 80.1849 93.2884C77.0014 98.3009 75.965 103.155 81.2273 107.548C81.8701 107.801 82.5728 107.863 83.2501 107.726C84.2609 107.272 84.599 106.11 85.5423 105.49C85.9666 107.961 83.2096 109.483 83.7385 111.928C83.855 112.588 84.1576 113.2 84.6106 113.693C86.9161 112.138 90.5437 111.193 90.2531 107.928C89.7871 102.775 92.9416 102.261 96.4877 101.688Z" fill="#834831"/>
<path d="M84.5959 113.669L84.9477 112.242C84.0934 111.096 85.3853 109.167 83.5479 108.383C82.023 109.015 80.3784 106.569 78.8751 108.601C78.5279 109.148 78.3511 109.786 78.3671 110.434C78.3831 111.082 78.5912 111.71 78.965 112.24C78.8216 115.609 79.3786 118.821 81.1173 121.766C82.2748 119.054 83.4343 116.355 84.5959 113.669Z" fill="#764430"/>
<path d="M112.887 132.692L115.552 133.178C113.616 127.26 118.083 124.502 121.46 121.2C112.646 120.588 114.64 128.034 112.887 132.692Z" fill="#A3A1A2"/>
<path d="M123.054 72.477L125.877 73.1369C126.771 68.8826 125.588 64.8762 124.445 60.8586L123.405 65.0768C121.683 65.7736 120.949 67.1583 120.674 68.8833C120.716 70.5781 120.827 72.2227 123.054 72.477Z" fill="#673F29"/>
<path d="M113.902 61.2462C116.345 59.7196 121.637 60.9931 119.858 55.2535C115.501 47.7777 108.466 44.6435 100.428 43.0652C100.691 44.1083 100.951 45.1489 101.209 46.1872C102.661 49.6452 99.3278 51.7222 98.679 54.5849C97.6531 62.6249 104.674 60.1962 108.407 62.0722C110.348 62.4783 112.289 62.843 113.902 61.2462Z" fill="#7C4831"/>
<path d="M100.546 54.978C99.6547 51.9683 109.005 49.7314 101.211 46.1982C98.6998 47.6459 96.4501 49.8556 93.1452 48.6742C91.9493 50.9266 93.7526 51.7018 95.2002 51.9708C96.8438 52.2829 96.2543 53.2072 96.307 54.0624C97.4463 55.6659 98.9115 55.7377 100.546 54.978Z" fill="#864F37"/>
<path d="M113.902 61.2463L108.276 59.8596C107.13 60.9669 107.267 62.2976 107.607 63.6629C109.042 66.4761 110.833 69.2529 108.625 72.5064C108.447 72.9769 108.368 73.4793 108.393 73.9818C108.419 74.4844 108.548 74.9762 108.774 75.4261C109.21 75.9378 109.752 76.3484 110.363 76.6291C116.515 77.7062 117.595 70.4959 122.352 69.2866L123.39 65.0732C120.757 62.4866 117.225 62.1223 113.902 61.2463Z" fill="#7C4C37"/>
<path d="M96.6658 52.5233C97.3004 52.3801 99.0313 52.5897 97.4542 51.4208C96.1222 50.4104 93.9813 50.5647 93.1269 48.6646L90.3372 48.0131C89.622 48.8185 88.9299 49.6348 88.2293 50.4438C85.1556 49.2676 86.6379 51.9323 86.1411 52.9207C86.021 53.4078 85.9142 53.8413 85.8013 54.2991C88.0776 54.9584 87.5588 58.8658 90.7162 58.5074C92.09 59.6417 93.3647 59.1241 94.6297 58.2888C96.6837 56.8524 95.4571 54.2405 96.6658 52.5233Z" fill="#945D44"/>
<path d="M86.1607 52.9255C89.0624 53.9611 87.0188 50.8274 88.2489 50.4486C87.1321 48.2926 84.9114 48.2257 82.959 47.6566C82.839 48.1437 82.7285 48.5919 82.6133 49.0595C82.3105 51.713 84.1258 52.4188 86.1607 52.9255Z" fill="#A36C51"/>
<path d="M74.2321 58.9135L78.9381 58.4356C78.0993 56.0949 76.1387 56.7122 74.894 55.9766C74.4306 55.9148 73.9729 55.8158 73.5254 55.6805C72.0093 57.1359 74.2721 57.766 74.2321 58.9135Z" fill="#B88368"/>
<path d="M88.3142 74.3097C91.8214 72.9938 95.1534 70.5858 99.1969 72.5229C99.5688 74.2421 100.442 75.8575 102.354 75.0579C105.008 73.9346 103.705 71.6758 103.208 69.7708C100.879 64.7326 95.7753 65.8409 91.7267 64.595L90.7309 64.4425C84.2361 66.3293 89.4267 71.0963 88.3142 74.3097Z" fill="#98614A"/>
<path d="M93.9006 57.7886L90.7261 58.5096C88.3917 60.5177 89.3874 62.4733 90.7408 64.4448L90.7556 64.5105C91.9991 65.964 93.441 65.9836 95.0162 65.1267C96.8846 63.4791 100.292 62.5882 99.3043 59.3221C98.575 56.9567 96.1735 56.7006 93.9006 57.7886Z" fill="#A16B53"/>
<path d="M101.307 70.0618C101.545 71.3191 102.4 73.1316 101.883 73.7016C101.035 74.6449 100.127 72.9846 99.197 72.5229C97.398 73.0508 95.4765 73.3419 93.8257 74.1699C91.7802 75.2157 89.6872 76.6426 93.3703 78.4701C93.9928 78.0136 94.7028 77.6902 95.4559 77.5203C96.2089 77.3503 96.9889 77.3374 97.7472 77.4822C100.363 77.7705 102.293 80.0029 105.017 80.0182C107.281 80.0132 109.158 79.2356 110.48 77.3294C110.624 77.0076 110.695 76.6575 110.686 76.3048C110.677 75.9521 110.59 75.6058 110.429 75.2916L109.031 74.947C108.395 72.3514 106.93 70.4763 104.356 69.5577C103.842 69.4151 103.302 69.3864 102.776 69.4734C102.249 69.5605 101.748 69.7613 101.307 70.0618Z" fill="#87523D"/>
<path d="M93.2404 84.4678L92.1822 82.7241C84.1587 81.5265 82.5071 82.84 83.901 89.3218C84.6913 89.999 85.6211 90.4939 86.6242 90.7716C87.6273 91.0492 88.6792 91.1026 89.7052 90.9282C91.869 90.3248 93.1283 88.8423 93.7505 86.7584C93.8621 85.9584 93.681 85.1449 93.2404 84.4678Z" fill="#674330"/>
<path d="M84.9225 88.4472C83.0316 81.0679 89.5118 84.3134 92.1821 82.7241C85.8357 77.9718 83.0056 82.0122 80.659 87.3188C81.5024 88.4878 80.2655 90.1308 81.5466 91.2009C81.9931 91.4851 82.5046 91.6508 83.0328 91.6825C83.5611 91.7142 84.0887 91.6107 84.566 91.382C84.9224 90.9902 85.1482 90.4973 85.2121 89.9715C85.276 89.4457 85.1748 88.913 84.9225 88.4472Z" fill="#72452D"/>
<path d="M96.0618 79.2471L95.7521 80.5038C95.667 81.0983 95.7287 81.7044 95.9316 82.2696C96.1345 82.8347 96.4725 83.3417 96.9163 83.7462C97.7061 84.3998 98.6401 84.8562 99.641 85.0778C100.642 85.2993 101.681 85.2798 102.673 85.0206C104.4 84.3043 105.271 83.0774 104.893 81.1501C104.252 79.9586 103.055 79.5294 101.928 79.0087C99.9162 78.0736 97.9533 77.5898 96.0618 79.2471Z" fill="#7E6150"/>
<path d="M96.062 79.2472L101.682 80.5756C102.881 76.4639 97.6945 77.6552 97.0933 75.0424C95.138 75.4078 93.8495 76.5059 93.3693 78.475L96.062 79.2472Z" fill="#693F2C"/>
<path d="M96.9701 82.7107L95.7375 80.5003C94.0647 81.2918 93.7099 82.9198 93.2454 84.469C93.1969 84.8962 93.1533 85.3247 93.1 85.7507C93.381 86.8534 94.1936 87.1622 95.1964 87.2233C95.8219 87.0978 96.3914 86.7768 96.8226 86.3066C97.2017 85.7897 97.4182 85.1716 97.4444 84.5311C97.4707 83.8907 97.3056 83.2569 96.9701 82.7107Z" fill="#997564"/>
<path d="M106.331 110.072C107.765 115.866 111.047 118.189 116.881 115.649C114.897 110.954 109.389 112.82 106.331 110.072Z" fill="#956047"/>
<path d="M110.442 75.3048L110.097 76.7028C110.434 78.8163 112.896 79.1598 113.561 80.9511C113.674 82.3792 112.535 82.765 111.617 83.3861C111.114 83.7739 110.747 84.3109 110.567 84.9203L110.823 85.8308L121.008 86.8325C123.023 84.0481 123.586 81.154 121.686 78.0661C122.145 76.2055 122.605 74.3399 123.063 72.4792L122.361 69.2937C119.077 68.5721 115.368 66.4489 114.828 72.6038C114.676 74.4367 112.633 75.5555 110.442 75.3048Z" fill="#82543D"/>
<path d="M102.368 89.7609C105.554 89.2442 112.443 96.6983 110.823 85.8309C108.112 82.9306 104.811 85.0672 101.79 84.7462C99.8664 85.0884 98.2492 85.7799 97.9549 88.0221C98.7472 90.2997 100.288 90.7156 102.368 89.7609Z" fill="#6A4638"/>
<path d="M121.686 78.0663C120.924 80.9476 120.092 83.8218 121.008 86.8327C126.298 84.3026 127.734 81.4738 121.686 78.0663Z" fill="#815844"/>
<path d="M96.6812 94.3837C99.4645 97.5344 102.567 95.8913 105.625 94.9917L103.125 92.8719C101.568 91.5581 100.457 89.0212 97.908 90.0773C96.0951 90.8084 96.0755 92.6275 96.6812 94.3837Z" fill="#956856"/>
<path d="M96.681 94.3838C97.7433 89.2566 100.595 91.7318 103.125 92.872L102.343 89.7549C100.824 89.3133 99.2814 88.9072 98.5435 87.2682C97.8188 86.3094 96.9295 85.9765 95.8011 86.5923L95.694 86.5659C95.1583 86.882 94.719 87.3382 94.4232 87.8854C94.037 89.4148 93.9966 91.011 94.3048 92.558C94.5209 93.1552 94.8998 93.68 95.3988 94.0729C95.8516 94.1225 96.2791 94.2537 96.681 94.3838Z" fill="#835E54"/>
<path d="M95.4281 94.0182L95.7542 92.5485C92.1814 89.4771 88.6367 87.8851 85.3364 92.8895C88.6923 93.2982 91.5436 98.2275 95.4281 94.0182Z" fill="#8F6150"/>
<path d="M85.3305 92.893C88.6938 89.2889 92.2648 92.179 95.7483 92.552C96.1325 90.9933 96.5167 89.4346 95.3779 87.9965C93.5751 88.0998 92.0044 88.8752 90.4485 89.6956L84.9179 88.446C84.6618 89.3594 84.4068 90.2679 84.1556 91.1825C83.7183 91.4054 83.5148 91.6859 83.5658 92.024C83.6168 92.3621 83.6893 92.5711 83.811 92.6012L85.3305 92.893Z" fill="#7D5447"/>
<path d="M83.8204 92.5829C83.9404 92.0958 84.0497 91.6526 84.1649 91.185L81.3969 90.4665C81.1249 90.5677 80.879 90.7285 80.6773 90.9372C80.4757 91.1459 80.3234 91.3972 80.2316 91.6725C80.1639 92.2596 80.3187 92.8508 80.6654 93.3295L83.1216 95.4178C83.352 94.4619 83.5838 93.5218 83.8204 92.5829Z" fill="#885139"/>
<path d="M73.6797 97.565C73.1042 99.8998 72.5291 102.233 71.9544 104.564C72.9497 106.417 74.4886 107.07 76.5167 106.64C80.1096 103.635 77.2611 101.021 75.9891 98.2996L75.0215 97.8441C74.5807 97.7457 74.129 97.6499 73.6797 97.565Z" fill="#975942"/>
<path d="M81.0003 91.8878C81.1204 91.4007 81.2405 90.9137 81.3923 90.4654C81.1366 89.4207 80.8857 88.3771 80.6397 87.3348C78.7678 90.8346 76.8991 94.3353 75.0336 97.8367L75.0984 97.9095C80.9728 99.7553 78.428 93.3102 81.0003 91.8878Z" fill="#975942"/>
<path d="M77.5399 105.946L71.9481 104.568L69.4579 108.382L70.849 108.88C72.131 110.576 73.8344 110.205 75.5378 109.834C76.0434 109.722 76.5151 109.491 76.9143 109.161C77.3135 108.831 77.629 108.411 77.8348 107.936C77.8738 107.589 77.9068 107.246 77.9386 106.928L77.5399 105.946Z" fill="#98634E"/>
<path d="M77.2708 107.626L75.5941 108.706C74.345 109.225 74.181 110.058 74.8733 111.148L77.5628 112.039C78.0309 112.065 78.4969 112.121 78.9578 112.207C79.227 110.842 79.5011 109.478 79.7692 108.118C79.0955 107.141 78.319 106.686 77.2708 107.626Z" fill="#441F0C"/>
<path d="M74.8681 111.168C75.11 110.354 75.347 109.539 75.5889 108.726L70.8538 108.881C72.0798 109.84 70.9723 114.899 74.8681 111.168Z" fill="#6A3C2D"/>
<path d="M75.0546 127.83L70.9456 126.704C70.7223 127.61 70.4442 128.507 70.2745 129.427C69.8663 131.481 69.0232 134.084 71.5763 134.94C74.8225 136.025 75.0857 132.819 76.0062 130.803L75.0546 127.83Z" fill="#291513"/>
<path d="M82.9525 108.722L84.9328 112.238C85.9667 109.909 87.3341 107.632 87.9477 105.184C88.4532 103.134 87.9965 100.417 85.3837 100.285C82.7709 100.152 83.0712 102.644 83.1627 104.558C83.2022 105.487 83.1262 106.424 83.1062 107.365C82.6459 107.618 82.4571 107.902 82.5798 108.222C82.7025 108.542 82.8064 108.686 82.9525 108.722Z" fill="#723923"/>
<path d="M81 91.8879C78.3861 93.269 78.6922 97.5193 75.0956 97.9193C75.9067 100.596 76.7214 103.272 77.5398 105.947C78.6832 107.303 80.0907 107.609 81.7288 106.979C78.3442 102.662 80.6353 97.8949 80.6506 93.3053L81 91.8879Z" fill="#8E503A"/>
<path d="M81.7425 106.988L77.5535 105.955C77.4568 106.515 77.3601 107.075 77.2671 107.641L79.7667 108.128C80.9096 107.893 81.1355 112.532 82.9504 108.732C82.9806 108.274 83.0314 107.817 83.1053 107.37L81.7425 106.988Z" fill="#895942"/>
<path d="M93.9004 57.7887C95.2088 58.2868 97.4899 58.5701 97.6554 59.3239C98.2458 61.9806 94.7498 61.868 93.9129 63.775C94.2635 64.384 94.764 64.8933 95.3669 65.2546C98.4683 65.6057 101.539 66.7089 104.707 65.7019C106.239 64.979 107.953 64.5231 108.988 63.0061C108.73 61.9556 108.508 60.9088 108.27 59.8632C106.004 57.7547 100.195 61.1796 100.543 54.967C98.9794 54.5816 97.4158 54.1962 96.6608 52.522C94.5169 53.6315 94.4536 55.8376 93.9004 57.7887Z" fill="#88563E"/>
<path d="M108.993 63.0072C107.439 62.6242 105.876 62.2388 104.486 63.4772C105.453 66.4696 107.701 68.7545 108.955 71.5902L109.71 72.1535C111.051 73.0008 112.565 73.5238 112.57 71.1999C112.611 69.6556 112.312 68.1212 111.693 66.7054C111.075 65.2896 110.154 64.0271 108.993 63.0072Z" fill="#754833"/>
<path d="M104.082 70.7716L109.046 74.9505C109.275 74.0202 109.504 73.0898 109.709 72.1535L109.739 72.0317C108.568 70.3686 107.058 69.5779 105.003 70.1407C104.683 70.3462 104.383 70.5565 104.082 70.7716Z" fill="#86513D"/>
<path d="M95.4035 64.1631L93.913 63.7957L90.7507 64.5301C91.3123 66.9471 92.7899 67.828 95.2751 67.6397C97.5936 67.4568 99.8846 67.8046 101.302 70.0812L104.084 70.7668L104.155 70.707C104.938 63.5889 98.4981 66.1142 95.4035 64.1631Z" fill="#86513D"/>
<path d="M97.0944 75.0375C96.5271 78.6178 100.784 78.1998 101.683 80.5707L104.335 81.4465C105.587 82.6542 106.729 82.6723 107.819 81.2719C108.011 79.3403 106.079 79.4014 105.195 78.4809C102.523 77.3107 100.203 75.2146 97.0944 75.0375Z" fill="#693824"/>
<path d="M105.197 78.4711L107.617 80.5814L108.129 81.3536C108.699 81.5859 109.316 81.6778 109.928 81.6214C111.915 80.8142 114.198 81.5939 116.137 80.4961L116.78 79.8381C115.263 77.2734 112.437 77.5017 110.097 76.7028L105.197 78.4711Z" fill="#895A42"/>
<path d="M90.4545 89.692C92.4933 90.2876 94.3908 90.4918 95.3839 87.993L95.7441 86.5317L93.1134 85.7592L90.4545 89.692Z" fill="#704C3C"/>
<path d="M109.039 80.932L107.622 80.5826L104.339 81.4476C103.589 82.2686 102.842 83.0919 102.098 83.9177C101.918 84.0707 101.801 84.2854 101.771 84.5198C101.741 84.7542 101.8 84.9914 101.935 85.1849C104.762 87.2355 107.81 86.297 110.824 85.8259L111.171 84.4182C111.462 82.6506 110.759 81.48 109.039 80.932Z" fill="#78513E"/>
<path d="M101.935 85.185C102.019 84.767 102.074 84.3435 102.098 83.9178L96.9698 82.7107L95.834 86.5642L98.5763 87.2402L101.935 85.185Z" fill="#4E352B"/>
<path d="M109.039 80.9321L111.17 84.4232C114.718 84.9517 118.26 85.468 116.78 79.8382C114.515 82.3802 111.457 79.1306 109.087 80.9027L109.039 80.9321Z" fill="#895A42"/>
<path d="M95.4034 64.1631C97.3204 67.684 103.245 65.8892 104.154 70.7118L109.724 72.033C110.857 67.4349 109.136 64.546 104.485 63.4772L95.4034 64.1631Z" fill="#5E3520"/>
<path d="M109.069 80.9137C111.863 82.1553 114.859 84.9914 116.762 79.8492C114.118 79.6316 111.152 77.0766 109.069 80.9137Z" fill="#906148"/>
<path d="M52.1687 161.607L46.3415 158.941C45.0959 156.469 45.5105 154.179 46.9549 152.009C47.2331 151.73 47.567 151.513 47.9347 151.372C48.3024 151.231 48.6956 151.17 49.0888 151.191C51.1979 152.189 53.4561 152.835 55.7738 153.103C56.8393 155.949 55.4867 159.382 58.6579 161.693C58.8333 163.601 57.0433 162.814 56.1224 163.217L52.1687 161.607Z" fill="#8C373A"/>
<path d="M39.2589 153.026C36.0286 150.85 33.6621 147.936 31.2617 145.056C32.7551 143.357 34.8037 142.508 37.1093 142.085C40.0318 142.805 42.6894 139.569 45.7532 141.792C46.0808 142.115 46.2776 142.548 46.306 143.008C46.007 144.221 45.1358 145.303 45.235 146.619C45.0891 147.475 44.7132 148.276 44.1476 148.935C41.9932 149.793 41.2914 152.095 39.2589 153.026Z" fill="#AD565D"/>
<path d="M48.2927 151.718L46.3406 158.946L42.8125 156.154C42.4748 152.62 45.5389 150.523 46.7607 147.641C48.1433 146.644 47.8621 143.676 50.9439 144.694C51.2697 145.095 51.4962 145.568 51.6051 146.073C51.714 146.578 51.7021 147.102 51.5703 147.602C51.3737 149.595 50.1442 150.873 48.2927 151.718Z" fill="#876957"/>
<path d="M47.6912 148.707L42.788 156.148L40.9583 154.767C40.1165 152.963 40.2997 151.339 41.7369 149.932C44.3292 149.77 44.4561 147.285 45.9524 146.098C46.4798 145.978 47.0319 146.025 47.5309 146.234C48.574 147.055 48.7701 147.873 47.6912 148.707Z" fill="#8C745F"/>
<path d="M28.8832 141.793C29.0364 141.198 29.2238 140.613 29.4444 140.04C29.7306 139.403 29.3863 138.285 30.3973 138.27C30.7453 138.263 31.1739 139.459 31.5617 140.107C32.7925 140.669 33.5765 141.534 33.7255 142.816C33.6765 143.284 33.49 143.727 33.1895 144.089C32.2427 144.765 31.3122 144.495 30.3953 143.917L28.8832 141.793Z" fill="#B9A895"/>
<path d="M42.9554 150.542C41.2649 151.51 41.4459 153.27 40.9824 154.773L39.2538 153.045C39.7881 150.878 39.8357 148.337 43.4298 148.68C43.9203 149.457 43.7228 150.07 42.9554 150.542Z" fill="#95645A"/>
<path d="M30.3869 143.931L33.0521 143.368C33.5339 143.006 33.667 142.404 34.111 142.007C34.4513 141.758 34.843 141.59 35.2571 141.513C35.6713 141.436 36.0974 141.453 36.5041 141.563C36.891 141.727 37.2289 141.988 37.4849 142.322C37.5733 142.494 37.5964 142.692 37.5501 142.88C37.5038 143.068 37.391 143.233 37.2327 143.345C35.1875 143.74 33.6138 145.449 31.2885 145.052L30.3869 143.931Z" fill="#A67A75"/>
<path d="M50.345 151.356C50.2766 151.634 50.1729 151.908 50.085 152.181L48.2876 151.738L50.1602 147.348C50.4781 147.115 50.8731 147.012 51.2641 147.062C51.6295 147.2 51.9314 147.467 52.1122 147.813C51.5361 148.99 50.9471 150.171 50.345 151.356Z" fill="#71302A"/>
<path d="M37.2024 143.363L37.4582 142.326C37.5439 142.125 37.6247 141.922 37.7068 141.715C38.6593 140.7 39.8626 139.954 41.1953 139.552C42.6669 139.347 44.1433 139.122 45.621 139.667C46.0603 139.903 46.4308 140.249 46.6962 140.671C46.7992 141.013 46.7771 141.38 46.634 141.707C46.4908 142.035 46.236 142.3 45.9149 142.457C42.7374 141.157 40.3764 144.678 37.2024 143.363Z" fill="#A85E67"/>
<path d="M42.9556 150.542C43.1093 149.919 43.2618 149.3 43.4155 148.677C43.6424 147.756 43.8705 146.83 44.0986 145.905C43.8649 144.757 44.6324 144.306 45.6279 144.019C45.8682 144.021 46.1043 144.082 46.3166 144.194C46.5288 144.307 46.7111 144.468 46.848 144.666C46.9584 144.994 46.9479 145.351 46.8185 145.673C46.6891 145.994 46.4492 146.259 46.142 146.419C45.6819 148.202 45.4144 150.104 42.9556 150.542Z" fill="#AC7A6B"/>
<path d="M46.5213 144.482C46.1918 144.422 45.8611 144.366 45.5292 144.315C45.3056 144.048 45.2598 143.815 45.3857 143.618C45.5116 143.422 45.6232 143.326 45.7109 143.347C45.7877 143.035 45.8342 142.721 45.9013 142.407C46.0585 141.769 46.1866 141.124 46.3341 140.483C46.1203 139.842 46.0415 139.176 46.8132 138.896C48.0843 138.435 48.6155 139.382 49.1888 140.179C49.6707 142.396 48.9481 143.923 46.5213 144.482Z" fill="#945B5A"/>
<path d="M45.716 143.369C45.6379 143.685 45.5928 144.015 45.5294 144.356L44.0647 145.917C42.9479 144.118 43.6608 143.343 45.716 143.369Z" fill="#9D4E4D"/>
<path d="M34.6433 135.927C33.79 138.006 32.9269 140.082 33.1596 142.408C31.9574 142.024 31.4353 141.249 31.5569 140.106C31.9683 138.311 32.2456 136.432 34.6433 135.927Z" fill="#A59984"/>
<path d="M51.2025 147.542L50.1652 147.328C50.3385 146.394 50.5082 145.454 50.6767 144.519L51.261 144.245C52.5823 144.23 53.8917 144.661 55.2223 144.503C56.3973 144.462 57.5736 144.491 58.7451 144.591C59.5075 144.732 60.2018 145.121 60.7199 145.698C61.6066 147.467 61.9964 149.072 59.6549 150.019C57.9595 150.252 56.9188 148.647 55.3623 148.568C53.891 148.479 52.8319 146.844 51.2025 147.542Z" fill="#743B2D"/>
<path d="M47.6911 148.707L47.0965 146.613C46.679 143.968 47.6051 142.558 50.7684 143.224C50.8739 143.306 50.9611 143.408 51.0244 143.525C51.0877 143.642 51.1257 143.771 51.1358 143.903C51.146 144.036 51.1282 144.169 51.0835 144.295C51.0388 144.42 50.9683 144.534 50.8765 144.631L50.6814 144.521C48.8726 145.403 49.6036 147.887 47.6911 148.707Z" fill="#89725D"/>
<path d="M50.817 143.531C48.3756 143.332 47.4785 144.708 47.0967 146.613C46.7752 146.534 46.4488 146.453 46.1129 146.412C46.269 145.779 46.3812 145.135 46.5166 144.502L48.6338 140.105C48.7671 139.792 48.996 139.53 49.2878 139.356C49.5795 139.182 49.919 139.105 50.2574 139.136C50.7217 139.231 51.153 139.447 51.5089 139.76C51.8647 140.073 52.1328 140.474 52.2867 140.922C52.366 141.25 52.3796 141.59 52.3268 141.923C52.274 142.256 52.1559 142.575 51.9792 142.862C51.6825 143.214 51.271 143.451 50.817 143.531Z" fill="#9A7A69"/>
<path d="M34.2976 142.528C34.5614 141.332 34.821 140.139 35.0767 138.948C35.6163 138.394 36.1498 137.823 37.1114 138.303C38.5061 139.897 37.9164 141.116 36.4184 142.162L34.2976 142.528Z" fill="#756F64"/>
<path d="M36.4184 142.162C36.6453 140.864 37.2859 139.565 36.2474 138.266C36.6976 136.439 37.778 137.17 38.8315 137.843C39.833 139.713 38.9175 141.037 37.5466 142.239L37.4678 142.328L36.4184 142.162Z" fill="#787371"/>
<path d="M49.8203 139.441L48.6532 140.109C47.7009 139.487 46.7991 139.079 46.339 140.505L45.852 140.385L45.3649 140.265C44.3831 139.217 43.9233 138.148 45.0633 137.003C46.3508 136.328 47.6486 136.555 48.9535 137.088C49.4204 137.341 49.8239 137.697 50.1335 138.129C50.2611 138.345 50.2998 138.603 50.2414 138.848C50.183 139.093 50.032 139.305 49.8203 139.441Z" fill="#9B8588"/>
<path d="M45.0235 137.437L45.3589 140.269L41.1653 140.785L42.3333 139.673C43.1812 138.874 42.47 136.477 45.0235 137.437Z" fill="#C2B5B9"/>
<path d="M52.1662 142.835C53.6155 143.244 53.9909 144.551 54.8274 145.475C53.2057 146.626 52.0788 145.454 50.8763 144.631C50.8581 144.264 50.8398 143.898 50.8167 143.531C50.9655 143.263 51.1094 142.993 51.2448 142.717C51.6094 142.243 51.8906 142.277 52.1662 142.835Z" fill="#6D372C"/>
<path d="M53.3465 138.362C52.7701 139.192 52.1977 140.019 51.6294 140.843L49.8203 139.441C49.8863 139.173 49.9512 138.91 50.0172 138.642C50.114 138.085 50.3539 137.562 50.7133 137.126C51.0727 136.689 51.5394 136.353 52.0677 136.151C52.7946 135.948 53.476 135.95 54.0221 136.607C54.0857 136.933 54.0561 137.271 53.9367 137.582C53.8172 137.892 53.6126 138.163 53.3465 138.362Z" fill="#9A7F77"/>
<path d="M49.1003 138.106C49.1604 137.863 49.1814 137.61 49.2317 137.364C48.3251 135.487 48.4029 133.977 50.8587 133.363C53.8181 133.829 51.996 135.854 52.431 137.15C51.9279 138.059 51.0238 138.415 50.0024 138.618L49.1003 138.106Z" fill="#DDECED"/>
<path d="M54.0397 134.565C53.9347 135.201 53.8237 135.84 53.7187 136.475L52.43 137.155C50.2296 136.251 52.0924 135.15 52.1401 134.138C52.4509 133.951 52.8217 133.892 53.1754 133.971C53.5292 134.051 53.8387 134.263 54.0397 134.565Z" fill="#F3F7F4"/>
<path d="M30.7959 134.871L36.8028 132.636C39.4302 133.506 40.7676 135.417 41.2749 137.97C41.273 138.364 41.1895 138.753 41.0296 139.113C40.8698 139.473 40.637 139.796 40.3462 140.061C38.1476 140.844 36.0931 141.984 34.2651 143.435C31.5038 142.186 30.0252 138.773 26.1495 139.404C24.6744 138.177 26.4972 137.469 26.8579 136.53L30.7959 134.871Z" fill="#8C373A"/>
<path d="M45.9842 131.799C49.8108 131.053 53.545 131.436 57.2791 131.778C57.4374 134.049 56.5742 136.084 55.2311 137.99C52.6459 139.569 53.066 143.713 49.3277 144.311C48.8683 144.313 48.4242 144.146 48.079 143.843C47.4282 142.773 47.2935 141.412 46.2856 140.533C45.7772 139.823 45.4739 138.987 45.4088 138.116C46.3461 136.032 45.2161 133.909 45.9842 131.799Z" fill="#AD565D"/>
<path d="M40.5306 139.125L36.8042 132.631L41.2679 132.109C44.0203 134.379 43.3266 138.011 44.4751 140.919C44.2057 142.599 46.5019 144.519 43.6048 145.959C43.0903 145.906 42.5957 145.732 42.1612 145.452C41.7266 145.171 41.3644 144.792 41.1039 144.345C39.8772 142.803 39.7995 141.022 40.5306 139.125Z" fill="#876957"/>
<path d="M43.0866 140.83L41.2667 132.114L43.5398 131.801C45.4085 132.479 46.4311 133.759 46.411 135.769C44.686 137.716 46.3663 139.556 46.1402 141.458C45.8528 141.917 45.4288 142.273 44.9281 142.477C43.6315 142.623 42.9134 142.182 43.0866 140.83Z" fill="#8C745F"/>
<path d="M61.2746 132.422C61.5889 132.947 61.8706 133.491 62.1183 134.05C62.365 134.705 63.3731 135.248 62.6783 135.971C62.4357 136.221 61.289 135.675 60.5584 135.495C59.2896 135.968 58.1214 135.928 57.1149 135.106C56.8156 134.743 56.6334 134.299 56.5924 133.83C56.7821 132.683 57.631 132.216 58.6802 131.963L61.2746 132.422Z" fill="#B9A895"/>
<path d="M45.1274 136.176C45.6323 134.296 44.2561 133.171 43.5275 131.788L45.9707 131.791C47.1451 133.692 48.8887 135.528 46.1233 137.817C45.2114 137.639 44.9101 137.058 45.1274 136.176Z" fill="#95645A"/>
<path d="M58.6963 131.982L57.2085 134.266C57.1289 134.862 57.4554 135.361 57.4234 135.973C57.3554 136.387 57.1953 136.78 56.9549 137.125C56.7145 137.469 56.3999 137.754 56.0344 137.961C55.645 138.122 55.2196 138.176 54.8023 138.117C54.6195 138.054 54.4655 137.928 54.369 137.76C54.2725 137.593 54.2399 137.397 54.2773 137.207C55.4482 135.475 55.3347 133.169 57.2757 131.792L58.6963 131.982Z" fill="#A67A75"/>
<path d="M39.3306 140.829C39.1971 140.574 39.0636 140.319 38.9362 140.06L40.5319 139.12C41.1184 140.598 41.7158 142.073 42.3072 143.552C42.2469 143.944 42.0375 144.298 41.7228 144.539C41.3623 144.708 40.9519 144.736 40.572 144.617L39.3306 140.829Z" fill="#71302A"/>
<path d="M54.2809 137.192L54.8303 138.108C54.91 138.308 54.9935 138.515 55.0829 138.718C55.1424 140.109 54.8303 141.491 54.1788 142.722C53.2823 143.906 52.4029 145.105 50.9681 145.769C50.4913 145.916 49.9843 145.933 49.4985 145.82C49.1836 145.651 48.9393 145.375 48.8093 145.042C48.6793 144.709 48.6722 144.34 48.7892 144.002C51.9252 142.662 51.1108 138.504 54.2809 137.192Z" fill="#A85E67"/>
<path d="M45.1276 136.176L46.1235 137.817L47.5916 140.245C48.5684 140.894 48.3461 141.754 47.8478 142.665C47.6754 142.833 47.4652 142.957 47.2349 143.027C47.0046 143.097 46.7608 143.111 46.5241 143.067C46.2166 142.911 45.9737 142.652 45.8383 142.335C45.7028 142.019 45.6834 141.664 45.7835 141.334C44.8633 139.764 43.7072 138.229 45.1276 136.176Z" fill="#AC7A6B"/>
<path d="M46.8933 142.972L47.703 142.391C48.0462 142.424 48.2462 142.556 48.2932 142.785C48.3402 143.013 48.3358 143.157 48.2617 143.206L48.7888 144.002L49.8443 145.673C50.4476 145.972 50.9746 146.391 50.6266 147.132C50.0503 148.359 49.0066 148.066 48.0339 147.903C46.1525 146.69 45.5839 145.098 46.8933 142.972Z" fill="#945B5A"/>
<path d="M48.2618 143.206L47.7031 142.391C47.6776 141.677 47.657 140.964 47.6315 140.25C49.6882 140.731 49.7269 141.769 48.2618 143.206Z" fill="#9D4E4D"/>
<path d="M61.3514 140.64C60.4843 138.561 59.627 136.485 57.8164 135.005C58.9351 134.428 59.8519 134.608 60.5776 135.5C61.5574 137.059 62.6843 138.587 61.3514 140.64Z" fill="#A59984"/>
<path d="M41.4259 144.13L42.3122 143.553L43.9322 145.911C43.8562 146.114 43.7863 146.314 43.7152 146.518C42.785 147.462 41.557 148.084 40.7294 149.136C39.9262 149.996 39.0737 150.809 38.1762 151.57C37.535 152.007 36.769 152.223 35.9942 152.185C34.1294 151.575 32.7078 150.698 33.7063 148.366C34.7409 146.998 36.6111 147.397 37.7915 146.34C38.8663 145.375 40.7658 145.781 41.4259 144.13Z" fill="#743B2D"/>
<path d="M43.0868 140.83L44.986 141.887C47.1813 143.462 47.503 145.091 44.7883 146.881C44.6563 146.898 44.5222 146.887 44.3946 146.849C44.2671 146.811 44.149 146.747 44.048 146.66C43.9471 146.573 43.8656 146.466 43.8087 146.346C43.7519 146.225 43.7211 146.094 43.7182 145.961L43.9346 145.901C44.5878 144.005 42.3169 142.759 43.0868 140.83Z" fill="#89725D"/>
<path d="M44.5395 146.696C46.408 145.089 46.0657 143.502 44.986 141.887C45.2677 141.708 45.5541 141.51 45.8249 141.334L46.8937 142.972L48.4835 147.59C48.6137 147.905 48.64 148.252 48.5586 148.583C48.4772 148.913 48.2922 149.209 48.0308 149.427C47.6341 149.685 47.1771 149.837 46.7044 149.866C46.2317 149.895 45.7595 149.801 45.3339 149.594C45.0435 149.42 44.7913 149.189 44.5923 148.916C44.3934 148.642 44.2519 148.331 44.1764 148.001C44.1344 147.536 44.2635 147.072 44.5395 146.696Z" fill="#9A7A69"/>
<path d="M56.926 135.726L58.9073 138.798C58.9184 139.57 58.9465 140.358 57.9231 140.694C55.8141 140.552 55.3694 139.274 55.6847 137.471L56.926 135.726Z" fill="#756F64"/>
<path d="M55.6576 137.475C56.4241 138.558 56.8873 139.928 58.5354 140.117C59.4959 141.733 58.2276 141.973 57.0093 142.242C54.9814 141.623 54.6891 140.042 54.812 138.223L54.8007 138.101L55.6576 137.475Z" fill="#787371"/>
<path d="M48.1323 148.889L48.4833 147.59C49.6019 147.349 50.5243 147.003 49.8446 145.673L50.2756 145.392L50.7213 145.135C52.1572 145.179 53.2391 145.611 53.2384 147.228C52.8037 148.614 51.7282 149.372 50.4256 149.919C49.9155 150.072 49.3767 150.106 48.8515 150.017C48.6139 149.95 48.4092 149.798 48.2765 149.59C48.1438 149.382 48.0925 149.132 48.1323 148.889Z" fill="#9B8588"/>
<path d="M52.9454 146.908L50.7166 145.134C51.5878 144.031 52.4601 142.923 53.3265 141.819C53.3184 142.334 53.2996 142.892 53.2904 143.433C53.2285 144.585 55.4178 145.786 52.9454 146.908Z" fill="#C2B5B9"/>
<path d="M44.0745 148.141C42.7725 148.854 41.5695 148.222 40.3246 148.158C40.6723 146.223 42.2881 146.229 43.7181 145.961L44.5381 146.68C44.6243 146.98 44.7129 147.271 44.8367 147.565C44.8898 148.167 44.6422 148.354 44.0745 148.141Z" fill="#6D372C"/>
<path d="M46.4019 152.136C46.221 151.151 46.0426 150.163 45.8665 149.172L48.1324 148.889C48.2779 149.116 48.421 149.353 48.5593 149.588C48.885 150.051 49.0848 150.59 49.1389 151.153C49.1931 151.717 49.0997 152.284 48.868 152.801C48.504 153.46 48.0201 153.935 47.1827 153.853C46.9049 153.668 46.6845 153.409 46.5464 153.106C46.4084 152.803 46.3583 152.466 46.4019 152.136Z" fill="#9A7F77"/>
<path d="M98.6882 83.0568L95.0894 82.0612C94.8733 82.938 94.6073 83.8076 94.4399 84.6964C94.0424 86.6651 93.2429 89.1962 95.472 89.9626C98.3297 90.9461 98.6115 87.8534 99.4665 85.8941C99.2042 84.9459 98.9456 84.0037 98.6882 83.0568Z" fill="#FF0606"/>
<path d="M67.1244 81.9624L70.4215 83.7206C70.8252 82.9211 71.2619 82.1349 71.6291 81.316C72.4431 79.4809 73.7666 77.1927 71.7513 75.9778C69.1886 74.4057 68.2383 77.3388 66.9846 79.05C67.0283 80.0184 67.0749 80.9892 67.1244 81.9624Z" fill="#FF0606"/>
<path d="M49.5865 149.319C49.7332 149.521 49.8786 149.727 50.0168 149.942C51.9866 150.629 52.9965 151.751 51.6969 153.921C49.2729 155.685 49.1277 152.963 47.9077 152.357C47.6355 151.365 48.0073 150.465 48.558 149.593L49.5865 149.319Z" fill="#DDECED"/>
<path d="M48.5966 155.327L47.472 153.748L47.9067 152.362C50.0962 151.445 49.5641 153.54 50.2552 154.279C50.1691 154.635 49.9478 154.944 49.6382 155.139C49.3286 155.335 48.9551 155.402 48.5966 155.327Z" fill="#F3F7F4"/>
</g>
<defs>
<filter id="filter0_d_41_8" x="22.2578" y="3.4563" width="181.808" height="182.044" filterUnits="userSpaceOnUse" color-interpolation-filters="sRGB">
<feFlood flood-opacity="0" result="BackgroundImageFix"/>
<feColorMatrix in="SourceAlpha" type="matrix" values="0 0 0 0 0 0 0 0 0 0 0 0 0 0 0 0 0 0 127 0" result="hardAlpha"/>
<feOffset dy="4"/>
<feGaussianBlur stdDeviation="2"/>
<feComposite in2="hardAlpha" operator="out"/>
<feColorMatrix type="matrix" values="0 0 0 0 0 0 0 0 0 0 0 0 0 0 0 0 0 0 0.25 0"/>
<feBlend mode="normal" in2="BackgroundImageFix" result="effect1_dropShadow_41_8"/>
<feBlend mode="normal" in="SourceGraphic" in2="effect1_dropShadow_41_8" result="shape"/>
</filter>
<clipPath id="clip0_41_8">
<rect width="160.535" height="160.535" fill="white" transform="matrix(-0.970939 -0.239328 -0.239328 0.970939 194.778 38.4207)"/>
</clipPath>
</defs>
</svg>
