<svg width="153" height="130" viewBox="0 0 153 130" fill="none" xmlns="http://www.w3.org/2000/svg">
<g filter="url(#filter0_d_41_5)">
<path d="M42.2394 120L7 24.0002H101.951L146 120H42.2394Z" fill="#FFFDE7"/>
<path d="M42.2394 120L7 24.0002H101.951L146 120H42.2394Z" stroke="#CCAB01" stroke-width="3"/>
</g>
<path d="M64.6246 120.208C61.9778 119.851 59.4549 118.866 57.2664 117.335C56.96 115.5 55.981 115.166 54.4529 116.077L52.4989 114.915C51.8105 111.712 53.9873 109.579 55.3762 107.143C56.1363 106.109 57.0834 105.444 58.4404 105.587C60.4302 106.196 60.7565 109.658 63.7014 108.592C65.8185 108.094 67.9913 107.434 69.0738 110.255C69.3046 111.847 67.669 112.4 67.1715 113.594C67.0673 114.015 66.9343 114.429 66.7736 114.832C65.8782 116.559 66.507 118.899 64.6246 120.208Z" fill="#C1C1C0"/>
<path d="M45.2364 110.176L42.1244 107.358C41.6269 105.79 41.5513 104.258 42.4865 102.845C42.9203 101.456 41.2449 101.902 40.9305 101.17C40.6703 100.777 40.5091 100.326 40.4609 99.8567C40.5326 98.4997 41.2847 97.6242 42.4308 97.0272C42.8597 96.8359 43.312 96.7021 43.7759 96.6293C44.8893 96.6588 45.9962 96.4513 47.0232 96.0204C47.4491 95.9165 47.8862 95.8657 48.3245 95.8692C49.59 96.096 50.8515 96.2472 52.0215 95.4712C52.8529 95.0461 53.801 94.9062 54.7197 95.0733C55.1833 95.2236 55.5965 95.499 55.9135 95.8692C56.8487 97.8072 55.5872 99.1006 54.5724 100.47C53.0018 101.814 51.5603 103.302 50.2665 104.915C48.7193 106.194 47.4087 107.735 46.3944 109.467C46.0592 109.778 45.6655 110.019 45.2364 110.176Z" fill="#A8A5A5"/>
<path d="M103.262 107.024C103.894 108.732 104.529 110.441 105.169 112.149C103.23 114.199 100.453 114.589 98.0054 115.333C94.0258 116.567 91.3237 118.775 89.9826 122.687L87.0496 123.029C85.3822 121.517 86.7114 119.695 86.5244 118.027C86.5721 117.028 86.5641 116.037 87.0138 115.09C89.2901 111.318 94.0895 111.162 96.911 108.17C98.0252 106.865 99.5892 106.284 101.074 105.567C102.216 105.416 102.757 106.2 103.262 107.024Z" fill="#999493"/>
<path d="M89.9825 122.703C88.323 120.168 89.1428 118.139 91.439 116.638C95.5937 113.916 100.087 112.102 105.168 112.149C105.606 113.14 106.044 114.139 106.478 115.126C104.213 118.174 100.349 117.991 97.3566 119.587C95.6255 120.51 93.775 121.223 92.1076 122.281L89.9825 122.703Z" fill="#AFABAA"/>
<path d="M92.1074 122.281C95.6253 117.343 100.667 115.464 106.478 115.118L108.404 116.177C108.34 119.03 105.773 118.795 104.118 119.452C100.273 121.004 96.3218 122.253 92.1074 122.281Z" fill="#B0ADAC"/>
<path d="M51.3808 114.167C50.1496 113.896 49.0624 113.179 48.3285 112.154C47.3933 107.028 51.1142 104.087 53.7367 100.613C55.1176 99.6418 55.5593 97.5884 57.5372 97.2979C57.9132 97.3415 58.2726 97.4778 58.5831 97.6945C58.8935 97.9112 59.1454 98.2015 59.316 98.5395C59.616 99.2358 59.7166 100.002 59.6065 100.752C59.2643 102.189 58.4923 103.414 57.6963 104.628C56.5582 105.77 55.4479 106.928 55.0818 108.584C52.8691 109.802 54.0153 113.24 51.3808 114.167Z" fill="#AFABA2"/>
<path d="M54.4848 100.939L48.3284 112.153C47.1346 111.755 45.9009 111.409 45.2363 110.164L45.3517 109.049C46.3984 107.123 48.2528 105.834 49.3552 103.955C50.3562 102.283 51.7407 100.872 53.3944 99.8406C54.3734 99.5979 54.7276 99.972 54.4848 100.939Z" fill="#C6C4C4"/>
<path d="M69.285 121.426C67.9916 121.294 66.5868 121.68 65.4885 120.63C64.995 118.123 64.7881 115.62 65.6516 113.144C68.4811 111.155 69.5874 113.363 70.825 115.257C71.4976 116.491 72.7193 117.442 72.7671 119.002C72.584 121.207 71.5493 122.198 69.285 121.426Z" fill="#D2D1D1"/>
<path d="M37.2134 102.857L34.2247 98.8457C34.5033 97.3056 33.4885 95.3596 35.6176 94.3966C37.484 93.8991 39.3464 93.3539 41.2964 93.9986C41.6327 94.1254 41.9337 94.3311 42.174 94.5984C42.4144 94.8657 42.5869 95.1868 42.6773 95.5347C42.6057 97.6001 40.4408 98.5552 40.0667 100.465C39.4618 101.687 39.3026 103.43 37.2134 102.857Z" fill="#E4CC95"/>
<path d="M85.9589 123.117H79.8742C76.8258 120.908 79.52 119.138 80.3079 117.184C80.9374 116.613 81.7545 116.293 82.6042 116.284C86.9856 116.965 87.8333 119.372 85.9589 123.117Z" fill="#A09B9A"/>
<path d="M80.8695 118.182C81.1441 119.953 78.625 121.163 79.8746 123.133C77.7655 123.193 75.6085 123.666 73.6387 122.441C73.7435 121.991 73.9504 121.571 74.2436 121.215C76.1378 120.276 76.0861 117.458 78.3664 116.909C79.2379 117.239 79.9303 117.991 80.8695 118.182Z" fill="#969190"/>
<path d="M85.9592 123.117C86.7153 119.703 84.9126 118.023 81.916 117.148C84.7932 112.468 86.2935 115.91 88.0007 118.174C87.6877 119.798 87.3707 121.42 87.0496 123.041L85.9592 123.117Z" fill="#8E8A88"/>
<path d="M54.4609 116.089C54.9663 114.33 55.6548 111.982 57.8237 113.081C59.2722 113.809 58.6514 116.034 57.2745 117.347L54.4609 116.089Z" fill="#C7C5C5"/>
<path d="M51.3809 114.167C52.7339 112.293 51.8345 109.32 54.3814 108.035C55.0818 107.82 55.7982 107.283 56.4667 108.098C55.1402 110.375 53.8137 112.651 52.4872 114.927L51.3809 114.167Z" fill="#B0ADAD"/>
<path d="M37.2134 102.857C38.845 102.507 38.0093 100.545 39.1514 99.8845C39.8041 99.2876 40.4448 99.2796 41.0735 99.9163L41.3561 100.943C41.6483 101.319 41.8732 101.744 42.0207 102.197C42.0804 104.007 41.2248 104.887 39.4021 104.779C38.9168 104.643 38.4682 104.4 38.0894 104.067C37.7106 103.734 37.4112 103.321 37.2134 102.857Z" fill="#776455"/>
<path d="M39.4023 104.779L41.3284 101.95C42.5621 101.524 44.0107 100.466 44.2654 102.945L42.1244 107.358L39.4023 104.779Z" fill="#BCB7B0"/>
<path d="M74.7567 122.027L73.6305 122.425C72.1461 122.234 70.5543 122.492 69.2769 121.41C71.1194 121.139 71.7999 119.969 71.7283 118.226C72.7709 117.633 73.6384 118.055 74.4741 118.692C75.3297 119.746 75.9108 120.813 74.7567 122.027Z" fill="#CBCBCD"/>
<path d="M36.1033 94.8027C35.4798 96.153 34.8537 97.5008 34.2249 98.8459L32.7485 96.9914C32.9913 95.0812 33.8071 93.6963 35.9322 93.5212C36.0668 93.6079 36.1741 93.7308 36.2417 93.8759C36.3093 94.021 36.3344 94.1823 36.3142 94.341C36.2625 94.6475 36.1908 94.8027 36.1033 94.8027Z" fill="#D0CFB2"/>
<path d="M65.6512 113.14C65.5955 115.634 65.5411 118.129 65.4881 120.626C65.1609 120.605 64.8532 120.463 64.6245 120.228C64.9031 117.848 63.8644 115.289 65.6512 113.14Z" fill="#C7C6C5"/>
<path d="M113.442 82.7604C114.202 84.0736 115.583 83.2698 116.601 83.6956C110.684 86.3857 106.231 90.4847 104.074 96.7803C99.8277 95.877 101.686 93.3619 102.554 91.0936C103.139 88.9963 104.635 87.2931 105.128 85.1481C106.099 82.8599 108.232 82.048 110.262 81.0969C111.651 81.0253 112.562 81.8928 113.442 82.7604Z" fill="#8C8786"/>
<path d="M104.313 91.7463C103.517 93.3899 101.165 94.9618 104.074 96.7805L103.31 98.9215C102.949 99.2388 102.548 99.5064 102.116 99.7174C100.524 100.087 99.179 99.8368 98.2199 98.3922C97.4877 96.681 97.7264 94.8981 97.822 93.1272C98.3035 91.6787 98.6577 90.1784 99.4774 88.8612C99.8271 88.4813 100.302 88.2398 100.815 88.1807C103.159 88.2443 103.342 90.3615 104.313 91.7463Z" fill="#8F8582"/>
<path d="M99.2745 98.8616C100.277 98.977 101.296 97.9941 102.283 98.9174C103.437 100.438 102.283 102.312 103.051 103.892C103.119 104.934 103.19 105.981 103.262 107.024L101.272 105.997C101.095 106.166 100.872 106.28 100.631 106.326C100.391 106.371 100.142 106.345 99.9152 106.252C98.3631 105.149 97.7184 103.526 97.3046 101.759C97.2807 100.334 97.7463 99.2317 99.2745 98.8616Z" fill="#958770"/>
<path d="M103.051 103.892C101.889 102.376 102.395 100.597 102.283 98.9175H103.31C103.223 100.576 103.136 102.234 103.051 103.892Z" fill="#B2976D"/>
<path d="M111.233 39.9324C111.859 42.614 111.83 45.4065 111.15 48.0746C110.374 49.4436 110.529 51.2582 109.16 52.3367C106.713 51.899 107.023 49.4953 106.052 47.999C105.797 47.3063 105.587 46.5978 105.423 45.8779C105.378 45.3731 105.42 44.8644 105.547 44.3736C105.945 43.3947 106.561 42.6624 107.66 42.4634C108.774 42.5351 109.383 43.2036 109.757 44.1985C109.845 44.4018 109.887 44.6219 109.88 44.8432C109.789 43.2036 108.288 41.1661 110.445 39.8489L111.233 39.9324Z" fill="#B57E6F"/>
<path d="M110.425 39.849V45.7905L107.329 42.8894C104.663 41.608 107.449 40.3425 107.329 39.0611C107.502 38.6758 107.742 38.3241 108.038 38.0224L108.643 37.8274L110.394 38.874C110.354 39.1987 110.365 39.5276 110.425 39.849Z" fill="#AD746B"/>
<path d="M55.1099 25.6022C55.5609 22.8776 56.0079 20.1569 56.451 17.4402L58.4646 14.3759L60.4544 13.1462C62.0223 17.6511 59.3322 23.903 55.1099 25.6022Z" fill="#2E2D31"/>
<path d="M106.231 16.4652C106.629 17.8103 108.03 18.8291 107.504 20.4448C103.66 20.6119 102.661 15.6693 98.9283 15.6693C97.278 14.9307 95.7335 13.9751 94.3359 12.8279C93.3291 11.6341 91.9482 10.9973 90.5673 10.3924C90.2104 10.1277 89.9156 9.78816 89.7037 9.39755C89.646 9.18689 89.653 8.9637 89.724 8.75712C89.795 8.55053 89.9266 8.37015 90.1017 8.2395H92.1591L106.231 16.4652Z" fill="#303032"/>
<path d="M36.1033 94.8027C36.0476 94.3769 35.9959 93.9471 35.9402 93.5213C35.9791 93.2559 35.9656 92.9855 35.9004 92.7254C35.9959 92.1643 36.5331 92.0329 36.8833 91.7225C37.9857 89.88 39.3467 89.1398 41.2608 90.6879C41.7014 90.9959 42.0363 91.4322 42.2199 91.9374C42.4627 93.0637 42.3393 94.0745 41.3245 94.8067C39.5775 95.8294 37.8424 95.8891 36.1033 94.8027Z" fill="#EBDAAB"/>
<path d="M41.3764 91.8259C41.3326 91.428 41.2888 91.0579 41.249 90.6758L43.2388 89.6531L44.2934 89.8202C45.3082 90.7156 46.4662 91.5075 46.6294 93.0238C46.7249 94.6753 46.7129 96.283 44.9182 97.1426C42.3275 96.3308 43.3184 93.0954 41.3764 91.8259Z" fill="#A8A5A5"/>
<path d="M36.8833 91.7105L35.9004 92.7134C35.0527 92.5223 33.3296 92.8526 33.8827 91.5195C34.4717 90.0749 35.8645 91.3404 36.8833 91.7105Z" fill="#676567"/>
<path d="M68.672 111.107C67.4781 108.365 65.4207 109.881 63.6299 110.092C59.1927 112.01 60.2513 107.645 58.938 105.993C57.9471 104.604 57.7203 103.208 58.8584 101.771C59.515 100.943 60.2831 100.334 61.4252 100.438C61.789 100.536 62.1281 100.709 62.4202 100.947C62.7123 101.185 62.951 101.482 63.1205 101.819C63.2843 102.279 63.3586 102.767 63.3394 103.255C62.6509 105.325 63.6299 105.687 65.5321 105.965C68.2263 106.363 70.996 107.195 69.9813 111.059C69.7929 111.197 69.5674 111.276 69.334 111.284C69.1005 111.293 68.8699 111.231 68.672 111.107Z" fill="#AEABA8"/>
<path d="M68.6718 111.107C69.0021 111.131 69.3324 111.147 69.6628 111.159C70.1029 111.399 70.47 111.754 70.7253 112.185C70.9265 112.65 71.0412 113.148 71.0636 113.654C71.0118 114.712 70.7054 115.644 69.7065 116.197C68.5724 114.887 68.1147 112.707 65.6514 113.144C65.8901 111.33 67.1954 111.095 68.6718 111.107Z" fill="#C7C6C5"/>
<path d="M56.4508 108.098C55.7504 108.301 55.0341 108.842 54.3655 108.035C54.3098 106.264 55.2967 105.05 56.5344 103.972C57.581 103.49 58.1262 104.218 58.7271 104.859C58.8237 105.048 58.8491 105.265 58.7987 105.471C58.7483 105.677 58.6254 105.858 58.4525 105.981L56.4508 108.098Z" fill="#CDC8CD"/>
<path d="M58.4683 105.981C58.4862 105.652 58.4862 105.323 58.4683 104.994C58.7986 104.521 59.1408 104.532 59.499 104.962C60.2272 107.187 60.0203 110.16 63.6138 110.092C58.6752 112.778 59.5945 108.094 58.4683 105.981Z" fill="#B0ADAD"/>
<path d="M67.4541 10.2094L69.7344 8.35096C74.5894 8.49422 79.0823 4.41518 84.1562 7.12526C84.1534 7.52873 84.0435 7.92422 83.8379 8.27137C83.6007 8.59076 83.3193 8.87482 83.0022 9.11503C82.3294 9.51943 81.8324 10.1612 81.6093 10.9138C80.9806 12.7921 80.0732 14.6506 81.7287 16.4613C82.1267 16.9587 82.3814 17.5557 82.8947 17.9576C83.9254 19.0042 85.6804 19.1753 86.3291 20.6876C86.3689 22.1162 85.3939 22.8286 84.3672 23.513C83.9192 23.7295 83.4396 23.8732 82.9465 23.9389C80.507 24.098 78.0675 23.8792 75.6281 23.907C72.5559 23.1788 69.4637 22.6813 68.4211 18.8052C67.9953 17.2134 66.0931 16.5886 64.549 15.8206C61.1027 14.0974 61.1903 13.4328 64.8117 11.0451C65.6951 10.7705 66.9447 11.6659 67.4541 10.2094Z" fill="#1E1E22"/>
<path d="M82.9424 8.27519L84.1362 7.1251C86.1747 7.04124 88.2054 7.4237 90.0737 8.24336C90.0737 8.59356 90.0737 8.93978 90.0737 9.28998C87.4234 10.9216 85.1033 10.1575 82.9424 8.27519Z" fill="#1A191C"/>
<path d="M54.4849 100.939L53.3945 99.8526C54.0989 98.5194 55.4161 97.5086 55.4758 95.8412C54.8848 93.6689 54.7173 91.4031 54.9824 89.1675C59.0773 86.4694 61.1387 89.263 63.1564 92.188C63.2756 92.9445 63.0895 93.7175 62.639 94.3369C61.083 95.7377 59.6703 97.3574 57.4656 97.835L54.4849 100.939Z" fill="#BDB9B7"/>
<path d="M45.308 92.7491C44.9737 91.7701 44.6394 90.7872 44.3091 89.8082L47.3017 89.6292C48.6548 89.9157 49.2915 91.1334 50.2983 91.8895C50.8714 92.184 51.4922 92.3591 52.0573 92.6655C52.9686 93.2824 54.1227 93.5729 54.7395 94.5996C54.8175 94.8034 54.833 95.0257 54.7841 95.2384C54.7352 95.451 54.6241 95.6442 54.4649 95.7935L52.5507 96.7844C51.1857 96.673 49.8327 97.1346 48.4677 96.86L47.3335 96.8162C44.4444 96.5774 46.7207 93.752 45.308 92.7491Z" fill="#B4B0AE"/>
<path d="M41.3764 91.8259C44.4804 92.2239 44.2217 94.6116 44.3133 96.8203C44.3822 96.8868 44.4355 96.9678 44.4695 97.0574C44.5034 97.147 44.517 97.243 44.5094 97.3385C44.5018 97.434 44.4731 97.5266 44.4254 97.6097C44.3778 97.6928 44.3123 97.7644 44.2337 97.8191L43.1632 97.7754C42.4548 97.3257 41.5714 96.9794 42.2081 95.8453L41.3286 94.7947C41.3286 93.8038 41.3565 92.8168 41.3764 91.8259Z" fill="#8E837E"/>
<path d="M54.461 95.8253L54.3137 94.7389C53.3387 93.6565 52.9726 92.4507 53.5656 91.0459C53.7483 90.6875 54.0213 90.383 54.3577 90.1625C54.6941 89.9419 55.0822 89.813 55.4837 89.7883C57.0477 91.802 57.0278 93.8156 55.4837 95.8253H54.461Z" fill="#969292"/>
<path d="M44.2334 97.819C44.2334 97.4847 44.2732 97.1504 44.313 96.8201C45.5069 95.678 45.2283 94.1777 45.292 92.761L47.3215 96.848C46.5495 97.9941 45.8531 99.375 44.2334 97.819Z" fill="#ACA7A3"/>
<path d="M49.355 103.968C49.0446 106.475 47.1861 107.756 45.3516 109.061C45.5784 106.491 47.4965 105.253 49.355 103.968Z" fill="#BEBCBF"/>
<path d="M42.2082 95.8452L43.1632 97.7753L41.074 99.9123L39.1519 99.8805C40.0711 98.4598 40.6919 96.8122 42.2082 95.8452Z" fill="#7D7458"/>
<path d="M48.4561 96.8919C49.8011 96.096 51.1502 95.4075 52.5391 96.8163C51.2019 98.0261 49.8449 98.2887 48.4561 96.8919Z" fill="#928B8B"/>
<path d="M44.2455 102.945C43.4774 101.982 42.403 101.938 41.3086 101.95L41.3563 100.943C42.7333 101.456 44.142 99.5264 45.3916 100.943C45.5548 101.146 44.6554 102.256 44.2455 102.945Z" fill="#B1B4AF"/>
<path d="M65.6433 11.3394C64.8474 11.9364 63.375 12.585 63.4108 13.1302C63.5342 14.9608 65.0862 13.9739 66.1328 14.1132C69.5433 14.5669 69.8895 18.817 72.9538 19.7522L70.9282 21.0694L75.827 22.5419C75.628 25.6698 73.1687 24.8818 71.3619 25.0251C68.8787 25.2241 66.2522 24.5635 64.1391 26.5055C62.6348 28.0536 60.2232 28.8614 60.0759 31.5197C59.9605 32.6897 59.9406 33.9075 58.9736 34.7671C58.7867 34.8977 58.5699 34.9793 58.3432 35.0043C58.1165 35.0294 57.8872 34.997 57.6763 34.9103C57.3381 34.6849 57.0584 34.3821 56.8605 34.0271C56.6626 33.6721 56.5521 33.275 56.5381 32.8688C56.3431 34.3452 57.8195 34.7432 58.3886 35.7381C59.1089 37.3657 58.7866 38.7267 57.3897 39.829C54.7195 40.6249 54.5523 38.4839 54.4648 36.9837C54.2459 33.1832 53.6689 29.319 55.1095 25.6021C56.375 21.2246 59.8451 17.7983 60.4779 13.1462C60.852 12.5731 61.2274 12.0014 61.6041 11.431L65.6632 10.4202C65.7616 10.4854 65.8361 10.5809 65.8755 10.6921C65.915 10.8033 65.9173 10.9243 65.8821 11.037C65.8025 11.236 65.7229 11.3394 65.6433 11.3394Z" fill="#29282B"/>
<path d="M65.8785 15.339C65.0826 15.9399 63.6101 16.5846 63.6459 17.1298C63.7693 18.9643 65.3213 17.9734 66.3679 18.1167C69.7784 18.5703 70.1207 22.8205 73.1889 23.7557L71.1752 25.0729L76.0741 26.5454C75.8751 29.6733 73.4157 28.8853 71.609 29.0286C69.1258 29.2236 66.4993 28.563 64.3861 30.505C62.8819 32.0531 60.4663 32.8649 60.323 35.5232C60.2076 36.6932 60.1877 37.911 59.2207 38.7705C59.0334 38.9006 58.8165 38.9814 58.5898 39.0058C58.3631 39.0301 58.1339 38.9971 57.9233 38.9098C57.5852 38.6853 57.3055 38.3832 57.1076 38.0289C56.9096 37.6745 56.7991 37.278 56.7852 36.8723C56.5902 38.3487 58.0666 38.7467 58.6357 39.7416C59.356 41.3652 59.0336 42.7302 57.6368 43.8286C54.9665 44.6483 54.7994 42.4874 54.7118 40.9872C54.493 37.1867 53.9159 33.3225 55.3565 29.6056C56.622 25.2281 60.0922 21.8017 60.7249 17.1496C61.099 16.5766 61.4744 16.0035 61.8512 15.4305L65.9103 14.4197C66.1371 14.6306 66.2088 14.8176 66.1292 15.0365C66.0496 15.2554 65.9581 15.339 65.8785 15.339Z" fill="#29282B"/>
<path d="M65.6436 11.3394C65.6436 11.033 65.6436 10.7266 65.6635 10.4201L67.4543 10.2092C68.1626 10.4599 69.444 10.7226 68.8789 11.5663C67.9915 12.9034 66.6782 12.2746 65.6436 11.3394Z" fill="#1A191E"/>
<path d="M88.0007 118.178C86.0906 117.14 84.3595 115.039 81.916 117.152L80.8734 118.182C79.7074 118.811 78.9473 118.632 78.8358 117.16C78.6839 116.971 78.5785 116.749 78.5281 116.512C78.4776 116.275 78.4835 116.029 78.5453 115.795C78.8393 115.096 79.361 114.516 80.0257 114.151C80.7193 113.841 81.4706 113.681 82.2304 113.682C84.1883 113.924 86.21 112.344 88.1241 113.857C88.2127 113.947 88.2818 114.054 88.3271 114.172C88.3724 114.29 88.3929 114.416 88.3873 114.542C88.3817 114.668 88.3501 114.792 88.2946 114.906C88.239 115.019 88.1607 115.12 88.0644 115.202C88.0445 116.193 88.0206 117.188 88.0007 118.178Z" fill="#827C7B"/>
<path d="M88.0645 115.202C88.0645 114.848 88.0367 114.497 88.0247 114.143C87.2288 112.297 88.4227 111.238 89.5807 110.164C90.7428 109.622 91.8491 108.934 93.1305 108.667C94.8377 108.667 96.6444 107.39 98.2163 109.065C95.6336 112.436 91.1328 112.647 88.0645 115.202Z" fill="#8A8582"/>
<path d="M98.2361 109.065L93.1542 110.092C92.9718 109.897 92.8465 109.656 92.7917 109.395C92.737 109.134 92.755 108.863 92.8438 108.612C94.6943 105.985 96.9546 104.505 100.262 105.969L101.28 105.997C101.225 107.991 99.1116 107.923 98.2361 109.065Z" fill="#7E7775"/>
<path d="M61.5765 100.919L59.6344 101.974C59.3423 101.965 59.0643 101.846 58.8561 101.641C58.648 101.436 58.5251 101.159 58.5122 100.867C58.5122 100.211 58.5321 99.5502 58.544 98.8777C59.0574 97.8947 58.9141 96.3984 60.5537 96.2791C61.0533 96.2993 61.5395 96.4466 61.9664 96.707C62.3932 96.9674 62.7466 97.3324 62.9932 97.7674C63.3195 99.1921 62.8937 100.255 61.5765 100.919Z" fill="#C3C0AD"/>
<path d="M60.53 96.848L58.5402 98.8935L57.4976 97.8509C58.6914 96.3267 59.3162 94.2056 61.6124 93.7917C62.6192 95.292 62.0223 96.2233 60.53 96.848Z" fill="#AEA8A6"/>
<path d="M58.4923 100.867L59.6145 101.974C59.3031 102.406 59.1274 102.921 59.1097 103.453C59.092 103.985 59.2331 104.511 59.5151 104.962L58.4844 104.994L56.5503 103.971L58.4923 100.867Z" fill="#CECEA2"/>
<path d="M69.7065 116.197V113.148C71.3939 112.52 72.9499 113.427 74.5895 113.546C75.0694 113.759 75.4822 114.099 75.7833 114.529C76.3882 116.646 78.382 119.36 73.7697 119.233L71.7202 118.238L69.7065 116.197Z" fill="#C1C1C1"/>
<path d="M73.7856 119.237C77.1484 118.147 74.0523 115.763 74.8004 114.151C75.0433 113.874 75.3556 113.666 75.7053 113.549C76.0549 113.432 76.4294 113.411 76.7902 113.486C78.1313 113.884 78.78 114.855 78.9193 116.197C78.8914 116.515 78.8675 116.837 78.8437 117.16C77.0369 118.401 78.1631 122.102 74.7726 122.027L73.7856 119.237Z" fill="#C7C6C6"/>
<path d="M109.462 81.4751C109.792 81.4344 110.127 81.5119 110.405 81.694C110.099 84.0817 106.935 83.5445 106.35 85.6497C102.068 88.7418 102.414 84.4001 101.248 82.466C100.882 81.5789 100.584 80.6649 100.357 79.7321C100.289 79.2596 100.289 78.7799 100.357 78.3074C100.695 77.1772 101.049 76.043 102.267 75.5217L102.96 75.6451C103.584 77.3245 104.368 78.8765 106.167 79.6246C106.247 79.9032 106.318 80.1818 106.386 80.4643C107.146 81.5786 108.288 81.5786 109.462 81.4751Z" fill="#827E7B"/>
<path d="M102.299 81.5667C104.126 82.4541 102.172 87.0982 106.35 85.6497C106.776 88.0374 104.516 89.5536 104.313 91.7463C102.989 91.0745 101.914 89.9983 101.244 88.6741C100.689 88.0948 100.356 87.3379 100.305 86.5371C100.842 84.8339 100.409 82.7327 102.299 81.5667Z" fill="#88807D"/>
<path d="M99.2748 98.8618C98.8954 99.8275 98.5147 100.795 98.1327 101.763L97.5875 102.201C96.2822 102.38 95.2793 101.978 94.7142 100.724C94.6449 100.267 94.6956 99.7992 94.8615 99.3672C97.0263 97.3297 96.6761 95.0335 95.5221 92.6537C95.4794 92.1456 95.5458 91.6343 95.7167 91.1538C95.8875 90.6734 96.159 90.2351 96.513 89.868C96.8057 89.5952 97.164 89.4027 97.5531 89.3093C97.9422 89.2158 98.3489 89.2246 98.7336 89.3348C100.099 90.3297 99.9274 91.5713 99.2947 92.8845L99.2748 98.8618Z" fill="#B1ACA7"/>
<path d="M99.2946 92.8843C99.215 91.6507 99.1354 90.421 97.9694 89.6331C97.2292 88.4949 97.3287 87.4523 98.3196 86.5051C100.361 86.0196 101.105 86.7001 100.309 88.7416C100.198 90.1782 100.397 91.6905 99.2946 92.8843Z" fill="#B6A79E"/>
<path d="M100.321 88.7418C100.158 87.5957 99.569 86.8435 98.3951 86.6247L97.9971 85.9879C97.981 85.6069 98.0434 85.2266 98.1803 84.8706C98.3172 84.5147 98.5258 84.1906 98.793 83.9186C99.0676 83.6518 99.4038 83.4571 99.7717 83.3515C100.14 83.246 100.528 83.233 100.902 83.3137C102.096 84.2966 102.028 85.4348 101.3 86.6565L101.252 88.6741C100.934 88.694 100.624 88.7139 100.321 88.7418Z" fill="#A4918A"/>
<path d="M100.226 105.969L93.1464 109.113C92.2072 109.435 91.7177 108.882 91.3039 108.174C90.6233 105.687 91.5904 103.721 93.2698 101.982C94.9571 100.473 96.5131 103.494 98.2044 102.133L98.1168 101.763C99.2869 102.878 100.033 104.365 100.226 105.969Z" fill="#6D5E5F"/>
<path d="M109.407 52.0304C109.347 50.4386 109.645 48.986 111.15 48.0747C111.894 53.7575 108.24 56.575 104.022 59.0264C103.783 59.0821 103.541 59.1299 103.298 59.1657C102.981 58.9164 102.721 58.6012 102.538 58.2419C102.354 57.8825 102.251 57.4876 102.235 57.0844C102.256 56.0028 102.597 54.9517 103.214 54.0635C103.832 53.1754 104.699 52.4901 105.706 52.0941C106.927 51.4693 108.185 52.6472 109.407 52.0304Z" fill="#AB8570"/>
<path d="M103.214 57.168L103.298 59.1577C102.924 62.9622 102.502 66.7587 101.097 70.3642C100.973 70.4341 100.835 70.4788 100.693 70.4956C100.552 70.5125 100.408 70.5012 100.27 70.4623C100.133 70.4235 100.004 70.358 99.8921 70.2694C99.78 70.1809 99.6864 70.0711 99.6167 69.9463C98.8208 66.5756 99.764 63.2925 100.301 60.0293C100.52 58.6882 101.109 56.957 103.214 57.168Z" fill="#8D614C"/>
<path d="M100.25 70.384H101.097L102.267 75.5296C102.212 76.6279 102.267 77.7502 101.356 78.5978C99.6488 77.6587 99.5891 75.8121 98.9683 74.2721C98.8131 72.7757 98.8568 71.3511 100.25 70.384Z" fill="#866A5D"/>
<path d="M108.614 27.5442C110.477 30.9705 108.34 34.4049 108.638 37.8313L108.415 37.5925L108.157 37.7875C102.438 39.825 98.2597 36.1599 97.7145 28.6346C98.5104 24.5436 96.059 20.3412 98.1124 16.2979C102.279 16.2104 107.468 20.5123 107.687 24.4162C107.743 25.5822 107.421 26.7482 108.614 27.5442Z" fill="#171717"/>
<path d="M108.615 27.5442C106.195 23.2463 103.772 18.9404 99.2311 16.4213C98.5904 15.7289 98.6899 15.0404 99.2311 14.356C103.155 14.8056 105.037 18.0211 107.493 20.4606C108.273 22.7608 108.866 25.0968 108.615 27.5442Z" fill="#1C1A1B"/>
<path d="M100.249 70.384C100.249 71.7371 100.249 73.0901 100.249 74.4392C101.272 76.62 100.401 79.0555 101.165 81.2681C101.201 82.145 100.894 83.0017 100.309 83.6558L99.2824 84.8497C98.3313 85.0089 97.8816 84.4517 97.5672 83.6558C97.3643 82.6052 97.7025 81.5705 97.6707 80.5239C97.7264 76.5125 97.8896 72.4972 96.7952 68.5853C96.6599 67.2282 96.6957 65.8712 96.6957 64.5102C96.6925 63.711 96.751 62.9127 96.8708 62.1225C98.3313 57.4624 98.9919 52.7387 98.1164 47.8717C97.7781 46.0053 97.7781 44.1946 99.4376 42.8455C101.825 41.58 102.156 44.501 103.732 44.895C104.726 45.0462 105.574 45.6909 106.609 45.6909L107.405 46.8848C108.002 49.0815 108.77 51.3061 106.326 52.9655C104.643 53.8569 104.165 55.6557 103.214 57.1003C100.472 61.1793 101.503 66.0383 100.249 70.384Z" fill="#895A46"/>
<path d="M108.324 38.8143C110.756 40.8478 106.334 41.202 107.329 42.8933C107.015 43.5619 106.705 44.2265 106.394 44.8831C105.2 45.8302 104.321 45.3367 103.525 44.322C103.253 43.8151 103.096 43.2547 103.065 42.6804C103.034 42.1062 103.13 41.5321 103.346 40.999C104.4 38.9177 106.235 38.5715 108.324 38.8143Z" fill="#8F6152"/>
<path d="M106.327 53.0292C107.489 51.1429 107.337 49.0258 107.405 46.9485C108.997 48.2856 107.763 50.7211 109.395 52.0304C108.603 53.0531 107.473 53.069 106.327 53.0292Z" fill="#A06A5B"/>
<path d="M104.233 43.9519L106.394 44.8951C106.469 45.1816 106.545 45.4641 106.617 45.7467C105.602 47.1037 104.456 46.4988 103.314 45.9695C102.753 44.903 102.53 43.9877 104.233 43.9519Z" fill="#7E4935"/>
<path d="M108.324 38.8142L104.393 40.9791C102.924 43.0882 101.456 42.1252 99.9833 40.9791C99.6469 40.6257 99.3665 40.2231 99.1516 39.7852C98.6382 38.2451 98.7934 36.51 97.7866 35.1053C97.1638 34.1034 96.7735 32.9748 96.6444 31.8022C96.4534 30.8193 95.7689 29.9 95.8485 28.9369C96.2982 23.7118 93.3573 21.8573 88.7411 21.5429C88.2783 21.2687 87.9092 20.8608 87.6825 20.373C87.6363 20.0958 87.646 19.8123 87.7109 19.5389C87.7758 19.2655 87.8947 19.0079 88.0606 18.7811C93.6001 15.4861 97.9776 17.5435 98.7019 23.7556C98.8889 25.3872 98.2442 27.1064 99.2152 28.6544C99.7803 34.5043 101.722 36.4862 108.153 37.7835L108.324 38.8142Z" fill="#332121"/>
<path d="M49.3554 87.6792L53.335 88.6621L53.8523 89.1676C53.9712 89.5053 54.0022 89.8677 53.9423 90.2207C53.8824 90.5736 53.7337 90.9056 53.5101 91.1852C52.4117 92.4905 50.3742 92.3154 49.3753 93.7878C48.074 92.7094 47.5169 91.2568 47.29 89.6371L49.3554 87.6792Z" fill="#BCBBB5"/>
<path d="M56.6536 51.0077C56.5694 50.7011 56.5626 50.3784 56.6337 50.0685C57.3898 49.0975 58.0902 48.0788 59.4393 47.8161C59.9474 47.7135 60.4685 47.692 60.9833 47.7524C61.5076 47.8214 62.0148 47.9859 62.4797 48.238C64.1511 49.2408 65.6633 50.5143 64.8196 52.6473C63.976 54.7803 62.4319 56.2846 59.7855 55.8309C57.553 54.9912 58.5837 52.0344 56.6536 51.0077Z" fill="#E8C3BB"/>
<path d="M56.3713 49.0854C55.4441 46.6221 53.9278 44.103 57.9631 42.7181C58.9779 42.3719 58.3213 40.9194 58.3889 39.9722L59.0097 39.5305C59.2633 39.5308 59.5134 39.589 59.741 39.7007C59.9686 39.8125 60.1677 39.9748 60.323 40.1752C61.4054 42.0655 61.0473 44.0831 60.8363 46.0809C60.6907 46.5444 60.4614 46.9774 60.1598 47.3583C59.0416 48.2776 57.7164 48.7034 56.3713 49.0854Z" fill="#9F8C8B"/>
<path d="M56.6538 51.0076C58.8824 51.4772 58.5719 53.7336 59.531 55.0946C60.1479 55.7751 60.0762 56.4596 59.531 57.1401H57.5651C57.2627 55.0972 56.9589 53.0531 56.6538 51.0076Z" fill="#D6B6AF"/>
<path d="M56.3709 49.0855C55.9968 46.2083 58.488 47.6847 59.5546 46.9883C60.0759 47.6529 60.1435 48.3175 59.5546 48.9781L56.6415 50.0685C56.5192 49.7505 56.4285 49.4213 56.3709 49.0855Z" fill="#C6AEA5"/>
<path d="M57.3901 39.8212L57.605 34.8309V34.8707C57.8672 34.8147 58.1195 34.7195 58.3532 34.5881C58.8317 34.7891 59.2275 35.147 59.4754 35.6029C59.7022 36.0684 59.822 36.5787 59.8261 37.0965C59.8302 37.6143 59.7186 38.1265 59.4993 38.5955C59.2157 39.0201 58.8962 39.4195 58.5442 39.7894L58.3651 39.9725C58.0454 39.8927 57.719 39.842 57.3901 39.8212Z" fill="#9F8C8B"/>
<path d="M99.2188 28.6783C98.9044 27.9341 98.4228 27.2178 98.2955 26.4458C97.1016 19.0597 95.1477 17.6908 88.0442 19.5134C85.9907 19.8636 85.7042 18.2559 86.0544 17.1018C86.906 14.1888 85.545 12.3661 83.5513 10.6828C83.1751 10.3791 82.8638 10.0029 82.636 9.57646C82.5657 9.35294 82.5567 9.11465 82.6099 8.88645C82.6631 8.65826 82.7765 8.44852 82.9384 8.27913C85.4018 8.02842 87.7139 8.72086 90.0777 9.29391C91.4948 10.4668 93.2239 11.2 95.0522 11.4031L99.2426 14.3519V16.4173C97.8657 20.5003 100.031 24.5794 99.2188 28.6783Z" fill="#191516"/>
<path d="M95.0524 11.4033C92.402 13.0309 91.0092 11.7057 90.0859 9.28613C91.9802 9.40154 93.8028 9.71194 95.0524 11.4033Z" fill="#1A191C"/>
<path d="M69.79 112.074C69.7582 111.767 69.7144 111.461 69.6627 111.158C69.1294 108.031 67.0919 107.637 64.2545 107.481C61.4171 107.326 59.0811 105.933 62.6149 102.957C63.9759 102.033 65.3648 103.088 66.7377 102.885C67.2168 102.944 67.6855 103.068 68.1306 103.255C69.8298 104.21 71.2028 105.643 72.8782 106.626C73.4172 107.216 73.7484 107.967 73.8213 108.763C73.3557 110.932 73.1886 113.475 69.79 112.074Z" fill="#9A9B98"/>
<path d="M66.698 103.951C64.7679 105.941 63.7969 104.023 62.6149 102.957L62.4956 101.862C62.4199 100.732 63.1601 100.27 64.0874 99.9839C66.9328 99.9958 68.1107 101.106 66.698 103.951Z" fill="#777271"/>
<path d="M63.6138 100.82L62.5155 101.862L61.5962 100.919C61.9265 99.9084 62.2608 98.8975 62.5911 97.8867C63.0522 97.4843 63.6403 97.257 64.2522 97.2447C64.8641 97.2323 65.4608 97.4357 65.9379 97.8191C66.1342 98.1092 66.2504 98.4459 66.2749 98.7953C66.2993 99.1446 66.2311 99.4943 66.0772 99.8089C65.4325 100.621 64.3063 100.211 63.6138 100.82Z" fill="#CBC8BD"/>
<path d="M69.7904 112.074C72.0388 111.648 72.4129 109.849 72.7631 108.031C77.3515 105.13 78.422 108.652 79.6915 111.815C79.6629 112.338 79.4923 112.843 79.198 113.276C78.9359 113.521 78.6161 113.696 78.2684 113.785C77.9206 113.874 77.556 113.874 77.2083 113.785C76.0343 113.554 74.7927 112.786 73.766 114.135C71.6767 116.845 70.9246 114.06 69.7188 113.148L69.7904 112.074Z" fill="#AAA7A6"/>
<path d="M83.9615 9.302C87.0456 11.1445 89.2702 13.2816 87.2048 17.2929C86.9621 17.7585 87.7381 18.7455 88.0445 19.4936L87.9968 20.4567C87.368 21.0218 86.7193 21.1173 86.0468 20.5323C84.2998 20.3453 82.3936 20.9302 80.9092 19.4777C82.4134 18.4032 83.1457 17.0581 82.3975 15.1838C81.92 12.9473 82.2185 10.9296 83.9615 9.302Z" fill="#19191C"/>
<path d="M62.6431 25.7255C64.5055 23.4691 66.8296 23.0115 69.6829 23.4293C71.7085 23.7238 73.9649 24.066 75.8273 22.5419C78.2389 21.746 80.6346 22.5856 83.0383 22.6254C83.1836 22.8627 83.2677 23.1324 83.283 23.4103C83.2982 23.6881 83.2442 23.9654 83.1258 24.2173C82.7314 24.9528 82.0818 25.519 81.2992 25.8091C77.5624 26.605 73.6386 25.435 69.9654 26.9035C69.4116 27.01 68.8499 27.0712 68.2861 27.0865C66.3202 26.9711 64.1991 27.5282 62.6431 25.7255Z" fill="#443234"/>
<path d="M83.9614 9.30198V16.4214C83.2411 17.659 82.1188 17.6829 80.9051 17.4441C77.1444 15.1479 80.3599 11.9961 79.8943 9.298C80.909 8.44637 81.9278 8.5379 82.9466 9.298L83.9614 9.30198Z" fill="#1A191C"/>
<path d="M80.9053 17.4441C81.7012 16.4652 82.8314 16.4254 83.9616 16.4214C84.9565 16.7199 86.1583 17.1735 85.4698 18.3913C84.4511 20.202 82.4732 19.2309 80.9093 19.4777C80.9093 18.8012 80.9093 18.1207 80.9053 17.4441Z" fill="#161A1F"/>
<path d="M86.0465 20.5322L87.9964 20.4565L89.1903 20.6237C89.4334 20.9643 89.5607 21.3739 89.5536 21.7923C89.5464 22.2107 89.4051 22.6157 89.1505 22.9477C88.7403 23.341 88.2382 23.6256 87.69 23.7755C86.2136 23.9745 84.8287 23.9148 83.9214 22.4662L86.0465 20.5322Z" fill="#443234"/>
<path d="M82.9464 9.29799H79.894C80.2562 7.01373 81.6092 7.67832 82.9384 8.27525C82.9424 8.61749 82.9424 8.95575 82.9464 9.29799Z" fill="#19191C"/>
<path d="M83.9096 22.4663L88.104 22.6613C88.2193 22.9298 88.2387 23.2298 88.159 23.511C88.0793 23.7921 87.9053 24.0373 87.6663 24.2054C85.9312 25.1485 84.3115 25.2082 82.9346 23.5487C82.9664 23.2423 82.9943 22.9319 83.0221 22.6255C83.3365 22.5817 83.631 22.53 83.9096 22.4663Z" fill="#785646"/>
<path d="M53.3467 88.6622C55.4956 86.0397 59.0494 86.3422 61.652 84.6827C62.3245 83.3137 63.598 82.8521 64.9471 82.5019C65.5007 82.4254 66.0643 82.4701 66.5989 82.6329C67.1334 82.7958 67.6263 83.0729 68.0432 83.4451C69.2768 84.7862 69.1535 86.4297 69.0818 88.0653C68.5008 90.0034 68.1824 92.0011 67.7964 93.9869C67.562 94.4363 67.2302 94.8279 66.8254 95.133C66.3526 95.3133 65.8409 95.3668 65.341 95.2882C64.0358 94.9261 63.2558 93.9749 62.631 92.8487C60.3706 91.5594 58.735 88.7816 55.4678 89.8243L54.4649 90.8789C53.6451 90.4053 54.1426 89.3189 53.486 88.7697L53.3467 88.6622Z" fill="#C7C5C6"/>
<path d="M62.631 92.8287C64.1154 92.765 65.3729 93.0316 65.6435 94.8184C66.4394 95.8412 66.5469 96.852 65.5838 97.8429C65.1354 98.1287 64.6166 98.2848 64.0849 98.2939C63.5532 98.3031 63.0293 98.1649 62.5713 97.8946L60.5298 96.856C60.8853 95.8372 61.2408 94.8184 61.5963 93.7997L62.631 92.8287Z" fill="#D9D2E0"/>
<path d="M49.375 93.7918C49.57 91.2369 51.2732 90.6838 53.4302 90.7315C54.3256 92.7691 53.6689 93.8037 51.4404 93.8197L49.375 93.7918Z" fill="#A8A5A0"/>
<path d="M51.4365 93.8196C52.0348 93.5571 52.5425 93.1243 52.8963 92.5751C53.2501 92.0259 53.4345 91.3847 53.4263 90.7315L53.4979 88.7417C53.8243 89.4461 54.1506 90.1465 54.4729 90.8509C54.4199 92.1535 54.3655 93.4522 54.3098 94.7468C53.2432 94.7866 52.1887 94.7588 51.4365 93.8196Z" fill="#BDBBBC"/>
<path d="M96.294 121.482C99.5901 121.079 102.751 119.932 105.539 118.127C105.936 115.99 107.15 115.6 109.076 116.662L111.528 115.301C112.391 111.568 109.657 109.073 107.914 106.232C106.959 105.038 105.765 104.242 104.066 104.413C101.583 105.126 101.153 109.165 97.4561 107.919C94.7898 107.342 92.0638 106.57 90.6908 109.865C90.4043 111.74 92.4577 112.368 93.0786 113.761C93.2062 114.255 93.3684 114.739 93.5641 115.21C94.7221 117.211 93.9262 119.945 96.294 121.482Z" fill="#C1C1C0"/>
<path d="M120.653 109.758L124.581 106.467C125.209 104.636 125.301 102.845 124.127 101.198C123.574 99.578 125.667 100.111 126.053 99.2398C126.378 98.7883 126.581 98.2605 126.642 97.7076C126.55 96.1158 125.607 95.105 124.167 94.4046C123.624 94.181 123.056 94.0246 122.475 93.939C121.082 93.974 119.696 93.7333 118.396 93.2307C117.861 93.1074 117.314 93.0473 116.765 93.0516C115.173 93.3142 113.581 93.4933 112.117 92.5939C111.03 92.1641 109.924 91.8617 108.726 92.1243C108.156 92.3015 107.645 92.6286 107.246 93.0715C106.052 95.3318 107.644 96.8441 108.929 98.4399C110.889 100 112.7 101.74 114.337 103.637C116.261 105.104 117.908 106.901 119.2 108.946C119.629 109.306 120.122 109.581 120.653 109.758Z" fill="#A8A5A5"/>
<path d="M112.933 114.414C114.451 114.118 115.812 113.284 116.765 112.066C117.939 106.096 113.247 102.646 109.976 98.599C108.237 97.4648 107.684 95.0651 105.2 94.7229C104.739 94.7691 104.296 94.9251 103.908 95.1778C103.519 95.4305 103.197 95.7726 102.968 96.1754C102.592 96.9809 102.466 97.8804 102.606 98.7582C103.031 100.434 104.002 101.866 104.993 103.283C106.422 104.616 107.815 105.973 108.273 107.907C111.054 109.324 109.622 113.331 112.933 114.414Z" fill="#AFABA2"/>
<path d="M109.033 98.9731L116.765 112.066C118.281 111.616 119.817 111.194 120.653 109.758C120.605 109.324 120.554 108.89 120.506 108.452C119.193 106.208 116.864 104.704 115.48 102.511C114.193 100.528 112.452 98.8803 110.402 97.7036C109.172 97.4091 108.73 97.8429 109.033 98.9731Z" fill="#C6C4C4"/>
<path d="M130.733 101.21L134.486 96.5297C134.135 94.7309 135.409 92.4546 132.735 91.3324C130.395 90.7514 128.055 90.1146 125.603 90.8548C125.187 90.9933 124.811 91.2319 124.508 91.5497C124.206 91.8675 123.986 92.2548 123.868 92.6775C123.956 95.0891 126.678 96.2073 127.147 98.4359C127.907 99.8446 128.11 101.878 130.733 101.21Z" fill="#E4CC95"/>
<path d="M109.076 116.662C108.439 114.605 107.592 111.887 104.846 113.148C103.031 113.996 103.807 116.595 105.538 118.127L109.076 116.662Z" fill="#C7C5C5"/>
<path d="M112.933 114.414C111.233 112.229 112.364 108.759 109.164 107.251C108.28 107 107.385 106.371 106.545 107.326C108.206 109.979 109.867 112.632 111.528 115.285L112.933 114.414Z" fill="#B0ADAD"/>
<path d="M130.733 101.21C128.684 100.812 129.738 98.5156 128.294 97.7396C127.498 97.0471 126.674 97.0352 125.882 97.7794L125.528 98.9732C125.163 99.4067 124.88 99.903 124.692 100.438C124.617 102.551 125.687 103.582 127.983 103.45C128.579 103.304 129.135 103.027 129.611 102.64C130.086 102.252 130.47 101.764 130.733 101.21Z" fill="#776455"/>
<path d="M127.983 103.454L125.595 100.155C124.043 99.6536 122.225 98.4239 121.906 101.313C122.798 103.032 123.692 104.757 124.588 106.486L127.983 103.454Z" fill="#BCB7B0"/>
<path d="M132.13 91.8061C132.926 93.382 133.711 94.9565 134.486 96.5298C135.106 95.8095 135.723 95.0852 136.34 94.3649C136.034 92.1324 135.015 90.5167 132.333 90.3137C132.168 90.4082 132.035 90.5494 131.951 90.7194C131.867 90.8894 131.835 91.0806 131.859 91.2688C131.931 91.627 132.018 91.8061 132.13 91.8061Z" fill="#D0CFB2"/>
<path d="M132.13 91.8061L132.333 90.3138C132.281 89.9983 132.297 89.6753 132.381 89.3666C132.261 88.714 131.585 88.5707 131.147 88.1966C129.766 86.0477 128.055 85.1801 125.663 87.0028C125.122 87.3526 124.705 87.8634 124.469 88.4633C124.167 89.7765 124.322 90.9545 125.596 91.8101C127.764 93.0079 129.945 93.0756 132.13 91.8061Z" fill="#EBDAAB"/>
<path d="M125.504 88.3358C125.556 87.8861 125.611 87.4364 125.663 86.9907L123.156 85.7969L121.835 85.9919C120.557 87.0385 119.105 87.9618 118.898 89.7327C118.778 91.6588 118.79 93.5371 121.051 94.5399C124.306 93.5729 123.072 89.8162 125.504 88.3358Z" fill="#A8A5A5"/>
<path d="M131.147 88.1966L132.381 89.3666C133.447 89.1477 135.612 89.5337 134.916 87.9618C134.175 86.2864 132.428 87.7668 131.147 88.1966Z" fill="#676567"/>
<path d="M106.545 107.334C107.425 107.569 108.32 108.198 109.164 107.259C109.235 105.189 107.994 103.773 106.438 102.511C105.12 101.95 104.424 102.798 103.684 103.55C103.562 103.771 103.53 104.03 103.594 104.274C103.659 104.518 103.815 104.727 104.03 104.859L106.545 107.334Z" fill="#CDC8CD"/>
<path d="M109.033 98.9732C109.492 98.5513 109.948 98.1282 110.402 97.7037C109.518 96.1477 107.863 94.9658 107.787 93.0238C108.529 90.5024 108.74 87.8548 108.408 85.2477C103.262 82.0959 100.672 85.3591 98.1367 88.7776C98.0636 89.2179 98.084 89.6686 98.1964 90.1005C98.3089 90.5324 98.5109 90.9359 98.7893 91.2847C100.743 92.9203 102.518 94.8106 105.272 95.3677L109.033 98.9732Z" fill="#BDB9B7"/>
<path d="M120.581 89.4262L121.835 85.9839L118.074 85.7729C116.375 86.1112 115.559 87.5319 114.305 88.4114C113.589 88.7536 112.809 88.9606 112.097 89.3187C110.951 90.043 109.502 90.3773 108.726 91.5751C108.624 91.8181 108.603 92.0876 108.666 92.3435C108.729 92.5994 108.873 92.8282 109.076 92.9958L111.464 94.1499C113.179 94.0186 114.879 94.5479 116.598 94.2414L118.022 94.1857C121.648 93.8793 118.79 90.5802 120.581 89.4262Z" fill="#B4B0AE"/>
<path d="M125.504 88.3359C121.604 88.8175 121.922 91.6111 121.815 94.162C121.728 94.2368 121.66 94.3311 121.617 94.4372C121.573 94.5433 121.556 94.6582 121.566 94.7724C121.575 94.8866 121.612 94.9969 121.673 95.0942C121.733 95.1915 121.816 95.273 121.914 95.332L123.256 95.2803C124.147 94.751 125.281 94.3371 124.449 93.0238L125.576 91.7981C125.552 90.6441 125.528 89.49 125.504 88.3359Z" fill="#8E837E"/>
<path d="M109.076 93.0038L109.247 91.7542C110.473 90.4887 110.935 89.08 110.186 87.4444C109.942 87.0181 109.594 86.6607 109.175 86.4053C108.755 86.1499 108.278 86.0049 107.787 85.9839C105.821 88.3358 105.849 90.6877 107.787 93.0357L109.076 93.0038Z" fill="#969292"/>
<path d="M121.914 95.3319C121.914 94.934 121.863 94.536 121.815 94.1619C120.299 92.8328 120.661 91.0778 120.581 89.4263C119.729 91.0181 118.88 92.6099 118.034 94.2017C119.001 95.5349 119.877 97.1466 121.914 95.3319Z" fill="#ACA7A3"/>
<path d="M115.479 102.511C115.877 105.432 118.202 106.932 120.506 108.452C120.223 105.456 117.812 104.011 115.479 102.511Z" fill="#BEBCBF"/>
<path d="M124.457 93.0237L123.263 95.2801L125.89 97.7792L128.301 97.7394C127.143 96.08 126.363 94.1539 124.457 93.0237Z" fill="#7D7458"/>
<path d="M116.61 94.2494C114.918 93.3301 113.227 92.5183 111.48 94.1578C113.159 95.5746 114.867 95.881 116.61 94.2494Z" fill="#928B8B"/>
<path d="M121.898 101.313C122.861 100.191 124.21 100.119 125.587 100.155L125.528 98.9611C123.797 99.5581 122.026 97.3056 120.458 98.9611C120.255 99.2118 121.385 100.513 121.898 101.313Z" fill="#B1B4AF"/>
<path d="M101.44 94.1978L103.963 96.5856L105.268 95.3678C103.756 93.589 102.984 91.1137 100.094 90.6282C98.813 92.3792 99.5811 93.4656 101.44 94.1978Z" fill="#AEA8A6"/>
<path d="M103.999 98.8896L102.59 100.183C102.979 100.675 103.201 101.279 103.223 101.906C103.245 102.533 103.067 103.151 102.713 103.669L104.007 103.709L106.438 102.515L103.999 98.8896Z" fill="#CECEA2"/>
<path d="M115.479 83.4888L110.465 84.6349L109.832 85.2358C109.466 86.0994 109.749 86.8594 110.254 87.5877C111.639 89.1159 114.198 88.9089 115.451 90.6281C117.087 89.3666 117.791 87.6713 118.074 85.781L115.479 83.4888Z" fill="#BCBBB5"/>
<path d="M110.465 84.6348C107.763 81.5785 103.302 81.9327 100.031 79.9668C99.1832 78.375 97.5874 77.8298 95.8881 77.4199C95.1989 77.3287 94.4982 77.3799 93.8295 77.5702C93.1608 77.7604 92.5382 78.0858 92.0001 78.5262C90.4481 80.0901 90.6033 82.0123 90.6948 83.9185C91.4271 86.1789 91.825 88.5149 92.2866 90.831C92.5896 91.3629 93.0069 91.821 93.5084 92.1721C94.1063 92.3844 94.7474 92.4459 95.3748 92.3511C97.0144 91.9253 97.9933 90.819 98.7773 89.5058C101.619 87.9975 103.676 84.7542 107.759 85.9719L109.021 87.2056C110.051 86.6524 109.419 85.383 110.246 84.7422L110.465 84.6348Z" fill="#C7C5C6"/>
<path d="M115.452 90.6281C115.209 87.6474 113.064 87.0027 110.362 87.0465C109.236 89.4342 110.055 90.6281 112.865 90.6519L115.452 90.6281Z" fill="#A8A5A0"/>
<path d="M112.865 90.6598C111.273 89.9076 110.386 88.7416 110.362 87.0543L110.266 84.7422C109.86 85.562 109.452 86.3818 109.041 87.2015C109.107 88.7217 109.176 90.2393 109.247 91.7542C110.593 91.786 111.918 91.7581 112.865 90.6598Z" fill="#BDBBBC"/>
<path d="M62.6431 25.7256L68.6124 25.7495C68.7193 25.8581 68.7992 25.9903 68.8455 26.1355C68.8918 26.2807 68.9033 26.4347 68.879 26.5852C68.818 26.877 68.7544 27.0242 68.688 27.0269C66.547 28.4396 63.8768 28.8296 61.891 30.5488C61.3507 31.016 60.6734 31.2953 59.9609 31.3447C59.4921 31.2964 59.0472 31.114 58.6795 30.8194C58.5839 28.0059 61.0433 27.202 62.6431 25.7256Z" fill="#757477"/>
<path d="M57.6048 34.8387C56.8925 34.8785 55.8777 36.7728 55.5275 34.6318C55.1972 32.6062 55.7663 30.6921 57.2387 28.0457C57.3979 30.9627 57.5053 32.9206 57.6128 34.8785L57.6048 34.8387Z" fill="#1B1716"/>
<path d="M58.6872 30.8074C59.0016 30.879 59.312 30.9467 59.6304 31.0064C61.1625 32.9444 61.6202 34.6795 58.7549 35.8216L58.3569 34.5959C58.4684 33.3344 58.5798 32.0689 58.6872 30.8074Z" fill="#C0A197"/>
<path d="M90.1177 111.162L88.0245 114.143C85.9631 114.581 83.9733 115.44 81.7965 115.134C81.2991 114.243 81.4941 113.383 81.9 112.523C82.3193 111.711 82.8923 110.988 83.5873 110.394C84.9745 109.645 86.4119 108.992 87.8892 108.44C88.3493 108.416 88.8084 108.505 89.2263 108.699C90.0421 109.328 90.2332 110.191 90.1177 111.162Z" fill="#7C7170"/>
<path d="M82.8151 113.22C82.4768 113.857 82.1386 114.498 81.7963 115.134L80.0533 115.293C79.0186 114.931 78.3819 114.346 78.8355 113.14L78.931 113.101C79.4086 112.36 79.8583 111.577 80.9208 111.608C81.856 111.783 82.5524 112.249 82.8151 113.22Z" fill="#A19B9D"/>
<path d="M78.8359 113.14C79.2339 113.857 79.6318 114.577 80.0536 115.293L78.9115 116.197L76.8223 114.167C76.4641 113.932 76.3487 113.697 76.4721 113.471C76.5954 113.244 76.7188 113.132 76.8382 113.132L78.8359 113.14Z" fill="#B2B2B1"/>
<path d="M90.1177 111.162L89.083 109.236C89.4544 107.644 90.4042 107.132 91.9324 107.7L93.17 109.109C93.17 109.439 93.1461 109.766 93.1421 110.092L90.1177 111.162Z" fill="#706A67"/>
<path d="M76.8379 113.133C76.8379 113.479 76.8379 113.821 76.8379 114.167H74.8163H73.7697C73.6901 110.434 75.4769 112.44 76.8379 113.133Z" fill="#BABDBC"/>
<path d="M109.462 81.475C107.795 83.0429 106.824 82.5336 106.386 80.4403C107.544 80.4125 108.623 80.5796 109.462 81.475Z" fill="#777473"/>
<path d="M100.317 83.6757C100.317 83.0231 100.317 82.3704 100.286 81.7178C100.918 81.1288 100.441 79.9588 101.428 79.5569L102.299 81.5666C102.144 83.3016 102.697 85.176 101.292 86.6564C101.245 85.5859 101.292 84.4557 100.317 83.6757Z" fill="#96827B"/>
<path d="M101.42 79.5569C101.037 80.2785 100.657 80.9988 100.277 81.7178C100.277 79.2903 100.268 76.8641 100.25 74.4392C101.467 75.5973 101.177 77.1533 101.348 78.5859C101.334 78.9113 101.358 79.2371 101.42 79.5569Z" fill="#715549"/>
<path d="M96.3099 92.8247C99.6328 95.7736 99.1911 98.1175 95.1678 99.8765C93.9739 98.3642 94.8852 96.669 94.7459 95.0612C94.8107 94.5826 94.956 94.1184 95.1757 93.6883C95.4592 93.2937 95.8542 92.993 96.3099 92.8247Z" fill="#C9C4BF"/>
<path d="M98.2358 102.133C98.0169 103.291 97.7662 104.58 96.2699 104.477C94.7736 104.374 95.3586 102.535 94.4552 101.847C94.3585 101.807 94.2708 101.749 94.1977 101.674C94.1246 101.6 94.0676 101.511 94.0303 101.414C93.993 101.316 93.9761 101.212 93.9807 101.108C93.9854 101.004 94.0114 100.902 94.0573 100.808C94.1372 100.74 94.2297 100.689 94.3293 100.658C94.429 100.626 94.534 100.614 94.6382 100.623C94.7424 100.632 94.8439 100.661 94.9368 100.709C95.0296 100.757 95.1121 100.823 95.1795 100.903L98.2358 102.133Z" fill="#373430"/>
<path d="M95.1476 100.903L94.8253 101.062L94.4632 101.019C94.2727 101.201 94.0273 101.315 93.7653 101.343C93.5033 101.371 93.2393 101.312 93.0146 101.174C92.6344 100.796 92.3765 100.312 92.2744 99.785C92.6724 97.4252 92.8196 94.8584 96.1624 94.7947C96.3233 96.5489 95.978 98.3125 95.1675 99.8766C95.1636 100.219 95.1556 100.561 95.1476 100.903Z" fill="#B7ACA5"/>
<path d="M96.31 92.8247C96.2265 93.1271 96.1349 93.4296 96.0315 93.7281C94.8734 94.1499 94.1531 93.5967 93.6119 92.6377C93.3333 90.7553 93.6119 89.1516 95.6852 88.4114C97.0502 88.6024 96.7995 89.7684 97.0343 90.6439C96.7916 91.3682 96.5528 92.0964 96.31 92.8247Z" fill="#90705C"/>
<path d="M97.0423 90.644C96.7358 89.9833 96.4334 89.3267 96.1309 88.6542C95.9262 88.4395 95.8109 88.1549 95.8086 87.8583C95.8086 87.5638 95.8365 87.4165 95.8922 87.4165C96.4732 86.6206 97.1179 86.0754 98.1366 86.7082L98.4033 86.6047C98.26 87.6076 98.1207 88.5945 97.9775 89.6132C97.6551 89.9634 97.3447 90.3057 97.0423 90.644Z" fill="#83634D"/>
<path d="M98.1285 86.7281L96.1825 87.6951C93.0347 87.3927 89.8908 87.2613 88.0005 83.9702C87.2563 82.6809 85.5929 83.2301 84.2916 83.1743C80.0812 82.9992 79.5161 82.1078 80.4911 77.4995C84.4468 76.0828 88.6174 76.1902 92.7242 75.8241C94.2325 75.6888 95.5895 76.4927 95.9079 77.8139C96.4332 79.8832 98.3314 81.3597 98.224 83.628L99.2786 84.8935L98.1285 86.7281Z" fill="#A5755E"/>
<path d="M93.023 100.848L94.4636 101.019C94.3721 101.286 94.3638 101.574 94.4397 101.846C93.5987 103.796 92.7603 105.748 91.9246 107.7L89.0832 109.236L88.5818 109.153L88.0764 109.189C87.7499 108.99 87.4714 108.721 87.2609 108.402C87.0504 108.082 86.913 107.721 86.8586 107.342C86.6278 105.687 87.4237 104.393 88.355 103.148C88.5664 102.686 88.8083 102.24 89.0792 101.811C90.1657 100.577 91.3476 99.6974 93.023 100.848Z" fill="#C8B8B8"/>
<path d="M100.262 42.8934C99.6647 44.1111 99.0677 45.3368 99.6686 46.7337C101.921 52.1578 99.7244 57.168 98.2201 62.2539C96.2661 59.4921 96.0672 55.7991 93.5083 53.3477C94.7539 48.8826 94.2843 43.9241 97.3486 39.9764C97.7271 39.5962 98.2213 39.3526 98.7534 39.2839C99.019 39.2848 99.2816 39.3412 99.5242 39.4494C99.7668 39.5577 99.9841 39.7155 100.162 39.9127H100.19C101.022 40.8837 101.145 41.8786 100.262 42.8934Z" fill="#8F5F4C"/>
<path d="M98.236 83.616C96.4134 82.9196 93.6794 83.3454 94.925 79.6365C95.6374 77.5034 93.6635 77.2129 91.6857 77.3522C88.1041 77.6029 84.5225 79.2385 80.8812 77.5552C80.8295 77.3044 80.7817 77.0577 80.73 76.807C84.7095 73.8064 89.672 73.9855 94.1251 72.4812C97.1377 71.9878 98.244 73.7268 98.6738 76.3175C98.9643 78.0645 98.1803 79.923 99.2229 81.5904L98.236 83.616Z" fill="#976850"/>
<path d="M94.1489 53.085C99.0876 54.5455 98.1922 58.5967 98.22 62.238C98.22 62.9145 98.22 63.5871 98.2001 64.2636C97.0063 66.9219 97.0978 70.1812 94.4554 72.1511C94.0052 72.3957 93.5303 72.5918 93.0387 72.7361C90.0301 72.8674 87.3001 75.2352 84.1046 73.8424C82.8271 70.7145 85.1631 69.8947 87.2444 68.8719C89.1188 67.9526 91.5145 68.0283 92.7879 65.9708C93.6634 64.8406 93.8147 63.3682 94.5628 62.1823C95.0364 60.8651 95.2553 59.715 93.4286 59.2096C92.7162 59.0497 92.0775 58.6569 91.6133 58.0933C91.1492 57.5297 90.8861 56.8274 90.8658 56.0976C90.8658 54.6888 91.3951 53.5785 92.6606 52.8821C92.9053 52.7857 93.1707 52.7537 93.4313 52.7892C93.6919 52.8248 93.939 52.9266 94.1489 53.085Z" fill="#996B53"/>
<path d="M93.1302 71.4029H94.1331C95.3747 70.209 95.7448 67.8929 98.2082 68.3505C100.138 72.6405 98.8608 77.1772 99.2229 81.5905C97.8301 80.2613 98.5345 78.4069 98.0291 76.8747C97.4401 75.1237 97.2013 72.4097 94.149 74.4631C91.6857 74.1368 92.4179 72.7639 93.1302 71.4029Z" fill="#8C5C43"/>
<path d="M100.262 42.8934L100.19 39.9087C101.535 40.4778 102.657 41.9303 104.388 40.9792L104.233 43.9519L103.314 45.9695C103.171 46.5864 103.226 47.434 102.84 47.7723C102.076 48.4408 101.734 47.5733 101.523 47.0082C101.022 45.6631 101.527 44.0116 100.262 42.8934Z" fill="#714E40"/>
<path d="M98.2084 68.3385L94.1333 71.3908C94.9292 68.6927 96.521 66.4562 98.2004 64.2634C98.2044 65.6205 98.2044 66.9815 98.2084 68.3385Z" fill="#8F5F4C"/>
<path d="M89.0474 22.5259L89.1906 20.6237C95.351 20.4486 96.4652 21.3758 97.2811 27.3293C97.484 28.8057 97.7188 30.2781 97.9377 31.7545C96.8433 32.049 96.0434 31.5635 95.3629 30.7716C94.9739 30.1717 94.7262 29.4913 94.6386 28.7818C93.8586 25.7454 90.9178 24.6112 89.0474 22.5259Z" fill="#755146"/>
<path d="M96.2186 30.6165L97.9417 31.7546C98.3795 32.7455 98.8212 33.7444 99.2669 34.7234C99.576 35.2277 99.7425 35.8063 99.7488 36.3978C99.7552 36.9892 99.601 37.5713 99.3027 38.0821C96.6643 39.5744 93.998 39.9326 91.2999 38.2532C89.7837 35.0696 94.2209 35.8933 94.2965 33.7802C94.4477 32.4271 94.5711 31.0661 96.2186 30.6165Z" fill="#996C5F"/>
<path d="M99.1392 37.6086C99.1817 36.6455 99.2228 35.6838 99.2626 34.7234C100.854 36.2237 100.058 38.1339 100.162 39.8968H99.6964H99.2268C98.9376 39.5907 98.7693 39.19 98.7532 38.7691C98.7371 38.3483 98.8743 37.9359 99.1392 37.6086Z" fill="#714E40"/>
<path d="M61.6001 68.3188C66.1845 66.54 63.6854 63.7662 62.6029 61.1914C62.8557 60.9321 63.1811 60.7553 63.5362 60.6843C63.8913 60.6132 64.2596 60.6513 64.5927 60.7935C67.3267 61.9873 66.5387 65.5053 68.7315 67.0613C69.8457 68.0323 71.5529 67.9248 72.5279 69.1505C73.4512 70.5394 74.0243 71.9681 72.9975 73.5639C71.4495 75.0403 69.7383 74.9209 67.9634 74.0573C66.5825 73.3609 65.906 71.7094 64.2982 71.2995C63.7451 71.0488 63.1044 70.9015 62.7661 70.3404C62.3761 69.6666 61.9874 68.9927 61.6001 68.3188Z" fill="#DBBAA8"/>
<path d="M59.7578 65.0356C64.3423 63.2607 61.8431 60.483 60.7646 57.9082C61.0174 57.6489 61.3428 57.4721 61.6979 57.4011C62.053 57.33 62.4213 57.3681 62.7544 57.5103C65.4884 58.7041 64.7004 62.2221 66.8931 63.7781C68.0074 64.7491 69.7146 64.6416 70.6936 65.8673C71.6169 67.2562 72.186 68.6849 71.1632 70.2807C69.6112 71.7571 67.904 71.6377 66.1251 70.7781C64.7442 70.0777 64.0716 68.4262 62.4599 68.0163C61.9068 67.7656 61.2661 67.6183 60.9278 67.0572L59.7578 65.0356Z" fill="#DBBAA8"/>
<path d="M67.677 72.4096C69.2146 73.2452 70.9731 73.5844 72.7112 73.3807L73.0693 73.9935C73.0201 74.4674 72.7959 74.9058 72.4406 75.2232C70.6856 76.1425 68.8033 76.2061 66.8692 76.0788C66.5324 75.9425 66.2379 75.7193 66.0155 75.4319C65.7932 75.1446 65.6511 74.8034 65.6037 74.4432C64.9346 73.1529 63.9099 72.0813 62.6509 71.3551C62.6827 71.0088 62.7185 70.6626 62.7543 70.3164L64.6048 70.3761C65.7669 70.8616 66.6384 71.765 67.677 72.4096Z" fill="#CFAA9B"/>
<path d="M59.5308 57.1402V55.0947C62.4955 53.8372 66.3398 52.8781 61.5643 49.0299C63.769 46.9645 65.6991 47.2272 67.3745 49.7064C67.7724 50.8247 67.4302 51.8833 67.0959 52.9378C66.9787 53.4393 66.7739 53.9162 66.491 54.3466C64.6087 55.7554 63.188 57.9043 60.5535 58.163L59.5308 57.1402Z" fill="#DCAAA1"/>
<path d="M60.5537 58.1629C61.7953 56.2726 63.1046 54.4739 65.564 54.0759C66.2723 54.8201 66.0972 55.6677 65.8704 56.5273C65.0347 57.8366 65.6555 59.4364 65.0426 60.7934L64.6089 61.255L62.6191 61.1914C61.9293 60.1806 61.2408 59.1711 60.5537 58.1629Z" fill="#D8A69B"/>
<path d="M57.0952 58.5449C58.3368 56.6586 59.6461 54.8559 62.1055 54.4619C62.8098 55.2061 62.6387 56.0537 62.4119 56.9133C61.5722 58.2226 62.193 59.8184 61.5841 61.1754C61.4409 61.3306 61.2936 61.4858 61.1464 61.637L59.1566 61.5774L57.0952 58.5449Z" fill="#D8A69B"/>
<path d="M66.6742 51.0275C65.8425 48.1304 63.4309 49.2765 61.5645 49.0377C61.2382 49.0138 60.9119 48.9979 60.5816 48.9939C60.1836 47.5374 61.2063 47.0997 62.253 46.6818C62.7937 46.579 63.3422 46.5218 63.8925 46.5107C65.2814 46.5107 66.6782 46.4709 67.8323 47.4857C68.1027 47.8029 68.2985 48.1767 68.4053 48.5796C68.5121 48.9825 68.527 49.4043 68.4491 49.8137C68.1467 50.6335 67.701 51.2543 66.6742 51.0275Z" fill="#C5A191"/>
<path d="M62.5552 47.9196L60.5654 48.9861H59.5308C59.5308 48.3215 59.5308 47.6609 59.5308 46.9963C60.271 46.3636 59.6899 44.8912 61.0271 44.6365C62.8537 45.122 63.7929 46.0253 62.5552 47.9196Z" fill="#E3C2AD"/>
<path d="M60.5853 44.9668C60.2431 45.6353 59.8995 46.2986 59.5546 46.9565C59.5307 44.5688 59.5055 42.1917 59.479 39.8252C62.0259 38.7388 62.4 40.3704 62.5552 42.2806C62.3682 43.5341 61.5523 44.3062 60.5853 44.9668Z" fill="#C6AEA5"/>
<path d="M61.5484 42.9134C61.5722 41.4091 61.3454 40.0759 59.479 39.8411C59.1686 39.8411 58.8622 39.8411 58.5518 39.8053C58.5518 39.4631 58.5518 39.1248 58.5518 38.7826C60.3704 36.8724 62.5313 37.0276 64.8036 37.7121C65.2717 37.9636 65.6624 38.3378 65.9338 38.7945C66.0235 39.1584 66.0156 39.5396 65.9108 39.8995C65.8059 40.2593 65.608 40.5852 65.3369 40.844C64.7974 41.2714 64.3003 41.7499 63.8525 42.2727C63.4133 42.7741 62.8034 43.0946 62.1413 43.172L61.5484 42.9134Z" fill="#C0A197"/>
<path d="M65.7232 38.8979L58.5601 38.7825C58.6237 37.7956 58.6887 36.8087 58.7551 35.8217C59.7858 34.3493 59.4475 32.6381 59.6306 31.0065L60.7249 29.6773C60.8645 29.5141 61.0572 29.4055 61.2691 29.3706C61.481 29.3356 61.6984 29.3766 61.883 29.4863C63.0768 30.2026 63.4748 31.4363 63.9126 32.6341C64.0039 33.0211 64.2012 33.375 64.4824 33.6561C64.7635 33.9373 65.1174 34.1346 65.5044 34.2259C67.4941 34.6836 69.2093 35.4198 69.0263 37.9468C68.1826 39.2203 67.1957 39.8212 65.7232 38.8979Z" fill="#D7B8AA"/>
<path d="M71.756 107.004C69.3046 107.501 68.8509 105.281 67.6889 104.019C66.9686 102.372 66.4671 100.756 68.3216 99.4588C70.8407 99.2916 72.0783 100.86 72.9657 102.901C73.2125 104.457 73.0891 105.91 71.756 107.004Z" fill="#A29693"/>
<path d="M71.7559 107.004V102.957C72.703 102.328 73.487 102.798 74.267 103.315C75.1823 104.178 75.7235 105.5 77.1879 105.703C77.6002 105.876 77.9882 106.102 78.342 106.375C78.9972 107.003 79.5842 107.698 80.093 108.449C80.6939 109.619 81.9952 110.673 80.7496 112.169L78.9389 113.097C77.9878 110.06 76.5313 107.641 72.7706 108.027L71.7559 107.004Z" fill="#9C8E8D"/>
<path d="M68.692 99.9124C67.4464 101.062 67.7568 102.591 67.6892 104.031C67.3589 104.031 67.0286 103.995 66.6983 103.964C66.8853 101.707 65.8467 100.668 63.5942 100.832L65.5402 99.8168C66.9769 98.3643 65.4248 96.291 66.5908 94.7827L66.6943 94.8384C68.4851 94.4166 69.082 95.6343 69.6511 96.9516C69.7828 97.4854 69.7628 98.0455 69.5933 98.5686C69.4239 99.0917 69.1117 99.5571 68.692 99.9124Z" fill="#B3ACAC"/>
<path d="M66.5906 94.7708C66.507 96.5019 67.2114 98.4001 65.5439 99.8049C65.5439 99.1483 65.5718 98.4916 65.5877 97.835C65.6036 96.8242 65.6222 95.816 65.6434 94.8105C65.9618 94.8026 66.2762 94.7906 66.5906 94.7708Z" fill="#BCB4B8"/>
<path d="M69.6548 25.5543C73.5587 23.4492 77.8049 25.2161 81.8322 24.4918C84.6895 24.0342 87.5747 24.1336 90.4639 24.062C90.9662 24.3576 91.4023 24.7537 91.7446 25.2255C92.087 25.6973 92.3284 26.2346 92.4536 26.8039C92.5611 29.2155 92.8516 31.7027 89.8908 32.8051C89.0807 33.0059 88.2308 32.9784 87.4354 32.7255C84.3234 31.6391 83.8021 26.4696 79.2933 27.5521C78.2165 27.6788 77.128 27.6681 76.0539 27.5202C73.9607 26.7681 71.2983 27.7789 69.6548 25.5543Z" fill="#B68171"/>
<path d="M90.0622 24.6232C87.3084 25.1167 84.5625 25.2042 81.8325 24.4919L82.9508 23.5487H87.9889C89.2066 22.8961 90.1896 22.7091 90.0622 24.6232Z" fill="#9E725C"/>
<path d="M69.6551 25.5544L76.8899 25.7693C76.0502 28.953 73.5431 28.1571 71.3504 28.0974C70.7798 28.1048 70.2146 27.9866 69.6949 27.7512C69.1974 27.4695 68.7987 27.0415 68.5527 26.5255C68.6001 26.2628 68.6227 25.9964 68.6204 25.7295L69.6551 25.5544Z" fill="#C49788"/>
<path d="M90.0621 24.6233L87.9888 23.529C88.0286 23.2385 88.0723 22.948 88.1201 22.6614C88.4265 22.6017 88.7369 22.558 89.0473 22.5261C93.0508 22.6482 95.4066 24.6804 96.115 28.6228C95.0644 29.359 94.9211 31.3528 93.011 30.911C91.5505 29.8405 92.0877 27.8826 91.0729 26.6052L90.0621 24.6233Z" fill="#9E735A"/>
<path d="M67.5933 88.7059L67.7007 83.5564L67.653 83.6479C68.2539 82.8082 68.8468 81.9168 70.1044 82.3625C71.35 83.1067 71.8474 84.2409 71.8275 85.6496C71.0953 87.5439 71.6126 89.7844 70.2357 91.5155C69.8544 91.8584 69.3554 92.0409 68.8428 92.0249C67.4619 91.2926 67.7723 89.9078 67.5933 88.7059Z" fill="#7A615A"/>
<path d="M67.5936 88.7058C68.6919 89.4579 68.6362 90.6279 68.6999 91.7541C70.041 93.5131 70.7573 95.2601 68.5686 96.9276L66.6902 94.8224C66.925 92.7769 66.0774 90.5682 67.5936 88.7058Z" fill="#A29693"/>
<path d="M68.5528 26.5254L69.7228 26.6886C69.8661 31.0302 66.9013 31.0899 63.8132 30.9865C62.9893 30.7416 62.2379 30.299 61.6244 29.6971C61.3259 29.6971 61.0275 29.6971 60.729 29.6971C62.7864 27.2576 65.5323 26.5493 68.5528 26.5254Z" fill="#D9ACA1"/>
<path d="M80.726 112.173L78.8238 109.093C78.3622 108.162 78.9472 107.78 79.6754 107.469C81.6254 107.294 82.8591 108.52 84.1405 109.71C84.2479 109.928 84.2905 110.172 84.2629 110.413C84.2354 110.655 84.139 110.883 83.9853 111.071L82.7914 113.22L80.726 112.173Z" fill="#8F6861"/>
<path d="M84.001 111.055C83.9333 110.757 83.8736 110.454 83.8179 110.152C83.6841 109.976 83.5902 109.773 83.5427 109.557C83.4953 109.341 83.4955 109.118 83.5433 108.902C83.7322 108.492 84.0031 108.125 84.3392 107.824C85.4694 107.151 86.5041 106.069 88.0084 106.948C88.0283 107.688 88.0521 108.433 88.072 109.173C87.2164 110.908 85.7918 111.381 84.001 111.055Z" fill="#D1B3B9"/>
<path d="M94.1731 92.749L96.0356 93.728C96.0754 94.0822 96.1191 94.4403 96.1629 94.7945L93.0191 99.8525C92.9387 99.9533 92.8371 100.035 92.7214 100.092C92.6058 100.149 92.479 100.18 92.3501 100.182C92.2213 100.184 92.0935 100.158 91.9759 100.105C91.8584 100.052 91.7539 99.9742 91.67 99.8764C91.3451 99.4598 91.1158 98.9768 90.9982 98.4618C90.8806 97.9467 90.8776 97.4121 90.9895 96.8957C91.662 95.2163 92.2152 93.4375 94.1731 92.749Z" fill="#A07E6D"/>
<path d="M92.0759 99.8446H93.0191C93.043 100.176 93.043 100.508 93.0191 100.84C92.3929 100.926 91.7958 101.158 91.2765 101.518C90.7572 101.879 90.3303 102.356 90.0304 102.913C86.8468 103.032 88.1481 99.6496 86.5881 98.4956C86.2344 98.1837 85.9045 97.8458 85.6012 97.4848C84.7416 95.7855 83.8979 94.3926 81.4545 94.719C79.3772 94.9975 77.7217 94.126 78.5534 91.4398C79.0309 90.8274 79.6686 90.3591 80.3959 90.0868C83.0861 88.0771 85.9673 86.6843 89.4494 87.4483C94.0936 89.0402 93.6757 92.3352 92.259 95.9447C91.5825 97.2141 90.7627 98.4757 92.0759 99.8446Z" fill="#BE8E7C"/>
<path d="M91.1126 96.856C92.589 93.5888 92.9432 90.6082 89.0393 88.7099C85.4338 86.2386 80.7419 85.8208 77.5185 82.6093C76.3445 80.7428 76.1137 78.9123 77.6936 77.1374C78.8516 76.5086 79.9341 76.5643 80.925 77.4876L80.8812 77.5433C80.7379 80.4364 81.1996 82.4899 85.0199 81.7019C87.0416 81.2841 89.4412 81.0373 90.265 84.0578C90.7226 85.7372 92.207 85.7133 93.572 85.3114C95.8364 84.6428 96.1507 85.9879 96.1826 87.6991C96.1587 88.0254 96.1388 88.3478 96.1229 88.6701L94.1729 92.7491C93.9262 94.341 93.377 95.7696 92.1195 96.8521C91.7892 97.3455 91.4708 97.3694 91.1126 96.856Z" fill="#B0806E"/>
<path d="M88.0203 96.856C89.8907 98.4796 88.2113 101.281 90.038 102.921C90.0181 103.267 90.0021 103.617 89.9862 103.967C89.0908 104.676 88.0959 104.656 87.0652 104.365C84.9959 101.552 85.549 99.0805 88.0203 96.856Z" fill="#C69985"/>
<path d="M87.0098 103.967H89.9865C89.3219 104.962 88.0405 105.559 87.9967 106.964L84.9524 108.954C83.6351 107.653 84.2679 106.244 84.7255 104.843C84.9572 104.41 85.2804 104.032 85.6727 103.737C85.8926 103.635 86.1384 103.602 86.3772 103.644C86.6161 103.685 86.8367 103.798 87.0098 103.967Z" fill="#C09B8B"/>
<path d="M94.1489 53.085H93.1381C91.6179 51.8912 92.3422 50.3471 92.6168 48.9582C93.0148 47.056 92.7004 45.4005 91.4508 43.9042C91.2937 43.3974 91.2422 42.8638 91.2996 42.3363C91.9045 39.1526 94.0534 38.5159 96.8709 38.9775C97.4029 39.1302 97.8611 39.4711 98.1603 39.9366C96.5088 44.2266 97.0142 49.1692 94.1489 53.085Z" fill="#A2725F"/>
<path d="M98.1487 39.9365C97.8338 39.8754 97.5142 39.8421 97.1936 39.837C95.4585 38.7864 93.7553 39.6659 92.0202 39.837C90.1856 40.0002 88.1162 39.8649 89.5011 36.9678C89.6984 36.7774 89.9563 36.6623 90.2298 36.6427C90.5033 36.623 90.775 36.7 90.9974 36.8603C93.5921 38.4521 96.4017 37.7239 99.1515 37.6284C99.1794 38.3845 99.2112 39.1406 99.2391 39.8967L98.1487 39.9365Z" fill="#734D3E"/>
<path d="M80.925 77.4877L77.8409 77.5354C75.7317 78.8845 74.2593 78.4189 73.4634 76.0073C74.514 72.9948 77.3872 74.4911 79.3093 73.6196C79.7431 73.4365 80.1888 73.2773 80.6345 73.1181C81.7647 72.8833 82.9108 72.5093 83.9495 73.4007L93.1383 71.3831C93.1383 72.5132 93.1661 73.6275 94.1491 74.4314L80.925 77.4877Z" fill="#92664F"/>
<path d="M83.9414 73.4205L80.8811 74.4075C79.0943 73.0265 79.9897 71.2238 80.0852 69.5126C80.117 67.5785 78.4616 65.7042 79.8584 63.7104C81.3348 62.5723 82.9306 61.9554 84.801 62.628C86.3928 64.0606 86.9619 67.2841 90.2569 65.6843C91.3911 65.7201 92.5412 65.545 93.6595 65.8753L94.1848 66.325C93.942 68.5655 92.3741 69.1107 90.4519 69.5086C87.8891 70.0658 85.2626 70.7224 83.9414 73.4205Z" fill="#B27F6A"/>
<path d="M92.1313 43.8881C94.0733 43.9478 95.3627 44.505 94.6822 46.8768C94.0932 48.9262 93.6475 51.0155 93.1381 53.0849L92.0995 56.1372C91.2717 56.9092 91.8408 57.9558 91.5782 58.8393C91.4567 59.0422 91.2798 59.2061 91.0683 59.3118C90.8568 59.4176 90.6195 59.4607 90.3843 59.4362C89.3775 59.0383 88.9716 58.1867 88.7925 57.1957C88.8999 53.6699 91.8528 50.331 89.477 46.634C89.4613 45.9029 89.7213 45.1926 90.2052 44.6442C90.4507 44.3841 90.7507 44.1814 91.0837 44.0507C91.4166 43.92 91.7744 43.8645 92.1313 43.8881Z" fill="#B27F6A"/>
<path d="M96.1707 63.2448L94.181 66.325L94.1213 66.2852C92.812 65.2664 92.0837 63.7582 90.9655 62.5762C90.3606 61.4222 90.0223 60.2761 91.0928 59.1857C96.895 58.3141 96.895 58.3141 96.1707 63.2448Z" fill="#B27F6A"/>
<path d="M96.1708 63.2447C97.1258 58.5806 93.3532 59.8183 91.0889 59.1776C91.0889 58.0513 91.1366 56.9331 92.0997 56.1252C92.43 56.6704 92.7046 57.6454 93.1025 57.6972C97.9377 58.3458 97.9417 58.31 96.1708 63.2447Z" fill="#A2725F"/>
<path d="M93.1383 30.6682C94.2526 30.1628 93.8825 27.4845 96.119 28.6147C96.1508 29.2793 96.1826 29.9479 96.2185 30.6045C95.9287 31.0734 95.7706 31.6117 95.7608 32.1628C95.751 32.7139 95.8899 33.2575 96.1628 33.7364C94.8336 35.5192 93.0746 37.6682 91.0252 35.571C88.7489 33.2668 91.5903 31.9934 93.1383 30.6682Z" fill="#9E725C"/>
<path d="M93.1385 30.6682C93.1735 30.8309 93.2214 30.9906 93.2817 31.1458C94.1493 32.9923 89.8315 33.1355 91.8252 35.0219C93.5165 36.6137 94.4995 33.5415 96.1629 33.7444C97.0225 39.1009 92.7087 35.7939 90.9895 36.8325H90.5637H90.1379C89.8347 37.0708 89.4872 37.2466 89.1156 37.3498C88.744 37.4529 88.3557 37.4814 87.973 37.4335C86.3613 36.8445 85.4699 35.766 85.6131 33.9792C86.2101 32.3874 88.2556 33.0281 89.0594 31.7507C91.9486 30.915 90.8184 28.4954 91.081 26.625C92.3505 27.6676 92.9116 29.0764 93.1385 30.6682Z" fill="#9F7565"/>
<path d="M72.7114 73.3808C72.3877 72.0543 72.0667 70.7185 71.7483 69.3734C71.418 68.1158 71.1991 66.8623 72.011 65.6843C72.1645 65.471 72.3674 65.2981 72.6023 65.1803C72.8373 65.0625 73.0972 65.0033 73.36 65.0078C74.912 67.8373 79.9024 69.7196 75.8711 74.0971C75.3591 74.2914 74.803 74.3384 74.2657 74.2329C73.7283 74.1274 73.2313 73.8736 72.8307 73.5002L72.7114 73.3808Z" fill="#CFAA9B"/>
<path d="M67.6731 68.3386C64.9511 66.711 65.6436 63.6109 64.6089 61.255L64.6407 61.1595C66.4793 60.4313 68.1149 61.1595 69.7624 61.8599C70.0787 62.204 70.302 62.6232 70.4111 63.0777C70.4637 64.2607 70.2431 65.44 69.7664 66.524C69.5651 66.9569 69.2746 67.3424 68.9138 67.6551C68.5531 67.9679 68.1303 68.2008 67.6731 68.3386Z" fill="#DBAE9F"/>
<path d="M67.6729 68.3387L68.6956 66.3051C70.0526 65.354 71.4057 65.5092 72.7627 66.3051C72.7627 67.4433 72.7309 68.5655 71.7479 69.3773C70.3193 69.3057 68.7871 69.5922 67.6729 68.3387Z" fill="#DFAC9E"/>
<path d="M58.7866 63.177L59.8094 61.1435C61.1664 60.1924 62.5194 60.3476 63.8765 61.1435C63.8765 62.2816 63.8446 63.4039 62.8617 64.2157C61.433 64.1441 59.9128 64.4306 58.7866 63.177Z" fill="#DFAC9E"/>
<path d="M59.2803 65.0396L60.303 63.006C61.6561 62.0549 63.0131 62.2101 64.3701 63.006C64.3701 64.1482 64.3343 65.2704 63.3514 66.0822C61.9227 66.0066 60.4065 66.2971 59.2803 65.0396Z" fill="#DFAC9E"/>
<path d="M67.677 72.4096C67.0284 72.3966 66.3967 72.2002 65.8552 71.8432C65.3136 71.4861 64.8842 70.9829 64.6167 70.3919C66.6184 69.5801 66.8413 71.4584 67.677 72.4096Z" fill="#DBAE9F"/>
<path d="M72.8308 73.5L75.8234 73.4085C77.5625 72.4255 78.82 71.3988 76.9178 69.3374C76.3473 68.7477 75.9613 68.0044 75.8072 67.1985C75.6531 66.3926 75.7375 65.5593 76.0503 64.8007C76.2865 64.3904 76.6457 64.0647 77.077 63.8695C77.5449 63.8105 78.0194 63.904 78.43 64.1361C79.8388 65.7279 80.5511 67.7615 81.9241 69.3613C81.5765 71.0459 81.229 72.728 80.8814 74.4073C78.7046 75.8599 76.0025 74.0094 73.8376 75.5256C74.6335 77.2647 76.2254 77.4437 77.857 77.5154C77.7973 79.2823 77.9883 80.9975 78.8956 82.5614C78.9736 82.652 79.0327 82.7572 79.0694 82.8709C79.1061 82.9847 79.1196 83.1046 79.1093 83.2237C79.0989 83.3427 79.0648 83.4585 79.0089 83.5641C78.9531 83.6698 78.8767 83.7632 78.7842 83.8389C74.7768 83.4688 73.0099 80.3488 71.0121 77.5074C70.7177 75.9753 71.6011 75.1197 72.783 74.4312C72.7671 74.1328 72.8029 73.8144 72.8308 73.5Z" fill="#BB8F78"/>
<path d="M72.7671 74.4431C72.4368 75.4499 72.1025 76.4568 71.7722 77.4636C71.4578 77.7902 71.031 77.9851 70.5783 78.0088C69.48 77.7262 68.5607 77.0855 67.6255 76.4806C67.3549 76.1066 67.0883 75.7285 66.8296 75.3505C68.692 74.2919 70.7455 74.4789 72.7671 74.4431Z" fill="#B8988A"/>
<path d="M64.5888 56.1055C64.9151 55.429 65.2401 54.7525 65.5638 54.076C65.6394 53.7496 65.707 53.4233 65.7707 53.097C67.0362 52.1777 67.8003 52.8343 68.429 53.9367C68.8787 55.4768 68.429 56.7462 67.263 57.7929C65.6036 58.4336 63.7133 59.4643 64.5888 56.1055Z" fill="#BA847B"/>
<path d="M67.7011 54.1475L65.771 53.1168C66.0734 52.4284 66.3719 51.7399 66.6744 51.0475L67.7051 50.0566C68.7198 49.8417 69.2093 50.4545 69.5635 51.2504C69.6988 52.6831 69.7903 54.1077 67.7011 54.1475Z" fill="#BE8681"/>
<path d="M64.5888 56.1055C64.6803 57.6097 65.5001 57.6973 66.6343 57.1481C66.776 56.9641 66.9739 56.8311 67.1978 56.7694C67.4218 56.7076 67.6598 56.7204 67.8759 56.8059C68.474 57.1927 68.9295 57.7642 69.1732 58.4335C69.5712 59.5239 70.765 60.1248 71.0356 61.3147C70.8924 62.0828 70.5979 62.6319 69.6667 62.2618C68.8111 62.5771 67.8831 62.6409 66.9924 62.4455C66.1017 62.2502 65.2856 61.8039 64.6405 61.1595C63.8366 59.4841 62.9572 57.8047 64.5888 56.1055Z" fill="#B89482"/>
<path d="M68.7159 51.0714L67.7051 50.0368C67.7051 49.3722 67.7051 48.7076 67.7051 48.047C67.7697 47.6232 67.92 47.2169 68.1468 46.8531C68.8751 45.902 69.7386 45.2931 71.02 45.6592C71.3368 45.8179 71.6165 46.0418 71.8408 46.3161C72.065 46.5904 72.2288 46.909 72.3214 47.2511C72.4567 49.1334 71.7722 50.566 70.0411 51.4336C69.8073 51.4821 69.5653 51.4746 69.335 51.4117C69.1047 51.3487 68.8925 51.2321 68.7159 51.0714Z" fill="#BF8B83"/>
<path d="M68.6639 47.9474C68.3455 47.9752 68.0271 48.0031 67.7128 48.0389L63.5899 47.9474C63.2636 47.4936 63.0708 46.9574 63.0335 46.3996C62.9962 45.8419 63.1159 45.2848 63.379 44.7916C66.507 43.554 68.1943 44.7359 68.6639 47.9474Z" fill="#D8AE9E"/>
<path d="M63.6138 44.923L63.5899 47.9475L62.5552 47.9196C62.5555 47.2852 62.3663 46.6651 62.0117 46.139C61.6572 45.6129 61.1536 45.2047 60.5654 44.9668L61.5285 42.9133C62.3363 43.4904 64.1789 42.981 63.6138 44.923Z" fill="#DBB7A4"/>
<path d="M71.6367 46.8928L70.6975 45.9258C68.8988 45.6989 66.8652 45.9258 66.1211 43.6137C65.9792 43.1922 65.8884 42.7554 65.8504 42.3123C65.7311 41.4647 65.5918 40.6131 65.54 39.7495C65.5997 39.467 65.6594 39.1804 65.7231 38.8979L68.6083 37.704C73.5549 36.3351 73.9369 39.6938 74.2274 43.1361C74.2546 43.9997 74.0859 44.8582 73.7339 45.6472C73.5286 46.0242 73.2255 46.3388 72.8564 46.558C72.4873 46.7772 72.066 46.8929 71.6367 46.8928Z" fill="#A67E70"/>
<path d="M66.6344 42.9133C67.9874 43.9214 69.3431 44.9256 70.7015 45.9258L68.664 47.9474C67.1677 46.6302 65.7191 45.2254 63.6139 44.9229L61.5645 42.9093L62.5912 41.9383C64.386 40.4181 65.5042 41.6916 66.6344 42.9133Z" fill="#CDA998"/>
<path d="M65.54 39.7495L67.7208 41.2737L66.6184 41.8985C65.3291 41.7154 63.4985 42.2964 63.7691 39.9087L65.54 39.7495Z" fill="#99786C"/>
<path d="M63.7691 39.8928L66.6184 41.8826C66.6184 42.2209 66.6423 42.5591 66.6184 42.8974L62.5752 41.9224C62.6588 41.0668 62.9373 40.3226 63.7691 39.8928Z" fill="#B69689"/>
<path d="M72.9221 43.928C72.9221 40.8718 72.0904 38.3567 68.6083 37.716C67.5259 35.575 65.5202 35.7779 63.606 35.7262C63.2996 32.9803 65.8385 33.5613 67.1398 32.6938C68.1073 32.4073 69.1438 32.4606 70.0767 32.845C71.9153 35.0895 75.2263 33.621 77.1683 35.6307C77.8568 37.127 77.2638 38.5716 76.9852 40.0082C76.2848 41.3533 76.4082 43.0844 75.0751 44.139C74.7417 44.3414 74.3516 44.4303 73.9634 44.3923C73.5752 44.3543 73.2099 44.1914 72.9221 43.928Z" fill="#CC9F91"/>
<path d="M68.6919 33.6806L67.6492 33.7602C65.946 34.3412 64.2507 34.7909 62.627 33.5453C62.2901 32.2586 61.9531 30.9758 61.6162 29.697L63.606 29.6692C64.975 30.8193 66.714 30.3457 68.2302 30.7636C70.0489 31.265 70.7533 32.3554 68.6919 33.6806Z" fill="#E8BCB5"/>
<path d="M62.627 33.5454L67.6491 33.7603L63.6059 35.7501C62.1216 35.5232 61.3296 35.0019 62.627 33.5454Z" fill="#BB948B"/>
<path d="M68.5723 96.9317L68.7036 91.7583C68.9901 91.7583 69.2766 91.8021 69.5632 91.8379L70.1959 92.1403C70.6925 92.6198 71.0183 93.2489 71.1232 93.9311C71.2187 95.6782 71.5848 97.3297 72.8344 98.6628C74.1357 99.7612 76.0538 100.29 76.2608 102.392C76.2143 102.839 76.008 103.254 75.6797 103.562C75.1102 103.931 74.4229 104.073 73.7536 103.96L71.7639 102.977L68.6917 99.9124L68.5723 96.9317Z" fill="#977B79"/>
<path d="M74.7887 102.965L75.8393 102.929C76.2373 101.874 76.2015 100.402 77.9963 100.692C79.3971 101.584 79.5881 103.08 79.8985 104.505C79.8848 105.001 79.7767 105.49 79.5801 105.945C79.4015 106.271 79.1425 106.546 78.8277 106.744C78.5128 106.942 78.1527 107.056 77.7814 107.075C77.455 107.075 77.1327 107.056 76.8064 107.036C75.7399 105.882 74.156 104.966 74.7887 102.965Z" fill="#A07F77"/>
<path d="M74.7884 102.965C75.4888 104.302 76.7782 105.352 76.8061 107.024C74.6332 107.143 73.6821 106.045 73.7538 103.94L74.7884 102.965Z" fill="#AC9694"/>
<path d="M77.7812 107.075L78.8955 106.001C80.5669 105.945 80.4873 106.849 79.9939 107.991L78.8398 109.101L77.7812 107.075Z" fill="#986F68"/>
<path d="M70.7291 26.613C72.7866 26.3702 74.9753 27.0706 76.8895 25.7693L79.8542 25.6499C84.2318 28.0376 84.566 30.0274 81.1954 33.414C80.7162 33.545 80.2183 33.5934 79.7229 33.5573C78.2386 33.3702 76.977 32.5226 75.3454 32.5226C71.5131 32.5266 69.79 30.5209 70.7291 26.613Z" fill="#D9ACA1"/>
<path d="M80.9051 32.6979C83.0461 29.9758 81.2593 27.8388 79.8545 25.6501C84.431 25.0133 85.788 28.2129 86.962 31.6194C85.7442 33.2112 84.2957 34.2976 82.1268 33.7286C81.622 33.521 81.1948 33.1605 80.9051 32.6979Z" fill="#C49788"/>
<path d="M82.0391 32.7454L86.9618 31.6272L89.059 31.7307C89.6639 34.9541 87.0692 33.2548 85.9191 33.7682C84.2477 34.8546 82.6917 35.4993 82.0391 32.7454Z" fill="#9A7566"/>
<path d="M70.7294 26.613C71.963 28.7978 72.2734 32.1605 76.4082 30.3458C77.0926 30.0434 78.7163 31.8819 79.9062 32.7336C80.1529 33.6887 79.6475 34.2816 78.9272 34.7671C75.7635 35.2566 72.5241 36.4027 69.7106 33.7364L68.6918 33.6847C69.1853 32.4232 68.7754 31.7188 67.4064 31.6949C65.7669 31.6949 64.4019 31.2174 63.606 29.6574C66.2364 29.8802 68.3814 29.14 69.7225 26.6767C70.0562 26.6316 70.3927 26.6103 70.7294 26.613Z" fill="#E3B3AE"/>
<path d="M67.6333 76.4888C68.7834 76.4649 69.9056 76.5206 70.7334 77.4956C71.3067 78.0847 71.6679 78.8476 71.7601 79.6645C71.6686 81.1568 71.0915 82.3188 69.6032 82.8481L67.6572 83.644C68.2859 81.2603 69.257 78.8686 67.6333 76.4888Z" fill="#C8A99D"/>
<path d="M69.603 82.8679L70.7332 79.5529C74.0283 78.4546 74.279 81.2721 75.3017 83.1027C74.9993 85.2516 73.4075 86.5211 72.0186 87.9338C71.5498 88.0914 71.039 88.0687 70.586 87.8702C70.3856 87.5608 70.2789 87.2001 70.2789 86.8315C70.2789 86.4629 70.3856 86.1022 70.586 85.7928L69.603 82.8679Z" fill="#D1AC9E"/>
<path d="M70.5824 85.793L70.9405 87.6554C71.2842 88.0614 71.5536 88.5248 71.7364 89.0244C71.7364 90.3774 71.8678 91.81 69.8302 91.6787L69.5835 91.8339C70.0451 89.8441 68.9308 87.5758 70.5824 85.793Z" fill="#37271A"/>
<path d="M79.9939 107.979L78.8955 105.989C78.8955 105.655 78.8955 105.32 78.8955 104.986C79.0947 104.728 79.3495 104.519 79.641 104.374C79.9325 104.228 80.2531 104.151 80.5789 104.146C81.4661 104.213 82.3137 104.541 83.0143 105.09C83.3493 105.373 83.6309 105.714 83.8461 106.096C83.9854 107.111 84.642 108.086 84.057 109.165C83.9734 109.499 83.8938 109.833 83.8103 110.168C82.0752 110.259 81.0087 109.165 79.9939 107.979Z" fill="#BC8478"/>
<path d="M84.0647 109.165L82.9385 106.017C83.6508 104.756 84.6178 104.274 85.9908 104.994C85.6485 106.321 85.305 107.647 84.9601 108.974L84.0647 109.165Z" fill="#C6967F"/>
<path d="M91.1124 96.856H92.1192C92.1192 97.8508 92.0914 98.8457 92.0755 99.8486C89.7076 99.5143 90.5513 98.1374 91.1124 96.856Z" fill="#AE7B5E"/>
<path d="M78.8597 91.782C81.5459 96.4819 83.667 90.5882 86.2776 91.4358C87.0416 93.1192 85.0121 95.3079 87.0178 96.852C87.4396 98.9572 85.4458 99.2994 84.4589 100.378C84.0301 100.544 83.5735 100.626 83.1138 100.621C81.5658 100.362 80.2883 99.2676 78.6726 99.184C77.2917 98.7861 76.2849 97.8071 75.2821 96.848C74.9578 96.4927 74.6894 96.0902 74.4862 95.6541C73.8733 93.8952 72.3452 92.2317 73.8733 90.226C74.2856 89.9294 74.7595 89.7296 75.2597 89.6414C75.7599 89.5532 76.2736 89.5789 76.7625 89.7167C77.2619 89.8478 77.7184 90.1075 78.0863 90.4698C78.4543 90.8322 78.7209 91.2846 78.8597 91.782Z" fill="#C69985"/>
<path d="M78.8556 83.6438L78.8795 82.5813C82.672 83.9503 87.3003 83.9304 89.0393 88.7098C85.7164 88.097 83.5873 90.6996 80.8693 91.7343C80.157 90.7473 78.9392 90.8428 77.9801 90.3693C77.6313 90.0879 77.3828 89.7012 77.2718 89.2669C77.2223 88.8187 77.2574 88.3651 77.3753 87.9298C78.207 86.6205 77.3753 84.7303 78.8556 83.6438Z" fill="#B98B76"/>
<path d="M83.9613 99.9124C84.0408 97.9544 86.1222 98.0022 87.0175 96.864H88.0204C87.6861 99.2358 87.3492 101.606 87.0096 103.975C86.6753 103.975 86.341 103.975 86.0028 103.975C81.8799 104.346 82.8669 102.149 83.9613 99.9124Z" fill="#D0A188"/>
<path d="M77.9405 89.7565C79.405 89.6968 80.6745 89.9236 80.8814 91.7463L78.8916 91.7901L76.9019 90.7952C76.905 90.5207 77.0154 90.2583 77.2095 90.0642C77.4036 89.87 77.666 89.7596 77.9405 89.7565Z" fill="#A77A67"/>
<path d="M83.9614 99.9124C84.0529 101.568 83.6112 103.494 86.0029 103.991C86.0029 104.328 86.0029 104.667 86.0029 105.006L82.9506 106.029C80.539 103.987 79.369 101.95 82.9506 99.9163L83.9614 99.9124Z" fill="#CB9E82"/>
<path d="M87.9769 36.7649L90.1378 36.8246C89.4334 38.6114 90.5357 38.7904 91.8848 38.8621C93.6915 38.9576 95.6415 38.3368 97.1935 39.8371C94.5511 39.2959 93.2498 40.9951 92.0718 42.9053C91.7919 43.2528 91.429 43.5243 91.0166 43.6947C90.6042 43.8651 90.1555 43.9289 89.712 43.8803C89.2673 43.8022 88.8384 43.6516 88.4425 43.4346C87.6877 42.9368 87.053 42.2776 86.584 41.5045C86.003 40.5415 84.8927 39.9724 84.5346 38.8302C84.4738 38.3628 84.5527 37.8879 84.7614 37.4653C85.6568 36.4226 86.7432 36.2396 87.9769 36.7649Z" fill="#996C5F"/>
<path d="M89.0514 42.9291L92.0718 42.9053C92.0957 43.2316 92.1156 43.5579 92.1276 43.8882L91.073 44.9269C89.3697 45.3089 88.7847 44.5488 89.0514 42.9291Z" fill="#AF8E7B"/>
<path d="M73.8213 75.5375C75.9305 73.6552 78.5132 74.7416 80.8651 74.4192C78.736 76.1822 76.1772 75.239 73.8213 75.5375Z" fill="#B3826E"/>
<path d="M91.0728 59.1855L92.0955 62.2339C93.6157 64.2873 93.1819 65.9627 91.0966 67.3118C90.6111 67.3476 90.0739 67.2561 89.6481 67.4352C84.9681 69.4249 83.9056 67.459 84.9403 63.1651C84.2797 61.828 84.8209 60.857 85.8954 60.061C86.3065 59.8959 86.7656 59.8959 87.1768 60.061C87.3947 60.251 87.5909 60.4646 87.7618 60.6978C88.0801 60.268 87.9249 59.7904 87.8891 59.301C88.1478 58.1071 88.311 56.8137 90.062 57.148C90.4082 57.8285 90.7425 58.5249 91.0728 59.1855Z" fill="#B3826E"/>
<path d="M86.0229 60.1804L84.9484 63.1691L79.9302 64.339C79.2377 64.9041 78.5652 64.8325 77.9046 64.2793L77.9285 64.2316C77.0729 62.3333 78.3264 61.3146 79.5641 60.2759C81.518 59.7665 83.3805 58.4135 85.5334 59.5994L86.0229 60.1804Z" fill="#8F5F52"/>
<path d="M91.1045 67.3118C91.984 65.72 92.1869 64.0088 92.1034 62.2339C94.4911 62.7274 94.0533 64.6216 94.0931 66.2851L91.1045 67.3118Z" fill="#BC8A73"/>
<path d="M77.8848 64.2795L79.9104 64.3392C80.5816 66.0133 81.2528 67.6874 81.924 69.3614C79.783 68.2989 78.8001 66.3171 77.8848 64.2795Z" fill="#B3826E"/>
<path d="M87.0254 60.1965H86.0226L85.8316 60.2761C85.3367 59.7033 84.9217 59.0661 84.5979 58.3819C83.9851 56.4796 83.0061 54.6053 84.1045 52.5638C84.3639 52.1685 84.7256 51.8508 85.1511 51.6445C85.5684 51.5472 86 51.527 86.4245 51.5848C87.1647 51.736 87.8612 51.7121 88.3148 50.956C88.5655 49.989 87.881 49.5592 87.2642 49.0817C86.927 48.7657 86.6564 48.3855 86.4683 47.9634C86.3569 47.4937 86.3569 47.0045 86.4683 46.5348C86.6086 46.1909 86.8317 45.8871 87.1177 45.6504C87.4038 45.4136 87.7439 45.2512 88.1079 45.1777C88.4794 45.1368 88.8553 45.1881 89.2023 45.3269C89.5493 45.4657 89.8568 45.6878 90.0977 45.9736C94.3996 49.7065 90.802 53.4393 90.0977 57.1721C89.1187 57.968 89.0869 59.0942 89.0709 60.2164C88.9429 60.3625 88.7848 60.4791 88.6075 60.5584C88.4302 60.6377 88.2378 60.6777 88.0436 60.6758C87.8494 60.674 87.6579 60.6301 87.4822 60.5474C87.3064 60.4647 87.1507 60.345 87.0254 60.1965Z" fill="#C3907F"/>
<path d="M90.0741 45.9536H88.0048C85.2191 45.5557 82.521 48.0508 79.6955 46.1645C79.4718 45.8059 79.3415 45.3969 79.3165 44.975C79.2914 44.553 79.3725 44.1315 79.5522 43.7489C79.8436 43.239 80.253 42.8064 80.7461 42.4874C83.5994 40.8359 86.3533 41.1065 89.0235 42.9212L89.0594 42.9451L91.0849 44.9348L90.0741 45.9536Z" fill="#C99888"/>
<path d="M87.977 36.7649L85.0719 37.8792C84.9212 38.0312 84.7232 38.1273 84.5106 38.1519C84.298 38.1765 84.0833 38.1281 83.9019 38.0145C83.0105 36.3351 82.0992 36.9281 81.1879 38.0145C80.8846 38.3613 80.5366 38.6664 80.1532 38.9218C79.0906 39.3477 78.1634 40.1157 77.0133 40.3187C76.7825 40.2908 76.5517 40.255 76.3248 40.2232L75.7876 39.7814L76.8462 35.778C77.1207 34.6995 78.1395 34.3573 78.8717 33.7325L79.9064 32.7257L80.9053 32.6938L82.0355 32.7416C83.0781 34.0389 84.5585 33.6768 85.9195 33.7643L87.977 36.7649Z" fill="#C0978B"/>
<path d="M76.8064 64.387C76.8064 65.9271 77.1606 67.3916 78.1634 68.5695C81.1083 72.0198 79.3931 73.15 75.8234 73.4126C76.691 70.0022 72.8308 68.3546 72.799 65.2784C71.6369 65.4297 71.426 64.8805 71.816 63.9214C72.2088 63.5311 72.6897 63.2409 73.2182 63.0754C73.7466 62.9099 74.3071 62.8738 74.8524 62.9703C75.2644 63.0423 75.6545 63.2073 75.9931 63.4528C76.3317 63.6983 76.6099 64.0178 76.8064 64.387Z" fill="#C9928C"/>
<path d="M71.8396 64.2556C72.158 64.5978 72.4764 64.9401 72.7987 65.2783L72.7629 66.3011C72.165 66.7135 71.4557 66.9344 70.7294 66.9344C70.003 66.9344 69.2937 66.7135 68.6958 66.3011C68.6958 65.1549 68.7515 64.0248 69.7464 63.2209C70.9522 62.5364 71.772 62.6319 71.8396 64.2556Z" fill="#E3ADA8"/>
<path d="M61.3216 59.4841L62.2767 60.5108C62.2767 60.8491 62.2528 61.1913 62.2448 61.5296C61.6482 61.9452 60.9385 62.168 60.2113 62.168C59.4841 62.168 58.7744 61.9452 58.1777 61.5296C58.1777 60.3874 58.2295 59.2573 59.2283 58.4494C60.4302 57.7649 61.2539 57.8604 61.3216 59.4841Z" fill="#E3ADA8"/>
<path d="M71.8398 64.2555L69.7466 63.2247C69.7227 62.9024 69.6948 62.5801 69.667 62.2617L70.7614 61.4419C70.7434 61.0739 70.8313 60.7085 71.0147 60.389C71.1981 60.0695 71.4692 59.8092 71.796 59.6392C74.1161 59.4641 76.7307 58.0911 78.2668 61.1952C78.2668 63.5153 76.1258 63.4197 74.8125 64.2634L71.8398 64.2555Z" fill="#BF948F"/>
<path d="M78.8557 83.644C78.6885 85.3671 81.4065 87.6514 77.8648 88.7139C75.6123 87.7429 74.7209 85.9561 74.8124 83.5882C73.6186 82.0919 73.0137 79.9669 70.7334 79.553V77.4956L71.7721 77.4717L78.8557 83.644Z" fill="#CCA593"/>
<path d="M74.8125 64.2636L77.8131 61.2311C78.1553 60.2044 78.8159 59.7229 79.9183 60.0094C80.0249 60.1104 80.1064 60.2351 80.1562 60.3733C80.206 60.5115 80.2226 60.6595 80.2048 60.8053C80.157 61.0918 80.1013 61.2351 80.0297 61.2351L77.9046 64.2277L76.8063 64.3829L74.8125 64.2636Z" fill="#A86F72"/>
<path d="M68.7156 51.0714C69.014 51.0316 69.3165 50.9957 69.615 50.9639C70.3652 50.9602 71.0986 51.1866 71.7162 51.6126C72.91 52.8582 74.8998 53.6461 74.1477 55.9901C72.2693 58.0077 70.1442 58.6842 67.6212 57.184C67.2909 57.184 66.9646 57.184 66.6343 57.1601L67.7008 54.1396C68.644 53.3118 68.7196 52.2055 68.7156 51.0714Z" fill="#D19D98"/>
<path d="M67.6216 57.1719C69.6711 56.4715 71.9633 56.5113 73.7819 55.1184C74.7689 54.8319 75.2345 55.4169 75.5807 56.1969C75.6796 56.5932 75.6953 57.0058 75.6268 57.4086C75.5583 57.8113 75.4071 58.1955 75.1827 58.5369C74.2197 59.7506 72.7671 59.6312 71.4579 59.8939C70.0889 60.2719 68.7916 60.2202 67.6693 59.2094L67.6216 57.1719Z" fill="#CEA097"/>
<path d="M67.6812 59.2095H71.7403C72.0467 59.4244 72.1661 59.6592 72.0945 59.9099C72.0228 60.1606 71.9393 60.3078 71.8477 60.3078L70.7772 61.442C69.2809 61.3107 67.9319 61.0281 67.6812 59.2095Z" fill="#9A7469"/>
<path d="M70.8688 52.1578C70.4708 51.7598 70.0371 51.3619 69.6152 50.9639C70.2918 49.6082 70.9656 48.2512 71.6368 46.8928L72.7113 45.8979C76.5993 46.081 76.3287 48.6001 75.7517 51.2982C74.4424 53.3516 72.767 53.3516 70.8688 52.1578Z" fill="#DFA6A3"/>
<path d="M74.8206 51.0672C74.8206 49.0775 74.936 47.0001 72.7114 45.8938C72.7791 45.2372 72.8507 44.5806 72.9184 43.9041H74.7768C75.3048 44.0727 75.7841 44.3668 76.1736 44.7612C76.5631 45.1555 76.8512 45.6384 77.0133 46.1684C77.3277 47.8239 77.4988 49.4595 76.3209 50.9001C76.1283 51.0965 75.8739 51.2204 75.6005 51.2509C75.3271 51.2813 75.0516 51.2165 74.8206 51.0672Z" fill="#D29F97"/>
<path d="M78.8714 33.7364L76.8458 35.7819C74.2193 35.965 71.2107 37.4772 69.7104 33.7324C72.6504 34.9095 75.9304 34.9109 78.8714 33.7364Z" fill="#D9ACA1"/>
<path d="M75.7955 45.9457L74.7808 43.9162C74.8484 42.4756 74.5698 40.9474 75.7876 39.7854L75.8314 39.8531C77.2162 41.222 77.4749 42.8536 76.9377 44.6643C76.6975 45.1986 76.2988 45.646 75.7955 45.9457Z" fill="#BE9285"/>
<path d="M71.7801 99.8844C69.8222 98.2449 69.4839 96.0959 69.854 93.7281C71.3981 93.1908 70.5823 90.9742 72.1781 90.4648C74.2355 91.8457 74.4703 94.2016 75.2941 96.2471C75.2065 98.5075 75.3617 101.007 71.7801 99.8844Z" fill="#765647"/>
<path d="M71.7798 99.8844C74.0919 99.566 73.8173 97.3096 74.7366 95.9486C74.7861 95.8553 74.8582 95.7759 74.9463 95.7176C75.0344 95.6593 75.1357 95.624 75.241 95.6149C75.3462 95.6058 75.4521 95.6232 75.5489 95.6655C75.6457 95.7078 75.7303 95.7737 75.7951 95.8571V95.8372C76.5234 97.5006 78.9032 98.5115 77.8048 100.903L75.815 102.929C75.1544 101.031 72.9179 101.186 71.7798 99.8844Z" fill="#926956"/>
<path d="M71.9272 90.6281C72.0028 91.5792 72.0426 92.5343 72.162 93.4815C72.2814 94.4286 72.8146 95.6145 71.4974 95.8175C71.0636 95.8811 70.407 94.4684 69.8538 93.7282C69.8538 93.0477 69.826 92.3632 69.8101 91.6787C70.7333 90.8589 70.7214 89.7407 70.7612 88.6423C72.4604 88.5349 72.3052 89.5178 71.9272 90.6281Z" fill="#41291C"/>
<path d="M77.8129 100.903C77.1443 99.2134 76.4744 97.5247 75.8032 95.8374L78.8715 97.863C83.1097 99.224 81.3826 102.284 80.901 104.99H78.9113C78.5451 103.627 78.179 102.264 77.8129 100.903Z" fill="#BA8F78"/>
<path d="M74.8126 83.5962C76.7785 84.7383 77.471 86.6405 77.8649 88.7219L77.8252 88.694C76.1736 90.0431 74.4903 90.051 72.7791 88.8054C72.3971 88.4385 72.064 88.0239 71.7882 87.5718C71.7086 85.4109 72.413 83.8549 74.8126 83.5962Z" fill="#DCB8A2"/>
<path d="M71.7881 87.5757C72.0676 87.6674 72.3579 87.7223 72.6516 87.7388C73.3481 88.6024 74.343 89.3307 73.8455 90.6956L75.7915 95.8691L74.7568 95.9327L71.9473 90.6121L70.7812 88.6223L70.9603 87.6354C71.223 87.6354 71.5055 87.6075 71.7881 87.5757Z" fill="#B98B76"/>
<path d="M80.9012 104.99C80.9012 102.42 81.3508 99.7254 78.8716 97.8629C80.5987 97.8032 82.103 98.1893 82.9466 99.9005C81.7329 101.934 81.7528 103.972 82.9466 106.013L80.9012 104.99Z" fill="#C6967F"/>
<path d="M73.8491 90.6839L72.6553 87.7271C74.265 88.4973 76.0498 88.8282 77.8287 88.6861C77.8645 89.0443 77.8963 89.3985 77.9322 89.7566L76.8935 90.7833L73.8491 90.6839Z" fill="#D1AC9E"/>
<path d="M89.0154 42.9054C86.2735 42.973 83.4679 42.5074 80.8732 43.8485C79.942 39.3119 83.7823 40.9315 85.7203 40.0879C86.1381 40.0742 86.5543 40.1442 86.9446 40.2939C87.3349 40.4436 87.6912 40.6698 87.9926 40.9594L89.0154 42.9054Z" fill="#AF8E7B"/>
<path d="M87.9929 40.9593L86.0031 40.9274C85.6791 41.1702 85.2863 41.3037 84.8814 41.3087C84.4766 41.3137 84.0806 41.19 83.7507 40.9553C83.4084 39.8371 83.1776 38.7785 84.9087 38.7427C86.3573 38.8899 87.4437 39.5465 87.9929 40.9593Z" fill="#7F6755"/>
<path d="M84.9008 38.7426L83.9815 40.8517C81.7609 40.8079 80.2248 40.1513 80.957 37.4691C82.0156 36.8443 83.0224 36.7806 83.9258 37.7556L85.0719 37.875C85.0122 38.1655 84.9565 38.456 84.9008 38.7426Z" fill="#AF8E7B"/>
<path d="M87.0257 60.1965H89.0433C88.713 62.0112 89.8711 65.4257 87.5669 65.1909C84.7613 64.8924 87.742 61.9077 87.0257 60.1965Z" fill="#C59985"/>
<path d="M80.0296 61.2392C79.9937 60.9009 79.9539 60.5626 79.9141 60.2244C78.768 59.5876 76.5474 60.6223 76.6071 58.1112C76.8686 57.669 77.2438 57.3049 77.6936 57.0566C79.1421 56.4637 80.6663 56.5632 82.1785 56.5711C83.7703 56.3165 85.1632 56.5433 85.9591 58.163C85.9193 58.8554 85.8755 59.5518 85.8357 60.2443L80.0296 61.2392Z" fill="#956356"/>
<path d="M85.9949 52.0581C85.6884 52.0303 85.378 52.0104 85.0716 51.9945C83.4798 51.9666 82.6043 51.0991 82.2461 49.6067C82.2154 49.0512 82.3452 48.4986 82.6202 48.0149C84.0449 46.4908 85.5133 46.7017 86.9977 47.9234L88.0284 47.9751C89.4292 48.9621 90.6589 50.0365 90.0182 52.0263C88.8243 52.8222 88.4781 57.0644 86.0665 53.0132C86.1638 52.9364 86.2337 52.8303 86.266 52.7106C86.2982 52.5909 86.2911 52.464 86.2456 52.3487C86.166 52.1576 86.0745 52.0581 85.9949 52.0581Z" fill="#D7A596"/>
<path d="M82.9944 49.9172L85.0717 51.9946C84.614 54.1634 85.6925 56.1094 85.9591 58.1748C85.5025 57.8958 84.9806 57.7416 84.4456 57.7277C83.9106 57.7137 83.3814 57.8404 82.9108 58.0952C81.5936 57.0446 80.5231 55.8667 80.6703 54.0042C81.0961 52.4442 81.3667 50.7927 82.9944 49.9172Z" fill="#A67164"/>
<path d="M79.9618 45.9816C82.64 45.4364 85.3143 43.8127 88.0084 45.9378L87.0135 46.9526C85.5132 47.9714 83.6627 47.1357 82.1107 47.8918C80.9407 47.7804 79.7747 47.6371 79.9618 45.9816Z" fill="#D4AB9D"/>
<path d="M85.9951 52.0582C86.1622 51.2185 85.1315 50.1839 86.3334 49.563C86.5323 49.4596 87.2288 49.9331 87.4277 50.2873C88.2833 51.7956 87.7103 52.6751 86.0787 53.0253C86.0389 52.7029 86.011 52.3845 85.9951 52.0582Z" fill="#E2B09F"/>
<path d="M90.0303 52.0382C89.3617 50.6905 88.6985 49.3401 88.0405 47.9871C90.3566 48.5163 91.9843 49.3918 90.0303 52.0382Z" fill="#C99888"/>
<path d="M81.8759 47.0797L87.0135 46.9524C87.0135 47.2787 87.0135 47.609 87.0135 47.9353C85.549 48.0746 83.9413 47.6926 82.831 49.1014C82.6399 49.2065 82.4195 49.2459 82.2038 49.2136C81.9881 49.1812 81.789 49.0789 81.6371 48.9223C81.4683 48.6318 81.4001 48.2936 81.4433 47.9604C81.4865 47.6272 81.6386 47.3176 81.8759 47.0797Z" fill="#B9877B"/>
<path d="M80.8691 37.8831L83.9811 40.8519L85.9948 40.9275C84.6775 42.587 81.4581 40.9275 80.8731 43.8525C80.5865 43.9082 80.3 43.9599 80.0135 44.0077L79.4484 44.0992C78.4853 44.326 77.8208 45.1617 76.8537 45.3766C76.6582 45.3976 76.4606 45.3658 76.2814 45.2846C76.1023 45.2035 75.9482 45.0758 75.835 44.915C75.835 43.2277 75.835 41.5404 75.835 39.853C76.1653 39.8212 76.4956 39.7973 76.8259 39.7774C78.0189 39.47 79.0972 38.823 79.9299 37.915L79.8861 37.7916C79.9438 37.7097 80.0221 37.6445 80.113 37.6026C80.204 37.5607 80.3044 37.5435 80.4041 37.5527C80.5038 37.562 80.5993 37.5975 80.681 37.6555C80.7626 37.7135 80.8275 37.792 80.8691 37.8831Z" fill="#A77C6E"/>
<path d="M81.876 47.0799C81.876 47.7246 81.9038 48.3693 81.9158 49.0139C81.8729 49.3757 81.7325 49.7189 81.5096 50.007C81.2867 50.2951 80.9896 50.5172 80.6503 50.6495C76.5712 51.0714 76.1892 48.8349 77.0886 45.6831C77.6656 44.6444 78.1949 43.5341 79.7151 43.8445L80.0136 44.0077C79.9937 44.6643 79.9777 45.3249 79.9578 45.9974L81.876 47.0799Z" fill="#AD766D"/>
<path d="M80.869 37.8831C80.546 37.8347 80.2205 37.8041 79.894 37.7915C80.1686 36.0724 81.4063 35.36 82.9105 35.0059C83.7383 34.8148 84.6576 34.9104 85.0117 35.8018C85.3898 36.7409 84.3273 37.127 83.9293 37.7915L80.869 37.8831Z" fill="#D7ACA3"/>
<path d="M79.93 37.915C79.93 40.247 78.9948 41.0668 76.814 39.7774C77.4945 38.5398 78.4933 37.8553 79.93 37.915Z" fill="#AF8E7B"/>
<path d="M76.8938 58.2306L79.9143 60.2204L77.8131 61.2272C76.0143 59.6712 73.6863 61.5814 71.8438 60.312L71.7363 59.2176L74.7966 58.1471C75.5209 57.5462 76.2173 57.6258 76.8938 58.2306Z" fill="#AF7F76"/>
<path d="M74.8205 51.0674C75.1548 51.0674 75.489 51.0435 75.8193 51.0396C76.2506 51.2923 76.6086 51.653 76.858 52.0862C77.1441 52.7877 77.2481 53.5502 77.1604 54.3028C77.0766 55.0609 76.7151 55.7612 76.1457 56.2687C75.9368 56.3934 75.6931 56.4468 75.4512 56.421C75.2093 56.3952 74.9824 56.2914 74.8046 56.1254L73.7818 55.1186C73.0177 53.9247 70.7892 54.1834 70.8688 52.1618C72.2298 51.9588 73.738 52.2772 74.8205 51.0674Z" fill="#B9807C"/>
<path d="M74.8045 56.1374L75.8511 56.0856C77.9165 55.425 78.6805 56.01 77.8409 58.151C77.5265 58.1709 77.2161 58.1988 76.9096 58.2425L74.8164 58.1629C74.8005 57.4745 74.8005 56.8019 74.8045 56.1374Z" fill="#CB9790"/>
<path d="M75.8349 52.0742C75.8349 51.728 75.8349 51.3818 75.8349 51.0396L75.811 45.9457C75.811 45.6035 75.8389 45.2613 75.8508 44.915C76.1413 44.915 76.4358 44.915 76.7263 44.915C77.4665 44.915 77.5979 45.5518 77.8764 46.0293C76.3164 49.3005 79.0703 49.2925 80.8929 50.0089C80.8651 54.8201 78.3381 53.4273 75.8349 52.0742Z" fill="#B27971"/>
<path d="M77.8247 58.1272C77.769 56.8617 77.0288 56.2528 75.835 56.0618V54.072C77.8685 52.6951 79.8981 52.7627 81.9197 54.0919C82.2513 55.4184 82.5803 56.7542 82.9066 58.0993L77.8247 58.1272Z" fill="#AD776C"/>
<path d="M81.9197 54.0918C79.8901 54.7644 77.8645 54.1993 75.835 54.0719C75.835 53.4034 75.835 52.7388 75.835 52.0821C77.6417 51.7121 80.1209 52.9935 80.8771 50.0327L81.9197 49.0139L82.8191 49.1015C82.9139 49.3645 82.9741 49.6387 82.9982 49.9173C82.6373 51.3101 82.2779 52.7016 81.9197 54.0918Z" fill="#9F675D"/>
<path d="M69.7583 42.5153C70.586 43.0446 70.6377 43.9081 69.8697 44.4573C69.467 44.7254 68.9908 44.8615 68.5073 44.8465C68.0237 44.8315 67.5569 44.6663 67.1716 44.3737C67.132 44.3934 67.0884 44.4036 67.0442 44.4036C67 44.4036 66.9564 44.3934 66.9169 44.3737C66.8369 44.3257 66.7763 44.251 66.7457 44.1628C66.6635 44.0517 66.6065 43.9241 66.5786 43.7887C66.5747 43.7225 66.5747 43.656 66.5786 43.5898C66.5786 43.4863 66.5786 43.3868 66.5786 43.2833C66.5911 43.2147 66.6154 43.1488 66.6502 43.0883C66.776 42.8564 66.9502 42.6543 67.161 42.4957C67.3718 42.3371 67.6143 42.2257 67.872 42.1691C67.9635 42.1691 68.055 42.1173 68.1465 42.0974C68.5236 42.0724 68.9024 42.0979 69.2728 42.173C69.5036 42.2288 69.7742 42.2725 69.7583 42.5153Z" fill="#6C717A"/>
<path d="M77.8605 46.0491L76.7104 44.9348C76.8736 42.2565 77.8406 41.7949 79.715 43.8444L77.8605 46.0491Z" fill="#895A4E"/>
<path d="M84.9603 42.2567C85.6567 42.7223 85.7005 43.4824 85.0558 43.9639C84.7212 44.1998 84.3189 44.3203 83.9097 44.3074C83.5005 44.2945 83.1066 44.1488 82.7875 43.8923C82.7548 43.9091 82.7187 43.9178 82.682 43.9178C82.6453 43.9178 82.6092 43.9091 82.5766 43.8923C82.5062 43.8501 82.4538 43.7836 82.4293 43.7053C82.3589 43.6084 82.3113 43.4968 82.29 43.3789C82.2861 43.3206 82.2861 43.2621 82.29 43.2038C82.29 43.1123 82.29 43.0248 82.29 42.9332C82.3013 42.8741 82.3201 42.8166 82.3457 42.7621C82.4505 42.5633 82.5967 42.3894 82.7746 42.2521C82.9524 42.1148 83.1576 42.0173 83.3764 41.9662C83.456 41.9662 83.5277 41.9184 83.6073 41.9025C83.9246 41.879 84.2436 41.9018 84.5544 41.9702C84.7454 42.002 84.9722 42.0418 84.9603 42.2567Z" fill="#6C717A"/>
<defs>
<filter id="filter0_d_41_5" x="0.851562" y="22.5002" width="151.487" height="107" filterUnits="userSpaceOnUse" color-interpolation-filters="sRGB">
<feFlood flood-opacity="0" result="BackgroundImageFix"/>
<feColorMatrix in="SourceAlpha" type="matrix" values="0 0 0 0 0 0 0 0 0 0 0 0 0 0 0 0 0 0 127 0" result="hardAlpha"/>
<feOffset dy="4"/>
<feGaussianBlur stdDeviation="2"/>
<feComposite in2="hardAlpha" operator="out"/>
<feColorMatrix type="matrix" values="0 0 0 0 0 0 0 0 0 0 0 0 0 0 0 0 0 0 0.25 0"/>
<feBlend mode="normal" in2="BackgroundImageFix" result="effect1_dropShadow_41_5"/>
<feBlend mode="normal" in="SourceGraphic" in2="effect1_dropShadow_41_5" result="shape"/>
</filter>
</defs>
</svg>
